G04 EAGLE Gerber RS-274X export*
G75*
%MOMM*%
%FSLAX34Y34*%
%LPD*%
%INBottom Copper*%
%IPPOS*%
%AMOC8*
5,1,8,0,0,1.08239X$1,22.5*%
G01*
%ADD10R,1.300000X1.500000*%
%ADD11R,1.500000X1.300000*%
%ADD12P,3.409096X8X202.500000*%
%ADD13C,3.149600*%
%ADD14C,1.320800*%
%ADD15P,1.429621X8X292.500000*%
%ADD16P,1.429621X8X112.500000*%
%ADD17C,1.676400*%
%ADD18R,1.200000X1.500000*%
%ADD19R,1.500000X1.200000*%
%ADD20C,2.540000*%
%ADD21C,5.842000*%
%ADD22C,1.676400*%
%ADD23P,1.429621X8X202.500000*%
%ADD24P,1.429621X8X22.500000*%
%ADD25P,1.649562X8X22.500000*%
%ADD26P,1.649562X8X202.500000*%
%ADD27R,2.500000X2.500000*%
%ADD28R,4.191000X2.667000*%
%ADD29C,2.095500*%
%ADD30C,1.524000*%
%ADD31P,2.749271X8X292.500000*%
%ADD32P,2.597736X8X202.500000*%
%ADD33P,2.597736X8X22.500000*%
%ADD34P,1.649562X8X112.500000*%
%ADD35C,0.756400*%
%ADD36C,2.000000*%
%ADD37C,1.000000*%
%ADD38C,1.500000*%
%ADD39C,1.300000*%
%ADD40C,2.000000*%

G36*
X880050Y-369D02*
X880050Y-369D01*
X880101Y-367D01*
X880133Y-349D01*
X880169Y-341D01*
X880208Y-308D01*
X880253Y-284D01*
X880274Y-254D01*
X880302Y-231D01*
X880323Y-184D01*
X880353Y-142D01*
X880361Y-100D01*
X880373Y-72D01*
X880372Y-42D01*
X880380Y0D01*
X880380Y236771D01*
X880369Y236820D01*
X880367Y236871D01*
X880349Y236903D01*
X880341Y236939D01*
X880308Y236979D01*
X880284Y237023D01*
X880254Y237045D01*
X880231Y237073D01*
X880184Y237094D01*
X880142Y237123D01*
X880100Y237131D01*
X880072Y237144D01*
X880042Y237143D01*
X880000Y237151D01*
X859607Y237151D01*
X859607Y252645D01*
X859596Y252695D01*
X859594Y252746D01*
X859576Y252778D01*
X859568Y252814D01*
X859535Y252854D01*
X859511Y252898D01*
X859481Y252919D01*
X859457Y252948D01*
X859411Y252969D01*
X859369Y252998D01*
X859327Y253006D01*
X859299Y253019D01*
X859269Y253018D01*
X859227Y253026D01*
X858845Y253026D01*
X858845Y253027D01*
X859227Y253027D01*
X859277Y253039D01*
X859328Y253041D01*
X859360Y253058D01*
X859396Y253067D01*
X859435Y253099D01*
X859480Y253124D01*
X859501Y253154D01*
X859529Y253177D01*
X859550Y253224D01*
X859580Y253265D01*
X859588Y253307D01*
X859600Y253335D01*
X859599Y253366D01*
X859607Y253408D01*
X859607Y268902D01*
X880000Y268902D01*
X880050Y268914D01*
X880101Y268916D01*
X880133Y268933D01*
X880169Y268942D01*
X880208Y268974D01*
X880253Y268999D01*
X880274Y269029D01*
X880302Y269052D01*
X880323Y269099D01*
X880353Y269140D01*
X880361Y269182D01*
X880373Y269210D01*
X880372Y269241D01*
X880380Y269282D01*
X880380Y306663D01*
X880369Y306712D01*
X880367Y306763D01*
X880349Y306795D01*
X880341Y306831D01*
X880308Y306871D01*
X880284Y306915D01*
X880254Y306937D01*
X880231Y306965D01*
X880184Y306986D01*
X880142Y307015D01*
X880100Y307023D01*
X880072Y307036D01*
X880042Y307035D01*
X880000Y307043D01*
X859607Y307043D01*
X859607Y322537D01*
X859596Y322587D01*
X859594Y322638D01*
X859576Y322670D01*
X859568Y322706D01*
X859535Y322746D01*
X859511Y322790D01*
X859481Y322811D01*
X859457Y322840D01*
X859411Y322861D01*
X859369Y322890D01*
X859327Y322898D01*
X859299Y322911D01*
X859269Y322910D01*
X859227Y322918D01*
X858845Y322918D01*
X858845Y322919D01*
X859227Y322919D01*
X859277Y322931D01*
X859328Y322933D01*
X859360Y322950D01*
X859396Y322959D01*
X859435Y322991D01*
X859480Y323016D01*
X859501Y323046D01*
X859529Y323069D01*
X859550Y323116D01*
X859580Y323157D01*
X859588Y323199D01*
X859600Y323227D01*
X859599Y323258D01*
X859607Y323300D01*
X859607Y338794D01*
X880000Y338794D01*
X880050Y338806D01*
X880101Y338808D01*
X880133Y338825D01*
X880169Y338834D01*
X880208Y338866D01*
X880253Y338891D01*
X880274Y338921D01*
X880302Y338944D01*
X880323Y338991D01*
X880353Y339032D01*
X880361Y339074D01*
X880373Y339102D01*
X880373Y339110D01*
X880373Y339111D01*
X880372Y339134D01*
X880380Y339174D01*
X880380Y910000D01*
X880369Y910050D01*
X880367Y910101D01*
X880349Y910133D01*
X880341Y910169D01*
X880308Y910208D01*
X880284Y910253D01*
X880254Y910274D01*
X880231Y910302D01*
X880184Y910323D01*
X880142Y910353D01*
X880100Y910361D01*
X880072Y910373D01*
X880042Y910372D01*
X880000Y910380D01*
X0Y910380D01*
X-50Y910369D01*
X-101Y910367D01*
X-133Y910349D01*
X-169Y910341D01*
X-208Y910308D01*
X-253Y910284D01*
X-274Y910254D01*
X-302Y910231D01*
X-323Y910184D01*
X-353Y910142D01*
X-361Y910100D01*
X-373Y910072D01*
X-372Y910042D01*
X-380Y910000D01*
X-380Y338860D01*
X-369Y338810D01*
X-367Y338759D01*
X-349Y338727D01*
X-341Y338691D01*
X-308Y338651D01*
X-284Y338607D01*
X-254Y338586D01*
X-231Y338557D01*
X-184Y338536D01*
X-142Y338507D01*
X-100Y338499D01*
X-72Y338486D01*
X-42Y338487D01*
X0Y338479D01*
X20393Y338479D01*
X20393Y322985D01*
X20404Y322935D01*
X20406Y322884D01*
X20424Y322852D01*
X20432Y322816D01*
X20465Y322777D01*
X20489Y322732D01*
X20519Y322711D01*
X20542Y322682D01*
X20589Y322661D01*
X20631Y322632D01*
X20673Y322624D01*
X20701Y322611D01*
X20731Y322613D01*
X20773Y322604D01*
X21155Y322604D01*
X21155Y322603D01*
X20773Y322603D01*
X20723Y322591D01*
X20672Y322589D01*
X20640Y322572D01*
X20604Y322563D01*
X20565Y322531D01*
X20520Y322506D01*
X20499Y322476D01*
X20471Y322453D01*
X20450Y322406D01*
X20420Y322365D01*
X20412Y322323D01*
X20400Y322295D01*
X20401Y322264D01*
X20393Y322222D01*
X20393Y306728D01*
X0Y306728D01*
X-50Y306716D01*
X-101Y306714D01*
X-133Y306697D01*
X-169Y306688D01*
X-208Y306656D01*
X-253Y306631D01*
X-274Y306602D01*
X-302Y306578D01*
X-323Y306531D01*
X-353Y306490D01*
X-361Y306448D01*
X-373Y306420D01*
X-372Y306389D01*
X-380Y306348D01*
X-380Y268968D01*
X-369Y268918D01*
X-367Y268867D01*
X-349Y268835D01*
X-341Y268799D01*
X-308Y268759D01*
X-284Y268715D01*
X-254Y268694D01*
X-231Y268665D01*
X-184Y268644D01*
X-142Y268615D01*
X-100Y268607D01*
X-72Y268594D01*
X-42Y268595D01*
X0Y268587D01*
X20393Y268587D01*
X20393Y253093D01*
X20404Y253043D01*
X20406Y252992D01*
X20424Y252960D01*
X20432Y252924D01*
X20465Y252885D01*
X20489Y252840D01*
X20519Y252819D01*
X20542Y252790D01*
X20589Y252769D01*
X20631Y252740D01*
X20673Y252732D01*
X20701Y252719D01*
X20731Y252721D01*
X20773Y252712D01*
X21155Y252712D01*
X21155Y252711D01*
X20773Y252711D01*
X20723Y252699D01*
X20672Y252697D01*
X20640Y252680D01*
X20604Y252671D01*
X20565Y252639D01*
X20520Y252614D01*
X20499Y252584D01*
X20471Y252561D01*
X20450Y252514D01*
X20420Y252473D01*
X20412Y252431D01*
X20400Y252403D01*
X20401Y252372D01*
X20393Y252330D01*
X20393Y236836D01*
X0Y236836D01*
X-50Y236824D01*
X-101Y236822D01*
X-133Y236805D01*
X-169Y236796D01*
X-208Y236764D01*
X-253Y236739D01*
X-274Y236710D01*
X-302Y236686D01*
X-323Y236639D01*
X-353Y236598D01*
X-361Y236556D01*
X-373Y236528D01*
X-372Y236497D01*
X-380Y236456D01*
X-380Y0D01*
X-369Y-50D01*
X-367Y-101D01*
X-349Y-133D01*
X-341Y-169D01*
X-308Y-208D01*
X-284Y-253D01*
X-254Y-274D01*
X-231Y-302D01*
X-184Y-323D01*
X-142Y-353D01*
X-100Y-361D01*
X-72Y-373D01*
X-42Y-372D01*
X0Y-380D01*
X880000Y-380D01*
X880050Y-369D01*
G37*
%LPC*%
G36*
X707389Y441984D02*
X707389Y441984D01*
X707389Y442366D01*
X707378Y442416D01*
X707376Y442467D01*
X707358Y442499D01*
X707350Y442535D01*
X707317Y442574D01*
X707293Y442619D01*
X707263Y442640D01*
X707239Y442668D01*
X707193Y442689D01*
X707151Y442719D01*
X707109Y442727D01*
X707081Y442739D01*
X707051Y442738D01*
X707009Y442746D01*
X697349Y442746D01*
X697349Y448819D01*
X697416Y449070D01*
X697417Y449083D01*
X697422Y449096D01*
X697419Y449169D01*
X697422Y449243D01*
X697416Y449255D01*
X697416Y449269D01*
X697380Y449333D01*
X697350Y449400D01*
X697339Y449409D01*
X697333Y449421D01*
X697273Y449463D01*
X697216Y449510D01*
X697202Y449513D01*
X697191Y449521D01*
X697049Y449548D01*
X582931Y449548D01*
X580585Y450520D01*
X578790Y452315D01*
X577818Y454661D01*
X577818Y633729D01*
X578790Y636075D01*
X580585Y637870D01*
X582931Y638842D01*
X664209Y638842D01*
X666555Y637870D01*
X668350Y636075D01*
X669322Y633729D01*
X669322Y624291D01*
X669333Y624241D01*
X669335Y624190D01*
X669353Y624158D01*
X669361Y624122D01*
X669394Y624083D01*
X669418Y624038D01*
X669448Y624017D01*
X669471Y623989D01*
X669518Y623968D01*
X669560Y623938D01*
X669602Y623930D01*
X669630Y623918D01*
X669660Y623919D01*
X669702Y623911D01*
X678439Y623911D01*
X678513Y623928D01*
X678588Y623941D01*
X678598Y623948D01*
X678608Y623950D01*
X678637Y623974D01*
X678708Y624022D01*
X679717Y625031D01*
X689343Y625031D01*
X690377Y623997D01*
X690442Y623957D01*
X690504Y623913D01*
X690516Y623911D01*
X690524Y623906D01*
X690561Y623902D01*
X690646Y623886D01*
X726707Y623886D01*
X729051Y621542D01*
X729051Y605228D01*
X727977Y604154D01*
X727950Y604110D01*
X727915Y604073D01*
X727905Y604038D01*
X727885Y604007D01*
X727881Y603956D01*
X727866Y603907D01*
X727872Y603871D01*
X727869Y603834D01*
X727887Y603787D01*
X727896Y603736D01*
X727920Y603701D01*
X727930Y603672D01*
X727953Y603651D01*
X727977Y603616D01*
X728096Y603497D01*
X728161Y603457D01*
X728222Y603413D01*
X728234Y603411D01*
X728243Y603406D01*
X728280Y603402D01*
X728365Y603386D01*
X733646Y603386D01*
X733720Y603403D01*
X733795Y603416D01*
X733805Y603423D01*
X733815Y603425D01*
X733843Y603449D01*
X733915Y603497D01*
X735382Y604965D01*
X744168Y604965D01*
X750380Y598753D01*
X750380Y589967D01*
X744168Y583755D01*
X735382Y583755D01*
X733865Y585273D01*
X733800Y585313D01*
X733738Y585357D01*
X733726Y585359D01*
X733718Y585364D01*
X733681Y585368D01*
X733596Y585384D01*
X728365Y585384D01*
X728291Y585367D01*
X728216Y585354D01*
X728206Y585347D01*
X728196Y585345D01*
X728167Y585321D01*
X728096Y585273D01*
X726707Y583884D01*
X708393Y583884D01*
X706049Y586228D01*
X706049Y602504D01*
X706038Y602554D01*
X706036Y602605D01*
X706018Y602637D01*
X706010Y602673D01*
X705977Y602712D01*
X705953Y602757D01*
X705923Y602778D01*
X705900Y602806D01*
X705853Y602827D01*
X705811Y602857D01*
X705769Y602865D01*
X705741Y602877D01*
X705711Y602876D01*
X705669Y602884D01*
X690596Y602884D01*
X690522Y602867D01*
X690447Y602854D01*
X690437Y602847D01*
X690427Y602845D01*
X690398Y602821D01*
X690327Y602773D01*
X689343Y601789D01*
X679717Y601789D01*
X678708Y602798D01*
X678643Y602838D01*
X678581Y602882D01*
X678569Y602884D01*
X678561Y602889D01*
X678524Y602893D01*
X678439Y602909D01*
X669702Y602909D01*
X669652Y602898D01*
X669601Y602896D01*
X669569Y602878D01*
X669533Y602870D01*
X669494Y602837D01*
X669449Y602813D01*
X669428Y602783D01*
X669400Y602760D01*
X669379Y602713D01*
X669349Y602671D01*
X669341Y602629D01*
X669329Y602601D01*
X669330Y602571D01*
X669322Y602529D01*
X669322Y495712D01*
X669333Y495662D01*
X669335Y495611D01*
X669353Y495579D01*
X669361Y495543D01*
X669394Y495504D01*
X669418Y495459D01*
X669448Y495438D01*
X669471Y495410D01*
X669518Y495389D01*
X669560Y495359D01*
X669602Y495351D01*
X669630Y495339D01*
X669660Y495340D01*
X669702Y495332D01*
X778395Y495332D01*
X778433Y495341D01*
X778471Y495339D01*
X778516Y495360D01*
X778564Y495371D01*
X778594Y495396D01*
X778629Y495412D01*
X778660Y495450D01*
X778698Y495481D01*
X778713Y495517D01*
X778738Y495546D01*
X778748Y495594D01*
X778769Y495640D01*
X778767Y495678D01*
X778776Y495716D01*
X778763Y495775D01*
X778762Y495813D01*
X778752Y495831D01*
X778747Y495858D01*
X777383Y499149D01*
X777383Y544474D01*
X778812Y547922D01*
X781451Y550561D01*
X784899Y551989D01*
X860386Y551989D01*
X863834Y550561D01*
X866473Y547922D01*
X867902Y544474D01*
X867902Y499149D01*
X866473Y495701D01*
X863834Y493062D01*
X860386Y491633D01*
X788685Y491633D01*
X788648Y491624D01*
X788609Y491626D01*
X788564Y491605D01*
X788516Y491594D01*
X788487Y491569D01*
X788452Y491553D01*
X788421Y491515D01*
X788383Y491484D01*
X788367Y491448D01*
X788343Y491419D01*
X788332Y491371D01*
X788312Y491325D01*
X788313Y491287D01*
X788305Y491249D01*
X788317Y491190D01*
X788318Y491152D01*
X788328Y491134D01*
X788334Y491107D01*
X788702Y490219D01*
X788702Y454661D01*
X787730Y452315D01*
X785935Y450520D01*
X783589Y449548D01*
X717731Y449548D01*
X717718Y449545D01*
X717704Y449547D01*
X717634Y449526D01*
X717562Y449509D01*
X717552Y449500D01*
X717539Y449496D01*
X717486Y449446D01*
X717429Y449399D01*
X717423Y449386D01*
X717413Y449377D01*
X717388Y449308D01*
X717358Y449240D01*
X717358Y449227D01*
X717354Y449214D01*
X717364Y449070D01*
X717431Y448819D01*
X717431Y442746D01*
X707771Y442746D01*
X707721Y442735D01*
X707670Y442733D01*
X707638Y442715D01*
X707602Y442707D01*
X707563Y442674D01*
X707518Y442650D01*
X707497Y442620D01*
X707469Y442596D01*
X707448Y442550D01*
X707418Y442508D01*
X707410Y442466D01*
X707398Y442438D01*
X707399Y442408D01*
X707391Y442366D01*
X707391Y441984D01*
X707389Y441984D01*
G37*
%LPD*%
%LPC*%
G36*
X582533Y649478D02*
X582533Y649478D01*
X579452Y650754D01*
X577094Y653112D01*
X575818Y656193D01*
X575818Y712651D01*
X575801Y712725D01*
X575788Y712799D01*
X575781Y712810D01*
X575779Y712819D01*
X575755Y712848D01*
X575707Y712920D01*
X512324Y776302D01*
X511048Y779383D01*
X511048Y881777D01*
X512324Y884858D01*
X514682Y887216D01*
X517763Y888492D01*
X636667Y888492D01*
X639748Y887216D01*
X642106Y884858D01*
X643382Y881777D01*
X643382Y782581D01*
X643393Y782531D01*
X643395Y782480D01*
X643413Y782448D01*
X643421Y782412D01*
X643454Y782373D01*
X643478Y782328D01*
X643508Y782307D01*
X643531Y782279D01*
X643578Y782258D01*
X643620Y782228D01*
X643662Y782220D01*
X643690Y782208D01*
X643720Y782209D01*
X643762Y782201D01*
X649454Y782201D01*
X649454Y772541D01*
X649465Y772491D01*
X649467Y772440D01*
X649485Y772408D01*
X649493Y772372D01*
X649526Y772333D01*
X649550Y772288D01*
X649580Y772267D01*
X649603Y772239D01*
X649650Y772218D01*
X649692Y772188D01*
X649734Y772180D01*
X649762Y772168D01*
X649792Y772169D01*
X649834Y772161D01*
X650216Y772161D01*
X650216Y772159D01*
X649834Y772159D01*
X649784Y772148D01*
X649733Y772146D01*
X649701Y772128D01*
X649665Y772120D01*
X649626Y772087D01*
X649581Y772063D01*
X649560Y772033D01*
X649532Y772009D01*
X649511Y771963D01*
X649481Y771921D01*
X649473Y771879D01*
X649461Y771851D01*
X649462Y771821D01*
X649454Y771779D01*
X649454Y762119D01*
X643762Y762119D01*
X643712Y762108D01*
X643661Y762106D01*
X643629Y762088D01*
X643593Y762080D01*
X643554Y762047D01*
X643509Y762023D01*
X643488Y761993D01*
X643460Y761970D01*
X643439Y761923D01*
X643409Y761881D01*
X643401Y761839D01*
X643389Y761811D01*
X643390Y761781D01*
X643382Y761739D01*
X643382Y744039D01*
X643399Y743965D01*
X643412Y743891D01*
X643419Y743880D01*
X643421Y743871D01*
X643445Y743842D01*
X643493Y743770D01*
X670046Y717218D01*
X671322Y714137D01*
X671322Y656193D01*
X670046Y653112D01*
X667688Y650754D01*
X664607Y649478D01*
X582533Y649478D01*
G37*
%LPD*%
%LPC*%
G36*
X614732Y7810D02*
X614732Y7810D01*
X613240Y9303D01*
X613175Y9343D01*
X613113Y9387D01*
X613101Y9389D01*
X613093Y9394D01*
X613056Y9398D01*
X612971Y9414D01*
X365875Y9414D01*
X362566Y10785D01*
X359981Y13370D01*
X321503Y51848D01*
X321439Y51888D01*
X321377Y51932D01*
X321364Y51934D01*
X321356Y51939D01*
X321319Y51943D01*
X321234Y51959D01*
X240780Y51959D01*
X237471Y53330D01*
X224780Y66021D01*
X223409Y69330D01*
X223409Y87749D01*
X223398Y87799D01*
X223396Y87850D01*
X223378Y87882D01*
X223370Y87918D01*
X223337Y87957D01*
X223313Y88002D01*
X223283Y88023D01*
X223260Y88051D01*
X223213Y88072D01*
X223171Y88102D01*
X223129Y88110D01*
X223101Y88122D01*
X223071Y88121D01*
X223029Y88129D01*
X208615Y88129D01*
X208541Y88112D01*
X208466Y88099D01*
X208456Y88092D01*
X208446Y88090D01*
X208417Y88066D01*
X208346Y88018D01*
X207194Y86866D01*
X207167Y86823D01*
X207133Y86786D01*
X207122Y86750D01*
X207103Y86719D01*
X207098Y86669D01*
X207084Y86620D01*
X207090Y86583D01*
X207086Y86547D01*
X207105Y86499D01*
X207113Y86449D01*
X207137Y86413D01*
X207148Y86385D01*
X207170Y86364D01*
X207194Y86329D01*
X207333Y86190D01*
X207668Y85611D01*
X207841Y84965D01*
X207841Y78891D01*
X198181Y78891D01*
X198131Y78880D01*
X198080Y78878D01*
X198048Y78860D01*
X198012Y78852D01*
X197973Y78819D01*
X197928Y78795D01*
X197907Y78765D01*
X197879Y78741D01*
X197858Y78695D01*
X197828Y78653D01*
X197820Y78611D01*
X197808Y78583D01*
X197809Y78553D01*
X197801Y78511D01*
X197801Y78129D01*
X197799Y78129D01*
X197799Y78511D01*
X197787Y78561D01*
X197786Y78612D01*
X197768Y78644D01*
X197760Y78680D01*
X197727Y78719D01*
X197703Y78764D01*
X197673Y78785D01*
X197649Y78813D01*
X197603Y78834D01*
X197561Y78864D01*
X197519Y78872D01*
X197491Y78884D01*
X197461Y78883D01*
X197419Y78891D01*
X187759Y78891D01*
X187759Y84965D01*
X187932Y85611D01*
X188267Y86190D01*
X188406Y86329D01*
X188432Y86372D01*
X188467Y86410D01*
X188478Y86445D01*
X188497Y86476D01*
X188502Y86527D01*
X188516Y86576D01*
X188510Y86612D01*
X188514Y86648D01*
X188495Y86696D01*
X188487Y86746D01*
X188463Y86782D01*
X188452Y86810D01*
X188429Y86831D01*
X188406Y86866D01*
X187254Y88018D01*
X187190Y88058D01*
X187128Y88102D01*
X187115Y88104D01*
X187107Y88109D01*
X187070Y88113D01*
X186985Y88129D01*
X176867Y88129D01*
X176793Y88112D01*
X176718Y88099D01*
X176708Y88092D01*
X176698Y88090D01*
X176670Y88066D01*
X176598Y88018D01*
X175447Y86866D01*
X175420Y86823D01*
X175385Y86786D01*
X175375Y86750D01*
X175356Y86719D01*
X175351Y86669D01*
X175336Y86620D01*
X175342Y86583D01*
X175339Y86547D01*
X175357Y86499D01*
X175366Y86449D01*
X175390Y86413D01*
X175401Y86385D01*
X175423Y86364D01*
X175447Y86329D01*
X175586Y86190D01*
X175920Y85611D01*
X176093Y84965D01*
X176093Y78891D01*
X166434Y78891D01*
X166384Y78880D01*
X166333Y78878D01*
X166301Y78860D01*
X166265Y78852D01*
X166225Y78819D01*
X166181Y78795D01*
X166160Y78765D01*
X166131Y78741D01*
X166110Y78695D01*
X166081Y78653D01*
X166073Y78611D01*
X166060Y78583D01*
X166061Y78553D01*
X166053Y78511D01*
X166053Y78129D01*
X166052Y78129D01*
X166052Y78511D01*
X166040Y78561D01*
X166038Y78612D01*
X166021Y78644D01*
X166012Y78680D01*
X165980Y78719D01*
X165955Y78764D01*
X165925Y78785D01*
X165902Y78813D01*
X165855Y78834D01*
X165814Y78864D01*
X165772Y78872D01*
X165744Y78884D01*
X165713Y78883D01*
X165671Y78891D01*
X156012Y78891D01*
X156012Y84965D01*
X156185Y85611D01*
X156519Y86190D01*
X156658Y86329D01*
X156685Y86372D01*
X156720Y86410D01*
X156730Y86445D01*
X156749Y86476D01*
X156754Y86527D01*
X156769Y86576D01*
X156763Y86612D01*
X156766Y86648D01*
X156748Y86696D01*
X156739Y86746D01*
X156715Y86782D01*
X156704Y86810D01*
X156682Y86831D01*
X156658Y86867D01*
X154552Y88973D01*
X154552Y105287D01*
X156940Y107676D01*
X156980Y107740D01*
X157024Y107802D01*
X157026Y107815D01*
X157032Y107823D01*
X157035Y107860D01*
X157052Y107945D01*
X157052Y119650D01*
X157034Y119724D01*
X157021Y119799D01*
X157015Y119809D01*
X157012Y119819D01*
X156989Y119848D01*
X156940Y119919D01*
X156052Y120808D01*
X156052Y139122D01*
X158395Y141466D01*
X173710Y141466D01*
X176053Y139122D01*
X176053Y120808D01*
X175165Y119919D01*
X175125Y119855D01*
X175081Y119793D01*
X175079Y119781D01*
X175073Y119772D01*
X175070Y119735D01*
X175053Y119650D01*
X175053Y107945D01*
X175071Y107871D01*
X175084Y107796D01*
X175090Y107786D01*
X175093Y107776D01*
X175116Y107747D01*
X175165Y107676D01*
X176598Y106242D01*
X176663Y106202D01*
X176725Y106158D01*
X176737Y106156D01*
X176746Y106151D01*
X176783Y106147D01*
X176867Y106131D01*
X186985Y106131D01*
X187059Y106148D01*
X187134Y106161D01*
X187144Y106168D01*
X187154Y106170D01*
X187183Y106194D01*
X187254Y106242D01*
X188643Y107631D01*
X206957Y107631D01*
X208346Y106242D01*
X208410Y106202D01*
X208472Y106158D01*
X208484Y106156D01*
X208493Y106151D01*
X208530Y106147D01*
X208615Y106131D01*
X223029Y106131D01*
X223079Y106142D01*
X223130Y106144D01*
X223162Y106162D01*
X223198Y106170D01*
X223237Y106203D01*
X223282Y106227D01*
X223303Y106257D01*
X223331Y106280D01*
X223352Y106327D01*
X223382Y106369D01*
X223390Y106411D01*
X223402Y106439D01*
X223401Y106469D01*
X223409Y106511D01*
X223409Y106744D01*
X223398Y106794D01*
X223396Y106845D01*
X223378Y106877D01*
X223370Y106913D01*
X223337Y106952D01*
X223313Y106997D01*
X223283Y107018D01*
X223260Y107046D01*
X223213Y107067D01*
X223171Y107097D01*
X223129Y107105D01*
X223101Y107117D01*
X223071Y107116D01*
X223029Y107124D01*
X222478Y107124D01*
X218207Y108893D01*
X214938Y112162D01*
X213169Y116433D01*
X213169Y119652D01*
X213160Y119690D01*
X213162Y119728D01*
X213141Y119773D01*
X213130Y119821D01*
X213105Y119851D01*
X213089Y119886D01*
X213051Y119917D01*
X213020Y119955D01*
X212984Y119970D01*
X212955Y119995D01*
X212907Y120005D01*
X212861Y120025D01*
X212823Y120024D01*
X212785Y120032D01*
X212726Y120020D01*
X212688Y120019D01*
X212670Y120009D01*
X212644Y120004D01*
X208838Y118427D01*
X203912Y118427D01*
X199361Y120312D01*
X195877Y123796D01*
X193992Y128347D01*
X193992Y133273D01*
X195877Y137824D01*
X197263Y139210D01*
X197303Y139274D01*
X197347Y139336D01*
X197349Y139348D01*
X197354Y139357D01*
X197358Y139394D01*
X197374Y139479D01*
X197374Y140855D01*
X198745Y144164D01*
X206356Y151775D01*
X209665Y153146D01*
X217199Y153146D01*
X217273Y153163D01*
X217348Y153176D01*
X217358Y153183D01*
X217368Y153185D01*
X217397Y153209D01*
X217468Y153257D01*
X218207Y153997D01*
X222478Y155766D01*
X242342Y155766D01*
X246613Y153997D01*
X247352Y153257D01*
X247417Y153217D01*
X247479Y153173D01*
X247491Y153171D01*
X247499Y153166D01*
X247536Y153162D01*
X247621Y153146D01*
X642129Y153146D01*
X642179Y153157D01*
X642230Y153159D01*
X642262Y153177D01*
X642298Y153185D01*
X642337Y153218D01*
X642382Y153242D01*
X642403Y153272D01*
X642431Y153295D01*
X642452Y153342D01*
X642482Y153384D01*
X642490Y153426D01*
X642502Y153454D01*
X642501Y153484D01*
X642509Y153526D01*
X642509Y335204D01*
X642492Y335278D01*
X642479Y335353D01*
X642472Y335363D01*
X642470Y335373D01*
X642446Y335402D01*
X642398Y335473D01*
X638663Y339208D01*
X638599Y339248D01*
X638536Y339292D01*
X638524Y339294D01*
X638516Y339299D01*
X638479Y339303D01*
X638394Y339319D01*
X629445Y339319D01*
X629371Y339302D01*
X629296Y339289D01*
X629286Y339282D01*
X629276Y339280D01*
X629248Y339256D01*
X629176Y339208D01*
X622288Y332319D01*
X609032Y332319D01*
X599659Y341692D01*
X599659Y354948D01*
X609032Y364321D01*
X622288Y364321D01*
X629176Y357432D01*
X629241Y357392D01*
X629303Y357348D01*
X629315Y357346D01*
X629324Y357341D01*
X629361Y357337D01*
X629445Y357321D01*
X644070Y357321D01*
X647379Y355950D01*
X659140Y344189D01*
X660511Y340880D01*
X660511Y149936D01*
X660528Y149862D01*
X660541Y149787D01*
X660548Y149777D01*
X660550Y149767D01*
X660574Y149738D01*
X660622Y149667D01*
X677987Y132302D01*
X678051Y132262D01*
X678114Y132218D01*
X678126Y132216D01*
X678134Y132211D01*
X678171Y132207D01*
X678256Y132191D01*
X736161Y132191D01*
X736235Y132208D01*
X736310Y132221D01*
X736320Y132228D01*
X736330Y132230D01*
X736358Y132254D01*
X736430Y132302D01*
X737922Y133795D01*
X746708Y133795D01*
X752920Y127583D01*
X752920Y118797D01*
X746708Y112585D01*
X737922Y112585D01*
X736430Y114078D01*
X736365Y114118D01*
X736303Y114162D01*
X736291Y114164D01*
X736283Y114169D01*
X736246Y114173D01*
X736161Y114189D01*
X672580Y114189D01*
X669271Y115560D01*
X649798Y135033D01*
X649734Y135073D01*
X649671Y135117D01*
X649659Y135119D01*
X649651Y135124D01*
X649614Y135128D01*
X649529Y135144D01*
X247621Y135144D01*
X247547Y135127D01*
X247472Y135114D01*
X247462Y135107D01*
X247452Y135105D01*
X247423Y135081D01*
X247352Y135033D01*
X246613Y134293D01*
X242342Y132524D01*
X222478Y132524D01*
X219210Y133878D01*
X219184Y133882D01*
X219161Y133895D01*
X219100Y133896D01*
X219039Y133906D01*
X219014Y133899D01*
X218988Y133900D01*
X218932Y133874D01*
X218873Y133856D01*
X218854Y133838D01*
X218831Y133827D01*
X218792Y133779D01*
X218747Y133737D01*
X218738Y133713D01*
X218722Y133692D01*
X218708Y133632D01*
X218687Y133574D01*
X218690Y133549D01*
X218684Y133523D01*
X218701Y133439D01*
X218705Y133402D01*
X218710Y133393D01*
X218713Y133381D01*
X218758Y133273D01*
X218758Y129394D01*
X218767Y129356D01*
X218765Y129318D01*
X218786Y129273D01*
X218797Y129225D01*
X218822Y129195D01*
X218838Y129160D01*
X218876Y129129D01*
X218907Y129091D01*
X218943Y129076D01*
X218972Y129051D01*
X219020Y129041D01*
X219066Y129020D01*
X219104Y129022D01*
X219142Y129013D01*
X219201Y129026D01*
X219239Y129027D01*
X219257Y129037D01*
X219283Y129042D01*
X222478Y130366D01*
X242342Y130366D01*
X246613Y128597D01*
X249882Y125328D01*
X251651Y121057D01*
X251651Y116433D01*
X249882Y112162D01*
X246613Y108893D01*
X242342Y107124D01*
X241791Y107124D01*
X241741Y107113D01*
X241690Y107111D01*
X241658Y107093D01*
X241622Y107085D01*
X241583Y107052D01*
X241538Y107028D01*
X241517Y106998D01*
X241489Y106975D01*
X241468Y106928D01*
X241438Y106886D01*
X241430Y106844D01*
X241418Y106816D01*
X241419Y106786D01*
X241411Y106744D01*
X241411Y103309D01*
X241428Y103235D01*
X241441Y103160D01*
X241448Y103150D01*
X241450Y103140D01*
X241474Y103112D01*
X241522Y103040D01*
X243015Y101548D01*
X243015Y92762D01*
X241522Y91270D01*
X241482Y91205D01*
X241438Y91143D01*
X241436Y91131D01*
X241431Y91123D01*
X241427Y91086D01*
X241411Y91001D01*
X241411Y75006D01*
X241428Y74932D01*
X241441Y74857D01*
X241448Y74847D01*
X241450Y74837D01*
X241474Y74808D01*
X241522Y74737D01*
X246187Y70072D01*
X246251Y70032D01*
X246314Y69988D01*
X246326Y69986D01*
X246334Y69981D01*
X246371Y69977D01*
X246456Y69961D01*
X326910Y69961D01*
X330219Y68590D01*
X332804Y66005D01*
X371282Y27527D01*
X371346Y27487D01*
X371409Y27443D01*
X371421Y27441D01*
X371429Y27436D01*
X371466Y27432D01*
X371551Y27416D01*
X612971Y27416D01*
X613045Y27433D01*
X613120Y27446D01*
X613130Y27453D01*
X613140Y27455D01*
X613168Y27479D01*
X613240Y27527D01*
X614732Y29020D01*
X623518Y29020D01*
X629730Y22808D01*
X629730Y14022D01*
X623518Y7810D01*
X614732Y7810D01*
G37*
%LPD*%
%LPC*%
G36*
X158395Y147464D02*
X158395Y147464D01*
X156052Y149808D01*
X156052Y168122D01*
X157096Y169167D01*
X157136Y169231D01*
X157180Y169293D01*
X157182Y169305D01*
X157188Y169314D01*
X157191Y169351D01*
X157208Y169436D01*
X157208Y180353D01*
X157190Y180427D01*
X157177Y180502D01*
X157170Y180512D01*
X157168Y180522D01*
X157144Y180550D01*
X157096Y180622D01*
X154708Y183010D01*
X154708Y198325D01*
X156940Y200558D01*
X156980Y200622D01*
X157024Y200684D01*
X157026Y200696D01*
X157032Y200705D01*
X157035Y200742D01*
X157052Y200826D01*
X157052Y212095D01*
X157034Y212169D01*
X157021Y212244D01*
X157015Y212254D01*
X157012Y212264D01*
X156989Y212293D01*
X156940Y212364D01*
X155507Y213798D01*
X155442Y213838D01*
X155380Y213882D01*
X155368Y213884D01*
X155359Y213889D01*
X155322Y213893D01*
X155238Y213909D01*
X149880Y213909D01*
X149806Y213892D01*
X149731Y213879D01*
X149721Y213872D01*
X149711Y213870D01*
X149682Y213846D01*
X149611Y213798D01*
X148222Y212409D01*
X129908Y212409D01*
X127564Y214753D01*
X127564Y231067D01*
X128638Y232141D01*
X128665Y232184D01*
X128700Y232222D01*
X128710Y232257D01*
X128730Y232288D01*
X128734Y232339D01*
X128749Y232388D01*
X128743Y232424D01*
X128746Y232461D01*
X128728Y232508D01*
X128719Y232559D01*
X128695Y232594D01*
X128685Y232623D01*
X128662Y232644D01*
X128638Y232679D01*
X127564Y233753D01*
X127564Y250067D01*
X129953Y252456D01*
X129993Y252520D01*
X130037Y252582D01*
X130039Y252595D01*
X130044Y252603D01*
X130048Y252640D01*
X130064Y252725D01*
X130064Y257815D01*
X130052Y257866D01*
X130051Y257910D01*
X130040Y257930D01*
X130034Y257964D01*
X130027Y257974D01*
X130025Y257984D01*
X130001Y258013D01*
X129969Y258060D01*
X129968Y258062D01*
X129967Y258063D01*
X129953Y258084D01*
X127564Y260473D01*
X127564Y276787D01*
X128638Y277861D01*
X128665Y277904D01*
X128700Y277942D01*
X128710Y277977D01*
X128730Y278008D01*
X128734Y278059D01*
X128749Y278108D01*
X128743Y278144D01*
X128746Y278181D01*
X128728Y278228D01*
X128719Y278279D01*
X128695Y278314D01*
X128685Y278343D01*
X128662Y278364D01*
X128638Y278399D01*
X128519Y278518D01*
X128455Y278558D01*
X128393Y278602D01*
X128380Y278604D01*
X128372Y278609D01*
X128335Y278613D01*
X128250Y278629D01*
X104552Y278629D01*
X104502Y278618D01*
X104451Y278616D01*
X104419Y278598D01*
X104383Y278590D01*
X104344Y278557D01*
X104299Y278533D01*
X104278Y278503D01*
X104250Y278480D01*
X104229Y278433D01*
X104199Y278391D01*
X104191Y278349D01*
X104179Y278321D01*
X104180Y278291D01*
X104172Y278249D01*
X104172Y274321D01*
X103200Y271975D01*
X101405Y270180D01*
X99059Y269208D01*
X72391Y269208D01*
X71757Y269471D01*
X71719Y269477D01*
X71683Y269493D01*
X71634Y269491D01*
X71586Y269499D01*
X71549Y269488D01*
X71510Y269486D01*
X71467Y269463D01*
X71420Y269448D01*
X71392Y269422D01*
X71358Y269404D01*
X71330Y269363D01*
X71294Y269329D01*
X71280Y269293D01*
X71258Y269262D01*
X71247Y269202D01*
X71234Y269167D01*
X71236Y269146D01*
X71231Y269120D01*
X71231Y231890D01*
X69860Y228581D01*
X67329Y226050D01*
X64020Y224679D01*
X60440Y224679D01*
X57131Y226050D01*
X54600Y228581D01*
X53229Y231890D01*
X53229Y528244D01*
X53212Y528318D01*
X53199Y528393D01*
X53192Y528403D01*
X53190Y528413D01*
X53166Y528442D01*
X53118Y528513D01*
X45710Y535921D01*
X44339Y539230D01*
X44339Y588530D01*
X45710Y591839D01*
X69628Y615757D01*
X69637Y615771D01*
X69641Y615774D01*
X69645Y615785D01*
X69668Y615821D01*
X69712Y615884D01*
X69714Y615896D01*
X69719Y615904D01*
X69723Y615941D01*
X69739Y616026D01*
X69739Y706149D01*
X69727Y706204D01*
X69726Y706225D01*
X69720Y706236D01*
X69709Y706298D01*
X69702Y706308D01*
X69700Y706318D01*
X69676Y706347D01*
X69628Y706418D01*
X67119Y708927D01*
X67119Y718553D01*
X69628Y721062D01*
X69646Y721091D01*
X69661Y721104D01*
X69678Y721141D01*
X69712Y721189D01*
X69714Y721201D01*
X69719Y721209D01*
X69722Y721239D01*
X69732Y721262D01*
X69731Y721290D01*
X69739Y721331D01*
X69739Y787823D01*
X71110Y791131D01*
X158784Y878805D01*
X161369Y881390D01*
X164677Y882761D01*
X331990Y882761D01*
X335299Y881390D01*
X337830Y878859D01*
X339201Y875550D01*
X339201Y871970D01*
X337830Y868661D01*
X335299Y866130D01*
X331990Y864759D01*
X260623Y864759D01*
X260610Y864756D01*
X260598Y864758D01*
X260526Y864737D01*
X260454Y864720D01*
X260444Y864712D01*
X260432Y864708D01*
X260378Y864657D01*
X260321Y864610D01*
X260315Y864598D01*
X260306Y864589D01*
X260280Y864519D01*
X260250Y864451D01*
X260250Y864438D01*
X260246Y864426D01*
X260253Y864353D01*
X260256Y864278D01*
X260262Y864267D01*
X260264Y864254D01*
X260304Y864191D01*
X260339Y864126D01*
X260350Y864119D01*
X260357Y864108D01*
X260477Y864028D01*
X262801Y863065D01*
X265784Y860082D01*
X267399Y856184D01*
X267399Y851966D01*
X265784Y848068D01*
X262801Y845085D01*
X258903Y843470D01*
X241477Y843470D01*
X237579Y845085D01*
X234596Y848068D01*
X232981Y851966D01*
X232981Y856184D01*
X234596Y860082D01*
X237579Y863065D01*
X239903Y864028D01*
X239913Y864035D01*
X239926Y864038D01*
X239983Y864085D01*
X240043Y864129D01*
X240049Y864140D01*
X240059Y864148D01*
X240090Y864216D01*
X240125Y864282D01*
X240125Y864295D01*
X240130Y864307D01*
X240127Y864381D01*
X240130Y864455D01*
X240124Y864467D01*
X240124Y864480D01*
X240088Y864545D01*
X240057Y864612D01*
X240047Y864621D01*
X240041Y864632D01*
X239980Y864674D01*
X239923Y864721D01*
X239910Y864724D01*
X239899Y864732D01*
X239757Y864759D01*
X170353Y864759D01*
X170279Y864742D01*
X170205Y864729D01*
X170194Y864722D01*
X170185Y864720D01*
X170156Y864696D01*
X170085Y864648D01*
X87852Y782415D01*
X87812Y782351D01*
X87768Y782289D01*
X87766Y782277D01*
X87761Y782268D01*
X87757Y782231D01*
X87741Y782147D01*
X87741Y721331D01*
X87753Y721281D01*
X87754Y721234D01*
X87766Y721212D01*
X87771Y721182D01*
X87778Y721172D01*
X87780Y721162D01*
X87804Y721133D01*
X87829Y721097D01*
X87837Y721081D01*
X87841Y721079D01*
X87852Y721062D01*
X90361Y718553D01*
X90361Y708927D01*
X87852Y706418D01*
X87812Y706353D01*
X87768Y706291D01*
X87766Y706279D01*
X87761Y706271D01*
X87757Y706234D01*
X87752Y706206D01*
X87748Y706197D01*
X87748Y706187D01*
X87741Y706149D01*
X87741Y610350D01*
X86370Y607041D01*
X62452Y583123D01*
X62412Y583059D01*
X62368Y582996D01*
X62366Y582984D01*
X62361Y582976D01*
X62357Y582939D01*
X62341Y582854D01*
X62341Y544906D01*
X62358Y544832D01*
X62361Y544814D01*
X62362Y544798D01*
X62365Y544792D01*
X62371Y544757D01*
X62378Y544747D01*
X62380Y544737D01*
X62404Y544708D01*
X62437Y544659D01*
X62445Y544645D01*
X62448Y544643D01*
X62452Y544637D01*
X69860Y537229D01*
X71231Y533920D01*
X71231Y306190D01*
X71240Y306153D01*
X71238Y306114D01*
X71259Y306070D01*
X71270Y306022D01*
X71295Y305992D01*
X71311Y305957D01*
X71349Y305926D01*
X71380Y305888D01*
X71416Y305872D01*
X71445Y305848D01*
X71494Y305837D01*
X71539Y305817D01*
X71577Y305819D01*
X71615Y305810D01*
X71674Y305822D01*
X71712Y305824D01*
X71730Y305834D01*
X71757Y305839D01*
X72391Y306102D01*
X99059Y306102D01*
X101405Y305130D01*
X103200Y303335D01*
X104172Y300989D01*
X104172Y297011D01*
X104183Y296961D01*
X104185Y296910D01*
X104203Y296878D01*
X104211Y296842D01*
X104244Y296803D01*
X104268Y296758D01*
X104298Y296737D01*
X104321Y296709D01*
X104368Y296688D01*
X104410Y296658D01*
X104452Y296650D01*
X104480Y296638D01*
X104510Y296639D01*
X104552Y296631D01*
X128250Y296631D01*
X128324Y296648D01*
X128399Y296661D01*
X128409Y296668D01*
X128419Y296670D01*
X128448Y296694D01*
X128519Y296742D01*
X129908Y298131D01*
X148222Y298131D01*
X150566Y295787D01*
X150566Y279473D01*
X149492Y278399D01*
X149465Y278356D01*
X149430Y278318D01*
X149420Y278283D01*
X149400Y278252D01*
X149396Y278201D01*
X149381Y278152D01*
X149387Y278116D01*
X149384Y278079D01*
X149402Y278032D01*
X149411Y277981D01*
X149435Y277946D01*
X149445Y277917D01*
X149468Y277896D01*
X149492Y277861D01*
X150566Y276787D01*
X150566Y260473D01*
X148177Y258084D01*
X148156Y258050D01*
X148144Y258040D01*
X148130Y258010D01*
X148093Y257958D01*
X148091Y257946D01*
X148086Y257937D01*
X148083Y257904D01*
X148073Y257882D01*
X148074Y257856D01*
X148066Y257815D01*
X148066Y252725D01*
X148083Y252651D01*
X148096Y252576D01*
X148103Y252566D01*
X148105Y252556D01*
X148129Y252527D01*
X148177Y252456D01*
X149611Y251022D01*
X149675Y250982D01*
X149737Y250938D01*
X149750Y250936D01*
X149758Y250931D01*
X149795Y250927D01*
X149880Y250911D01*
X155238Y250911D01*
X155312Y250928D01*
X155387Y250941D01*
X155397Y250948D01*
X155407Y250950D01*
X155435Y250974D01*
X155507Y251022D01*
X156895Y252411D01*
X175210Y252411D01*
X177553Y250067D01*
X177553Y233753D01*
X176479Y232679D01*
X176452Y232636D01*
X176418Y232598D01*
X176407Y232563D01*
X176388Y232532D01*
X176383Y232481D01*
X176369Y232432D01*
X176375Y232396D01*
X176371Y232359D01*
X176389Y232312D01*
X176398Y232261D01*
X176422Y232226D01*
X176433Y232197D01*
X176455Y232176D01*
X176479Y232141D01*
X177553Y231067D01*
X177553Y214753D01*
X175165Y212364D01*
X175125Y212300D01*
X175081Y212238D01*
X175079Y212225D01*
X175073Y212217D01*
X175070Y212180D01*
X175053Y212095D01*
X175053Y201049D01*
X175065Y200999D01*
X175067Y200948D01*
X175084Y200916D01*
X175093Y200880D01*
X175125Y200840D01*
X175150Y200796D01*
X175180Y200775D01*
X175203Y200746D01*
X175250Y200725D01*
X175291Y200696D01*
X175333Y200688D01*
X175356Y200677D01*
X177709Y198325D01*
X177709Y183010D01*
X175320Y180622D01*
X175280Y180557D01*
X175237Y180495D01*
X175234Y180483D01*
X175229Y180475D01*
X175225Y180438D01*
X175209Y180353D01*
X175209Y169124D01*
X175226Y169050D01*
X175239Y168975D01*
X175246Y168965D01*
X175249Y168955D01*
X175272Y168926D01*
X175320Y168855D01*
X176053Y168122D01*
X176053Y149808D01*
X173710Y147464D01*
X158395Y147464D01*
G37*
%LPD*%
G36*
X662990Y657491D02*
X662990Y657491D01*
X663041Y657493D01*
X663073Y657511D01*
X663109Y657519D01*
X663148Y657552D01*
X663193Y657576D01*
X663214Y657606D01*
X663242Y657629D01*
X663263Y657676D01*
X663293Y657718D01*
X663301Y657760D01*
X663313Y657788D01*
X663312Y657818D01*
X663320Y657860D01*
X663320Y712470D01*
X663303Y712544D01*
X663290Y712619D01*
X663283Y712629D01*
X663281Y712639D01*
X663257Y712668D01*
X663209Y712739D01*
X635380Y740568D01*
X635380Y880110D01*
X635369Y880160D01*
X635367Y880211D01*
X635349Y880243D01*
X635341Y880279D01*
X635308Y880318D01*
X635284Y880363D01*
X635254Y880384D01*
X635231Y880412D01*
X635184Y880433D01*
X635142Y880463D01*
X635100Y880471D01*
X635072Y880483D01*
X635042Y880482D01*
X635000Y880490D01*
X519430Y880490D01*
X519380Y880479D01*
X519329Y880477D01*
X519297Y880459D01*
X519261Y880451D01*
X519222Y880418D01*
X519177Y880394D01*
X519156Y880364D01*
X519128Y880341D01*
X519107Y880294D01*
X519077Y880252D01*
X519069Y880210D01*
X519057Y880182D01*
X519058Y880152D01*
X519050Y880110D01*
X519050Y781050D01*
X519062Y780998D01*
X519063Y780960D01*
X519073Y780943D01*
X519080Y780901D01*
X519087Y780891D01*
X519089Y780881D01*
X519113Y780852D01*
X519161Y780781D01*
X583820Y716123D01*
X583820Y657860D01*
X583831Y657810D01*
X583833Y657759D01*
X583851Y657727D01*
X583859Y657691D01*
X583892Y657652D01*
X583916Y657607D01*
X583946Y657586D01*
X583969Y657558D01*
X584016Y657537D01*
X584058Y657507D01*
X584100Y657499D01*
X584128Y657487D01*
X584158Y657488D01*
X584200Y657480D01*
X662940Y657480D01*
X662990Y657491D01*
G37*
G36*
X782370Y455561D02*
X782370Y455561D01*
X782421Y455563D01*
X782453Y455581D01*
X782489Y455589D01*
X782528Y455622D01*
X782573Y455646D01*
X782594Y455676D01*
X782622Y455699D01*
X782643Y455746D01*
X782673Y455788D01*
X782681Y455830D01*
X782693Y455858D01*
X782692Y455888D01*
X782700Y455930D01*
X782700Y488950D01*
X782689Y489000D01*
X782687Y489051D01*
X782669Y489083D01*
X782661Y489119D01*
X782628Y489158D01*
X782604Y489203D01*
X782574Y489224D01*
X782551Y489252D01*
X782504Y489273D01*
X782462Y489303D01*
X782420Y489311D01*
X782392Y489323D01*
X782362Y489322D01*
X782320Y489330D01*
X663320Y489330D01*
X663320Y632460D01*
X663309Y632510D01*
X663307Y632561D01*
X663289Y632593D01*
X663281Y632629D01*
X663248Y632668D01*
X663224Y632713D01*
X663194Y632734D01*
X663171Y632762D01*
X663124Y632783D01*
X663082Y632813D01*
X663040Y632821D01*
X663012Y632833D01*
X662982Y632832D01*
X662940Y632840D01*
X584200Y632840D01*
X584150Y632829D01*
X584099Y632827D01*
X584067Y632809D01*
X584031Y632801D01*
X583992Y632768D01*
X583947Y632744D01*
X583926Y632714D01*
X583898Y632691D01*
X583877Y632644D01*
X583847Y632602D01*
X583839Y632560D01*
X583827Y632532D01*
X583828Y632502D01*
X583820Y632460D01*
X583820Y455930D01*
X583831Y455880D01*
X583833Y455829D01*
X583851Y455797D01*
X583859Y455761D01*
X583892Y455722D01*
X583916Y455677D01*
X583946Y455656D01*
X583969Y455628D01*
X584016Y455607D01*
X584058Y455577D01*
X584100Y455569D01*
X584128Y455557D01*
X584158Y455558D01*
X584200Y455550D01*
X782320Y455550D01*
X782370Y455561D01*
G37*
%LPC*%
G36*
X711438Y638048D02*
X711438Y638048D01*
X708357Y639324D01*
X705999Y641682D01*
X704723Y644763D01*
X704723Y724297D01*
X705999Y727378D01*
X708357Y729736D01*
X711438Y731012D01*
X844630Y731012D01*
X847710Y729736D01*
X850068Y727378D01*
X851344Y724297D01*
X851344Y644763D01*
X850068Y641682D01*
X847710Y639324D01*
X844630Y638048D01*
X711438Y638048D01*
G37*
%LPD*%
%LPC*%
G36*
X668893Y795528D02*
X668893Y795528D01*
X665812Y796804D01*
X663454Y799162D01*
X662178Y802243D01*
X662178Y881777D01*
X663454Y884858D01*
X665812Y887216D01*
X668893Y888492D01*
X765572Y888492D01*
X768653Y887216D01*
X771011Y884858D01*
X772287Y881777D01*
X772287Y802243D01*
X771011Y799162D01*
X768653Y796804D01*
X765572Y795528D01*
X668893Y795528D01*
G37*
%LPD*%
G36*
X843012Y646061D02*
X843012Y646061D01*
X843063Y646063D01*
X843095Y646081D01*
X843131Y646089D01*
X843171Y646122D01*
X843215Y646146D01*
X843237Y646176D01*
X843265Y646199D01*
X843286Y646246D01*
X843315Y646288D01*
X843323Y646330D01*
X843336Y646358D01*
X843335Y646388D01*
X843343Y646430D01*
X843343Y722630D01*
X843331Y722680D01*
X843329Y722731D01*
X843312Y722763D01*
X843303Y722799D01*
X843271Y722838D01*
X843246Y722883D01*
X843216Y722904D01*
X843193Y722932D01*
X843146Y722953D01*
X843105Y722983D01*
X843063Y722991D01*
X843035Y723003D01*
X843004Y723002D01*
X842963Y723010D01*
X713105Y723010D01*
X713055Y722999D01*
X713004Y722997D01*
X712972Y722979D01*
X712936Y722971D01*
X712897Y722938D01*
X712852Y722914D01*
X712831Y722884D01*
X712803Y722861D01*
X712782Y722814D01*
X712752Y722772D01*
X712744Y722730D01*
X712732Y722702D01*
X712733Y722672D01*
X712725Y722630D01*
X712725Y646430D01*
X712736Y646380D01*
X712738Y646329D01*
X712756Y646297D01*
X712764Y646261D01*
X712797Y646222D01*
X712821Y646177D01*
X712851Y646156D01*
X712874Y646128D01*
X712921Y646107D01*
X712963Y646077D01*
X713005Y646069D01*
X713033Y646057D01*
X713063Y646058D01*
X713105Y646050D01*
X842963Y646050D01*
X843012Y646061D01*
G37*
%LPC*%
G36*
X143330Y26559D02*
X143330Y26559D01*
X140022Y27930D01*
X97145Y70807D01*
X95774Y74115D01*
X95774Y122141D01*
X95757Y122215D01*
X95744Y122290D01*
X95737Y122300D01*
X95735Y122310D01*
X95711Y122339D01*
X95663Y122410D01*
X94277Y123796D01*
X92392Y128347D01*
X92392Y133273D01*
X94277Y137824D01*
X96298Y139845D01*
X96338Y139909D01*
X96382Y139971D01*
X96384Y139983D01*
X96389Y139992D01*
X96393Y140029D01*
X96409Y140114D01*
X96409Y163224D01*
X96392Y163298D01*
X96379Y163373D01*
X96372Y163383D01*
X96370Y163393D01*
X96346Y163422D01*
X96298Y163493D01*
X95558Y164232D01*
X93789Y168503D01*
X93789Y188367D01*
X93908Y188653D01*
X93908Y188655D01*
X93909Y188656D01*
X93937Y188798D01*
X93937Y216400D01*
X93923Y216457D01*
X93923Y216463D01*
X93921Y216467D01*
X93919Y216474D01*
X93906Y216549D01*
X93900Y216559D01*
X93897Y216568D01*
X93874Y216597D01*
X93825Y216669D01*
X89437Y221057D01*
X89437Y234313D01*
X98810Y243686D01*
X112065Y243686D01*
X121438Y234313D01*
X121438Y221057D01*
X117050Y216669D01*
X117010Y216604D01*
X116966Y216542D01*
X116964Y216530D01*
X116958Y216521D01*
X116955Y216484D01*
X116938Y216400D01*
X116938Y188665D01*
X116939Y188664D01*
X116938Y188662D01*
X116967Y188520D01*
X117031Y188367D01*
X117031Y168503D01*
X115262Y164232D01*
X114522Y163493D01*
X114482Y163428D01*
X114438Y163366D01*
X114436Y163354D01*
X114431Y163346D01*
X114427Y163309D01*
X114411Y163224D01*
X114411Y138844D01*
X114428Y138770D01*
X114441Y138695D01*
X114448Y138685D01*
X114450Y138675D01*
X114474Y138646D01*
X114522Y138575D01*
X115273Y137824D01*
X117158Y133273D01*
X117158Y128347D01*
X115273Y123796D01*
X113887Y122410D01*
X113847Y122346D01*
X113803Y122284D01*
X113801Y122272D01*
X113796Y122263D01*
X113792Y122226D01*
X113776Y122141D01*
X113776Y79791D01*
X113793Y79717D01*
X113806Y79643D01*
X113813Y79632D01*
X113815Y79623D01*
X113839Y79594D01*
X113887Y79523D01*
X148738Y44672D01*
X148802Y44632D01*
X148864Y44588D01*
X148876Y44586D01*
X148885Y44581D01*
X148922Y44577D01*
X149006Y44561D01*
X309130Y44561D01*
X312439Y43190D01*
X314970Y40659D01*
X316341Y37350D01*
X316341Y33770D01*
X314970Y30461D01*
X312439Y27930D01*
X309130Y26559D01*
X143330Y26559D01*
G37*
%LPD*%
G36*
X763955Y803541D02*
X763955Y803541D01*
X764006Y803543D01*
X764038Y803561D01*
X764074Y803569D01*
X764113Y803602D01*
X764158Y803626D01*
X764179Y803656D01*
X764207Y803679D01*
X764228Y803726D01*
X764258Y803768D01*
X764266Y803810D01*
X764278Y803838D01*
X764277Y803868D01*
X764285Y803910D01*
X764285Y880110D01*
X764274Y880160D01*
X764272Y880211D01*
X764254Y880243D01*
X764246Y880279D01*
X764213Y880318D01*
X764189Y880363D01*
X764159Y880384D01*
X764136Y880412D01*
X764089Y880433D01*
X764047Y880463D01*
X764005Y880471D01*
X763977Y880483D01*
X763947Y880482D01*
X763905Y880490D01*
X670560Y880490D01*
X670510Y880479D01*
X670459Y880477D01*
X670427Y880459D01*
X670391Y880451D01*
X670352Y880418D01*
X670307Y880394D01*
X670286Y880364D01*
X670258Y880341D01*
X670237Y880294D01*
X670207Y880252D01*
X670199Y880210D01*
X670187Y880182D01*
X670188Y880152D01*
X670180Y880110D01*
X670180Y803910D01*
X670191Y803860D01*
X670193Y803809D01*
X670211Y803777D01*
X670219Y803741D01*
X670252Y803702D01*
X670276Y803657D01*
X670306Y803636D01*
X670329Y803608D01*
X670376Y803587D01*
X670418Y803557D01*
X670460Y803549D01*
X670488Y803537D01*
X670518Y803538D01*
X670560Y803530D01*
X763905Y803530D01*
X763955Y803541D01*
G37*
%LPC*%
G36*
X512116Y589724D02*
X512116Y589724D01*
X500439Y592853D01*
X489970Y598897D01*
X481422Y607445D01*
X475378Y617914D01*
X473927Y623330D01*
X473927Y623331D01*
X473417Y625232D01*
X472908Y627133D01*
X472249Y629591D01*
X472249Y641679D01*
X475378Y653356D01*
X481422Y663825D01*
X489970Y672373D01*
X500439Y678417D01*
X512116Y681546D01*
X524204Y681546D01*
X535881Y678417D01*
X546350Y672373D01*
X554898Y663825D01*
X560942Y653356D01*
X561196Y652408D01*
X561705Y650507D01*
X564071Y641679D01*
X564071Y629591D01*
X560942Y617914D01*
X554898Y607445D01*
X546350Y598897D01*
X535881Y592853D01*
X524204Y589724D01*
X512116Y589724D01*
G37*
%LPD*%
%LPC*%
G36*
X512116Y262699D02*
X512116Y262699D01*
X500439Y265828D01*
X489970Y271872D01*
X481422Y280420D01*
X475378Y290889D01*
X472599Y301259D01*
X472249Y302566D01*
X472249Y314654D01*
X475378Y326331D01*
X481422Y336800D01*
X489970Y345348D01*
X500439Y351392D01*
X512116Y354521D01*
X524204Y354521D01*
X535881Y351392D01*
X546350Y345348D01*
X554898Y336800D01*
X560942Y326331D01*
X564071Y314654D01*
X564071Y302566D01*
X560942Y290889D01*
X554898Y280420D01*
X546350Y271872D01*
X535881Y265828D01*
X524204Y262699D01*
X512116Y262699D01*
G37*
%LPD*%
%LPC*%
G36*
X98810Y331684D02*
X98810Y331684D01*
X89437Y341057D01*
X89437Y354313D01*
X96323Y361199D01*
X96363Y361264D01*
X96407Y361325D01*
X96409Y361338D01*
X96414Y361346D01*
X96418Y361383D01*
X96434Y361468D01*
X96434Y527665D01*
X96417Y527739D01*
X96404Y527814D01*
X96397Y527824D01*
X96395Y527834D01*
X96371Y527863D01*
X96323Y527934D01*
X94934Y529323D01*
X94934Y547637D01*
X96323Y549026D01*
X96363Y549090D01*
X96407Y549152D01*
X96409Y549164D01*
X96414Y549173D01*
X96418Y549210D01*
X96434Y549295D01*
X96434Y551959D01*
X96423Y552009D01*
X96421Y552060D01*
X96403Y552092D01*
X96395Y552128D01*
X96362Y552167D01*
X96338Y552212D01*
X96308Y552233D01*
X96285Y552261D01*
X96238Y552282D01*
X96196Y552312D01*
X96154Y552320D01*
X96126Y552332D01*
X96096Y552331D01*
X96054Y552339D01*
X86331Y552339D01*
X86257Y552322D01*
X86182Y552309D01*
X86172Y552302D01*
X86162Y552300D01*
X86133Y552276D01*
X86062Y552228D01*
X83553Y549719D01*
X73927Y549719D01*
X67119Y556527D01*
X67119Y566153D01*
X73927Y572961D01*
X83553Y572961D01*
X86062Y570452D01*
X86127Y570412D01*
X86189Y570368D01*
X86201Y570366D01*
X86209Y570361D01*
X86246Y570357D01*
X86331Y570341D01*
X109441Y570341D01*
X109515Y570358D01*
X109590Y570371D01*
X109600Y570378D01*
X109610Y570380D01*
X109639Y570404D01*
X109710Y570452D01*
X111096Y571838D01*
X115647Y573723D01*
X120573Y573723D01*
X125124Y571838D01*
X128608Y568354D01*
X130493Y563803D01*
X130493Y558877D01*
X128608Y554326D01*
X125124Y550842D01*
X121285Y549252D01*
X121275Y549245D01*
X121262Y549242D01*
X121205Y549195D01*
X121145Y549151D01*
X121138Y549140D01*
X121128Y549132D01*
X121098Y549064D01*
X121063Y548998D01*
X121063Y548985D01*
X121058Y548973D01*
X121060Y548899D01*
X121058Y548825D01*
X121064Y548813D01*
X121064Y548800D01*
X121100Y548735D01*
X121131Y548668D01*
X121141Y548659D01*
X121147Y548648D01*
X121207Y548606D01*
X121265Y548559D01*
X121278Y548556D01*
X121289Y548548D01*
X121431Y548521D01*
X123674Y548521D01*
X123674Y538861D01*
X123685Y538811D01*
X123687Y538760D01*
X123705Y538728D01*
X123713Y538692D01*
X123746Y538653D01*
X123770Y538608D01*
X123800Y538587D01*
X123823Y538559D01*
X123870Y538538D01*
X123912Y538508D01*
X123954Y538500D01*
X123982Y538488D01*
X124012Y538489D01*
X124054Y538481D01*
X124436Y538481D01*
X124436Y538479D01*
X124054Y538479D01*
X124004Y538468D01*
X123953Y538466D01*
X123921Y538448D01*
X123885Y538440D01*
X123846Y538407D01*
X123801Y538383D01*
X123780Y538353D01*
X123752Y538329D01*
X123731Y538283D01*
X123701Y538241D01*
X123693Y538199D01*
X123681Y538171D01*
X123682Y538141D01*
X123674Y538099D01*
X123674Y528439D01*
X117600Y528439D01*
X116954Y528612D01*
X116375Y528947D01*
X116236Y529086D01*
X116193Y529113D01*
X116155Y529147D01*
X116120Y529158D01*
X116089Y529177D01*
X116038Y529182D01*
X115989Y529196D01*
X115953Y529190D01*
X115917Y529194D01*
X115869Y529175D01*
X115819Y529167D01*
X115783Y529143D01*
X115755Y529132D01*
X115734Y529109D01*
X115699Y529086D01*
X114547Y527934D01*
X114507Y527870D01*
X114463Y527808D01*
X114461Y527796D01*
X114456Y527787D01*
X114452Y527750D01*
X114436Y527665D01*
X114436Y361473D01*
X114453Y361399D01*
X114466Y361324D01*
X114473Y361314D01*
X114475Y361304D01*
X114499Y361275D01*
X114547Y361204D01*
X121438Y354313D01*
X121438Y341057D01*
X112065Y331684D01*
X98810Y331684D01*
G37*
%LPD*%
%LPC*%
G36*
X784581Y149368D02*
X784581Y149368D01*
X781133Y150797D01*
X778494Y153436D01*
X777066Y156884D01*
X777066Y202526D01*
X778494Y205974D01*
X781133Y208613D01*
X784581Y210042D01*
X859751Y210042D01*
X863199Y208613D01*
X865838Y205974D01*
X867267Y202526D01*
X867267Y156884D01*
X865838Y153436D01*
X863199Y150797D01*
X859751Y149368D01*
X784581Y149368D01*
G37*
%LPD*%
%LPC*%
G36*
X577788Y258698D02*
X577788Y258698D01*
X572980Y260690D01*
X569300Y264370D01*
X567308Y269178D01*
X567308Y306132D01*
X569300Y310940D01*
X572980Y314620D01*
X577788Y316612D01*
X614107Y316612D01*
X618915Y314620D01*
X622595Y310940D01*
X624587Y306132D01*
X624587Y269178D01*
X622595Y264370D01*
X618915Y260690D01*
X614107Y258698D01*
X577788Y258698D01*
G37*
%LPD*%
G36*
X857935Y158381D02*
X857935Y158381D01*
X857986Y158383D01*
X858018Y158401D01*
X858054Y158409D01*
X858093Y158442D01*
X858138Y158466D01*
X858159Y158496D01*
X858187Y158519D01*
X858208Y158566D01*
X858238Y158608D01*
X858246Y158650D01*
X858258Y158678D01*
X858257Y158708D01*
X858265Y158750D01*
X858265Y200660D01*
X858254Y200710D01*
X858252Y200761D01*
X858234Y200793D01*
X858226Y200829D01*
X858193Y200868D01*
X858169Y200913D01*
X858139Y200934D01*
X858116Y200962D01*
X858069Y200983D01*
X858027Y201013D01*
X857985Y201021D01*
X857957Y201033D01*
X857927Y201032D01*
X857885Y201040D01*
X786448Y201040D01*
X786398Y201029D01*
X786347Y201027D01*
X786315Y201009D01*
X786279Y201001D01*
X786239Y200968D01*
X786195Y200944D01*
X786174Y200914D01*
X786145Y200891D01*
X786124Y200844D01*
X786095Y200802D01*
X786087Y200760D01*
X786074Y200732D01*
X786075Y200702D01*
X786067Y200660D01*
X786067Y158750D01*
X786079Y158700D01*
X786081Y158649D01*
X786098Y158617D01*
X786107Y158581D01*
X786139Y158542D01*
X786164Y158497D01*
X786194Y158476D01*
X786217Y158448D01*
X786264Y158427D01*
X786305Y158397D01*
X786347Y158389D01*
X786375Y158377D01*
X786406Y158378D01*
X786448Y158370D01*
X857885Y158370D01*
X857935Y158381D01*
G37*
G36*
X858570Y500646D02*
X858570Y500646D01*
X858621Y500648D01*
X858653Y500666D01*
X858689Y500674D01*
X858728Y500707D01*
X858773Y500731D01*
X858794Y500761D01*
X858822Y500784D01*
X858843Y500831D01*
X858873Y500873D01*
X858881Y500915D01*
X858893Y500943D01*
X858892Y500973D01*
X858900Y501015D01*
X858900Y542608D01*
X858889Y542657D01*
X858887Y542708D01*
X858869Y542740D01*
X858861Y542776D01*
X858828Y542816D01*
X858804Y542860D01*
X858774Y542882D01*
X858751Y542910D01*
X858704Y542931D01*
X858662Y542960D01*
X858620Y542968D01*
X858592Y542981D01*
X858562Y542980D01*
X858520Y542988D01*
X786765Y542988D01*
X786715Y542976D01*
X786664Y542974D01*
X786632Y542957D01*
X786596Y542948D01*
X786557Y542916D01*
X786512Y542891D01*
X786491Y542861D01*
X786463Y542838D01*
X786442Y542791D01*
X786412Y542750D01*
X786404Y542708D01*
X786392Y542680D01*
X786393Y542649D01*
X786385Y542608D01*
X786385Y501015D01*
X786396Y500965D01*
X786398Y500914D01*
X786416Y500882D01*
X786424Y500846D01*
X786457Y500807D01*
X786481Y500762D01*
X786511Y500741D01*
X786534Y500713D01*
X786581Y500692D01*
X786623Y500662D01*
X786665Y500654D01*
X786693Y500642D01*
X786723Y500643D01*
X786765Y500635D01*
X858520Y500635D01*
X858570Y500646D01*
G37*
%LPC*%
G36*
X661212Y33845D02*
X661212Y33845D01*
X657314Y35460D01*
X654331Y38443D01*
X652716Y42341D01*
X652716Y46559D01*
X654331Y50457D01*
X657314Y53440D01*
X661212Y55055D01*
X678638Y55055D01*
X682441Y53480D01*
X682443Y53479D01*
X682444Y53478D01*
X682586Y53451D01*
X731475Y53451D01*
X731549Y53468D01*
X731624Y53481D01*
X731634Y53488D01*
X731644Y53490D01*
X731673Y53514D01*
X731744Y53562D01*
X731888Y53706D01*
X731915Y53749D01*
X731950Y53787D01*
X731960Y53822D01*
X731980Y53853D01*
X731984Y53904D01*
X731999Y53953D01*
X731993Y53989D01*
X731996Y54026D01*
X731978Y54073D01*
X731969Y54124D01*
X731945Y54159D01*
X731935Y54188D01*
X731912Y54209D01*
X731888Y54244D01*
X730814Y55318D01*
X730814Y71632D01*
X733203Y74021D01*
X733243Y74085D01*
X733287Y74147D01*
X733289Y74160D01*
X733294Y74168D01*
X733298Y74205D01*
X733314Y74290D01*
X733314Y91636D01*
X733298Y91707D01*
X733296Y91741D01*
X733289Y91754D01*
X733284Y91785D01*
X733277Y91795D01*
X733275Y91805D01*
X733251Y91833D01*
X733225Y91871D01*
X733214Y91893D01*
X733208Y91897D01*
X733203Y91905D01*
X731710Y93397D01*
X731710Y102183D01*
X737922Y108395D01*
X746708Y108395D01*
X752920Y102183D01*
X752920Y93397D01*
X751427Y91905D01*
X751414Y91884D01*
X751398Y91871D01*
X751379Y91829D01*
X751343Y91778D01*
X751341Y91766D01*
X751336Y91758D01*
X751333Y91725D01*
X751327Y91713D01*
X751328Y91697D01*
X751316Y91636D01*
X751316Y74290D01*
X751333Y74216D01*
X751346Y74141D01*
X751353Y74131D01*
X751355Y74121D01*
X751379Y74092D01*
X751427Y74021D01*
X753816Y71632D01*
X753816Y55318D01*
X752742Y54244D01*
X752733Y54229D01*
X752729Y54226D01*
X752724Y54215D01*
X752715Y54201D01*
X752680Y54163D01*
X752670Y54128D01*
X752650Y54097D01*
X752646Y54046D01*
X752631Y53997D01*
X752637Y53961D01*
X752634Y53924D01*
X752652Y53877D01*
X752661Y53826D01*
X752685Y53791D01*
X752695Y53762D01*
X752718Y53741D01*
X752742Y53706D01*
X753816Y52632D01*
X753816Y36318D01*
X751472Y33974D01*
X733158Y33974D01*
X731794Y35338D01*
X731730Y35378D01*
X731668Y35422D01*
X731655Y35424D01*
X731647Y35429D01*
X731610Y35433D01*
X731525Y35449D01*
X682586Y35449D01*
X682585Y35449D01*
X682583Y35449D01*
X682441Y35420D01*
X678638Y33845D01*
X661212Y33845D01*
G37*
%LPD*%
%LPC*%
G36*
X342899Y610234D02*
X342899Y610234D01*
X342899Y610616D01*
X342887Y610666D01*
X342886Y610717D01*
X342868Y610749D01*
X342860Y610785D01*
X342827Y610824D01*
X342803Y610869D01*
X342773Y610890D01*
X342749Y610918D01*
X342703Y610939D01*
X342661Y610969D01*
X342619Y610977D01*
X342591Y610989D01*
X342561Y610988D01*
X342519Y610996D01*
X323595Y610996D01*
X323595Y611095D01*
X323864Y612793D01*
X324395Y614428D01*
X325176Y615960D01*
X326187Y617351D01*
X327402Y618566D01*
X328793Y619577D01*
X330172Y620279D01*
X330235Y620333D01*
X330301Y620387D01*
X330302Y620390D01*
X330304Y620391D01*
X330338Y620469D01*
X330372Y620546D01*
X330372Y620548D01*
X330373Y620550D01*
X330369Y620634D01*
X330366Y620719D01*
X330365Y620721D01*
X330364Y620723D01*
X330323Y620797D01*
X330283Y620871D01*
X330281Y620872D01*
X330280Y620874D01*
X330209Y620923D01*
X330141Y620971D01*
X330139Y620971D01*
X330137Y620972D01*
X330121Y620975D01*
X329999Y620998D01*
X325121Y620998D01*
X322775Y621970D01*
X320980Y623765D01*
X320008Y626111D01*
X320008Y645159D01*
X320980Y647505D01*
X321541Y648066D01*
X321553Y648085D01*
X321566Y648096D01*
X321576Y648118D01*
X321603Y648147D01*
X321613Y648182D01*
X321632Y648213D01*
X321636Y648253D01*
X321637Y648254D01*
X321637Y648257D01*
X321637Y648264D01*
X321652Y648313D01*
X321645Y648349D01*
X321649Y648386D01*
X321631Y648433D01*
X321622Y648484D01*
X321598Y648519D01*
X321587Y648548D01*
X321565Y648569D01*
X321541Y648604D01*
X320980Y649165D01*
X320008Y651511D01*
X320008Y670559D01*
X320980Y672905D01*
X322775Y674700D01*
X325121Y675672D01*
X360679Y675672D01*
X363025Y674700D01*
X364820Y672905D01*
X365792Y670559D01*
X365792Y651511D01*
X364820Y649165D01*
X364259Y648604D01*
X364232Y648561D01*
X364197Y648523D01*
X364187Y648488D01*
X364168Y648457D01*
X364163Y648406D01*
X364148Y648357D01*
X364155Y648321D01*
X364151Y648284D01*
X364169Y648237D01*
X364170Y648234D01*
X364170Y648226D01*
X364172Y648222D01*
X364178Y648186D01*
X364202Y648151D01*
X364213Y648122D01*
X364235Y648101D01*
X364247Y648084D01*
X364253Y648073D01*
X364255Y648071D01*
X364259Y648066D01*
X364820Y647505D01*
X365792Y645159D01*
X365792Y626111D01*
X364820Y623765D01*
X363025Y621970D01*
X360679Y620998D01*
X355801Y620998D01*
X355718Y620979D01*
X355636Y620961D01*
X355635Y620959D01*
X355632Y620959D01*
X355567Y620905D01*
X355501Y620852D01*
X355500Y620850D01*
X355499Y620849D01*
X355464Y620771D01*
X355429Y620695D01*
X355429Y620693D01*
X355428Y620690D01*
X355431Y620605D01*
X355433Y620522D01*
X355434Y620520D01*
X355434Y620517D01*
X355475Y620443D01*
X355514Y620368D01*
X355516Y620367D01*
X355517Y620365D01*
X355530Y620356D01*
X355628Y620279D01*
X357007Y619577D01*
X358398Y618566D01*
X359613Y617351D01*
X360624Y615960D01*
X361405Y614428D01*
X361936Y612793D01*
X362205Y611095D01*
X362205Y610996D01*
X343281Y610996D01*
X343231Y610985D01*
X343180Y610983D01*
X343148Y610965D01*
X343112Y610957D01*
X343073Y610924D01*
X343028Y610900D01*
X343007Y610870D01*
X342979Y610847D01*
X342958Y610800D01*
X342929Y610758D01*
X342920Y610716D01*
X342908Y610688D01*
X342909Y610658D01*
X342901Y610616D01*
X342901Y610234D01*
X342899Y610234D01*
G37*
%LPD*%
%LPC*%
G36*
X342899Y283209D02*
X342899Y283209D01*
X342899Y283591D01*
X342887Y283641D01*
X342886Y283692D01*
X342868Y283724D01*
X342860Y283760D01*
X342827Y283799D01*
X342803Y283844D01*
X342773Y283865D01*
X342749Y283893D01*
X342703Y283914D01*
X342661Y283944D01*
X342619Y283952D01*
X342591Y283964D01*
X342561Y283963D01*
X342519Y283971D01*
X323595Y283971D01*
X323595Y284070D01*
X323864Y285768D01*
X324395Y287403D01*
X325176Y288935D01*
X326187Y290326D01*
X327402Y291541D01*
X328793Y292552D01*
X330171Y293254D01*
X330235Y293308D01*
X330301Y293362D01*
X330302Y293365D01*
X330304Y293366D01*
X330337Y293443D01*
X330372Y293521D01*
X330372Y293523D01*
X330373Y293525D01*
X330369Y293609D01*
X330366Y293694D01*
X330364Y293696D01*
X330364Y293698D01*
X330323Y293772D01*
X330283Y293846D01*
X330281Y293847D01*
X330280Y293849D01*
X330209Y293898D01*
X330141Y293946D01*
X330139Y293946D01*
X330137Y293947D01*
X330121Y293950D01*
X329999Y293973D01*
X325121Y293973D01*
X322775Y294945D01*
X320980Y296740D01*
X320008Y299086D01*
X320008Y318134D01*
X320980Y320480D01*
X321541Y321041D01*
X321558Y321068D01*
X321573Y321081D01*
X321581Y321099D01*
X321603Y321122D01*
X321613Y321157D01*
X321632Y321188D01*
X321635Y321219D01*
X321644Y321239D01*
X321643Y321260D01*
X321652Y321288D01*
X321645Y321324D01*
X321649Y321361D01*
X321638Y321388D01*
X321638Y321412D01*
X321627Y321432D01*
X321622Y321459D01*
X321598Y321494D01*
X321587Y321523D01*
X321567Y321541D01*
X321555Y321564D01*
X321547Y321569D01*
X321541Y321579D01*
X320980Y322140D01*
X320008Y324486D01*
X320008Y343534D01*
X320980Y345880D01*
X322775Y347675D01*
X325121Y348647D01*
X360679Y348647D01*
X363025Y347675D01*
X364820Y345880D01*
X365792Y343534D01*
X365792Y324486D01*
X364820Y322140D01*
X364259Y321579D01*
X364246Y321557D01*
X364227Y321542D01*
X364216Y321518D01*
X364197Y321498D01*
X364187Y321463D01*
X364168Y321432D01*
X364165Y321404D01*
X364156Y321384D01*
X364157Y321361D01*
X364148Y321332D01*
X364155Y321296D01*
X364151Y321259D01*
X364162Y321231D01*
X364162Y321211D01*
X364173Y321192D01*
X364178Y321161D01*
X364202Y321126D01*
X364213Y321097D01*
X364235Y321076D01*
X364236Y321075D01*
X364245Y321058D01*
X364249Y321055D01*
X364259Y321041D01*
X364820Y320480D01*
X365792Y318134D01*
X365792Y299086D01*
X364820Y296740D01*
X363025Y294945D01*
X360679Y293973D01*
X355801Y293973D01*
X355717Y293954D01*
X355636Y293936D01*
X355635Y293934D01*
X355632Y293934D01*
X355566Y293879D01*
X355501Y293827D01*
X355501Y293825D01*
X355499Y293824D01*
X355464Y293745D01*
X355429Y293670D01*
X355429Y293668D01*
X355428Y293665D01*
X355431Y293580D01*
X355433Y293497D01*
X355434Y293495D01*
X355434Y293492D01*
X355475Y293418D01*
X355514Y293343D01*
X355516Y293342D01*
X355517Y293340D01*
X355530Y293331D01*
X355629Y293254D01*
X357007Y292552D01*
X358398Y291541D01*
X359613Y290326D01*
X360624Y288935D01*
X361405Y287403D01*
X361936Y285768D01*
X362205Y284070D01*
X362205Y283971D01*
X343281Y283971D01*
X343231Y283960D01*
X343180Y283958D01*
X343148Y283940D01*
X343112Y283932D01*
X343073Y283899D01*
X343028Y283875D01*
X343007Y283845D01*
X342979Y283822D01*
X342958Y283775D01*
X342929Y283733D01*
X342920Y283691D01*
X342908Y283663D01*
X342909Y283633D01*
X342901Y283591D01*
X342901Y283209D01*
X342899Y283209D01*
G37*
%LPD*%
%LPC*%
G36*
X128522Y85654D02*
X128522Y85654D01*
X126429Y86521D01*
X126427Y86522D01*
X126426Y86523D01*
X126406Y86526D01*
X126389Y86538D01*
X124295Y87405D01*
X121060Y90640D01*
X120193Y92734D01*
X120192Y92735D01*
X120192Y92737D01*
X120180Y92754D01*
X120176Y92774D01*
X119309Y94867D01*
X119309Y168138D01*
X119309Y168140D01*
X119309Y168142D01*
X119280Y168284D01*
X119189Y168504D01*
X119189Y188367D01*
X120958Y192638D01*
X124227Y195907D01*
X128498Y197676D01*
X133122Y197676D01*
X137393Y195907D01*
X140662Y192638D01*
X142431Y188367D01*
X142431Y168504D01*
X142340Y168284D01*
X142339Y168282D01*
X142338Y168280D01*
X142311Y168138D01*
X142311Y94867D01*
X141444Y92774D01*
X141443Y92772D01*
X141442Y92771D01*
X141439Y92751D01*
X141427Y92734D01*
X140560Y90640D01*
X137325Y87405D01*
X135231Y86538D01*
X135230Y86537D01*
X135228Y86537D01*
X135211Y86525D01*
X135191Y86521D01*
X133098Y85654D01*
X128522Y85654D01*
G37*
%LPD*%
%LPC*%
G36*
X214313Y329533D02*
X214313Y329533D01*
X211968Y330505D01*
X210172Y332300D01*
X209201Y334646D01*
X209201Y360679D01*
X210172Y363025D01*
X211968Y364820D01*
X214313Y365792D01*
X214815Y365792D01*
X214840Y365798D01*
X214866Y365795D01*
X214924Y365817D01*
X214984Y365831D01*
X215004Y365848D01*
X215028Y365857D01*
X215070Y365902D01*
X215118Y365941D01*
X215128Y365965D01*
X215146Y365984D01*
X215163Y366043D01*
X215188Y366100D01*
X215187Y366125D01*
X215195Y366150D01*
X215184Y366211D01*
X215182Y366273D01*
X215169Y366295D01*
X215165Y366321D01*
X215117Y366392D01*
X215099Y366425D01*
X215093Y366429D01*
X215090Y366434D01*
X215088Y366436D01*
X215084Y366441D01*
X214300Y367225D01*
X213328Y369571D01*
X213328Y402589D01*
X214300Y404935D01*
X216095Y406730D01*
X218441Y407702D01*
X236219Y407702D01*
X238565Y406730D01*
X240360Y404935D01*
X241332Y402589D01*
X241332Y369571D01*
X240360Y367225D01*
X239576Y366441D01*
X239564Y366422D01*
X239551Y366411D01*
X239550Y366409D01*
X239542Y366403D01*
X239517Y366346D01*
X239485Y366294D01*
X239482Y366268D01*
X239472Y366244D01*
X239474Y366183D01*
X239468Y366121D01*
X239477Y366097D01*
X239478Y366071D01*
X239508Y366017D01*
X239530Y365959D01*
X239549Y365942D01*
X239561Y365919D01*
X239611Y365884D01*
X239657Y365842D01*
X239682Y365834D01*
X239703Y365819D01*
X239787Y365803D01*
X239823Y365792D01*
X239833Y365794D01*
X239845Y365792D01*
X240664Y365792D01*
X243010Y364820D01*
X244805Y363025D01*
X245777Y360679D01*
X245777Y334646D01*
X244805Y332300D01*
X243010Y330505D01*
X240664Y329533D01*
X214313Y329533D01*
G37*
%LPD*%
%LPC*%
G36*
X724536Y330168D02*
X724536Y330168D01*
X722190Y331140D01*
X720395Y332935D01*
X719423Y335281D01*
X719423Y361314D01*
X720395Y363660D01*
X722190Y365455D01*
X723669Y366068D01*
X723711Y366098D01*
X723757Y366119D01*
X723780Y366148D01*
X723810Y366169D01*
X723834Y366214D01*
X723866Y366254D01*
X723874Y366290D01*
X723892Y366322D01*
X723893Y366373D01*
X723904Y366423D01*
X723896Y366465D01*
X723897Y366495D01*
X723884Y366523D01*
X723875Y366565D01*
X723551Y367348D01*
X723551Y400049D01*
X724522Y402395D01*
X726318Y404190D01*
X728663Y405162D01*
X746759Y405162D01*
X749105Y404190D01*
X750900Y402395D01*
X751872Y400049D01*
X751872Y367348D01*
X751547Y366565D01*
X751539Y366514D01*
X751521Y366467D01*
X751525Y366430D01*
X751519Y366394D01*
X751534Y366345D01*
X751539Y366294D01*
X751559Y366263D01*
X751570Y366228D01*
X751605Y366191D01*
X751632Y366148D01*
X751668Y366124D01*
X751689Y366102D01*
X751717Y366092D01*
X751753Y366068D01*
X753232Y365455D01*
X755028Y363660D01*
X755999Y361314D01*
X755999Y335281D01*
X755028Y332935D01*
X753232Y331140D01*
X750887Y330168D01*
X724536Y330168D01*
G37*
%LPD*%
%LPC*%
G36*
X661212Y59245D02*
X661212Y59245D01*
X657409Y60820D01*
X657407Y60821D01*
X657406Y60822D01*
X657264Y60849D01*
X625590Y60849D01*
X622281Y62220D01*
X611495Y73006D01*
X610124Y76315D01*
X610124Y113861D01*
X610107Y113935D01*
X610094Y114010D01*
X610087Y114020D01*
X610085Y114030D01*
X610061Y114058D01*
X610013Y114130D01*
X608520Y115622D01*
X608520Y124408D01*
X614732Y130620D01*
X623518Y130620D01*
X629730Y124408D01*
X629730Y115622D01*
X628237Y114130D01*
X628197Y114065D01*
X628153Y114003D01*
X628151Y113991D01*
X628146Y113983D01*
X628142Y113946D01*
X628126Y113861D01*
X628126Y81991D01*
X628143Y81917D01*
X628156Y81842D01*
X628163Y81832D01*
X628165Y81822D01*
X628189Y81793D01*
X628237Y81722D01*
X630997Y78962D01*
X631061Y78922D01*
X631124Y78878D01*
X631136Y78876D01*
X631144Y78871D01*
X631181Y78867D01*
X631266Y78851D01*
X657264Y78851D01*
X657265Y78851D01*
X657267Y78851D01*
X657409Y78880D01*
X661212Y80455D01*
X678638Y80455D01*
X682536Y78840D01*
X685519Y75857D01*
X687134Y71959D01*
X687134Y67741D01*
X685519Y63843D01*
X682536Y60860D01*
X678638Y59245D01*
X661212Y59245D01*
G37*
%LPD*%
%LPC*%
G36*
X723939Y207153D02*
X723939Y207153D01*
X720491Y208582D01*
X717852Y211221D01*
X716423Y214669D01*
X716423Y241896D01*
X717852Y245344D01*
X720491Y247983D01*
X723939Y249412D01*
X751484Y249412D01*
X754932Y247983D01*
X757571Y245344D01*
X758999Y241896D01*
X758999Y214669D01*
X757571Y211221D01*
X754932Y208582D01*
X751484Y207153D01*
X723939Y207153D01*
G37*
%LPD*%
%LPC*%
G36*
X312597Y691705D02*
X312597Y691705D01*
X308699Y693320D01*
X305716Y696303D01*
X304101Y700201D01*
X304101Y704419D01*
X305716Y708317D01*
X308699Y711300D01*
X312075Y712698D01*
X312126Y712736D01*
X312182Y712766D01*
X312196Y712785D01*
X312215Y712800D01*
X312245Y712856D01*
X312282Y712908D01*
X312287Y712934D01*
X312297Y712953D01*
X312298Y712990D01*
X312309Y713050D01*
X312309Y728400D01*
X312295Y728462D01*
X312288Y728525D01*
X312275Y728546D01*
X312270Y728569D01*
X312229Y728618D01*
X312195Y728672D01*
X312173Y728686D01*
X312160Y728703D01*
X312125Y728718D01*
X312075Y728752D01*
X308699Y730150D01*
X305716Y733133D01*
X304101Y737031D01*
X304101Y741249D01*
X305716Y745147D01*
X308699Y748130D01*
X312597Y749745D01*
X330023Y749745D01*
X333921Y748130D01*
X336904Y745147D01*
X338519Y741249D01*
X338519Y737031D01*
X336904Y733133D01*
X333921Y730150D01*
X330545Y728752D01*
X330494Y728714D01*
X330438Y728684D01*
X330424Y728665D01*
X330405Y728651D01*
X330375Y728594D01*
X330338Y728542D01*
X330333Y728516D01*
X330323Y728498D01*
X330322Y728460D01*
X330311Y728400D01*
X330311Y713050D01*
X330325Y712988D01*
X330332Y712925D01*
X330345Y712904D01*
X330350Y712881D01*
X330391Y712832D01*
X330425Y712778D01*
X330447Y712764D01*
X330460Y712747D01*
X330495Y712732D01*
X330545Y712698D01*
X333921Y711300D01*
X336904Y708317D01*
X338519Y704419D01*
X338519Y700201D01*
X336904Y696303D01*
X333921Y693320D01*
X330023Y691705D01*
X312597Y691705D01*
G37*
%LPD*%
%LPC*%
G36*
X214313Y209518D02*
X214313Y209518D01*
X211968Y210490D01*
X210172Y212285D01*
X209201Y214631D01*
X209201Y240347D01*
X210172Y242692D01*
X211968Y244488D01*
X214313Y245459D01*
X240347Y245459D01*
X242692Y244488D01*
X244488Y242692D01*
X245459Y240347D01*
X245459Y214631D01*
X244488Y212285D01*
X242692Y210490D01*
X240347Y209518D01*
X214313Y209518D01*
G37*
%LPD*%
G36*
X611555Y271411D02*
X611555Y271411D01*
X611606Y271413D01*
X611638Y271431D01*
X611674Y271439D01*
X611713Y271472D01*
X611758Y271496D01*
X611779Y271526D01*
X611807Y271549D01*
X611828Y271596D01*
X611858Y271638D01*
X611866Y271680D01*
X611878Y271708D01*
X611877Y271738D01*
X611885Y271780D01*
X611885Y303530D01*
X611874Y303580D01*
X611872Y303631D01*
X611854Y303663D01*
X611846Y303699D01*
X611813Y303738D01*
X611789Y303783D01*
X611759Y303804D01*
X611736Y303832D01*
X611689Y303853D01*
X611647Y303883D01*
X611605Y303891D01*
X611577Y303903D01*
X611547Y303902D01*
X611505Y303910D01*
X580390Y303910D01*
X580340Y303899D01*
X580289Y303897D01*
X580257Y303879D01*
X580221Y303871D01*
X580182Y303838D01*
X580137Y303814D01*
X580116Y303784D01*
X580088Y303761D01*
X580067Y303714D01*
X580037Y303672D01*
X580029Y303630D01*
X580017Y303602D01*
X580018Y303572D01*
X580010Y303530D01*
X580010Y271780D01*
X580021Y271730D01*
X580023Y271679D01*
X580041Y271647D01*
X580049Y271611D01*
X580082Y271572D01*
X580106Y271527D01*
X580136Y271506D01*
X580159Y271478D01*
X580206Y271457D01*
X580248Y271427D01*
X580290Y271419D01*
X580318Y271407D01*
X580348Y271408D01*
X580390Y271400D01*
X611505Y271400D01*
X611555Y271411D01*
G37*
%LPC*%
G36*
X175578Y482886D02*
X175578Y482886D01*
X173233Y483857D01*
X171437Y485653D01*
X170466Y487998D01*
X170466Y510222D01*
X171437Y512567D01*
X173233Y514363D01*
X175578Y515334D01*
X192722Y515334D01*
X195067Y514363D01*
X196863Y512567D01*
X197834Y510222D01*
X197834Y487998D01*
X196863Y485653D01*
X195067Y483857D01*
X192722Y482886D01*
X175578Y482886D01*
G37*
%LPD*%
%LPC*%
G36*
X609032Y212319D02*
X609032Y212319D01*
X599659Y221692D01*
X599659Y234948D01*
X609032Y244321D01*
X622288Y244321D01*
X631661Y234948D01*
X631661Y221692D01*
X622288Y212319D01*
X609032Y212319D01*
G37*
%LPD*%
%LPC*%
G36*
X50761Y50761D02*
X50761Y50761D01*
X50761Y81751D01*
X51560Y81751D01*
X54664Y81445D01*
X57724Y80836D01*
X60709Y79931D01*
X63592Y78737D01*
X66343Y77266D01*
X68937Y75533D01*
X71348Y73554D01*
X73554Y71348D01*
X75533Y68937D01*
X77266Y66343D01*
X78737Y63592D01*
X79931Y60709D01*
X80836Y57724D01*
X81445Y54664D01*
X81751Y51560D01*
X81751Y50761D01*
X50761Y50761D01*
G37*
%LPD*%
%LPC*%
G36*
X830761Y50761D02*
X830761Y50761D01*
X830761Y81751D01*
X831560Y81751D01*
X834664Y81445D01*
X837724Y80836D01*
X840709Y79931D01*
X843592Y78737D01*
X846343Y77266D01*
X848937Y75533D01*
X851348Y73554D01*
X853554Y71348D01*
X855533Y68937D01*
X857266Y66343D01*
X858737Y63592D01*
X859931Y60709D01*
X860836Y57724D01*
X861445Y54664D01*
X861751Y51560D01*
X861751Y50761D01*
X830761Y50761D01*
G37*
%LPD*%
%LPC*%
G36*
X50761Y860761D02*
X50761Y860761D01*
X50761Y891751D01*
X51560Y891751D01*
X54664Y891445D01*
X57724Y890836D01*
X60709Y889931D01*
X63592Y888737D01*
X66343Y887266D01*
X68937Y885533D01*
X71348Y883554D01*
X73554Y881348D01*
X75533Y878937D01*
X77266Y876343D01*
X78737Y873592D01*
X79931Y870709D01*
X80836Y867724D01*
X81445Y864664D01*
X81751Y861560D01*
X81751Y860761D01*
X50761Y860761D01*
G37*
%LPD*%
%LPC*%
G36*
X830761Y860761D02*
X830761Y860761D01*
X830761Y891751D01*
X831560Y891751D01*
X834664Y891445D01*
X837724Y890836D01*
X840709Y889931D01*
X843592Y888737D01*
X846343Y887266D01*
X848937Y885533D01*
X851348Y883554D01*
X853554Y881348D01*
X855533Y878937D01*
X857266Y876343D01*
X858737Y873592D01*
X859931Y870709D01*
X860836Y867724D01*
X861445Y864664D01*
X861751Y861560D01*
X861751Y860761D01*
X830761Y860761D01*
G37*
%LPD*%
%LPC*%
G36*
X830761Y18249D02*
X830761Y18249D01*
X830761Y49239D01*
X861751Y49239D01*
X861751Y48440D01*
X861445Y45336D01*
X861291Y44562D01*
X861140Y43801D01*
X860989Y43041D01*
X860988Y43041D01*
X860913Y42661D01*
X860913Y42660D01*
X860836Y42276D01*
X859931Y39291D01*
X858737Y36408D01*
X857266Y33657D01*
X855533Y31063D01*
X853554Y28652D01*
X851348Y26446D01*
X848937Y24467D01*
X846343Y22734D01*
X843592Y21263D01*
X840709Y20069D01*
X837724Y19164D01*
X834664Y18555D01*
X831560Y18249D01*
X830761Y18249D01*
G37*
%LPD*%
%LPC*%
G36*
X50761Y18249D02*
X50761Y18249D01*
X50761Y49239D01*
X81751Y49239D01*
X81751Y48440D01*
X81445Y45336D01*
X81291Y44562D01*
X81140Y43801D01*
X80989Y43041D01*
X80988Y43041D01*
X80913Y42661D01*
X80913Y42660D01*
X80836Y42276D01*
X79931Y39291D01*
X78737Y36408D01*
X77266Y33657D01*
X75533Y31063D01*
X73554Y28652D01*
X71348Y26446D01*
X68937Y24467D01*
X66343Y22734D01*
X63592Y21263D01*
X60709Y20069D01*
X57724Y19164D01*
X54664Y18555D01*
X51560Y18249D01*
X50761Y18249D01*
G37*
%LPD*%
%LPC*%
G36*
X798249Y860761D02*
X798249Y860761D01*
X798249Y861560D01*
X798555Y864664D01*
X798621Y864996D01*
X798697Y865376D01*
X798697Y865377D01*
X798848Y866137D01*
X798999Y866897D01*
X798999Y866898D01*
X799164Y867724D01*
X800069Y870709D01*
X801263Y873592D01*
X802734Y876343D01*
X804467Y878937D01*
X806446Y881348D01*
X808652Y883554D01*
X811063Y885533D01*
X813657Y887266D01*
X816408Y888737D01*
X819291Y889931D01*
X822276Y890836D01*
X825336Y891445D01*
X828440Y891751D01*
X829239Y891751D01*
X829239Y860761D01*
X798249Y860761D01*
G37*
%LPD*%
%LPC*%
G36*
X18249Y860761D02*
X18249Y860761D01*
X18249Y861560D01*
X18555Y864664D01*
X18621Y864996D01*
X18697Y865376D01*
X18697Y865377D01*
X18848Y866137D01*
X18999Y866897D01*
X18999Y866898D01*
X19164Y867724D01*
X20069Y870709D01*
X21263Y873592D01*
X22734Y876343D01*
X24467Y878937D01*
X26446Y881348D01*
X28652Y883554D01*
X31063Y885533D01*
X33657Y887266D01*
X36408Y888737D01*
X39291Y889931D01*
X42276Y890836D01*
X45336Y891445D01*
X48440Y891751D01*
X49239Y891751D01*
X49239Y860761D01*
X18249Y860761D01*
G37*
%LPD*%
%LPC*%
G36*
X830761Y828249D02*
X830761Y828249D01*
X830761Y859239D01*
X861751Y859239D01*
X861751Y858440D01*
X861445Y855336D01*
X861429Y855255D01*
X861278Y854494D01*
X861202Y854114D01*
X861051Y853354D01*
X861051Y853353D01*
X860899Y852593D01*
X860836Y852276D01*
X859931Y849291D01*
X858737Y846408D01*
X857266Y843657D01*
X855533Y841063D01*
X853554Y838652D01*
X851348Y836446D01*
X848937Y834467D01*
X846343Y832734D01*
X843592Y831263D01*
X840709Y830069D01*
X837724Y829164D01*
X834664Y828555D01*
X831560Y828249D01*
X830761Y828249D01*
G37*
%LPD*%
%LPC*%
G36*
X50761Y828249D02*
X50761Y828249D01*
X50761Y859239D01*
X81751Y859239D01*
X81751Y858440D01*
X81445Y855336D01*
X81429Y855255D01*
X81278Y854494D01*
X81202Y854114D01*
X81051Y853354D01*
X81051Y853353D01*
X80899Y852593D01*
X80836Y852276D01*
X79931Y849291D01*
X78737Y846408D01*
X77266Y843657D01*
X75533Y841063D01*
X73554Y838652D01*
X71348Y836446D01*
X68937Y834467D01*
X66343Y832734D01*
X63592Y831263D01*
X60709Y830069D01*
X57724Y829164D01*
X54664Y828555D01*
X51560Y828249D01*
X50761Y828249D01*
G37*
%LPD*%
%LPC*%
G36*
X798249Y50761D02*
X798249Y50761D01*
X798249Y51560D01*
X798555Y54664D01*
X798559Y54683D01*
X798559Y54684D01*
X798710Y55444D01*
X798861Y56204D01*
X798861Y56205D01*
X798937Y56585D01*
X799088Y57345D01*
X799164Y57724D01*
X800069Y60709D01*
X801263Y63592D01*
X802734Y66343D01*
X804467Y68937D01*
X806446Y71348D01*
X808652Y73554D01*
X811063Y75533D01*
X813657Y77266D01*
X816408Y78737D01*
X819291Y79931D01*
X822276Y80836D01*
X825336Y81445D01*
X828440Y81751D01*
X829239Y81751D01*
X829239Y50761D01*
X798249Y50761D01*
G37*
%LPD*%
%LPC*%
G36*
X18249Y50761D02*
X18249Y50761D01*
X18249Y51560D01*
X18555Y54664D01*
X18559Y54683D01*
X18559Y54684D01*
X18710Y55444D01*
X18861Y56204D01*
X18861Y56205D01*
X18937Y56585D01*
X19088Y57345D01*
X19164Y57724D01*
X20069Y60709D01*
X21263Y63592D01*
X22734Y66343D01*
X24467Y68937D01*
X26446Y71348D01*
X28652Y73554D01*
X31063Y75533D01*
X33657Y77266D01*
X36408Y78737D01*
X39291Y79931D01*
X42276Y80836D01*
X45336Y81445D01*
X48440Y81751D01*
X49239Y81751D01*
X49239Y50761D01*
X18249Y50761D01*
G37*
%LPD*%
%LPC*%
G36*
X828440Y18249D02*
X828440Y18249D01*
X825336Y18555D01*
X822276Y19164D01*
X819291Y20069D01*
X816408Y21263D01*
X813657Y22734D01*
X811063Y24467D01*
X808652Y26446D01*
X806446Y28652D01*
X804467Y31063D01*
X802734Y33657D01*
X801263Y36408D01*
X800069Y39291D01*
X799164Y42276D01*
X798555Y45336D01*
X798249Y48440D01*
X798249Y49239D01*
X829239Y49239D01*
X829239Y18249D01*
X828440Y18249D01*
G37*
%LPD*%
%LPC*%
G36*
X48440Y828249D02*
X48440Y828249D01*
X45336Y828555D01*
X42276Y829164D01*
X39291Y830069D01*
X36408Y831263D01*
X33657Y832734D01*
X31063Y834467D01*
X28652Y836446D01*
X26446Y838652D01*
X24467Y841063D01*
X22734Y843657D01*
X21263Y846408D01*
X20069Y849291D01*
X19164Y852276D01*
X18555Y855336D01*
X18249Y858440D01*
X18249Y859239D01*
X49239Y859239D01*
X49239Y828249D01*
X48440Y828249D01*
G37*
%LPD*%
%LPC*%
G36*
X48440Y18249D02*
X48440Y18249D01*
X45336Y18555D01*
X42276Y19164D01*
X39291Y20069D01*
X36408Y21263D01*
X33657Y22734D01*
X31063Y24467D01*
X28652Y26446D01*
X26446Y28652D01*
X24467Y31063D01*
X22734Y33657D01*
X21263Y36408D01*
X20069Y39291D01*
X19164Y42276D01*
X18555Y45336D01*
X18249Y48440D01*
X18249Y49239D01*
X49239Y49239D01*
X49239Y18249D01*
X48440Y18249D01*
G37*
%LPD*%
%LPC*%
G36*
X828440Y828249D02*
X828440Y828249D01*
X825336Y828555D01*
X822276Y829164D01*
X819291Y830069D01*
X816408Y831263D01*
X813657Y832734D01*
X811063Y834467D01*
X808652Y836446D01*
X806446Y838652D01*
X804467Y841063D01*
X802734Y843657D01*
X801263Y846408D01*
X800069Y849291D01*
X799164Y852276D01*
X798555Y855336D01*
X798249Y858440D01*
X798249Y859239D01*
X829239Y859239D01*
X829239Y828249D01*
X828440Y828249D01*
G37*
%LPD*%
%LPC*%
G36*
X175578Y433991D02*
X175578Y433991D01*
X173233Y434962D01*
X171437Y436758D01*
X170466Y439103D01*
X170466Y456247D01*
X171437Y458592D01*
X173233Y460388D01*
X175578Y461359D01*
X192722Y461359D01*
X195067Y460388D01*
X196863Y458592D01*
X197834Y456247D01*
X197834Y439103D01*
X196863Y436758D01*
X195067Y434962D01*
X192722Y433991D01*
X175578Y433991D01*
G37*
%LPD*%
%LPC*%
G36*
X23178Y433991D02*
X23178Y433991D01*
X20833Y434962D01*
X19037Y436758D01*
X18066Y439103D01*
X18066Y456247D01*
X19037Y458592D01*
X20833Y460388D01*
X23178Y461359D01*
X40322Y461359D01*
X42667Y460388D01*
X44463Y458592D01*
X45434Y456247D01*
X45434Y439103D01*
X44463Y436758D01*
X42667Y434962D01*
X40322Y433991D01*
X23178Y433991D01*
G37*
%LPD*%
%LPC*%
G36*
X175578Y384461D02*
X175578Y384461D01*
X173233Y385432D01*
X171437Y387228D01*
X170466Y389573D01*
X170466Y406717D01*
X171437Y409062D01*
X173233Y410858D01*
X175578Y411829D01*
X192722Y411829D01*
X195067Y410858D01*
X196863Y409062D01*
X197834Y406717D01*
X197834Y389573D01*
X196863Y387228D01*
X195067Y385432D01*
X192722Y384461D01*
X175578Y384461D01*
G37*
%LPD*%
%LPC*%
G36*
X241477Y792670D02*
X241477Y792670D01*
X237579Y794285D01*
X234596Y797268D01*
X232981Y801166D01*
X232981Y805384D01*
X234596Y809282D01*
X237579Y812265D01*
X241477Y813880D01*
X258903Y813880D01*
X262801Y812265D01*
X265784Y809282D01*
X267399Y805384D01*
X267399Y801166D01*
X265784Y797268D01*
X262801Y794285D01*
X258903Y792670D01*
X241477Y792670D01*
G37*
%LPD*%
%LPC*%
G36*
X445312Y104330D02*
X445312Y104330D01*
X441414Y105945D01*
X438431Y108928D01*
X436816Y112826D01*
X436816Y117044D01*
X438431Y120942D01*
X441414Y123925D01*
X445312Y125540D01*
X462738Y125540D01*
X466636Y123925D01*
X469619Y120942D01*
X471234Y117044D01*
X471234Y112826D01*
X469619Y108928D01*
X466636Y105945D01*
X462738Y104330D01*
X445312Y104330D01*
G37*
%LPD*%
%LPC*%
G36*
X241477Y818070D02*
X241477Y818070D01*
X237579Y819685D01*
X234596Y822668D01*
X232981Y826566D01*
X232981Y830784D01*
X234596Y834682D01*
X237579Y837665D01*
X241477Y839280D01*
X258903Y839280D01*
X262801Y837665D01*
X265784Y834682D01*
X267399Y830784D01*
X267399Y826566D01*
X265784Y822668D01*
X262801Y819685D01*
X258903Y818070D01*
X241477Y818070D01*
G37*
%LPD*%
%LPC*%
G36*
X477062Y190055D02*
X477062Y190055D01*
X473164Y191670D01*
X470181Y194653D01*
X468566Y198551D01*
X468566Y202769D01*
X470181Y206667D01*
X473164Y209650D01*
X477062Y211265D01*
X494488Y211265D01*
X498386Y209650D01*
X501369Y206667D01*
X502984Y202769D01*
X502984Y198551D01*
X501369Y194653D01*
X498386Y191670D01*
X494488Y190055D01*
X477062Y190055D01*
G37*
%LPD*%
%LPC*%
G36*
X388797Y691705D02*
X388797Y691705D01*
X384899Y693320D01*
X381916Y696303D01*
X380301Y700201D01*
X380301Y704419D01*
X381916Y708317D01*
X384899Y711300D01*
X388797Y712915D01*
X406223Y712915D01*
X410121Y711300D01*
X413104Y708317D01*
X414719Y704419D01*
X414719Y700201D01*
X413104Y696303D01*
X410121Y693320D01*
X406223Y691705D01*
X388797Y691705D01*
G37*
%LPD*%
%LPC*%
G36*
X553262Y190055D02*
X553262Y190055D01*
X549364Y191670D01*
X546381Y194653D01*
X544766Y198551D01*
X544766Y202769D01*
X546381Y206667D01*
X549364Y209650D01*
X553262Y211265D01*
X570688Y211265D01*
X574586Y209650D01*
X577569Y206667D01*
X579184Y202769D01*
X579184Y198551D01*
X577569Y194653D01*
X574586Y191670D01*
X570688Y190055D01*
X553262Y190055D01*
G37*
%LPD*%
%LPC*%
G36*
X553262Y158305D02*
X553262Y158305D01*
X549364Y159920D01*
X546381Y162903D01*
X544766Y166801D01*
X544766Y171019D01*
X546381Y174917D01*
X549364Y177900D01*
X553262Y179515D01*
X570688Y179515D01*
X574586Y177900D01*
X577569Y174917D01*
X579184Y171019D01*
X579184Y166801D01*
X577569Y162903D01*
X574586Y159920D01*
X570688Y158305D01*
X553262Y158305D01*
G37*
%LPD*%
%LPC*%
G36*
X445312Y78930D02*
X445312Y78930D01*
X441414Y80545D01*
X438431Y83528D01*
X436816Y87426D01*
X436816Y91644D01*
X438431Y95542D01*
X441414Y98525D01*
X445312Y100140D01*
X462738Y100140D01*
X466636Y98525D01*
X469619Y95542D01*
X471234Y91644D01*
X471234Y87426D01*
X469619Y83528D01*
X466636Y80545D01*
X462738Y78930D01*
X445312Y78930D01*
G37*
%LPD*%
%LPC*%
G36*
X445312Y53530D02*
X445312Y53530D01*
X441414Y55145D01*
X438431Y58128D01*
X436816Y62026D01*
X436816Y66244D01*
X438431Y70142D01*
X441414Y73125D01*
X445312Y74740D01*
X462738Y74740D01*
X466636Y73125D01*
X469619Y70142D01*
X471234Y66244D01*
X471234Y62026D01*
X469619Y58128D01*
X466636Y55145D01*
X462738Y53530D01*
X445312Y53530D01*
G37*
%LPD*%
G36*
X74808Y275210D02*
X74808Y275210D01*
X74810Y275210D01*
X74824Y275213D01*
X78848Y275213D01*
X78864Y275210D01*
X97790Y275210D01*
X97840Y275221D01*
X97891Y275223D01*
X97923Y275241D01*
X97959Y275249D01*
X97998Y275282D01*
X98043Y275306D01*
X98064Y275336D01*
X98092Y275359D01*
X98113Y275406D01*
X98143Y275448D01*
X98151Y275490D01*
X98163Y275518D01*
X98162Y275548D01*
X98170Y275590D01*
X98170Y299720D01*
X98159Y299770D01*
X98157Y299821D01*
X98139Y299853D01*
X98131Y299889D01*
X98098Y299928D01*
X98074Y299973D01*
X98044Y299994D01*
X98021Y300022D01*
X97974Y300043D01*
X97932Y300073D01*
X97890Y300081D01*
X97862Y300093D01*
X97832Y300092D01*
X97790Y300100D01*
X73660Y300100D01*
X73610Y300089D01*
X73559Y300087D01*
X73527Y300069D01*
X73491Y300061D01*
X73452Y300028D01*
X73407Y300004D01*
X73386Y299974D01*
X73358Y299951D01*
X73337Y299904D01*
X73307Y299862D01*
X73299Y299820D01*
X73287Y299792D01*
X73288Y299762D01*
X73280Y299720D01*
X73280Y275590D01*
X73291Y275540D01*
X73293Y275489D01*
X73311Y275457D01*
X73319Y275421D01*
X73352Y275382D01*
X73376Y275337D01*
X73406Y275316D01*
X73429Y275288D01*
X73476Y275267D01*
X73518Y275237D01*
X73560Y275229D01*
X73588Y275217D01*
X73618Y275218D01*
X73660Y275210D01*
X74806Y275210D01*
X74808Y275210D01*
G37*
G36*
X239445Y335546D02*
X239445Y335546D01*
X239496Y335548D01*
X239528Y335566D01*
X239564Y335574D01*
X239603Y335607D01*
X239648Y335631D01*
X239669Y335661D01*
X239697Y335684D01*
X239718Y335731D01*
X239748Y335773D01*
X239756Y335815D01*
X239768Y335843D01*
X239767Y335873D01*
X239775Y335915D01*
X239775Y359410D01*
X239764Y359460D01*
X239762Y359511D01*
X239744Y359543D01*
X239736Y359579D01*
X239703Y359618D01*
X239679Y359663D01*
X239649Y359684D01*
X239626Y359712D01*
X239579Y359733D01*
X239537Y359763D01*
X239495Y359771D01*
X239467Y359783D01*
X239437Y359782D01*
X239395Y359790D01*
X215583Y359790D01*
X215533Y359779D01*
X215482Y359777D01*
X215450Y359759D01*
X215414Y359751D01*
X215374Y359718D01*
X215330Y359694D01*
X215309Y359664D01*
X215280Y359641D01*
X215259Y359594D01*
X215230Y359552D01*
X215222Y359510D01*
X215209Y359482D01*
X215210Y359452D01*
X215202Y359410D01*
X215202Y335915D01*
X215214Y335865D01*
X215216Y335814D01*
X215233Y335782D01*
X215242Y335746D01*
X215274Y335707D01*
X215299Y335662D01*
X215329Y335641D01*
X215352Y335613D01*
X215399Y335592D01*
X215440Y335562D01*
X215482Y335554D01*
X215510Y335542D01*
X215541Y335543D01*
X215583Y335535D01*
X239395Y335535D01*
X239445Y335546D01*
G37*
G36*
X749667Y336181D02*
X749667Y336181D01*
X749718Y336183D01*
X749750Y336201D01*
X749786Y336209D01*
X749826Y336242D01*
X749870Y336266D01*
X749892Y336296D01*
X749920Y336319D01*
X749941Y336366D01*
X749970Y336408D01*
X749978Y336450D01*
X749991Y336478D01*
X749990Y336508D01*
X749998Y336550D01*
X749998Y360045D01*
X749986Y360095D01*
X749984Y360146D01*
X749967Y360178D01*
X749958Y360214D01*
X749926Y360253D01*
X749901Y360298D01*
X749871Y360319D01*
X749848Y360347D01*
X749801Y360368D01*
X749760Y360398D01*
X749718Y360406D01*
X749690Y360418D01*
X749659Y360417D01*
X749618Y360425D01*
X725805Y360425D01*
X725755Y360414D01*
X725704Y360412D01*
X725672Y360394D01*
X725636Y360386D01*
X725597Y360353D01*
X725552Y360329D01*
X725531Y360299D01*
X725503Y360276D01*
X725482Y360229D01*
X725452Y360187D01*
X725444Y360145D01*
X725432Y360117D01*
X725433Y360087D01*
X725425Y360045D01*
X725425Y336550D01*
X725436Y336500D01*
X725438Y336449D01*
X725456Y336417D01*
X725464Y336381D01*
X725497Y336342D01*
X725521Y336297D01*
X725551Y336276D01*
X725574Y336248D01*
X725621Y336227D01*
X725663Y336197D01*
X725705Y336189D01*
X725733Y336177D01*
X725763Y336178D01*
X725805Y336170D01*
X749618Y336170D01*
X749667Y336181D01*
G37*
G36*
X749667Y216166D02*
X749667Y216166D01*
X749718Y216168D01*
X749750Y216186D01*
X749786Y216194D01*
X749826Y216227D01*
X749870Y216251D01*
X749892Y216281D01*
X749920Y216304D01*
X749941Y216351D01*
X749970Y216393D01*
X749978Y216435D01*
X749991Y216463D01*
X749990Y216493D01*
X749998Y216535D01*
X749998Y240030D01*
X749986Y240080D01*
X749984Y240131D01*
X749967Y240163D01*
X749958Y240199D01*
X749926Y240238D01*
X749901Y240283D01*
X749871Y240304D01*
X749848Y240332D01*
X749801Y240353D01*
X749760Y240383D01*
X749718Y240391D01*
X749690Y240403D01*
X749659Y240402D01*
X749618Y240410D01*
X725805Y240410D01*
X725755Y240399D01*
X725704Y240397D01*
X725672Y240379D01*
X725636Y240371D01*
X725597Y240338D01*
X725552Y240314D01*
X725531Y240284D01*
X725503Y240261D01*
X725482Y240214D01*
X725452Y240172D01*
X725444Y240130D01*
X725432Y240102D01*
X725433Y240072D01*
X725425Y240030D01*
X725425Y216535D01*
X725436Y216485D01*
X725438Y216434D01*
X725456Y216402D01*
X725464Y216366D01*
X725497Y216327D01*
X725521Y216282D01*
X725551Y216261D01*
X725574Y216233D01*
X725621Y216212D01*
X725663Y216182D01*
X725705Y216174D01*
X725733Y216162D01*
X725763Y216163D01*
X725805Y216155D01*
X749618Y216155D01*
X749667Y216166D01*
G37*
G36*
X359460Y652411D02*
X359460Y652411D01*
X359511Y652413D01*
X359543Y652431D01*
X359579Y652439D01*
X359618Y652472D01*
X359663Y652496D01*
X359684Y652526D01*
X359712Y652549D01*
X359733Y652596D01*
X359763Y652638D01*
X359771Y652680D01*
X359783Y652708D01*
X359782Y652738D01*
X359790Y652780D01*
X359790Y669290D01*
X359779Y669340D01*
X359777Y669391D01*
X359759Y669423D01*
X359751Y669459D01*
X359718Y669498D01*
X359694Y669543D01*
X359664Y669564D01*
X359641Y669592D01*
X359594Y669613D01*
X359552Y669643D01*
X359510Y669651D01*
X359482Y669663D01*
X359452Y669662D01*
X359410Y669670D01*
X326390Y669670D01*
X326340Y669659D01*
X326289Y669657D01*
X326257Y669639D01*
X326221Y669631D01*
X326182Y669598D01*
X326137Y669574D01*
X326116Y669544D01*
X326088Y669521D01*
X326067Y669474D01*
X326037Y669432D01*
X326029Y669390D01*
X326017Y669362D01*
X326018Y669332D01*
X326010Y669290D01*
X326010Y652780D01*
X326021Y652730D01*
X326023Y652679D01*
X326041Y652647D01*
X326049Y652611D01*
X326082Y652572D01*
X326106Y652527D01*
X326136Y652506D01*
X326159Y652478D01*
X326206Y652457D01*
X326248Y652427D01*
X326290Y652419D01*
X326318Y652407D01*
X326348Y652408D01*
X326390Y652400D01*
X359410Y652400D01*
X359460Y652411D01*
G37*
G36*
X359460Y325386D02*
X359460Y325386D01*
X359511Y325388D01*
X359543Y325406D01*
X359579Y325414D01*
X359618Y325447D01*
X359663Y325471D01*
X359684Y325501D01*
X359712Y325524D01*
X359733Y325571D01*
X359763Y325613D01*
X359771Y325655D01*
X359783Y325683D01*
X359782Y325713D01*
X359790Y325755D01*
X359790Y342265D01*
X359779Y342315D01*
X359777Y342366D01*
X359759Y342398D01*
X359751Y342434D01*
X359718Y342473D01*
X359694Y342518D01*
X359664Y342539D01*
X359641Y342567D01*
X359594Y342588D01*
X359552Y342618D01*
X359510Y342626D01*
X359482Y342638D01*
X359452Y342637D01*
X359410Y342645D01*
X326390Y342645D01*
X326340Y342634D01*
X326289Y342632D01*
X326257Y342614D01*
X326221Y342606D01*
X326182Y342573D01*
X326137Y342549D01*
X326116Y342519D01*
X326088Y342496D01*
X326067Y342449D01*
X326037Y342407D01*
X326029Y342365D01*
X326017Y342337D01*
X326018Y342307D01*
X326010Y342265D01*
X326010Y325755D01*
X326021Y325705D01*
X326023Y325654D01*
X326041Y325622D01*
X326049Y325586D01*
X326082Y325547D01*
X326106Y325502D01*
X326136Y325481D01*
X326159Y325453D01*
X326206Y325432D01*
X326248Y325402D01*
X326290Y325394D01*
X326318Y325382D01*
X326348Y325383D01*
X326390Y325375D01*
X359410Y325375D01*
X359460Y325386D01*
G37*
G36*
X359460Y627011D02*
X359460Y627011D01*
X359511Y627013D01*
X359543Y627031D01*
X359579Y627039D01*
X359618Y627072D01*
X359663Y627096D01*
X359684Y627126D01*
X359712Y627149D01*
X359733Y627196D01*
X359763Y627238D01*
X359771Y627280D01*
X359783Y627308D01*
X359782Y627338D01*
X359790Y627380D01*
X359790Y643890D01*
X359779Y643940D01*
X359777Y643991D01*
X359759Y644023D01*
X359751Y644059D01*
X359718Y644098D01*
X359694Y644143D01*
X359664Y644164D01*
X359641Y644192D01*
X359594Y644213D01*
X359552Y644243D01*
X359510Y644251D01*
X359482Y644263D01*
X359452Y644262D01*
X359410Y644270D01*
X326390Y644270D01*
X326340Y644259D01*
X326289Y644257D01*
X326257Y644239D01*
X326221Y644231D01*
X326182Y644198D01*
X326137Y644174D01*
X326116Y644144D01*
X326088Y644121D01*
X326067Y644074D01*
X326037Y644032D01*
X326029Y643990D01*
X326017Y643962D01*
X326018Y643932D01*
X326010Y643890D01*
X326010Y627380D01*
X326021Y627330D01*
X326023Y627279D01*
X326041Y627247D01*
X326049Y627211D01*
X326082Y627172D01*
X326106Y627127D01*
X326136Y627106D01*
X326159Y627078D01*
X326206Y627057D01*
X326248Y627027D01*
X326290Y627019D01*
X326318Y627007D01*
X326348Y627008D01*
X326390Y627000D01*
X359410Y627000D01*
X359460Y627011D01*
G37*
G36*
X359460Y299986D02*
X359460Y299986D01*
X359511Y299988D01*
X359543Y300006D01*
X359579Y300014D01*
X359618Y300047D01*
X359663Y300071D01*
X359684Y300101D01*
X359712Y300124D01*
X359733Y300171D01*
X359763Y300213D01*
X359771Y300255D01*
X359783Y300283D01*
X359782Y300313D01*
X359790Y300355D01*
X359790Y316865D01*
X359779Y316915D01*
X359777Y316966D01*
X359759Y316998D01*
X359751Y317034D01*
X359718Y317073D01*
X359694Y317118D01*
X359664Y317139D01*
X359641Y317167D01*
X359594Y317188D01*
X359552Y317218D01*
X359510Y317226D01*
X359482Y317238D01*
X359452Y317237D01*
X359410Y317245D01*
X326390Y317245D01*
X326340Y317234D01*
X326289Y317232D01*
X326257Y317214D01*
X326221Y317206D01*
X326182Y317173D01*
X326137Y317149D01*
X326116Y317119D01*
X326088Y317096D01*
X326067Y317049D01*
X326037Y317007D01*
X326029Y316965D01*
X326017Y316937D01*
X326018Y316907D01*
X326010Y316865D01*
X326010Y300355D01*
X326021Y300305D01*
X326023Y300254D01*
X326041Y300222D01*
X326049Y300186D01*
X326082Y300147D01*
X326106Y300102D01*
X326136Y300081D01*
X326159Y300053D01*
X326206Y300032D01*
X326248Y300002D01*
X326290Y299994D01*
X326318Y299982D01*
X326348Y299983D01*
X326390Y299975D01*
X359410Y299975D01*
X359460Y299986D01*
G37*
G36*
X239127Y215531D02*
X239127Y215531D01*
X239178Y215533D01*
X239210Y215551D01*
X239246Y215559D01*
X239286Y215592D01*
X239330Y215616D01*
X239352Y215646D01*
X239380Y215669D01*
X239401Y215716D01*
X239430Y215758D01*
X239438Y215800D01*
X239451Y215828D01*
X239450Y215858D01*
X239458Y215900D01*
X239458Y239078D01*
X239446Y239127D01*
X239444Y239178D01*
X239427Y239210D01*
X239418Y239246D01*
X239386Y239286D01*
X239361Y239330D01*
X239331Y239352D01*
X239308Y239380D01*
X239261Y239401D01*
X239220Y239430D01*
X239178Y239438D01*
X239150Y239451D01*
X239119Y239450D01*
X239078Y239458D01*
X215583Y239458D01*
X215533Y239446D01*
X215482Y239444D01*
X215450Y239427D01*
X215414Y239418D01*
X215374Y239386D01*
X215330Y239361D01*
X215309Y239331D01*
X215280Y239308D01*
X215259Y239261D01*
X215230Y239220D01*
X215222Y239178D01*
X215209Y239150D01*
X215210Y239119D01*
X215202Y239078D01*
X215202Y215900D01*
X215214Y215850D01*
X215216Y215799D01*
X215233Y215767D01*
X215242Y215731D01*
X215274Y215692D01*
X215299Y215647D01*
X215329Y215626D01*
X215352Y215598D01*
X215399Y215577D01*
X215440Y215547D01*
X215482Y215539D01*
X215510Y215527D01*
X215541Y215528D01*
X215583Y215520D01*
X239078Y215520D01*
X239127Y215531D01*
G37*
G36*
X745540Y368249D02*
X745540Y368249D01*
X745591Y368251D01*
X745623Y368268D01*
X745659Y368277D01*
X745698Y368309D01*
X745743Y368334D01*
X745764Y368364D01*
X745792Y368387D01*
X745813Y368434D01*
X745843Y368475D01*
X745851Y368517D01*
X745863Y368545D01*
X745862Y368576D01*
X745870Y368618D01*
X745870Y398780D01*
X745859Y398830D01*
X745857Y398881D01*
X745839Y398913D01*
X745831Y398949D01*
X745798Y398988D01*
X745774Y399033D01*
X745744Y399054D01*
X745721Y399082D01*
X745674Y399103D01*
X745632Y399133D01*
X745590Y399141D01*
X745562Y399153D01*
X745532Y399152D01*
X745490Y399160D01*
X743709Y399160D01*
X743706Y399160D01*
X743704Y399160D01*
X743689Y399157D01*
X739667Y399157D01*
X739651Y399160D01*
X729933Y399160D01*
X729883Y399149D01*
X729832Y399147D01*
X729800Y399129D01*
X729764Y399121D01*
X729724Y399088D01*
X729680Y399064D01*
X729659Y399034D01*
X729630Y399011D01*
X729609Y398964D01*
X729580Y398922D01*
X729572Y398880D01*
X729559Y398852D01*
X729560Y398822D01*
X729552Y398780D01*
X729552Y368618D01*
X729564Y368568D01*
X729566Y368517D01*
X729583Y368485D01*
X729592Y368449D01*
X729624Y368409D01*
X729649Y368365D01*
X729679Y368344D01*
X729702Y368315D01*
X729749Y368294D01*
X729790Y368265D01*
X729832Y368257D01*
X729860Y368244D01*
X729891Y368245D01*
X729933Y368237D01*
X745490Y368237D01*
X745540Y368249D01*
G37*
G36*
X235000Y370471D02*
X235000Y370471D01*
X235051Y370473D01*
X235083Y370491D01*
X235119Y370499D01*
X235158Y370532D01*
X235203Y370556D01*
X235224Y370586D01*
X235252Y370609D01*
X235273Y370656D01*
X235303Y370698D01*
X235311Y370740D01*
X235323Y370768D01*
X235322Y370798D01*
X235330Y370840D01*
X235330Y401320D01*
X235319Y401370D01*
X235317Y401421D01*
X235299Y401453D01*
X235291Y401489D01*
X235258Y401528D01*
X235234Y401573D01*
X235204Y401594D01*
X235181Y401622D01*
X235134Y401643D01*
X235092Y401673D01*
X235050Y401681D01*
X235022Y401693D01*
X234992Y401692D01*
X234950Y401700D01*
X219710Y401700D01*
X219660Y401689D01*
X219609Y401687D01*
X219577Y401669D01*
X219541Y401661D01*
X219502Y401628D01*
X219457Y401604D01*
X219436Y401574D01*
X219408Y401551D01*
X219387Y401504D01*
X219357Y401462D01*
X219349Y401420D01*
X219337Y401392D01*
X219338Y401362D01*
X219330Y401320D01*
X219330Y370840D01*
X219341Y370790D01*
X219343Y370739D01*
X219361Y370707D01*
X219369Y370671D01*
X219402Y370632D01*
X219426Y370587D01*
X219456Y370566D01*
X219479Y370538D01*
X219526Y370517D01*
X219568Y370487D01*
X219610Y370479D01*
X219638Y370467D01*
X219668Y370468D01*
X219710Y370460D01*
X234950Y370460D01*
X235000Y370471D01*
G37*
%LPC*%
G36*
X176162Y791654D02*
X176162Y791654D01*
X169354Y798462D01*
X169354Y808088D01*
X176162Y814896D01*
X185788Y814896D01*
X192596Y808088D01*
X192596Y798462D01*
X185788Y791654D01*
X176162Y791654D01*
G37*
%LPD*%
%LPC*%
G36*
X379362Y99822D02*
X379362Y99822D01*
X372554Y106629D01*
X372554Y116256D01*
X379362Y123063D01*
X388988Y123063D01*
X395796Y116256D01*
X395796Y106629D01*
X388988Y99822D01*
X379362Y99822D01*
G37*
%LPD*%
%LPC*%
G36*
X278182Y228155D02*
X278182Y228155D01*
X271970Y234367D01*
X271970Y243153D01*
X278182Y249365D01*
X286968Y249365D01*
X293180Y243153D01*
X293180Y234367D01*
X286968Y228155D01*
X278182Y228155D01*
G37*
%LPD*%
%LPC*%
G36*
X379782Y228155D02*
X379782Y228155D01*
X373570Y234367D01*
X373570Y243153D01*
X379782Y249365D01*
X388568Y249365D01*
X394780Y243153D01*
X394780Y234367D01*
X388568Y228155D01*
X379782Y228155D01*
G37*
%LPD*%
%LPC*%
G36*
X278182Y680275D02*
X278182Y680275D01*
X271970Y686487D01*
X271970Y695273D01*
X278182Y701485D01*
X286968Y701485D01*
X293180Y695273D01*
X293180Y686487D01*
X286968Y680275D01*
X278182Y680275D01*
G37*
%LPD*%
%LPC*%
G36*
X176582Y680275D02*
X176582Y680275D01*
X170370Y686487D01*
X170370Y695273D01*
X176582Y701485D01*
X185368Y701485D01*
X191580Y695273D01*
X191580Y686487D01*
X185368Y680275D01*
X176582Y680275D01*
G37*
%LPD*%
%LPC*%
G36*
X21915Y253473D02*
X21915Y253473D01*
X21915Y268587D01*
X42444Y268587D01*
X43090Y268414D01*
X43669Y268080D01*
X44142Y267607D01*
X44477Y267027D01*
X44650Y266381D01*
X44650Y253473D01*
X21915Y253473D01*
G37*
%LPD*%
%LPC*%
G36*
X21915Y323365D02*
X21915Y323365D01*
X21915Y338479D01*
X42444Y338479D01*
X43090Y338306D01*
X43669Y337972D01*
X44142Y337499D01*
X44477Y336919D01*
X44650Y336273D01*
X44650Y323365D01*
X21915Y323365D01*
G37*
%LPD*%
%LPC*%
G36*
X835350Y323680D02*
X835350Y323680D01*
X835350Y336588D01*
X835523Y337234D01*
X835858Y337814D01*
X836331Y338287D01*
X836910Y338621D01*
X837556Y338794D01*
X858085Y338794D01*
X858085Y323680D01*
X835350Y323680D01*
G37*
%LPD*%
%LPC*%
G36*
X835350Y253788D02*
X835350Y253788D01*
X835350Y266696D01*
X835523Y267342D01*
X835858Y267922D01*
X836331Y268395D01*
X836910Y268729D01*
X837556Y268902D01*
X858085Y268902D01*
X858085Y253788D01*
X835350Y253788D01*
G37*
%LPD*%
%LPC*%
G36*
X21915Y236836D02*
X21915Y236836D01*
X21915Y251950D01*
X44650Y251950D01*
X44650Y239042D01*
X44477Y238396D01*
X44142Y237816D01*
X43669Y237343D01*
X43090Y237009D01*
X42444Y236836D01*
X21915Y236836D01*
G37*
%LPD*%
%LPC*%
G36*
X21915Y306728D02*
X21915Y306728D01*
X21915Y321842D01*
X44650Y321842D01*
X44650Y308934D01*
X44477Y308288D01*
X44142Y307708D01*
X43669Y307235D01*
X43090Y306901D01*
X42444Y306728D01*
X21915Y306728D01*
G37*
%LPD*%
%LPC*%
G36*
X837556Y237151D02*
X837556Y237151D01*
X836910Y237324D01*
X836331Y237658D01*
X835858Y238131D01*
X835523Y238711D01*
X835350Y239357D01*
X835350Y252265D01*
X858085Y252265D01*
X858085Y237151D01*
X837556Y237151D01*
G37*
%LPD*%
%LPC*%
G36*
X837556Y307043D02*
X837556Y307043D01*
X836910Y307216D01*
X836331Y307550D01*
X835858Y308023D01*
X835523Y308603D01*
X835350Y309249D01*
X835350Y322157D01*
X858085Y322157D01*
X858085Y307043D01*
X837556Y307043D01*
G37*
%LPD*%
G36*
X191502Y488899D02*
X191502Y488899D01*
X191553Y488901D01*
X191585Y488918D01*
X191621Y488927D01*
X191661Y488959D01*
X191705Y488984D01*
X191727Y489014D01*
X191755Y489037D01*
X191776Y489084D01*
X191805Y489125D01*
X191813Y489167D01*
X191826Y489195D01*
X191825Y489226D01*
X191833Y489268D01*
X191833Y508953D01*
X191821Y509002D01*
X191819Y509053D01*
X191802Y509085D01*
X191793Y509121D01*
X191761Y509161D01*
X191736Y509205D01*
X191706Y509227D01*
X191683Y509255D01*
X191636Y509276D01*
X191595Y509305D01*
X191553Y509313D01*
X191525Y509326D01*
X191494Y509325D01*
X191453Y509333D01*
X176848Y509333D01*
X176798Y509321D01*
X176747Y509319D01*
X176715Y509302D01*
X176679Y509293D01*
X176639Y509261D01*
X176595Y509236D01*
X176574Y509206D01*
X176545Y509183D01*
X176524Y509136D01*
X176495Y509095D01*
X176487Y509053D01*
X176474Y509025D01*
X176475Y508994D01*
X176467Y508953D01*
X176467Y489268D01*
X176479Y489218D01*
X176481Y489167D01*
X176498Y489135D01*
X176507Y489099D01*
X176539Y489059D01*
X176564Y489015D01*
X176594Y488994D01*
X176617Y488965D01*
X176664Y488944D01*
X176705Y488915D01*
X176747Y488907D01*
X176775Y488894D01*
X176806Y488895D01*
X176848Y488887D01*
X191453Y488887D01*
X191502Y488899D01*
G37*
%LPC*%
G36*
X481456Y820546D02*
X481456Y820546D01*
X481456Y838074D01*
X488270Y838074D01*
X498984Y827360D01*
X498984Y820546D01*
X481456Y820546D01*
G37*
%LPD*%
%LPC*%
G36*
X481456Y801496D02*
X481456Y801496D01*
X481456Y819024D01*
X498984Y819024D01*
X498984Y812210D01*
X488270Y801496D01*
X481456Y801496D01*
G37*
%LPD*%
%LPC*%
G36*
X462406Y820546D02*
X462406Y820546D01*
X462406Y827360D01*
X473120Y838074D01*
X479934Y838074D01*
X479934Y820546D01*
X462406Y820546D01*
G37*
%LPD*%
%LPC*%
G36*
X473120Y801496D02*
X473120Y801496D01*
X462406Y812210D01*
X462406Y819024D01*
X479934Y819024D01*
X479934Y801496D01*
X473120Y801496D01*
G37*
%LPD*%
%LPC*%
G36*
X823086Y390016D02*
X823086Y390016D01*
X823086Y402273D01*
X833827Y402273D01*
X835851Y401953D01*
X837800Y401320D01*
X839626Y400389D01*
X841283Y399185D01*
X842732Y397736D01*
X843937Y396078D01*
X844867Y394252D01*
X845500Y392303D01*
X845821Y390280D01*
X845821Y390016D01*
X823086Y390016D01*
G37*
%LPD*%
%LPC*%
G36*
X823086Y440816D02*
X823086Y440816D01*
X823086Y453073D01*
X833827Y453073D01*
X835851Y452753D01*
X837800Y452120D01*
X839626Y451189D01*
X841283Y449985D01*
X842732Y448536D01*
X843937Y446878D01*
X844867Y445052D01*
X845500Y443103D01*
X845821Y441080D01*
X845821Y440816D01*
X823086Y440816D01*
G37*
%LPD*%
%LPC*%
G36*
X798829Y390016D02*
X798829Y390016D01*
X798829Y390280D01*
X799150Y392303D01*
X799783Y394252D01*
X800713Y396078D01*
X801918Y397736D01*
X803367Y399185D01*
X805024Y400389D01*
X806850Y401320D01*
X808799Y401953D01*
X810823Y402273D01*
X821564Y402273D01*
X821564Y390016D01*
X798829Y390016D01*
G37*
%LPD*%
%LPC*%
G36*
X798829Y440816D02*
X798829Y440816D01*
X798829Y441080D01*
X799150Y443103D01*
X799783Y445052D01*
X800713Y446878D01*
X801918Y448536D01*
X803367Y449985D01*
X805024Y451189D01*
X806850Y452120D01*
X808799Y452753D01*
X810823Y453073D01*
X821564Y453073D01*
X821564Y440816D01*
X798829Y440816D01*
G37*
%LPD*%
%LPC*%
G36*
X823086Y376237D02*
X823086Y376237D01*
X823086Y388494D01*
X845821Y388494D01*
X845821Y388230D01*
X845500Y386207D01*
X844867Y384258D01*
X843937Y382432D01*
X842732Y380774D01*
X841283Y379325D01*
X839626Y378121D01*
X837800Y377190D01*
X835851Y376557D01*
X833827Y376237D01*
X823086Y376237D01*
G37*
%LPD*%
%LPC*%
G36*
X823086Y427037D02*
X823086Y427037D01*
X823086Y439294D01*
X845821Y439294D01*
X845821Y439030D01*
X845500Y437007D01*
X844867Y435058D01*
X843937Y433232D01*
X842732Y431574D01*
X841283Y430125D01*
X839626Y428921D01*
X837800Y427990D01*
X835851Y427357D01*
X833827Y427037D01*
X823086Y427037D01*
G37*
%LPD*%
%LPC*%
G36*
X810823Y427037D02*
X810823Y427037D01*
X808799Y427357D01*
X806850Y427990D01*
X805024Y428921D01*
X803367Y430125D01*
X801918Y431574D01*
X800713Y433232D01*
X799783Y435058D01*
X799150Y437007D01*
X798829Y439030D01*
X798829Y439294D01*
X821564Y439294D01*
X821564Y427037D01*
X810823Y427037D01*
G37*
%LPD*%
%LPC*%
G36*
X810823Y376237D02*
X810823Y376237D01*
X808799Y376557D01*
X806850Y377190D01*
X805024Y378121D01*
X803367Y379325D01*
X801918Y380774D01*
X800713Y382432D01*
X799783Y384258D01*
X799150Y386207D01*
X798829Y388230D01*
X798829Y388494D01*
X821564Y388494D01*
X821564Y376237D01*
X810823Y376237D01*
G37*
%LPD*%
G36*
X39102Y440004D02*
X39102Y440004D01*
X39153Y440006D01*
X39185Y440023D01*
X39221Y440032D01*
X39261Y440064D01*
X39305Y440089D01*
X39327Y440119D01*
X39355Y440142D01*
X39376Y440189D01*
X39405Y440230D01*
X39413Y440272D01*
X39426Y440300D01*
X39425Y440331D01*
X39433Y440373D01*
X39433Y454978D01*
X39421Y455027D01*
X39419Y455078D01*
X39402Y455110D01*
X39393Y455146D01*
X39361Y455186D01*
X39336Y455230D01*
X39306Y455252D01*
X39283Y455280D01*
X39236Y455301D01*
X39195Y455330D01*
X39153Y455338D01*
X39125Y455351D01*
X39094Y455350D01*
X39053Y455358D01*
X24448Y455358D01*
X24398Y455346D01*
X24347Y455344D01*
X24315Y455327D01*
X24279Y455318D01*
X24239Y455286D01*
X24195Y455261D01*
X24174Y455231D01*
X24145Y455208D01*
X24124Y455161D01*
X24095Y455120D01*
X24087Y455078D01*
X24074Y455050D01*
X24075Y455019D01*
X24067Y454978D01*
X24067Y440373D01*
X24079Y440323D01*
X24081Y440272D01*
X24098Y440240D01*
X24107Y440204D01*
X24139Y440164D01*
X24164Y440120D01*
X24194Y440099D01*
X24217Y440070D01*
X24264Y440049D01*
X24305Y440020D01*
X24347Y440012D01*
X24375Y439999D01*
X24406Y440000D01*
X24448Y439992D01*
X39053Y439992D01*
X39102Y440004D01*
G37*
G36*
X191502Y440004D02*
X191502Y440004D01*
X191553Y440006D01*
X191585Y440023D01*
X191621Y440032D01*
X191661Y440064D01*
X191705Y440089D01*
X191727Y440119D01*
X191755Y440142D01*
X191776Y440189D01*
X191805Y440230D01*
X191813Y440272D01*
X191826Y440300D01*
X191825Y440331D01*
X191833Y440373D01*
X191833Y454978D01*
X191821Y455027D01*
X191819Y455078D01*
X191802Y455110D01*
X191793Y455146D01*
X191761Y455186D01*
X191736Y455230D01*
X191706Y455252D01*
X191683Y455280D01*
X191636Y455301D01*
X191595Y455330D01*
X191553Y455338D01*
X191525Y455351D01*
X191494Y455350D01*
X191453Y455358D01*
X176848Y455358D01*
X176798Y455346D01*
X176747Y455344D01*
X176715Y455327D01*
X176679Y455318D01*
X176639Y455286D01*
X176595Y455261D01*
X176574Y455231D01*
X176545Y455208D01*
X176524Y455161D01*
X176495Y455120D01*
X176487Y455078D01*
X176474Y455050D01*
X176475Y455019D01*
X176467Y454978D01*
X176467Y440373D01*
X176479Y440323D01*
X176481Y440272D01*
X176498Y440240D01*
X176507Y440204D01*
X176539Y440164D01*
X176564Y440120D01*
X176594Y440099D01*
X176617Y440070D01*
X176664Y440049D01*
X176705Y440020D01*
X176747Y440012D01*
X176775Y439999D01*
X176806Y440000D01*
X176848Y439992D01*
X191453Y439992D01*
X191502Y440004D01*
G37*
G36*
X191502Y390474D02*
X191502Y390474D01*
X191553Y390476D01*
X191585Y390493D01*
X191621Y390502D01*
X191661Y390534D01*
X191705Y390559D01*
X191727Y390589D01*
X191755Y390612D01*
X191776Y390659D01*
X191805Y390700D01*
X191813Y390742D01*
X191826Y390770D01*
X191825Y390801D01*
X191833Y390843D01*
X191833Y405448D01*
X191821Y405497D01*
X191819Y405548D01*
X191802Y405580D01*
X191793Y405616D01*
X191761Y405656D01*
X191736Y405700D01*
X191706Y405722D01*
X191683Y405750D01*
X191636Y405771D01*
X191595Y405800D01*
X191553Y405808D01*
X191525Y405821D01*
X191494Y405820D01*
X191453Y405828D01*
X176848Y405828D01*
X176798Y405816D01*
X176747Y405814D01*
X176715Y405797D01*
X176679Y405788D01*
X176639Y405756D01*
X176595Y405731D01*
X176574Y405701D01*
X176545Y405678D01*
X176524Y405631D01*
X176495Y405590D01*
X176487Y405548D01*
X176474Y405520D01*
X176475Y405489D01*
X176467Y405448D01*
X176467Y390843D01*
X176479Y390793D01*
X176481Y390742D01*
X176498Y390710D01*
X176507Y390674D01*
X176539Y390634D01*
X176564Y390590D01*
X176594Y390569D01*
X176617Y390540D01*
X176664Y390519D01*
X176705Y390490D01*
X176747Y390482D01*
X176775Y390469D01*
X176806Y390470D01*
X176848Y390462D01*
X191453Y390462D01*
X191502Y390474D01*
G37*
%LPC*%
G36*
X343661Y599312D02*
X343661Y599312D01*
X343661Y609474D01*
X362205Y609474D01*
X362205Y609375D01*
X361936Y607677D01*
X361405Y606042D01*
X360624Y604510D01*
X359613Y603119D01*
X358398Y601904D01*
X357007Y600893D01*
X355475Y600112D01*
X353840Y599581D01*
X352142Y599312D01*
X343661Y599312D01*
G37*
%LPD*%
%LPC*%
G36*
X343661Y272287D02*
X343661Y272287D01*
X343661Y282449D01*
X362205Y282449D01*
X362205Y282350D01*
X361936Y280652D01*
X361405Y279017D01*
X360624Y277485D01*
X359613Y276094D01*
X358398Y274879D01*
X357007Y273868D01*
X355475Y273087D01*
X353840Y272556D01*
X352142Y272287D01*
X343661Y272287D01*
G37*
%LPD*%
%LPC*%
G36*
X333658Y599312D02*
X333658Y599312D01*
X331960Y599581D01*
X330325Y600112D01*
X328793Y600893D01*
X327402Y601904D01*
X326187Y603119D01*
X325176Y604510D01*
X324395Y606042D01*
X323864Y607677D01*
X323595Y609375D01*
X323595Y609474D01*
X342139Y609474D01*
X342139Y599312D01*
X333658Y599312D01*
G37*
%LPD*%
%LPC*%
G36*
X333658Y272287D02*
X333658Y272287D01*
X331960Y272556D01*
X330325Y273087D01*
X328793Y273868D01*
X327402Y274879D01*
X326187Y276094D01*
X325176Y277485D01*
X324395Y279017D01*
X323864Y280652D01*
X323595Y282350D01*
X323595Y282449D01*
X342139Y282449D01*
X342139Y272287D01*
X333658Y272287D01*
G37*
%LPD*%
%LPC*%
G36*
X763714Y384301D02*
X763714Y384301D01*
X763714Y401321D01*
X763752Y401321D01*
X765332Y401071D01*
X766853Y400576D01*
X768278Y399850D01*
X769572Y398910D01*
X770703Y397779D01*
X771643Y396485D01*
X772369Y395060D01*
X772863Y393539D01*
X773113Y391960D01*
X773113Y384301D01*
X763714Y384301D01*
G37*
%LPD*%
%LPC*%
G36*
X253491Y386841D02*
X253491Y386841D01*
X253491Y403861D01*
X253530Y403861D01*
X255109Y403611D01*
X256630Y403116D01*
X258055Y402390D01*
X259349Y401450D01*
X260480Y400319D01*
X261420Y399025D01*
X262146Y397600D01*
X262641Y396079D01*
X262891Y394500D01*
X262891Y386841D01*
X253491Y386841D01*
G37*
%LPD*%
%LPC*%
G36*
X80771Y179196D02*
X80771Y179196D01*
X80771Y196216D01*
X80810Y196216D01*
X82389Y195966D01*
X83910Y195471D01*
X85335Y194745D01*
X86629Y193805D01*
X87760Y192674D01*
X88700Y191380D01*
X89426Y189955D01*
X89921Y188434D01*
X90171Y186855D01*
X90171Y179196D01*
X80771Y179196D01*
G37*
%LPD*%
%LPC*%
G36*
X80771Y160654D02*
X80771Y160654D01*
X80771Y177674D01*
X90171Y177674D01*
X90171Y170015D01*
X89921Y168436D01*
X89426Y166915D01*
X88700Y165490D01*
X87760Y164196D01*
X86629Y163065D01*
X85335Y162125D01*
X83910Y161399D01*
X82389Y160904D01*
X80810Y160654D01*
X80771Y160654D01*
G37*
%LPD*%
%LPC*%
G36*
X253491Y368299D02*
X253491Y368299D01*
X253491Y385319D01*
X262891Y385319D01*
X262891Y377660D01*
X262641Y376081D01*
X262146Y374560D01*
X261420Y373135D01*
X260480Y371841D01*
X259349Y370710D01*
X258055Y369770D01*
X256630Y369044D01*
X255109Y368549D01*
X253530Y368299D01*
X253491Y368299D01*
G37*
%LPD*%
%LPC*%
G36*
X763714Y365759D02*
X763714Y365759D01*
X763714Y382779D01*
X773113Y382779D01*
X773113Y375120D01*
X772863Y373541D01*
X772369Y372020D01*
X771643Y370595D01*
X770703Y369301D01*
X769572Y368170D01*
X768278Y367230D01*
X766853Y366504D01*
X765332Y366009D01*
X763752Y365759D01*
X763714Y365759D01*
G37*
%LPD*%
%LPC*%
G36*
X69849Y179196D02*
X69849Y179196D01*
X69849Y186855D01*
X70099Y188434D01*
X70594Y189955D01*
X71320Y191380D01*
X72260Y192674D01*
X73391Y193805D01*
X74685Y194745D01*
X76110Y195471D01*
X77631Y195966D01*
X79210Y196216D01*
X79249Y196216D01*
X79249Y179196D01*
X69849Y179196D01*
G37*
%LPD*%
%LPC*%
G36*
X752792Y384301D02*
X752792Y384301D01*
X752792Y391960D01*
X753042Y393539D01*
X753536Y395060D01*
X754262Y396485D01*
X755202Y397779D01*
X756333Y398910D01*
X757627Y399850D01*
X759052Y400576D01*
X760573Y401071D01*
X762153Y401321D01*
X762191Y401321D01*
X762191Y384301D01*
X752792Y384301D01*
G37*
%LPD*%
%LPC*%
G36*
X242569Y386841D02*
X242569Y386841D01*
X242569Y394500D01*
X242819Y396079D01*
X243314Y397600D01*
X244040Y399025D01*
X244980Y400319D01*
X246111Y401450D01*
X247405Y402390D01*
X248830Y403116D01*
X250351Y403611D01*
X251930Y403861D01*
X251969Y403861D01*
X251969Y386841D01*
X242569Y386841D01*
G37*
%LPD*%
%LPC*%
G36*
X251930Y368299D02*
X251930Y368299D01*
X250351Y368549D01*
X248830Y369044D01*
X247405Y369770D01*
X246111Y370710D01*
X244980Y371841D01*
X244040Y373135D01*
X243314Y374560D01*
X242819Y376081D01*
X242569Y377660D01*
X242569Y385319D01*
X251969Y385319D01*
X251969Y368299D01*
X251930Y368299D01*
G37*
%LPD*%
%LPC*%
G36*
X79210Y160654D02*
X79210Y160654D01*
X77631Y160904D01*
X76110Y161399D01*
X74685Y162125D01*
X73391Y163065D01*
X72260Y164196D01*
X71320Y165490D01*
X70594Y166915D01*
X70099Y168436D01*
X69849Y170015D01*
X69849Y177674D01*
X79249Y177674D01*
X79249Y160654D01*
X79210Y160654D01*
G37*
%LPD*%
%LPC*%
G36*
X762153Y365759D02*
X762153Y365759D01*
X760573Y366009D01*
X759052Y366504D01*
X757627Y367230D01*
X756333Y368170D01*
X755202Y369301D01*
X754262Y370595D01*
X753536Y372020D01*
X753042Y373541D01*
X752792Y375120D01*
X752792Y382779D01*
X762191Y382779D01*
X762191Y365759D01*
X762153Y365759D01*
G37*
%LPD*%
%LPC*%
G36*
X486536Y169671D02*
X486536Y169671D01*
X486536Y178055D01*
X493280Y178055D01*
X495046Y177703D01*
X496711Y177014D01*
X498208Y176013D01*
X499482Y174739D01*
X500483Y173242D01*
X501172Y171577D01*
X501524Y169811D01*
X501524Y169671D01*
X486536Y169671D01*
G37*
%LPD*%
%LPC*%
G36*
X398271Y739901D02*
X398271Y739901D01*
X398271Y748285D01*
X405015Y748285D01*
X406781Y747933D01*
X408446Y747244D01*
X409943Y746243D01*
X411217Y744969D01*
X412218Y743472D01*
X412907Y741807D01*
X413259Y740041D01*
X413259Y739901D01*
X398271Y739901D01*
G37*
%LPD*%
%LPC*%
G36*
X670686Y96011D02*
X670686Y96011D01*
X670686Y104395D01*
X677430Y104395D01*
X679196Y104043D01*
X680861Y103354D01*
X682358Y102353D01*
X683632Y101079D01*
X684633Y99582D01*
X685322Y97917D01*
X685674Y96151D01*
X685674Y96011D01*
X670686Y96011D01*
G37*
%LPD*%
%LPC*%
G36*
X470026Y169671D02*
X470026Y169671D01*
X470026Y169811D01*
X470119Y170279D01*
X470120Y170280D01*
X470195Y170660D01*
X470346Y171420D01*
X470378Y171577D01*
X471067Y173242D01*
X472068Y174739D01*
X473342Y176013D01*
X474839Y177014D01*
X476504Y177703D01*
X478270Y178055D01*
X485014Y178055D01*
X485014Y169671D01*
X470026Y169671D01*
G37*
%LPD*%
%LPC*%
G36*
X654176Y96011D02*
X654176Y96011D01*
X654176Y96151D01*
X654399Y97271D01*
X654399Y97272D01*
X654475Y97652D01*
X654528Y97917D01*
X655217Y99582D01*
X656218Y101079D01*
X657492Y102353D01*
X658989Y103354D01*
X660654Y104043D01*
X662420Y104395D01*
X669164Y104395D01*
X669164Y96011D01*
X654176Y96011D01*
G37*
%LPD*%
%LPC*%
G36*
X381761Y739901D02*
X381761Y739901D01*
X381761Y740041D01*
X381883Y740654D01*
X381883Y740655D01*
X381959Y741035D01*
X382113Y741807D01*
X382802Y743472D01*
X383803Y744969D01*
X385077Y746243D01*
X386574Y747244D01*
X388239Y747933D01*
X390005Y748285D01*
X396749Y748285D01*
X396749Y739901D01*
X381761Y739901D01*
G37*
%LPD*%
%LPC*%
G36*
X486536Y159765D02*
X486536Y159765D01*
X486536Y168149D01*
X501524Y168149D01*
X501524Y168009D01*
X501475Y167763D01*
X501248Y166622D01*
X501172Y166243D01*
X500483Y164578D01*
X499482Y163081D01*
X498208Y161807D01*
X496711Y160806D01*
X495046Y160117D01*
X493280Y159765D01*
X486536Y159765D01*
G37*
%LPD*%
%LPC*%
G36*
X398271Y729995D02*
X398271Y729995D01*
X398271Y738379D01*
X413259Y738379D01*
X413259Y738239D01*
X413239Y738138D01*
X413087Y737377D01*
X413012Y736997D01*
X412907Y736473D01*
X412218Y734808D01*
X411217Y733311D01*
X409943Y732037D01*
X408446Y731036D01*
X406781Y730347D01*
X405015Y729995D01*
X398271Y729995D01*
G37*
%LPD*%
%LPC*%
G36*
X670686Y86105D02*
X670686Y86105D01*
X670686Y94489D01*
X685674Y94489D01*
X685674Y94349D01*
X685527Y93614D01*
X685452Y93234D01*
X685322Y92583D01*
X684633Y90918D01*
X683632Y89421D01*
X682358Y88147D01*
X680861Y87146D01*
X679196Y86457D01*
X677430Y86105D01*
X670686Y86105D01*
G37*
%LPD*%
%LPC*%
G36*
X478270Y159765D02*
X478270Y159765D01*
X476504Y160117D01*
X474839Y160806D01*
X473342Y161807D01*
X472068Y163081D01*
X471067Y164578D01*
X470378Y166243D01*
X470026Y168009D01*
X470026Y168149D01*
X485014Y168149D01*
X485014Y159765D01*
X478270Y159765D01*
G37*
%LPD*%
%LPC*%
G36*
X662420Y86105D02*
X662420Y86105D01*
X660654Y86457D01*
X658989Y87146D01*
X657492Y88147D01*
X656218Y89421D01*
X655217Y90918D01*
X654528Y92583D01*
X654176Y94349D01*
X654176Y94489D01*
X669164Y94489D01*
X669164Y86105D01*
X662420Y86105D01*
G37*
%LPD*%
%LPC*%
G36*
X390005Y729995D02*
X390005Y729995D01*
X388239Y730347D01*
X386574Y731036D01*
X385077Y732037D01*
X383803Y733311D01*
X382802Y734808D01*
X382113Y736473D01*
X381761Y738239D01*
X381761Y738379D01*
X396749Y738379D01*
X396749Y729995D01*
X390005Y729995D01*
G37*
%LPD*%
%LPC*%
G36*
X118871Y663701D02*
X118871Y663701D01*
X118871Y673863D01*
X118970Y673863D01*
X120668Y673594D01*
X122303Y673063D01*
X123835Y672282D01*
X125226Y671271D01*
X126441Y670056D01*
X127452Y668665D01*
X128233Y667133D01*
X128764Y665498D01*
X129033Y663800D01*
X129033Y663701D01*
X118871Y663701D01*
G37*
%LPD*%
%LPC*%
G36*
X107187Y663701D02*
X107187Y663701D01*
X107187Y663800D01*
X107456Y665498D01*
X107987Y667133D01*
X108768Y668665D01*
X109779Y670056D01*
X110994Y671271D01*
X112385Y672282D01*
X113917Y673063D01*
X115552Y673594D01*
X117250Y673863D01*
X117349Y673863D01*
X117349Y663701D01*
X107187Y663701D01*
G37*
%LPD*%
%LPC*%
G36*
X118871Y652017D02*
X118871Y652017D01*
X118871Y662179D01*
X129033Y662179D01*
X129033Y662080D01*
X128764Y660382D01*
X128233Y658747D01*
X127452Y657215D01*
X126441Y655824D01*
X125226Y654609D01*
X123835Y653598D01*
X122303Y652817D01*
X120668Y652286D01*
X118970Y652017D01*
X118871Y652017D01*
G37*
%LPD*%
%LPC*%
G36*
X117250Y652017D02*
X117250Y652017D01*
X115552Y652286D01*
X113917Y652817D01*
X112385Y653598D01*
X110994Y654609D01*
X109779Y655824D01*
X108768Y657215D01*
X107987Y658747D01*
X107456Y660382D01*
X107187Y662080D01*
X107187Y662179D01*
X117349Y662179D01*
X117349Y652017D01*
X117250Y652017D01*
G37*
%LPD*%
%LPC*%
G36*
X125196Y539241D02*
X125196Y539241D01*
X125196Y548521D01*
X131270Y548521D01*
X131916Y548348D01*
X132495Y548013D01*
X132968Y547540D01*
X133303Y546961D01*
X133476Y546315D01*
X133476Y539241D01*
X125196Y539241D01*
G37*
%LPD*%
%LPC*%
G36*
X650976Y772921D02*
X650976Y772921D01*
X650976Y782201D01*
X657050Y782201D01*
X657696Y782028D01*
X658275Y781693D01*
X658748Y781220D01*
X659083Y780641D01*
X659256Y779995D01*
X659256Y772921D01*
X650976Y772921D01*
G37*
%LPD*%
%LPC*%
G36*
X125196Y528439D02*
X125196Y528439D01*
X125196Y537719D01*
X133476Y537719D01*
X133476Y530645D01*
X133303Y529999D01*
X132968Y529420D01*
X132495Y528947D01*
X131916Y528612D01*
X131270Y528439D01*
X125196Y528439D01*
G37*
%LPD*%
%LPC*%
G36*
X650976Y762119D02*
X650976Y762119D01*
X650976Y771399D01*
X659256Y771399D01*
X659256Y764325D01*
X659083Y763679D01*
X658748Y763100D01*
X658275Y762627D01*
X657696Y762292D01*
X657050Y762119D01*
X650976Y762119D01*
G37*
%LPD*%
%LPC*%
G36*
X166814Y69089D02*
X166814Y69089D01*
X166814Y77369D01*
X176093Y77369D01*
X176093Y71295D01*
X175920Y70649D01*
X175586Y70070D01*
X175113Y69597D01*
X174533Y69262D01*
X173887Y69089D01*
X166814Y69089D01*
G37*
%LPD*%
%LPC*%
G36*
X198561Y69089D02*
X198561Y69089D01*
X198561Y77369D01*
X207841Y77369D01*
X207841Y71295D01*
X207668Y70649D01*
X207333Y70070D01*
X206860Y69597D01*
X206281Y69262D01*
X205635Y69089D01*
X198561Y69089D01*
G37*
%LPD*%
%LPC*%
G36*
X708151Y432944D02*
X708151Y432944D01*
X708151Y441224D01*
X717431Y441224D01*
X717431Y435150D01*
X717258Y434504D01*
X716923Y433925D01*
X716450Y433452D01*
X715871Y433117D01*
X715225Y432944D01*
X708151Y432944D01*
G37*
%LPD*%
%LPC*%
G36*
X189965Y69089D02*
X189965Y69089D01*
X189319Y69262D01*
X188740Y69597D01*
X188267Y70070D01*
X187932Y70649D01*
X187759Y71295D01*
X187759Y77369D01*
X197039Y77369D01*
X197039Y69089D01*
X189965Y69089D01*
G37*
%LPD*%
%LPC*%
G36*
X158218Y69089D02*
X158218Y69089D01*
X157572Y69262D01*
X156992Y69597D01*
X156519Y70070D01*
X156185Y70649D01*
X156012Y71295D01*
X156012Y77369D01*
X165291Y77369D01*
X165291Y69089D01*
X158218Y69089D01*
G37*
%LPD*%
%LPC*%
G36*
X699555Y432944D02*
X699555Y432944D01*
X698909Y433117D01*
X698330Y433452D01*
X697857Y433925D01*
X697522Y434504D01*
X697349Y435150D01*
X697349Y441224D01*
X706629Y441224D01*
X706629Y432944D01*
X699555Y432944D01*
G37*
%LPD*%
%LPC*%
G36*
X195969Y191429D02*
X195969Y191429D01*
X195969Y199208D01*
X203043Y199208D01*
X203689Y199035D01*
X204268Y198701D01*
X204741Y198228D01*
X205076Y197648D01*
X205249Y197002D01*
X205249Y191429D01*
X195969Y191429D01*
G37*
%LPD*%
%LPC*%
G36*
X185168Y191429D02*
X185168Y191429D01*
X185168Y197002D01*
X185341Y197648D01*
X185675Y198228D01*
X186148Y198701D01*
X186728Y199035D01*
X187374Y199208D01*
X194447Y199208D01*
X194447Y191429D01*
X185168Y191429D01*
G37*
%LPD*%
%LPC*%
G36*
X195969Y182127D02*
X195969Y182127D01*
X195969Y189906D01*
X205249Y189906D01*
X205249Y184333D01*
X205076Y183687D01*
X204741Y183108D01*
X204268Y182635D01*
X203689Y182300D01*
X203043Y182127D01*
X195969Y182127D01*
G37*
%LPD*%
%LPC*%
G36*
X187374Y182127D02*
X187374Y182127D01*
X186728Y182300D01*
X186148Y182635D01*
X185675Y183108D01*
X185341Y183687D01*
X185168Y184333D01*
X185168Y189906D01*
X194447Y189906D01*
X194447Y182127D01*
X187374Y182127D01*
G37*
%LPD*%
%LPC*%
G36*
X460501Y234441D02*
X460501Y234441D01*
X460501Y243841D01*
X463949Y243841D01*
X469901Y237889D01*
X469901Y234441D01*
X460501Y234441D01*
G37*
%LPD*%
%LPC*%
G36*
X32509Y499871D02*
X32509Y499871D01*
X32509Y509271D01*
X35956Y509271D01*
X41908Y503319D01*
X41908Y499871D01*
X32509Y499871D01*
G37*
%LPD*%
%LPC*%
G36*
X32445Y398965D02*
X32445Y398965D01*
X32445Y408364D01*
X35893Y408364D01*
X41845Y402412D01*
X41845Y398965D01*
X32445Y398965D01*
G37*
%LPD*%
%LPC*%
G36*
X460501Y711326D02*
X460501Y711326D01*
X460501Y720726D01*
X463949Y720726D01*
X469901Y714774D01*
X469901Y711326D01*
X460501Y711326D01*
G37*
%LPD*%
%LPC*%
G36*
X21587Y499871D02*
X21587Y499871D01*
X21587Y503319D01*
X27539Y509271D01*
X30986Y509271D01*
X30986Y499871D01*
X21587Y499871D01*
G37*
%LPD*%
%LPC*%
G36*
X21523Y398965D02*
X21523Y398965D01*
X21523Y402412D01*
X27475Y408364D01*
X30923Y408364D01*
X30923Y398965D01*
X21523Y398965D01*
G37*
%LPD*%
%LPC*%
G36*
X460501Y700404D02*
X460501Y700404D01*
X460501Y709804D01*
X469901Y709804D01*
X469901Y706356D01*
X463949Y700404D01*
X460501Y700404D01*
G37*
%LPD*%
%LPC*%
G36*
X449579Y234441D02*
X449579Y234441D01*
X449579Y237889D01*
X455531Y243841D01*
X458979Y243841D01*
X458979Y234441D01*
X449579Y234441D01*
G37*
%LPD*%
%LPC*%
G36*
X460501Y223519D02*
X460501Y223519D01*
X460501Y232919D01*
X469901Y232919D01*
X469901Y229471D01*
X463949Y223519D01*
X460501Y223519D01*
G37*
%LPD*%
%LPC*%
G36*
X449579Y711326D02*
X449579Y711326D01*
X449579Y714774D01*
X455531Y720726D01*
X458979Y720726D01*
X458979Y711326D01*
X449579Y711326D01*
G37*
%LPD*%
%LPC*%
G36*
X32445Y388043D02*
X32445Y388043D01*
X32445Y397442D01*
X41845Y397442D01*
X41845Y393995D01*
X35893Y388043D01*
X32445Y388043D01*
G37*
%LPD*%
%LPC*%
G36*
X32509Y488949D02*
X32509Y488949D01*
X32509Y498349D01*
X41908Y498349D01*
X41908Y494901D01*
X35956Y488949D01*
X32509Y488949D01*
G37*
%LPD*%
%LPC*%
G36*
X455531Y700404D02*
X455531Y700404D01*
X449579Y706356D01*
X449579Y709804D01*
X458979Y709804D01*
X458979Y700404D01*
X455531Y700404D01*
G37*
%LPD*%
%LPC*%
G36*
X27539Y488949D02*
X27539Y488949D01*
X21587Y494901D01*
X21587Y498349D01*
X30986Y498349D01*
X30986Y488949D01*
X27539Y488949D01*
G37*
%LPD*%
%LPC*%
G36*
X27475Y388043D02*
X27475Y388043D01*
X21523Y393995D01*
X21523Y397442D01*
X30923Y397442D01*
X30923Y388043D01*
X27475Y388043D01*
G37*
%LPD*%
%LPC*%
G36*
X455531Y223519D02*
X455531Y223519D01*
X449579Y229471D01*
X449579Y232919D01*
X458979Y232919D01*
X458979Y223519D01*
X455531Y223519D01*
G37*
%LPD*%
%LPC*%
G36*
X740536Y620521D02*
X740536Y620521D01*
X740536Y628905D01*
X743563Y628905D01*
X748920Y623548D01*
X748920Y620521D01*
X740536Y620521D01*
G37*
%LPD*%
%LPC*%
G36*
X730630Y620521D02*
X730630Y620521D01*
X730630Y623548D01*
X735987Y628905D01*
X739014Y628905D01*
X739014Y620521D01*
X730630Y620521D01*
G37*
%LPD*%
%LPC*%
G36*
X740536Y610615D02*
X740536Y610615D01*
X740536Y618999D01*
X748920Y618999D01*
X748920Y615972D01*
X743563Y610615D01*
X740536Y610615D01*
G37*
%LPD*%
%LPC*%
G36*
X735987Y610615D02*
X735987Y610615D01*
X730630Y615972D01*
X730630Y618999D01*
X739014Y618999D01*
X739014Y610615D01*
X735987Y610615D01*
G37*
%LPD*%
%LPC*%
G36*
X822324Y389254D02*
X822324Y389254D01*
X822324Y389256D01*
X822326Y389256D01*
X822326Y389254D01*
X822324Y389254D01*
G37*
%LPD*%
%LPC*%
G36*
X80009Y178434D02*
X80009Y178434D01*
X80009Y178436D01*
X80011Y178436D01*
X80011Y178434D01*
X80009Y178434D01*
G37*
%LPD*%
%LPC*%
G36*
X31683Y398203D02*
X31683Y398203D01*
X31683Y398204D01*
X31685Y398204D01*
X31685Y398203D01*
X31683Y398203D01*
G37*
%LPD*%
%LPC*%
G36*
X397509Y739139D02*
X397509Y739139D01*
X397509Y739141D01*
X397511Y739141D01*
X397511Y739139D01*
X397509Y739139D01*
G37*
%LPD*%
%LPC*%
G36*
X118109Y662939D02*
X118109Y662939D01*
X118109Y662941D01*
X118111Y662941D01*
X118111Y662939D01*
X118109Y662939D01*
G37*
%LPD*%
%LPC*%
G36*
X822324Y440054D02*
X822324Y440054D01*
X822324Y440056D01*
X822326Y440056D01*
X822326Y440054D01*
X822324Y440054D01*
G37*
%LPD*%
%LPC*%
G36*
X480694Y819784D02*
X480694Y819784D01*
X480694Y819786D01*
X480696Y819786D01*
X480696Y819784D01*
X480694Y819784D01*
G37*
%LPD*%
%LPC*%
G36*
X829999Y859999D02*
X829999Y859999D01*
X829999Y860001D01*
X830001Y860001D01*
X830001Y859999D01*
X829999Y859999D01*
G37*
%LPD*%
%LPC*%
G36*
X669924Y95249D02*
X669924Y95249D01*
X669924Y95251D01*
X669926Y95251D01*
X669926Y95249D01*
X669924Y95249D01*
G37*
%LPD*%
%LPC*%
G36*
X252729Y386079D02*
X252729Y386079D01*
X252729Y386081D01*
X252731Y386081D01*
X252731Y386079D01*
X252729Y386079D01*
G37*
%LPD*%
%LPC*%
G36*
X459739Y233679D02*
X459739Y233679D01*
X459739Y233681D01*
X459741Y233681D01*
X459741Y233679D01*
X459739Y233679D01*
G37*
%LPD*%
%LPC*%
G36*
X459739Y710564D02*
X459739Y710564D01*
X459739Y710566D01*
X459741Y710566D01*
X459741Y710564D01*
X459739Y710564D01*
G37*
%LPD*%
%LPC*%
G36*
X762952Y383539D02*
X762952Y383539D01*
X762952Y383541D01*
X762953Y383541D01*
X762953Y383539D01*
X762952Y383539D01*
G37*
%LPD*%
%LPC*%
G36*
X49999Y859999D02*
X49999Y859999D01*
X49999Y860001D01*
X50001Y860001D01*
X50001Y859999D01*
X49999Y859999D01*
G37*
%LPD*%
%LPC*%
G36*
X739774Y619759D02*
X739774Y619759D01*
X739774Y619761D01*
X739776Y619761D01*
X739776Y619759D01*
X739774Y619759D01*
G37*
%LPD*%
%LPC*%
G36*
X829999Y49999D02*
X829999Y49999D01*
X829999Y50001D01*
X830001Y50001D01*
X830001Y49999D01*
X829999Y49999D01*
G37*
%LPD*%
%LPC*%
G36*
X49999Y49999D02*
X49999Y49999D01*
X49999Y50001D01*
X50001Y50001D01*
X50001Y49999D01*
X49999Y49999D01*
G37*
%LPD*%
%LPC*%
G36*
X31747Y499109D02*
X31747Y499109D01*
X31747Y499111D01*
X31748Y499111D01*
X31748Y499109D01*
X31747Y499109D01*
G37*
%LPD*%
%LPC*%
G36*
X485774Y168909D02*
X485774Y168909D01*
X485774Y168911D01*
X485776Y168911D01*
X485776Y168909D01*
X485774Y168909D01*
G37*
%LPD*%
%LPC*%
G36*
X195207Y190667D02*
X195207Y190667D01*
X195207Y190668D01*
X195209Y190668D01*
X195209Y190667D01*
X195207Y190667D01*
G37*
%LPD*%
D10*
X650215Y772160D03*
X631215Y772160D03*
D11*
X139065Y268630D03*
X139065Y287630D03*
D12*
X480695Y819785D03*
D13*
X556895Y819785D03*
D11*
X707390Y441985D03*
X707390Y460985D03*
X197800Y78130D03*
X197800Y97130D03*
X166053Y78130D03*
X166053Y97130D03*
D14*
X314706Y702310D02*
X327914Y702310D01*
X390906Y702310D02*
X404114Y702310D01*
D15*
X742315Y123190D03*
X742315Y97790D03*
D16*
X739775Y594360D03*
X739775Y619760D03*
D14*
X404114Y739140D02*
X390906Y739140D01*
X327914Y739140D02*
X314706Y739140D01*
X555371Y200660D02*
X568579Y200660D01*
X492379Y200660D02*
X479171Y200660D01*
X479171Y168910D02*
X492379Y168910D01*
X555371Y168910D02*
X568579Y168910D01*
D17*
X104775Y130810D03*
X206375Y130810D03*
D18*
X166053Y129965D03*
X166053Y158965D03*
D19*
X166208Y190668D03*
X195208Y190668D03*
D20*
X725805Y659130D02*
X751205Y659130D01*
X751205Y867410D02*
X725805Y867410D01*
X725805Y816610D02*
X751205Y816610D01*
X751205Y709930D02*
X725805Y709930D01*
D21*
X830000Y860000D03*
X830000Y50000D03*
X50000Y50000D03*
X50000Y860000D03*
D22*
X334518Y661035D02*
X351282Y661035D01*
X351282Y635635D02*
X334518Y635635D01*
X334518Y610235D02*
X351282Y610235D01*
X351282Y334010D02*
X334518Y334010D01*
X334518Y308610D02*
X351282Y308610D01*
X351282Y283210D02*
X334518Y283210D01*
D14*
X256794Y803275D02*
X243586Y803275D01*
X243586Y854075D02*
X256794Y854075D01*
X256794Y828675D02*
X243586Y828675D01*
X447421Y114935D02*
X460629Y114935D01*
X460629Y64135D02*
X447421Y64135D01*
X447421Y89535D02*
X460629Y89535D01*
D23*
X282575Y690880D03*
X180975Y690880D03*
D24*
X282575Y238760D03*
X384175Y238760D03*
D25*
X31747Y499110D03*
X184147Y499110D03*
D24*
X130810Y97155D03*
X232410Y97155D03*
D15*
X619125Y120015D03*
X619125Y18415D03*
D11*
X742315Y63475D03*
X742315Y44475D03*
X717550Y594385D03*
X717550Y613385D03*
D26*
X184150Y447675D03*
X31750Y447675D03*
D25*
X31684Y398203D03*
X184084Y398203D03*
D14*
X663321Y44450D02*
X676529Y44450D01*
X676529Y95250D02*
X663321Y95250D01*
X663321Y69850D02*
X676529Y69850D01*
D27*
X733425Y472385D03*
X769265Y472385D03*
D28*
X21154Y252712D03*
X21154Y322604D03*
X858846Y322919D03*
X858846Y253027D03*
D29*
X832803Y709295D02*
X811848Y709295D01*
X811848Y658495D02*
X832803Y658495D01*
X832803Y440055D02*
X811848Y440055D01*
X811848Y389255D02*
X832803Y389255D01*
X796925Y511500D02*
X796925Y532455D01*
X847725Y532455D02*
X847725Y511500D01*
X796608Y190183D02*
X796608Y169228D01*
X847408Y169228D02*
X847408Y190183D01*
D25*
X459740Y233680D03*
X459740Y710565D03*
D30*
X130810Y186055D02*
X130810Y170815D01*
X105410Y170815D02*
X105410Y186055D01*
X80010Y186055D02*
X80010Y170815D01*
D11*
X139065Y222910D03*
X139065Y241910D03*
X166053Y222910D03*
X166053Y241910D03*
D30*
X224790Y144145D02*
X240030Y144145D01*
X240030Y118745D02*
X224790Y118745D01*
D17*
X118110Y561340D03*
X118110Y662940D03*
D31*
X617220Y670560D03*
X617220Y619760D03*
D10*
X124435Y538480D03*
X105435Y538480D03*
D32*
X105438Y227685D03*
X105438Y347685D03*
D33*
X85438Y287685D03*
X227438Y227685D03*
X227438Y347685D03*
D32*
X615660Y228320D03*
X615660Y348320D03*
D33*
X595660Y288320D03*
X737660Y228320D03*
X737660Y348320D03*
D30*
X737553Y375920D02*
X737553Y391160D01*
X762953Y391160D02*
X762953Y375920D01*
X227330Y378460D02*
X227330Y393700D01*
X252730Y393700D02*
X252730Y378460D01*
D25*
X608330Y730250D03*
X684530Y613410D03*
X180975Y803275D03*
X384175Y111443D03*
D34*
X78740Y561340D03*
X78740Y713740D03*
D35*
X208915Y190500D03*
X771525Y440690D03*
X706755Y556260D03*
X743585Y556260D03*
X779145Y556260D03*
X821055Y556260D03*
X794385Y487680D03*
X706755Y500380D03*
X706755Y528320D03*
X708025Y321310D03*
X741045Y321310D03*
X780415Y321310D03*
X822325Y321310D03*
X707390Y427990D03*
X707390Y405130D03*
X672465Y321310D03*
X570865Y321310D03*
X631825Y321310D03*
X570865Y254000D03*
X601345Y321310D03*
X842645Y313690D03*
X859155Y313690D03*
X874395Y313690D03*
X842645Y261620D03*
X859155Y261620D03*
X874395Y261620D03*
X37465Y313690D03*
X20955Y313690D03*
X5715Y313690D03*
X37465Y261620D03*
X20955Y261620D03*
X5715Y261620D03*
X48895Y311150D03*
X76835Y311150D03*
X107315Y311150D03*
X107315Y265430D03*
X76835Y265430D03*
X48895Y265430D03*
X761365Y253683D03*
X601345Y254000D03*
X631825Y254000D03*
X672465Y254000D03*
X708025Y254000D03*
X793115Y253683D03*
X822325Y253683D03*
X735330Y253683D03*
X257175Y325120D03*
X257175Y355600D03*
X257175Y422910D03*
X202883Y478155D03*
X257810Y554990D03*
X257810Y524510D03*
X335280Y450850D03*
X335280Y473710D03*
X312420Y473710D03*
X300990Y427990D03*
X335280Y427990D03*
X287020Y473710D03*
X257175Y473710D03*
X257175Y448310D03*
X300990Y405130D03*
X300990Y353060D03*
X327660Y353060D03*
X355600Y353060D03*
X307340Y314960D03*
X300990Y378460D03*
X257175Y497840D03*
X257810Y580390D03*
X257810Y608330D03*
X257810Y633730D03*
X257810Y657860D03*
X335280Y499110D03*
X335280Y520700D03*
X300990Y520700D03*
X317500Y520700D03*
X300990Y543560D03*
X300990Y570230D03*
X300990Y596900D03*
X300990Y619760D03*
X300990Y641350D03*
X318770Y427990D03*
X300990Y680720D03*
X370840Y660400D03*
X370840Y680720D03*
X336550Y680720D03*
X369570Y488950D03*
X397510Y488950D03*
X427990Y488950D03*
X393700Y660400D03*
X427990Y635000D03*
X427990Y660400D03*
X427990Y581660D03*
X427990Y521970D03*
X427990Y553720D03*
X427990Y608330D03*
X427990Y455930D03*
X397510Y455930D03*
X369570Y455930D03*
X427990Y427990D03*
X427990Y401320D03*
X427990Y370840D03*
X427990Y344170D03*
X427990Y314960D03*
X372110Y287020D03*
X397510Y287020D03*
X427990Y287020D03*
X361950Y589280D03*
X125095Y12700D03*
X197485Y12700D03*
X267335Y12700D03*
X658495Y16510D03*
X720725Y16510D03*
X780415Y16510D03*
X181928Y78423D03*
X160020Y828675D03*
X330200Y821690D03*
X534035Y89535D03*
X416560Y187960D03*
X349885Y82550D03*
X22225Y795020D03*
X22225Y695960D03*
X22225Y581660D03*
X770255Y410210D03*
X230188Y325120D03*
X204153Y355600D03*
X204153Y325120D03*
X207963Y387350D03*
X228283Y411798D03*
X245745Y411798D03*
X226695Y205423D03*
X205105Y205423D03*
X249555Y205423D03*
X249555Y242253D03*
X249555Y277813D03*
X224155Y301943D03*
X205105Y235903D03*
X205105Y265113D03*
X165735Y326073D03*
X179705Y290513D03*
X166053Y380365D03*
X166053Y355600D03*
X183833Y417195D03*
X166053Y456565D03*
X234633Y478155D03*
X201930Y455930D03*
X166053Y429895D03*
X201930Y429895D03*
X207963Y411798D03*
X166053Y489268D03*
X166053Y519748D03*
X201613Y519748D03*
X234633Y519748D03*
X78423Y429895D03*
X13653Y429895D03*
X46673Y429895D03*
X13653Y465455D03*
X13653Y447675D03*
X46673Y465455D03*
X83503Y465455D03*
X144463Y417195D03*
X119063Y441325D03*
X119063Y387985D03*
X92393Y415925D03*
X715010Y360680D03*
X715010Y334010D03*
X719138Y384810D03*
X760413Y360680D03*
X760413Y334010D03*
X741680Y435610D03*
X741680Y408940D03*
X763270Y214313D03*
X763270Y234633D03*
X711835Y234633D03*
X711835Y144463D03*
X711835Y177483D03*
X711835Y206693D03*
X788670Y214313D03*
X820420Y214313D03*
X744855Y144463D03*
X782955Y144463D03*
X873125Y556260D03*
X873125Y521970D03*
X821055Y487680D03*
X872490Y214313D03*
X872490Y144463D03*
X820420Y144463D03*
X664210Y772160D03*
X138113Y380365D03*
X143510Y892175D03*
X214630Y721995D03*
X374650Y892175D03*
X873125Y487680D03*
X872490Y180023D03*
D36*
X618610Y814705D03*
D37*
X618610Y815220D01*
X618490Y815340D01*
X321310Y739140D02*
X321310Y702310D01*
X139065Y287630D02*
X85493Y287630D01*
X85438Y287685D01*
D35*
X307340Y35560D03*
D37*
X145121Y35560D01*
D38*
X105438Y178463D02*
X105438Y227685D01*
X105438Y178463D02*
X105410Y178435D01*
D37*
X104775Y75906D02*
X145121Y35560D01*
X104775Y75906D02*
X104775Y130810D01*
X105410Y131445D02*
X105410Y178435D01*
X105410Y131445D02*
X104775Y130810D01*
D38*
X130810Y97155D02*
X130810Y178435D01*
D37*
X325120Y60960D02*
X367665Y18415D01*
X619125Y18415D01*
X166053Y97130D02*
X166053Y129965D01*
X166053Y97130D02*
X197800Y97130D01*
X232385Y97130D01*
X232410Y71120D02*
X242570Y60960D01*
X325120Y60960D01*
X232410Y71120D02*
X232410Y97155D01*
X232410Y118745D01*
X232410Y97155D02*
X232385Y97130D01*
X166053Y222910D02*
X139065Y222910D01*
X166053Y190823D02*
X166208Y190668D01*
X166053Y190823D02*
X166053Y222910D01*
X166208Y190668D02*
X166208Y159121D01*
X166053Y158965D01*
D36*
X686910Y814705D03*
D37*
X687070Y814865D01*
X687070Y815340D01*
X742315Y97790D02*
X742315Y63475D01*
X742290Y44450D02*
X669925Y44450D01*
X742290Y44450D02*
X742315Y44475D01*
X619125Y78105D02*
X619125Y120015D01*
X627380Y69850D02*
X669925Y69850D01*
X627380Y69850D02*
X619125Y78105D01*
X139065Y241910D02*
X139065Y268630D01*
X139065Y241910D02*
X166053Y241910D01*
X717550Y594385D02*
X739750Y594385D01*
X739775Y594360D01*
D39*
X717550Y613385D02*
X684555Y613385D01*
X684530Y613410D01*
X623570Y613410D01*
X617220Y619760D01*
D35*
X62230Y233680D03*
X330200Y873760D03*
D40*
X708660Y472385D02*
X733425Y472385D01*
X708660Y472385D02*
X637595Y472385D01*
X617220Y492760D02*
X617220Y619760D01*
X617220Y492760D02*
X637595Y472385D01*
X733425Y472385D02*
X769265Y472385D01*
D37*
X707390Y471115D02*
X707390Y460985D01*
X707390Y471115D02*
X708660Y472385D01*
X330200Y873760D02*
X166468Y873760D01*
X62230Y532130D02*
X62230Y233680D01*
X62230Y532130D02*
X53340Y541020D01*
X53340Y586740D01*
X78740Y612140D01*
X78740Y713740D01*
X78740Y786032D01*
X166468Y873760D01*
X615660Y348320D02*
X642280Y348320D01*
X674370Y123190D02*
X742315Y123190D01*
X651510Y339090D02*
X642280Y348320D01*
X651510Y339090D02*
X651510Y146050D01*
X653415Y144145D01*
X674370Y123190D01*
X653415Y144145D02*
X232410Y144145D01*
X211455Y144145D01*
X206375Y139065D02*
X206375Y130810D01*
X206375Y139065D02*
X211455Y144145D01*
X118110Y561340D02*
X105410Y561340D01*
X105435Y538480D02*
X105435Y347688D01*
X105438Y347685D01*
X105435Y538480D02*
X105435Y561315D01*
X105410Y561340D01*
X78740Y561340D01*
M02*
