G04 EAGLE Gerber RS-274X export*
G75*
%MOMM*%
%FSLAX34Y34*%
%LPD*%
%INSilkscreen Bottom*%
%IPPOS*%
%AMOC8*
5,1,8,0,0,1.08239X$1,22.5*%
G01*
%ADD10C,0.152400*%
%ADD11C,0.101600*%
%ADD12C,0.127000*%


D10*
X64008Y750203D02*
X59492Y750203D01*
X59492Y750204D02*
X59359Y750202D01*
X59227Y750196D01*
X59095Y750186D01*
X58963Y750173D01*
X58831Y750155D01*
X58701Y750134D01*
X58570Y750109D01*
X58441Y750080D01*
X58313Y750047D01*
X58185Y750011D01*
X58059Y749971D01*
X57934Y749927D01*
X57810Y749879D01*
X57688Y749828D01*
X57567Y749773D01*
X57448Y749715D01*
X57330Y749653D01*
X57215Y749588D01*
X57101Y749519D01*
X56990Y749448D01*
X56881Y749372D01*
X56774Y749294D01*
X56669Y749213D01*
X56567Y749128D01*
X56467Y749041D01*
X56370Y748951D01*
X56275Y748858D01*
X56184Y748762D01*
X56095Y748664D01*
X56009Y748563D01*
X55926Y748459D01*
X55846Y748353D01*
X55770Y748245D01*
X55696Y748135D01*
X55626Y748022D01*
X55559Y747908D01*
X55496Y747791D01*
X55436Y747673D01*
X55379Y747553D01*
X55326Y747431D01*
X55277Y747308D01*
X55231Y747184D01*
X55189Y747058D01*
X55151Y746931D01*
X55116Y746803D01*
X55085Y746674D01*
X55058Y746545D01*
X55035Y746414D01*
X55015Y746283D01*
X55000Y746151D01*
X54988Y746019D01*
X54980Y745887D01*
X54976Y745754D01*
X54976Y745622D01*
X54980Y745489D01*
X54988Y745357D01*
X55000Y745225D01*
X55015Y745093D01*
X55035Y744962D01*
X55058Y744831D01*
X55085Y744702D01*
X55116Y744573D01*
X55151Y744445D01*
X55189Y744318D01*
X55231Y744192D01*
X55277Y744068D01*
X55326Y743945D01*
X55379Y743823D01*
X55436Y743703D01*
X55496Y743585D01*
X55559Y743468D01*
X55626Y743354D01*
X55696Y743241D01*
X55770Y743131D01*
X55846Y743023D01*
X55926Y742917D01*
X56009Y742813D01*
X56095Y742712D01*
X56184Y742614D01*
X56275Y742518D01*
X56370Y742425D01*
X56467Y742335D01*
X56567Y742248D01*
X56669Y742163D01*
X56774Y742082D01*
X56881Y742004D01*
X56990Y741928D01*
X57101Y741857D01*
X57215Y741788D01*
X57330Y741723D01*
X57448Y741661D01*
X57567Y741603D01*
X57688Y741548D01*
X57810Y741497D01*
X57934Y741449D01*
X58059Y741405D01*
X58185Y741365D01*
X58313Y741329D01*
X58441Y741296D01*
X58570Y741267D01*
X58701Y741242D01*
X58831Y741221D01*
X58963Y741203D01*
X59095Y741190D01*
X59227Y741180D01*
X59359Y741174D01*
X59492Y741172D01*
X64008Y741172D01*
X64008Y757428D01*
X59492Y757428D01*
X59373Y757426D01*
X59253Y757420D01*
X59134Y757410D01*
X59016Y757396D01*
X58897Y757379D01*
X58780Y757357D01*
X58663Y757332D01*
X58548Y757302D01*
X58433Y757269D01*
X58319Y757232D01*
X58207Y757192D01*
X58096Y757147D01*
X57987Y757099D01*
X57879Y757048D01*
X57773Y756993D01*
X57669Y756934D01*
X57567Y756872D01*
X57467Y756807D01*
X57369Y756738D01*
X57273Y756666D01*
X57180Y756591D01*
X57090Y756514D01*
X57002Y756433D01*
X56917Y756349D01*
X56835Y756262D01*
X56755Y756173D01*
X56679Y756081D01*
X56605Y755987D01*
X56535Y755890D01*
X56468Y755792D01*
X56404Y755691D01*
X56344Y755587D01*
X56287Y755482D01*
X56234Y755375D01*
X56184Y755267D01*
X56138Y755157D01*
X56096Y755045D01*
X56057Y754932D01*
X56022Y754818D01*
X55991Y754703D01*
X55963Y754586D01*
X55940Y754469D01*
X55920Y754352D01*
X55904Y754233D01*
X55892Y754114D01*
X55884Y753995D01*
X55880Y753876D01*
X55880Y753756D01*
X55884Y753637D01*
X55892Y753518D01*
X55904Y753399D01*
X55920Y753280D01*
X55940Y753163D01*
X55963Y753046D01*
X55991Y752929D01*
X56022Y752814D01*
X56057Y752700D01*
X56096Y752587D01*
X56138Y752475D01*
X56184Y752365D01*
X56234Y752257D01*
X56287Y752150D01*
X56344Y752045D01*
X56404Y751941D01*
X56468Y751840D01*
X56535Y751742D01*
X56605Y751645D01*
X56679Y751551D01*
X56755Y751459D01*
X56835Y751370D01*
X56917Y751283D01*
X57002Y751199D01*
X57090Y751118D01*
X57180Y751041D01*
X57273Y750966D01*
X57369Y750894D01*
X57467Y750825D01*
X57567Y750760D01*
X57669Y750698D01*
X57773Y750639D01*
X57879Y750584D01*
X57987Y750533D01*
X58096Y750485D01*
X58207Y750440D01*
X58319Y750400D01*
X58433Y750363D01*
X58548Y750330D01*
X58663Y750300D01*
X58780Y750275D01*
X58897Y750253D01*
X59016Y750236D01*
X59134Y750222D01*
X59253Y750212D01*
X59373Y750206D01*
X59492Y750204D01*
X49109Y752912D02*
X49109Y745688D01*
X49109Y752912D02*
X49107Y753045D01*
X49101Y753177D01*
X49091Y753309D01*
X49078Y753441D01*
X49060Y753573D01*
X49039Y753703D01*
X49014Y753834D01*
X48985Y753963D01*
X48952Y754091D01*
X48916Y754219D01*
X48876Y754345D01*
X48832Y754470D01*
X48784Y754594D01*
X48733Y754716D01*
X48678Y754837D01*
X48620Y754956D01*
X48558Y755074D01*
X48493Y755189D01*
X48424Y755303D01*
X48353Y755414D01*
X48277Y755523D01*
X48199Y755630D01*
X48118Y755735D01*
X48033Y755837D01*
X47946Y755937D01*
X47856Y756034D01*
X47763Y756129D01*
X47667Y756220D01*
X47569Y756309D01*
X47468Y756395D01*
X47364Y756478D01*
X47258Y756558D01*
X47150Y756634D01*
X47040Y756708D01*
X46927Y756778D01*
X46813Y756845D01*
X46696Y756908D01*
X46578Y756968D01*
X46458Y757025D01*
X46336Y757078D01*
X46213Y757127D01*
X46089Y757173D01*
X45963Y757215D01*
X45836Y757253D01*
X45708Y757288D01*
X45579Y757319D01*
X45450Y757346D01*
X45319Y757369D01*
X45188Y757389D01*
X45056Y757404D01*
X44924Y757416D01*
X44792Y757424D01*
X44659Y757428D01*
X44527Y757428D01*
X44394Y757424D01*
X44262Y757416D01*
X44130Y757404D01*
X43998Y757389D01*
X43867Y757369D01*
X43736Y757346D01*
X43607Y757319D01*
X43478Y757288D01*
X43350Y757253D01*
X43223Y757215D01*
X43097Y757173D01*
X42973Y757127D01*
X42850Y757078D01*
X42728Y757025D01*
X42608Y756968D01*
X42490Y756908D01*
X42373Y756845D01*
X42259Y756778D01*
X42146Y756708D01*
X42036Y756634D01*
X41928Y756558D01*
X41822Y756478D01*
X41718Y756395D01*
X41617Y756309D01*
X41519Y756220D01*
X41423Y756129D01*
X41330Y756034D01*
X41240Y755937D01*
X41153Y755837D01*
X41068Y755735D01*
X40987Y755630D01*
X40909Y755523D01*
X40833Y755414D01*
X40762Y755303D01*
X40693Y755189D01*
X40628Y755074D01*
X40566Y754956D01*
X40508Y754837D01*
X40453Y754716D01*
X40402Y754594D01*
X40354Y754470D01*
X40310Y754345D01*
X40270Y754219D01*
X40234Y754091D01*
X40201Y753963D01*
X40172Y753834D01*
X40147Y753703D01*
X40126Y753573D01*
X40108Y753441D01*
X40095Y753309D01*
X40085Y753177D01*
X40079Y753045D01*
X40077Y752912D01*
X40078Y752912D02*
X40078Y745688D01*
X40077Y745688D02*
X40079Y745555D01*
X40085Y745423D01*
X40095Y745291D01*
X40108Y745159D01*
X40126Y745027D01*
X40147Y744897D01*
X40172Y744766D01*
X40201Y744637D01*
X40234Y744509D01*
X40270Y744381D01*
X40310Y744255D01*
X40354Y744130D01*
X40402Y744006D01*
X40453Y743884D01*
X40508Y743763D01*
X40566Y743644D01*
X40628Y743526D01*
X40693Y743411D01*
X40762Y743297D01*
X40833Y743186D01*
X40909Y743077D01*
X40987Y742970D01*
X41068Y742865D01*
X41153Y742763D01*
X41240Y742663D01*
X41330Y742566D01*
X41423Y742471D01*
X41519Y742380D01*
X41617Y742291D01*
X41718Y742205D01*
X41822Y742122D01*
X41928Y742042D01*
X42036Y741966D01*
X42146Y741892D01*
X42259Y741822D01*
X42373Y741755D01*
X42490Y741692D01*
X42608Y741632D01*
X42728Y741575D01*
X42850Y741522D01*
X42973Y741473D01*
X43097Y741427D01*
X43223Y741385D01*
X43350Y741347D01*
X43478Y741312D01*
X43607Y741281D01*
X43736Y741254D01*
X43867Y741231D01*
X43998Y741211D01*
X44130Y741196D01*
X44262Y741184D01*
X44394Y741176D01*
X44527Y741172D01*
X44659Y741172D01*
X44792Y741176D01*
X44924Y741184D01*
X45056Y741196D01*
X45188Y741211D01*
X45319Y741231D01*
X45450Y741254D01*
X45579Y741281D01*
X45708Y741312D01*
X45836Y741347D01*
X45963Y741385D01*
X46089Y741427D01*
X46213Y741473D01*
X46336Y741522D01*
X46458Y741575D01*
X46578Y741632D01*
X46696Y741692D01*
X46813Y741755D01*
X46927Y741822D01*
X47040Y741892D01*
X47150Y741966D01*
X47258Y742042D01*
X47364Y742122D01*
X47468Y742205D01*
X47569Y742291D01*
X47667Y742380D01*
X47763Y742471D01*
X47856Y742566D01*
X47946Y742663D01*
X48033Y742763D01*
X48118Y742865D01*
X48199Y742970D01*
X48277Y743077D01*
X48353Y743186D01*
X48424Y743297D01*
X48493Y743411D01*
X48558Y743526D01*
X48620Y743644D01*
X48678Y743763D01*
X48733Y743884D01*
X48784Y744006D01*
X48832Y744130D01*
X48876Y744255D01*
X48916Y744381D01*
X48952Y744509D01*
X48985Y744637D01*
X49014Y744766D01*
X49039Y744897D01*
X49060Y745027D01*
X49078Y745159D01*
X49091Y745291D01*
X49101Y745423D01*
X49107Y745555D01*
X49109Y745688D01*
X30004Y741172D02*
X30004Y757428D01*
X25489Y757428D02*
X34520Y757428D01*
D11*
X660414Y785368D02*
X663011Y785368D01*
X663110Y785370D01*
X663210Y785376D01*
X663309Y785385D01*
X663407Y785398D01*
X663505Y785415D01*
X663603Y785436D01*
X663699Y785461D01*
X663794Y785489D01*
X663888Y785521D01*
X663981Y785556D01*
X664073Y785595D01*
X664163Y785638D01*
X664251Y785683D01*
X664338Y785733D01*
X664422Y785785D01*
X664505Y785841D01*
X664585Y785899D01*
X664663Y785961D01*
X664738Y786026D01*
X664811Y786094D01*
X664881Y786164D01*
X664949Y786237D01*
X665014Y786312D01*
X665076Y786390D01*
X665134Y786470D01*
X665190Y786553D01*
X665242Y786637D01*
X665292Y786724D01*
X665337Y786812D01*
X665380Y786902D01*
X665419Y786994D01*
X665454Y787087D01*
X665486Y787181D01*
X665514Y787276D01*
X665539Y787372D01*
X665560Y787470D01*
X665577Y787568D01*
X665590Y787666D01*
X665599Y787765D01*
X665605Y787865D01*
X665607Y787964D01*
X665607Y794456D01*
X665605Y794555D01*
X665599Y794655D01*
X665590Y794754D01*
X665577Y794852D01*
X665560Y794950D01*
X665539Y795048D01*
X665514Y795144D01*
X665486Y795239D01*
X665454Y795333D01*
X665419Y795426D01*
X665380Y795518D01*
X665337Y795608D01*
X665292Y795696D01*
X665242Y795783D01*
X665190Y795867D01*
X665134Y795950D01*
X665076Y796030D01*
X665014Y796108D01*
X664949Y796183D01*
X664881Y796256D01*
X664811Y796326D01*
X664738Y796394D01*
X664663Y796459D01*
X664585Y796521D01*
X664505Y796579D01*
X664422Y796635D01*
X664338Y796687D01*
X664251Y796737D01*
X664163Y796782D01*
X664073Y796825D01*
X663981Y796864D01*
X663888Y796899D01*
X663794Y796931D01*
X663699Y796959D01*
X663603Y796984D01*
X663505Y797005D01*
X663407Y797022D01*
X663309Y797035D01*
X663210Y797044D01*
X663110Y797050D01*
X663011Y797052D01*
X660414Y797052D01*
X656049Y794456D02*
X652803Y797052D01*
X652803Y785368D01*
X649558Y785368D02*
X656049Y785368D01*
X146121Y301498D02*
X143524Y301498D01*
X146121Y301498D02*
X146220Y301500D01*
X146320Y301506D01*
X146419Y301515D01*
X146517Y301528D01*
X146615Y301545D01*
X146713Y301566D01*
X146809Y301591D01*
X146904Y301619D01*
X146998Y301651D01*
X147091Y301686D01*
X147183Y301725D01*
X147273Y301768D01*
X147361Y301813D01*
X147448Y301863D01*
X147532Y301915D01*
X147615Y301971D01*
X147695Y302029D01*
X147773Y302091D01*
X147848Y302156D01*
X147921Y302224D01*
X147991Y302294D01*
X148059Y302367D01*
X148124Y302442D01*
X148186Y302520D01*
X148244Y302600D01*
X148300Y302683D01*
X148352Y302767D01*
X148402Y302854D01*
X148447Y302942D01*
X148490Y303032D01*
X148529Y303124D01*
X148564Y303217D01*
X148596Y303311D01*
X148624Y303406D01*
X148649Y303502D01*
X148670Y303600D01*
X148687Y303698D01*
X148700Y303796D01*
X148709Y303895D01*
X148715Y303995D01*
X148717Y304094D01*
X148717Y310586D01*
X148715Y310685D01*
X148709Y310785D01*
X148700Y310884D01*
X148687Y310982D01*
X148670Y311080D01*
X148649Y311178D01*
X148624Y311274D01*
X148596Y311369D01*
X148564Y311463D01*
X148529Y311556D01*
X148490Y311648D01*
X148447Y311738D01*
X148402Y311826D01*
X148352Y311913D01*
X148300Y311997D01*
X148244Y312080D01*
X148186Y312160D01*
X148124Y312238D01*
X148059Y312313D01*
X147991Y312386D01*
X147921Y312456D01*
X147848Y312524D01*
X147773Y312589D01*
X147695Y312651D01*
X147615Y312709D01*
X147532Y312765D01*
X147448Y312817D01*
X147361Y312867D01*
X147273Y312912D01*
X147183Y312955D01*
X147091Y312994D01*
X146998Y313029D01*
X146904Y313061D01*
X146809Y313089D01*
X146713Y313114D01*
X146615Y313135D01*
X146517Y313152D01*
X146419Y313165D01*
X146320Y313174D01*
X146220Y313180D01*
X146121Y313182D01*
X143524Y313182D01*
X139159Y301498D02*
X135913Y301498D01*
X135800Y301500D01*
X135687Y301506D01*
X135574Y301516D01*
X135461Y301530D01*
X135349Y301547D01*
X135238Y301569D01*
X135128Y301594D01*
X135018Y301624D01*
X134910Y301657D01*
X134803Y301694D01*
X134697Y301734D01*
X134593Y301779D01*
X134490Y301827D01*
X134389Y301878D01*
X134290Y301933D01*
X134193Y301991D01*
X134098Y302053D01*
X134005Y302118D01*
X133915Y302186D01*
X133827Y302257D01*
X133741Y302332D01*
X133658Y302409D01*
X133578Y302489D01*
X133501Y302572D01*
X133426Y302658D01*
X133355Y302746D01*
X133287Y302836D01*
X133222Y302929D01*
X133160Y303024D01*
X133102Y303121D01*
X133047Y303220D01*
X132996Y303321D01*
X132948Y303424D01*
X132903Y303528D01*
X132863Y303634D01*
X132826Y303741D01*
X132793Y303849D01*
X132763Y303959D01*
X132738Y304069D01*
X132716Y304180D01*
X132699Y304292D01*
X132685Y304405D01*
X132675Y304518D01*
X132669Y304631D01*
X132667Y304744D01*
X132669Y304857D01*
X132675Y304970D01*
X132685Y305083D01*
X132699Y305196D01*
X132716Y305308D01*
X132738Y305419D01*
X132763Y305529D01*
X132793Y305639D01*
X132826Y305747D01*
X132863Y305854D01*
X132903Y305960D01*
X132948Y306064D01*
X132996Y306167D01*
X133047Y306268D01*
X133102Y306367D01*
X133160Y306464D01*
X133222Y306559D01*
X133287Y306652D01*
X133355Y306742D01*
X133426Y306830D01*
X133501Y306916D01*
X133578Y306999D01*
X133658Y307079D01*
X133741Y307156D01*
X133827Y307231D01*
X133915Y307302D01*
X134005Y307370D01*
X134098Y307435D01*
X134193Y307497D01*
X134290Y307555D01*
X134389Y307610D01*
X134490Y307661D01*
X134593Y307709D01*
X134697Y307754D01*
X134803Y307794D01*
X134910Y307831D01*
X135018Y307864D01*
X135128Y307894D01*
X135238Y307919D01*
X135349Y307941D01*
X135461Y307958D01*
X135574Y307972D01*
X135687Y307982D01*
X135800Y307988D01*
X135913Y307990D01*
X135264Y313182D02*
X139159Y313182D01*
X135264Y313182D02*
X135163Y313180D01*
X135063Y313174D01*
X134963Y313164D01*
X134863Y313151D01*
X134764Y313133D01*
X134665Y313112D01*
X134568Y313087D01*
X134471Y313058D01*
X134376Y313025D01*
X134282Y312989D01*
X134190Y312949D01*
X134099Y312906D01*
X134010Y312859D01*
X133923Y312809D01*
X133837Y312755D01*
X133754Y312698D01*
X133674Y312638D01*
X133595Y312575D01*
X133519Y312508D01*
X133446Y312439D01*
X133376Y312367D01*
X133308Y312293D01*
X133243Y312216D01*
X133182Y312136D01*
X133123Y312054D01*
X133068Y311970D01*
X133016Y311884D01*
X132967Y311796D01*
X132922Y311706D01*
X132880Y311614D01*
X132842Y311521D01*
X132808Y311426D01*
X132777Y311331D01*
X132750Y311234D01*
X132727Y311136D01*
X132707Y311037D01*
X132692Y310937D01*
X132680Y310837D01*
X132672Y310737D01*
X132668Y310636D01*
X132668Y310536D01*
X132672Y310435D01*
X132680Y310335D01*
X132692Y310235D01*
X132707Y310135D01*
X132727Y310036D01*
X132750Y309938D01*
X132777Y309841D01*
X132808Y309746D01*
X132842Y309651D01*
X132880Y309558D01*
X132922Y309466D01*
X132967Y309376D01*
X133016Y309288D01*
X133068Y309202D01*
X133123Y309118D01*
X133182Y309036D01*
X133243Y308956D01*
X133308Y308879D01*
X133376Y308805D01*
X133446Y308733D01*
X133519Y308664D01*
X133595Y308597D01*
X133674Y308534D01*
X133754Y308474D01*
X133837Y308417D01*
X133923Y308363D01*
X134010Y308313D01*
X134099Y308266D01*
X134190Y308223D01*
X134282Y308183D01*
X134376Y308147D01*
X134471Y308114D01*
X134568Y308085D01*
X134665Y308060D01*
X134764Y308039D01*
X134863Y308021D01*
X134963Y308008D01*
X135063Y307998D01*
X135163Y307992D01*
X135264Y307990D01*
X135264Y307989D02*
X137861Y307989D01*
X688354Y436753D02*
X690951Y436753D01*
X691050Y436755D01*
X691150Y436761D01*
X691249Y436770D01*
X691347Y436783D01*
X691445Y436800D01*
X691543Y436821D01*
X691639Y436846D01*
X691734Y436874D01*
X691828Y436906D01*
X691921Y436941D01*
X692013Y436980D01*
X692103Y437023D01*
X692191Y437068D01*
X692278Y437118D01*
X692362Y437170D01*
X692445Y437226D01*
X692525Y437284D01*
X692603Y437346D01*
X692678Y437411D01*
X692751Y437479D01*
X692821Y437549D01*
X692889Y437622D01*
X692954Y437697D01*
X693016Y437775D01*
X693074Y437855D01*
X693130Y437938D01*
X693182Y438022D01*
X693232Y438109D01*
X693277Y438197D01*
X693320Y438287D01*
X693359Y438379D01*
X693394Y438472D01*
X693426Y438566D01*
X693454Y438661D01*
X693479Y438757D01*
X693500Y438855D01*
X693517Y438953D01*
X693530Y439051D01*
X693539Y439150D01*
X693545Y439250D01*
X693547Y439349D01*
X693547Y445841D01*
X693545Y445940D01*
X693539Y446040D01*
X693530Y446139D01*
X693517Y446237D01*
X693500Y446335D01*
X693479Y446433D01*
X693454Y446529D01*
X693426Y446624D01*
X693394Y446718D01*
X693359Y446811D01*
X693320Y446903D01*
X693277Y446993D01*
X693232Y447081D01*
X693182Y447168D01*
X693130Y447252D01*
X693074Y447335D01*
X693016Y447415D01*
X692954Y447493D01*
X692889Y447568D01*
X692821Y447641D01*
X692751Y447711D01*
X692678Y447779D01*
X692603Y447844D01*
X692525Y447906D01*
X692445Y447964D01*
X692362Y448020D01*
X692278Y448072D01*
X692191Y448122D01*
X692103Y448167D01*
X692013Y448210D01*
X691921Y448249D01*
X691828Y448284D01*
X691734Y448316D01*
X691639Y448344D01*
X691543Y448369D01*
X691445Y448390D01*
X691347Y448407D01*
X691249Y448420D01*
X691150Y448429D01*
X691050Y448435D01*
X690951Y448437D01*
X688354Y448437D01*
X683989Y445841D02*
X680743Y448437D01*
X680743Y436753D01*
X677498Y436753D02*
X683989Y436753D01*
X672559Y445841D02*
X669313Y448437D01*
X669313Y436753D01*
X666068Y436753D02*
X672559Y436753D01*
X222956Y67818D02*
X220359Y67818D01*
X222956Y67818D02*
X223055Y67820D01*
X223155Y67826D01*
X223254Y67835D01*
X223352Y67848D01*
X223450Y67865D01*
X223548Y67886D01*
X223644Y67911D01*
X223739Y67939D01*
X223833Y67971D01*
X223926Y68006D01*
X224018Y68045D01*
X224108Y68088D01*
X224196Y68133D01*
X224283Y68183D01*
X224367Y68235D01*
X224450Y68291D01*
X224530Y68349D01*
X224608Y68411D01*
X224683Y68476D01*
X224756Y68544D01*
X224826Y68614D01*
X224894Y68687D01*
X224959Y68762D01*
X225021Y68840D01*
X225079Y68920D01*
X225135Y69003D01*
X225187Y69087D01*
X225237Y69174D01*
X225282Y69262D01*
X225325Y69352D01*
X225364Y69444D01*
X225399Y69537D01*
X225431Y69631D01*
X225459Y69726D01*
X225484Y69822D01*
X225505Y69920D01*
X225522Y70018D01*
X225535Y70116D01*
X225544Y70215D01*
X225550Y70315D01*
X225552Y70414D01*
X225552Y76906D01*
X225550Y77005D01*
X225544Y77105D01*
X225535Y77204D01*
X225522Y77302D01*
X225505Y77400D01*
X225484Y77498D01*
X225459Y77594D01*
X225431Y77689D01*
X225399Y77783D01*
X225364Y77876D01*
X225325Y77968D01*
X225282Y78058D01*
X225237Y78146D01*
X225187Y78233D01*
X225135Y78317D01*
X225079Y78400D01*
X225021Y78480D01*
X224959Y78558D01*
X224894Y78633D01*
X224826Y78706D01*
X224756Y78776D01*
X224683Y78844D01*
X224608Y78909D01*
X224530Y78971D01*
X224450Y79029D01*
X224367Y79085D01*
X224283Y79137D01*
X224196Y79187D01*
X224108Y79232D01*
X224018Y79275D01*
X223926Y79314D01*
X223833Y79349D01*
X223739Y79381D01*
X223644Y79409D01*
X223548Y79434D01*
X223450Y79455D01*
X223352Y79472D01*
X223254Y79485D01*
X223155Y79494D01*
X223055Y79500D01*
X222956Y79502D01*
X220359Y79502D01*
X213397Y79502D02*
X215994Y70414D01*
X209503Y70414D01*
X211450Y73011D02*
X211450Y67818D01*
X150883Y67818D02*
X148287Y67818D01*
X150883Y67818D02*
X150982Y67820D01*
X151082Y67826D01*
X151181Y67835D01*
X151279Y67848D01*
X151377Y67865D01*
X151475Y67886D01*
X151571Y67911D01*
X151666Y67939D01*
X151760Y67971D01*
X151853Y68006D01*
X151945Y68045D01*
X152035Y68088D01*
X152123Y68133D01*
X152210Y68183D01*
X152294Y68235D01*
X152377Y68291D01*
X152457Y68349D01*
X152535Y68411D01*
X152610Y68476D01*
X152683Y68544D01*
X152753Y68614D01*
X152821Y68687D01*
X152886Y68762D01*
X152948Y68840D01*
X153006Y68920D01*
X153062Y69003D01*
X153114Y69087D01*
X153164Y69174D01*
X153209Y69262D01*
X153252Y69352D01*
X153291Y69444D01*
X153326Y69537D01*
X153358Y69631D01*
X153386Y69726D01*
X153411Y69822D01*
X153432Y69920D01*
X153449Y70018D01*
X153462Y70116D01*
X153471Y70215D01*
X153477Y70315D01*
X153479Y70414D01*
X153480Y70414D02*
X153480Y76906D01*
X153479Y76906D02*
X153477Y77005D01*
X153471Y77105D01*
X153462Y77204D01*
X153449Y77302D01*
X153432Y77400D01*
X153411Y77498D01*
X153386Y77594D01*
X153358Y77689D01*
X153326Y77783D01*
X153291Y77876D01*
X153252Y77968D01*
X153209Y78058D01*
X153164Y78146D01*
X153114Y78233D01*
X153062Y78317D01*
X153006Y78400D01*
X152948Y78480D01*
X152886Y78558D01*
X152821Y78633D01*
X152753Y78706D01*
X152683Y78776D01*
X152610Y78844D01*
X152535Y78909D01*
X152457Y78971D01*
X152377Y79029D01*
X152294Y79085D01*
X152210Y79137D01*
X152123Y79187D01*
X152035Y79232D01*
X151945Y79275D01*
X151853Y79314D01*
X151760Y79349D01*
X151666Y79381D01*
X151571Y79409D01*
X151475Y79434D01*
X151377Y79455D01*
X151279Y79472D01*
X151181Y79485D01*
X151082Y79494D01*
X150982Y79500D01*
X150883Y79502D01*
X148287Y79502D01*
X143921Y67818D02*
X140027Y67818D01*
X139928Y67820D01*
X139828Y67826D01*
X139729Y67835D01*
X139631Y67848D01*
X139533Y67865D01*
X139435Y67886D01*
X139339Y67911D01*
X139244Y67939D01*
X139150Y67971D01*
X139057Y68006D01*
X138965Y68045D01*
X138875Y68088D01*
X138787Y68133D01*
X138700Y68183D01*
X138616Y68235D01*
X138533Y68291D01*
X138453Y68349D01*
X138375Y68411D01*
X138300Y68476D01*
X138227Y68544D01*
X138157Y68614D01*
X138089Y68687D01*
X138024Y68762D01*
X137962Y68840D01*
X137904Y68920D01*
X137848Y69003D01*
X137796Y69087D01*
X137746Y69174D01*
X137701Y69262D01*
X137658Y69352D01*
X137619Y69444D01*
X137584Y69537D01*
X137552Y69631D01*
X137524Y69726D01*
X137499Y69822D01*
X137478Y69920D01*
X137461Y70018D01*
X137448Y70116D01*
X137439Y70215D01*
X137433Y70315D01*
X137431Y70414D01*
X137430Y70414D02*
X137430Y71713D01*
X137431Y71713D02*
X137433Y71812D01*
X137439Y71912D01*
X137448Y72011D01*
X137461Y72109D01*
X137478Y72207D01*
X137499Y72305D01*
X137524Y72401D01*
X137552Y72496D01*
X137584Y72590D01*
X137619Y72683D01*
X137658Y72775D01*
X137701Y72865D01*
X137746Y72953D01*
X137796Y73040D01*
X137848Y73124D01*
X137904Y73207D01*
X137962Y73287D01*
X138024Y73365D01*
X138089Y73440D01*
X138157Y73513D01*
X138227Y73583D01*
X138300Y73651D01*
X138375Y73716D01*
X138453Y73778D01*
X138533Y73836D01*
X138616Y73892D01*
X138700Y73944D01*
X138787Y73994D01*
X138875Y74039D01*
X138965Y74082D01*
X139057Y74121D01*
X139150Y74156D01*
X139244Y74188D01*
X139339Y74216D01*
X139435Y74241D01*
X139533Y74262D01*
X139631Y74279D01*
X139729Y74292D01*
X139828Y74301D01*
X139928Y74307D01*
X140027Y74309D01*
X143921Y74309D01*
X143921Y79502D01*
X137430Y79502D01*
D10*
X166053Y139465D02*
X170053Y145465D01*
X162053Y145465D01*
X166053Y139465D01*
D11*
X154640Y138143D02*
X154640Y149827D01*
X151394Y149827D01*
X151281Y149825D01*
X151168Y149819D01*
X151055Y149809D01*
X150942Y149795D01*
X150830Y149778D01*
X150719Y149756D01*
X150609Y149731D01*
X150499Y149701D01*
X150391Y149668D01*
X150284Y149631D01*
X150178Y149591D01*
X150074Y149546D01*
X149971Y149498D01*
X149870Y149447D01*
X149771Y149392D01*
X149674Y149334D01*
X149579Y149272D01*
X149486Y149207D01*
X149396Y149139D01*
X149308Y149068D01*
X149222Y148993D01*
X149139Y148916D01*
X149059Y148836D01*
X148982Y148753D01*
X148907Y148667D01*
X148836Y148579D01*
X148768Y148489D01*
X148703Y148396D01*
X148641Y148301D01*
X148583Y148204D01*
X148528Y148105D01*
X148477Y148004D01*
X148429Y147901D01*
X148384Y147797D01*
X148344Y147691D01*
X148307Y147584D01*
X148274Y147476D01*
X148244Y147366D01*
X148219Y147256D01*
X148197Y147145D01*
X148180Y147033D01*
X148166Y146920D01*
X148156Y146807D01*
X148150Y146694D01*
X148148Y146581D01*
X148148Y141389D01*
X148150Y141276D01*
X148156Y141163D01*
X148166Y141050D01*
X148180Y140937D01*
X148197Y140825D01*
X148219Y140714D01*
X148244Y140604D01*
X148274Y140494D01*
X148307Y140386D01*
X148344Y140279D01*
X148384Y140173D01*
X148429Y140069D01*
X148477Y139966D01*
X148528Y139865D01*
X148583Y139766D01*
X148641Y139669D01*
X148703Y139574D01*
X148768Y139481D01*
X148836Y139391D01*
X148907Y139303D01*
X148982Y139217D01*
X149059Y139134D01*
X149139Y139054D01*
X149222Y138977D01*
X149308Y138902D01*
X149396Y138831D01*
X149486Y138763D01*
X149579Y138698D01*
X149674Y138636D01*
X149771Y138578D01*
X149870Y138523D01*
X149971Y138472D01*
X150074Y138424D01*
X150178Y138379D01*
X150284Y138339D01*
X150391Y138302D01*
X150499Y138269D01*
X150609Y138239D01*
X150719Y138214D01*
X150830Y138192D01*
X150942Y138175D01*
X151055Y138161D01*
X151168Y138151D01*
X151281Y138145D01*
X151394Y138143D01*
X154640Y138143D01*
X139258Y149827D02*
X139151Y149825D01*
X139045Y149819D01*
X138939Y149809D01*
X138833Y149796D01*
X138727Y149778D01*
X138623Y149757D01*
X138519Y149732D01*
X138416Y149703D01*
X138315Y149671D01*
X138215Y149634D01*
X138116Y149594D01*
X138018Y149551D01*
X137922Y149504D01*
X137828Y149453D01*
X137736Y149399D01*
X137646Y149342D01*
X137558Y149282D01*
X137473Y149218D01*
X137390Y149151D01*
X137309Y149081D01*
X137231Y149009D01*
X137155Y148933D01*
X137083Y148855D01*
X137013Y148774D01*
X136946Y148691D01*
X136882Y148606D01*
X136822Y148518D01*
X136765Y148428D01*
X136711Y148336D01*
X136660Y148242D01*
X136613Y148146D01*
X136570Y148048D01*
X136530Y147949D01*
X136493Y147849D01*
X136461Y147748D01*
X136432Y147645D01*
X136407Y147541D01*
X136386Y147437D01*
X136368Y147331D01*
X136355Y147225D01*
X136345Y147119D01*
X136339Y147013D01*
X136337Y146906D01*
X139258Y149827D02*
X139379Y149825D01*
X139500Y149819D01*
X139620Y149809D01*
X139741Y149796D01*
X139860Y149778D01*
X139980Y149757D01*
X140098Y149732D01*
X140215Y149703D01*
X140332Y149670D01*
X140447Y149634D01*
X140561Y149593D01*
X140674Y149550D01*
X140786Y149502D01*
X140895Y149451D01*
X141003Y149396D01*
X141110Y149338D01*
X141214Y149277D01*
X141316Y149212D01*
X141416Y149144D01*
X141514Y149073D01*
X141610Y148999D01*
X141703Y148922D01*
X141793Y148841D01*
X141881Y148758D01*
X141966Y148672D01*
X142049Y148583D01*
X142128Y148492D01*
X142205Y148398D01*
X142278Y148302D01*
X142348Y148204D01*
X142415Y148103D01*
X142479Y148000D01*
X142540Y147895D01*
X142597Y147788D01*
X142650Y147680D01*
X142700Y147570D01*
X142746Y147458D01*
X142789Y147345D01*
X142828Y147230D01*
X137312Y144634D02*
X137233Y144712D01*
X137157Y144792D01*
X137084Y144875D01*
X137014Y144961D01*
X136947Y145048D01*
X136883Y145139D01*
X136823Y145231D01*
X136765Y145325D01*
X136711Y145422D01*
X136661Y145520D01*
X136614Y145620D01*
X136570Y145721D01*
X136530Y145824D01*
X136494Y145929D01*
X136462Y146034D01*
X136433Y146141D01*
X136408Y146248D01*
X136386Y146357D01*
X136369Y146466D01*
X136355Y146575D01*
X136346Y146685D01*
X136340Y146796D01*
X136338Y146906D01*
X137311Y144634D02*
X142829Y138143D01*
X136337Y138143D01*
D10*
X175708Y190668D02*
X181708Y186668D01*
X181708Y194668D01*
X175708Y190668D01*
D11*
X193434Y201000D02*
X193434Y212684D01*
X190188Y212684D01*
X190188Y212685D02*
X190075Y212683D01*
X189962Y212677D01*
X189849Y212667D01*
X189736Y212653D01*
X189624Y212636D01*
X189513Y212614D01*
X189403Y212589D01*
X189293Y212559D01*
X189185Y212526D01*
X189078Y212489D01*
X188972Y212449D01*
X188868Y212404D01*
X188765Y212356D01*
X188664Y212305D01*
X188565Y212250D01*
X188468Y212192D01*
X188373Y212130D01*
X188280Y212065D01*
X188190Y211997D01*
X188102Y211926D01*
X188016Y211851D01*
X187933Y211774D01*
X187853Y211694D01*
X187776Y211611D01*
X187701Y211525D01*
X187630Y211437D01*
X187562Y211347D01*
X187497Y211254D01*
X187435Y211159D01*
X187377Y211062D01*
X187322Y210963D01*
X187271Y210862D01*
X187223Y210759D01*
X187178Y210655D01*
X187138Y210549D01*
X187101Y210442D01*
X187068Y210334D01*
X187038Y210224D01*
X187013Y210114D01*
X186991Y210003D01*
X186974Y209891D01*
X186960Y209778D01*
X186950Y209665D01*
X186944Y209552D01*
X186942Y209439D01*
X186943Y209439D02*
X186943Y204246D01*
X186942Y204246D02*
X186944Y204133D01*
X186950Y204020D01*
X186960Y203907D01*
X186974Y203794D01*
X186991Y203682D01*
X187013Y203571D01*
X187038Y203461D01*
X187068Y203351D01*
X187101Y203243D01*
X187138Y203136D01*
X187178Y203030D01*
X187223Y202926D01*
X187271Y202823D01*
X187322Y202722D01*
X187377Y202623D01*
X187435Y202526D01*
X187497Y202431D01*
X187562Y202338D01*
X187630Y202248D01*
X187701Y202160D01*
X187776Y202074D01*
X187853Y201991D01*
X187933Y201911D01*
X188016Y201834D01*
X188102Y201759D01*
X188190Y201688D01*
X188280Y201620D01*
X188373Y201555D01*
X188468Y201493D01*
X188565Y201435D01*
X188664Y201380D01*
X188765Y201329D01*
X188868Y201281D01*
X188972Y201236D01*
X189078Y201196D01*
X189185Y201159D01*
X189293Y201126D01*
X189403Y201096D01*
X189513Y201071D01*
X189624Y201049D01*
X189736Y201032D01*
X189849Y201018D01*
X189962Y201008D01*
X190075Y201002D01*
X190188Y201000D01*
X193434Y201000D01*
X181623Y210088D02*
X178377Y212684D01*
X178377Y201000D01*
X175132Y201000D02*
X181623Y201000D01*
D12*
X751757Y30861D02*
X751757Y19431D01*
X751757Y30861D02*
X748582Y30861D01*
X748471Y30859D01*
X748361Y30853D01*
X748250Y30844D01*
X748140Y30830D01*
X748031Y30813D01*
X747922Y30792D01*
X747814Y30767D01*
X747707Y30738D01*
X747601Y30706D01*
X747496Y30670D01*
X747393Y30630D01*
X747291Y30587D01*
X747190Y30540D01*
X747091Y30489D01*
X746995Y30436D01*
X746900Y30379D01*
X746807Y30318D01*
X746716Y30255D01*
X746627Y30188D01*
X746541Y30118D01*
X746458Y30045D01*
X746376Y29970D01*
X746298Y29892D01*
X746223Y29810D01*
X746150Y29727D01*
X746080Y29641D01*
X746013Y29552D01*
X745950Y29461D01*
X745889Y29368D01*
X745832Y29273D01*
X745779Y29177D01*
X745728Y29078D01*
X745681Y28977D01*
X745638Y28875D01*
X745598Y28772D01*
X745562Y28667D01*
X745530Y28561D01*
X745501Y28454D01*
X745476Y28346D01*
X745455Y28237D01*
X745438Y28128D01*
X745424Y28018D01*
X745415Y27907D01*
X745409Y27797D01*
X745407Y27686D01*
X745409Y27575D01*
X745415Y27465D01*
X745424Y27354D01*
X745438Y27244D01*
X745455Y27135D01*
X745476Y27026D01*
X745501Y26918D01*
X745530Y26811D01*
X745562Y26705D01*
X745598Y26600D01*
X745638Y26497D01*
X745681Y26395D01*
X745728Y26294D01*
X745779Y26195D01*
X745832Y26098D01*
X745889Y26004D01*
X745950Y25911D01*
X746013Y25820D01*
X746080Y25731D01*
X746150Y25645D01*
X746223Y25562D01*
X746298Y25480D01*
X746376Y25402D01*
X746458Y25327D01*
X746541Y25254D01*
X746627Y25184D01*
X746716Y25117D01*
X746807Y25054D01*
X746900Y24993D01*
X746995Y24936D01*
X747091Y24883D01*
X747190Y24832D01*
X747291Y24785D01*
X747393Y24742D01*
X747496Y24702D01*
X747601Y24666D01*
X747707Y24634D01*
X747814Y24605D01*
X747922Y24580D01*
X748031Y24559D01*
X748140Y24542D01*
X748250Y24528D01*
X748361Y24519D01*
X748471Y24513D01*
X748582Y24511D01*
X751757Y24511D01*
X747947Y24511D02*
X745407Y19431D01*
X740410Y29591D02*
X740410Y30861D01*
X734060Y30861D01*
X737235Y19431D01*
D11*
X725110Y572008D02*
X725110Y583692D01*
X721865Y583692D01*
X721752Y583690D01*
X721639Y583684D01*
X721526Y583674D01*
X721413Y583660D01*
X721301Y583643D01*
X721190Y583621D01*
X721080Y583596D01*
X720970Y583566D01*
X720862Y583533D01*
X720755Y583496D01*
X720649Y583456D01*
X720545Y583411D01*
X720442Y583363D01*
X720341Y583312D01*
X720242Y583257D01*
X720145Y583199D01*
X720050Y583137D01*
X719957Y583072D01*
X719867Y583004D01*
X719779Y582933D01*
X719693Y582858D01*
X719610Y582781D01*
X719530Y582701D01*
X719453Y582618D01*
X719378Y582532D01*
X719307Y582444D01*
X719239Y582354D01*
X719174Y582261D01*
X719112Y582166D01*
X719054Y582069D01*
X718999Y581970D01*
X718948Y581869D01*
X718900Y581766D01*
X718855Y581662D01*
X718815Y581556D01*
X718778Y581449D01*
X718745Y581341D01*
X718715Y581231D01*
X718690Y581121D01*
X718668Y581010D01*
X718651Y580898D01*
X718637Y580785D01*
X718627Y580672D01*
X718621Y580559D01*
X718619Y580446D01*
X718621Y580333D01*
X718627Y580220D01*
X718637Y580107D01*
X718651Y579994D01*
X718668Y579882D01*
X718690Y579771D01*
X718715Y579661D01*
X718745Y579551D01*
X718778Y579443D01*
X718815Y579336D01*
X718855Y579230D01*
X718900Y579126D01*
X718948Y579023D01*
X718999Y578922D01*
X719054Y578823D01*
X719112Y578726D01*
X719174Y578631D01*
X719239Y578538D01*
X719307Y578448D01*
X719378Y578360D01*
X719453Y578274D01*
X719530Y578191D01*
X719610Y578111D01*
X719693Y578034D01*
X719779Y577959D01*
X719867Y577888D01*
X719957Y577820D01*
X720050Y577755D01*
X720145Y577693D01*
X720242Y577635D01*
X720341Y577580D01*
X720442Y577529D01*
X720545Y577481D01*
X720649Y577436D01*
X720755Y577396D01*
X720862Y577359D01*
X720970Y577326D01*
X721080Y577296D01*
X721190Y577271D01*
X721301Y577249D01*
X721413Y577232D01*
X721526Y577218D01*
X721639Y577208D01*
X721752Y577202D01*
X721865Y577200D01*
X721865Y577201D02*
X725110Y577201D01*
X721216Y577201D02*
X718619Y572008D01*
X713754Y572008D02*
X710509Y572008D01*
X710396Y572010D01*
X710283Y572016D01*
X710170Y572026D01*
X710057Y572040D01*
X709945Y572057D01*
X709834Y572079D01*
X709724Y572104D01*
X709614Y572134D01*
X709506Y572167D01*
X709399Y572204D01*
X709293Y572244D01*
X709189Y572289D01*
X709086Y572337D01*
X708985Y572388D01*
X708886Y572443D01*
X708789Y572501D01*
X708694Y572563D01*
X708601Y572628D01*
X708511Y572696D01*
X708423Y572767D01*
X708337Y572842D01*
X708254Y572919D01*
X708174Y572999D01*
X708097Y573082D01*
X708022Y573168D01*
X707951Y573256D01*
X707883Y573346D01*
X707818Y573439D01*
X707756Y573534D01*
X707698Y573631D01*
X707643Y573730D01*
X707592Y573831D01*
X707544Y573934D01*
X707499Y574038D01*
X707459Y574144D01*
X707422Y574251D01*
X707389Y574359D01*
X707359Y574469D01*
X707334Y574579D01*
X707312Y574690D01*
X707295Y574802D01*
X707281Y574915D01*
X707271Y575028D01*
X707265Y575141D01*
X707263Y575254D01*
X707265Y575367D01*
X707271Y575480D01*
X707281Y575593D01*
X707295Y575706D01*
X707312Y575818D01*
X707334Y575929D01*
X707359Y576039D01*
X707389Y576149D01*
X707422Y576257D01*
X707459Y576364D01*
X707499Y576470D01*
X707544Y576574D01*
X707592Y576677D01*
X707643Y576778D01*
X707698Y576877D01*
X707756Y576974D01*
X707818Y577069D01*
X707883Y577162D01*
X707951Y577252D01*
X708022Y577340D01*
X708097Y577426D01*
X708174Y577509D01*
X708254Y577589D01*
X708337Y577666D01*
X708423Y577741D01*
X708511Y577812D01*
X708601Y577880D01*
X708694Y577945D01*
X708789Y578007D01*
X708886Y578065D01*
X708985Y578120D01*
X709086Y578171D01*
X709189Y578219D01*
X709293Y578264D01*
X709399Y578304D01*
X709506Y578341D01*
X709614Y578374D01*
X709724Y578404D01*
X709834Y578429D01*
X709945Y578451D01*
X710057Y578468D01*
X710170Y578482D01*
X710283Y578492D01*
X710396Y578498D01*
X710509Y578500D01*
X709859Y583692D02*
X713754Y583692D01*
X709859Y583692D02*
X709758Y583690D01*
X709658Y583684D01*
X709558Y583674D01*
X709458Y583661D01*
X709359Y583643D01*
X709260Y583622D01*
X709163Y583597D01*
X709066Y583568D01*
X708971Y583535D01*
X708877Y583499D01*
X708785Y583459D01*
X708694Y583416D01*
X708605Y583369D01*
X708518Y583319D01*
X708432Y583265D01*
X708349Y583208D01*
X708269Y583148D01*
X708190Y583085D01*
X708114Y583018D01*
X708041Y582949D01*
X707971Y582877D01*
X707903Y582803D01*
X707838Y582726D01*
X707777Y582646D01*
X707718Y582564D01*
X707663Y582480D01*
X707611Y582394D01*
X707562Y582306D01*
X707517Y582216D01*
X707475Y582124D01*
X707437Y582031D01*
X707403Y581936D01*
X707372Y581841D01*
X707345Y581744D01*
X707322Y581646D01*
X707302Y581547D01*
X707287Y581447D01*
X707275Y581347D01*
X707267Y581247D01*
X707263Y581146D01*
X707263Y581046D01*
X707267Y580945D01*
X707275Y580845D01*
X707287Y580745D01*
X707302Y580645D01*
X707322Y580546D01*
X707345Y580448D01*
X707372Y580351D01*
X707403Y580256D01*
X707437Y580161D01*
X707475Y580068D01*
X707517Y579976D01*
X707562Y579886D01*
X707611Y579798D01*
X707663Y579712D01*
X707718Y579628D01*
X707777Y579546D01*
X707838Y579466D01*
X707903Y579389D01*
X707971Y579315D01*
X708041Y579243D01*
X708114Y579174D01*
X708190Y579107D01*
X708269Y579044D01*
X708349Y578984D01*
X708432Y578927D01*
X708518Y578873D01*
X708605Y578823D01*
X708694Y578776D01*
X708785Y578733D01*
X708877Y578693D01*
X708971Y578657D01*
X709066Y578624D01*
X709163Y578595D01*
X709260Y578570D01*
X709359Y578549D01*
X709458Y578531D01*
X709558Y578518D01*
X709658Y578508D01*
X709758Y578502D01*
X709859Y578500D01*
X709859Y578499D02*
X712456Y578499D01*
X125857Y253492D02*
X125857Y241808D01*
X125857Y253492D02*
X122611Y253492D01*
X122498Y253490D01*
X122385Y253484D01*
X122272Y253474D01*
X122159Y253460D01*
X122047Y253443D01*
X121936Y253421D01*
X121826Y253396D01*
X121716Y253366D01*
X121608Y253333D01*
X121501Y253296D01*
X121395Y253256D01*
X121291Y253211D01*
X121188Y253163D01*
X121087Y253112D01*
X120988Y253057D01*
X120891Y252999D01*
X120796Y252937D01*
X120703Y252872D01*
X120613Y252804D01*
X120525Y252733D01*
X120439Y252658D01*
X120356Y252581D01*
X120276Y252501D01*
X120199Y252418D01*
X120124Y252332D01*
X120053Y252244D01*
X119985Y252154D01*
X119920Y252061D01*
X119858Y251966D01*
X119800Y251869D01*
X119745Y251770D01*
X119694Y251669D01*
X119646Y251566D01*
X119601Y251462D01*
X119561Y251356D01*
X119524Y251249D01*
X119491Y251141D01*
X119461Y251031D01*
X119436Y250921D01*
X119414Y250810D01*
X119397Y250698D01*
X119383Y250585D01*
X119373Y250472D01*
X119367Y250359D01*
X119365Y250246D01*
X119367Y250133D01*
X119373Y250020D01*
X119383Y249907D01*
X119397Y249794D01*
X119414Y249682D01*
X119436Y249571D01*
X119461Y249461D01*
X119491Y249351D01*
X119524Y249243D01*
X119561Y249136D01*
X119601Y249030D01*
X119646Y248926D01*
X119694Y248823D01*
X119745Y248722D01*
X119800Y248623D01*
X119858Y248526D01*
X119920Y248431D01*
X119985Y248338D01*
X120053Y248248D01*
X120124Y248160D01*
X120199Y248074D01*
X120276Y247991D01*
X120356Y247911D01*
X120439Y247834D01*
X120525Y247759D01*
X120613Y247688D01*
X120703Y247620D01*
X120796Y247555D01*
X120891Y247493D01*
X120988Y247435D01*
X121087Y247380D01*
X121188Y247329D01*
X121291Y247281D01*
X121395Y247236D01*
X121501Y247196D01*
X121608Y247159D01*
X121716Y247126D01*
X121826Y247096D01*
X121936Y247071D01*
X122047Y247049D01*
X122159Y247032D01*
X122272Y247018D01*
X122385Y247008D01*
X122498Y247002D01*
X122611Y247000D01*
X122611Y247001D02*
X125857Y247001D01*
X121962Y247001D02*
X119366Y241808D01*
X111904Y247001D02*
X108010Y247001D01*
X111904Y247001D02*
X112003Y247003D01*
X112103Y247009D01*
X112202Y247018D01*
X112300Y247031D01*
X112398Y247048D01*
X112496Y247069D01*
X112592Y247094D01*
X112687Y247122D01*
X112781Y247154D01*
X112874Y247189D01*
X112966Y247228D01*
X113056Y247271D01*
X113144Y247316D01*
X113231Y247366D01*
X113315Y247418D01*
X113398Y247474D01*
X113478Y247532D01*
X113556Y247594D01*
X113631Y247659D01*
X113704Y247727D01*
X113774Y247797D01*
X113842Y247870D01*
X113907Y247945D01*
X113969Y248023D01*
X114027Y248103D01*
X114083Y248186D01*
X114135Y248270D01*
X114185Y248357D01*
X114230Y248445D01*
X114273Y248535D01*
X114312Y248627D01*
X114347Y248720D01*
X114379Y248814D01*
X114407Y248909D01*
X114432Y249005D01*
X114453Y249103D01*
X114470Y249201D01*
X114483Y249299D01*
X114492Y249398D01*
X114498Y249498D01*
X114500Y249597D01*
X114501Y249597D02*
X114501Y250246D01*
X114499Y250359D01*
X114493Y250472D01*
X114483Y250585D01*
X114469Y250698D01*
X114452Y250810D01*
X114430Y250921D01*
X114405Y251031D01*
X114375Y251141D01*
X114342Y251249D01*
X114305Y251356D01*
X114265Y251462D01*
X114220Y251566D01*
X114172Y251669D01*
X114121Y251770D01*
X114066Y251869D01*
X114008Y251966D01*
X113946Y252061D01*
X113881Y252154D01*
X113813Y252244D01*
X113742Y252332D01*
X113667Y252418D01*
X113590Y252501D01*
X113510Y252581D01*
X113427Y252658D01*
X113341Y252733D01*
X113253Y252804D01*
X113163Y252872D01*
X113070Y252937D01*
X112975Y252999D01*
X112878Y253057D01*
X112779Y253112D01*
X112678Y253163D01*
X112575Y253211D01*
X112471Y253256D01*
X112365Y253296D01*
X112258Y253333D01*
X112150Y253366D01*
X112040Y253396D01*
X111930Y253421D01*
X111819Y253443D01*
X111707Y253460D01*
X111594Y253474D01*
X111481Y253484D01*
X111368Y253490D01*
X111255Y253492D01*
X111142Y253490D01*
X111029Y253484D01*
X110916Y253474D01*
X110803Y253460D01*
X110691Y253443D01*
X110580Y253421D01*
X110470Y253396D01*
X110360Y253366D01*
X110252Y253333D01*
X110145Y253296D01*
X110039Y253256D01*
X109935Y253211D01*
X109832Y253163D01*
X109731Y253112D01*
X109632Y253057D01*
X109535Y252999D01*
X109440Y252937D01*
X109347Y252872D01*
X109257Y252804D01*
X109169Y252733D01*
X109083Y252658D01*
X109000Y252581D01*
X108920Y252501D01*
X108843Y252418D01*
X108768Y252332D01*
X108697Y252244D01*
X108629Y252154D01*
X108564Y252061D01*
X108502Y251966D01*
X108444Y251869D01*
X108389Y251770D01*
X108338Y251669D01*
X108290Y251566D01*
X108245Y251462D01*
X108205Y251356D01*
X108168Y251249D01*
X108135Y251141D01*
X108105Y251031D01*
X108080Y250921D01*
X108058Y250810D01*
X108041Y250698D01*
X108027Y250585D01*
X108017Y250472D01*
X108011Y250359D01*
X108009Y250246D01*
X108010Y250246D02*
X108010Y247001D01*
X108009Y247001D02*
X108011Y246858D01*
X108017Y246715D01*
X108027Y246572D01*
X108041Y246430D01*
X108058Y246288D01*
X108080Y246146D01*
X108105Y246005D01*
X108135Y245865D01*
X108168Y245726D01*
X108205Y245588D01*
X108246Y245451D01*
X108290Y245315D01*
X108339Y245180D01*
X108391Y245047D01*
X108446Y244915D01*
X108506Y244785D01*
X108569Y244656D01*
X108635Y244529D01*
X108705Y244405D01*
X108778Y244282D01*
X108855Y244161D01*
X108935Y244042D01*
X109018Y243926D01*
X109104Y243811D01*
X109193Y243700D01*
X109286Y243590D01*
X109381Y243484D01*
X109480Y243380D01*
X109581Y243279D01*
X109685Y243180D01*
X109791Y243085D01*
X109901Y242992D01*
X110012Y242903D01*
X110127Y242817D01*
X110243Y242734D01*
X110362Y242654D01*
X110483Y242577D01*
X110605Y242504D01*
X110730Y242434D01*
X110857Y242368D01*
X110986Y242305D01*
X111116Y242245D01*
X111248Y242190D01*
X111381Y242138D01*
X111516Y242089D01*
X111652Y242045D01*
X111789Y242004D01*
X111927Y241967D01*
X112066Y241934D01*
X112206Y241904D01*
X112347Y241879D01*
X112489Y241857D01*
X112631Y241840D01*
X112773Y241826D01*
X112916Y241816D01*
X113059Y241810D01*
X113202Y241808D01*
X179515Y254508D02*
X179515Y266192D01*
X176269Y266192D01*
X176156Y266190D01*
X176043Y266184D01*
X175930Y266174D01*
X175817Y266160D01*
X175705Y266143D01*
X175594Y266121D01*
X175484Y266096D01*
X175374Y266066D01*
X175266Y266033D01*
X175159Y265996D01*
X175053Y265956D01*
X174949Y265911D01*
X174846Y265863D01*
X174745Y265812D01*
X174646Y265757D01*
X174549Y265699D01*
X174454Y265637D01*
X174361Y265572D01*
X174271Y265504D01*
X174183Y265433D01*
X174097Y265358D01*
X174014Y265281D01*
X173934Y265201D01*
X173857Y265118D01*
X173782Y265032D01*
X173711Y264944D01*
X173643Y264854D01*
X173578Y264761D01*
X173516Y264666D01*
X173458Y264569D01*
X173403Y264470D01*
X173352Y264369D01*
X173304Y264266D01*
X173259Y264162D01*
X173219Y264056D01*
X173182Y263949D01*
X173149Y263841D01*
X173119Y263731D01*
X173094Y263621D01*
X173072Y263510D01*
X173055Y263398D01*
X173041Y263285D01*
X173031Y263172D01*
X173025Y263059D01*
X173023Y262946D01*
X173025Y262833D01*
X173031Y262720D01*
X173041Y262607D01*
X173055Y262494D01*
X173072Y262382D01*
X173094Y262271D01*
X173119Y262161D01*
X173149Y262051D01*
X173182Y261943D01*
X173219Y261836D01*
X173259Y261730D01*
X173304Y261626D01*
X173352Y261523D01*
X173403Y261422D01*
X173458Y261323D01*
X173516Y261226D01*
X173578Y261131D01*
X173643Y261038D01*
X173711Y260948D01*
X173782Y260860D01*
X173857Y260774D01*
X173934Y260691D01*
X174014Y260611D01*
X174097Y260534D01*
X174183Y260459D01*
X174271Y260388D01*
X174361Y260320D01*
X174454Y260255D01*
X174549Y260193D01*
X174646Y260135D01*
X174745Y260080D01*
X174846Y260029D01*
X174949Y259981D01*
X175053Y259936D01*
X175159Y259896D01*
X175266Y259859D01*
X175374Y259826D01*
X175484Y259796D01*
X175594Y259771D01*
X175705Y259749D01*
X175817Y259732D01*
X175930Y259718D01*
X176043Y259708D01*
X176156Y259702D01*
X176269Y259700D01*
X176269Y259701D02*
X179515Y259701D01*
X175620Y259701D02*
X173023Y254508D01*
X168158Y257104D02*
X165562Y266192D01*
X168158Y257104D02*
X161667Y257104D01*
X163614Y259701D02*
X163614Y254508D01*
X164456Y532638D02*
X161859Y532638D01*
X164456Y532638D02*
X164555Y532640D01*
X164655Y532646D01*
X164754Y532655D01*
X164852Y532668D01*
X164950Y532685D01*
X165048Y532706D01*
X165144Y532731D01*
X165239Y532759D01*
X165333Y532791D01*
X165426Y532826D01*
X165518Y532865D01*
X165608Y532908D01*
X165696Y532953D01*
X165783Y533003D01*
X165867Y533055D01*
X165950Y533111D01*
X166030Y533169D01*
X166108Y533231D01*
X166183Y533296D01*
X166256Y533364D01*
X166326Y533434D01*
X166394Y533507D01*
X166459Y533582D01*
X166521Y533660D01*
X166579Y533740D01*
X166635Y533823D01*
X166687Y533907D01*
X166737Y533994D01*
X166782Y534082D01*
X166825Y534172D01*
X166864Y534264D01*
X166899Y534357D01*
X166931Y534451D01*
X166959Y534546D01*
X166984Y534642D01*
X167005Y534740D01*
X167022Y534838D01*
X167035Y534936D01*
X167044Y535035D01*
X167050Y535135D01*
X167052Y535234D01*
X167052Y541726D01*
X167050Y541825D01*
X167044Y541925D01*
X167035Y542024D01*
X167022Y542122D01*
X167005Y542220D01*
X166984Y542318D01*
X166959Y542414D01*
X166931Y542509D01*
X166899Y542603D01*
X166864Y542696D01*
X166825Y542788D01*
X166782Y542878D01*
X166737Y542966D01*
X166687Y543053D01*
X166635Y543137D01*
X166579Y543220D01*
X166521Y543300D01*
X166459Y543378D01*
X166394Y543453D01*
X166326Y543526D01*
X166256Y543596D01*
X166183Y543664D01*
X166108Y543729D01*
X166030Y543791D01*
X165950Y543849D01*
X165867Y543905D01*
X165783Y543957D01*
X165696Y544007D01*
X165608Y544052D01*
X165518Y544095D01*
X165426Y544134D01*
X165333Y544169D01*
X165239Y544201D01*
X165144Y544229D01*
X165048Y544254D01*
X164950Y544275D01*
X164852Y544292D01*
X164754Y544305D01*
X164655Y544314D01*
X164555Y544320D01*
X164456Y544322D01*
X161859Y544322D01*
X157494Y541726D02*
X154249Y544322D01*
X154249Y532638D01*
X157494Y532638D02*
X151003Y532638D01*
X146064Y532638D02*
X142169Y532638D01*
X142070Y532640D01*
X141970Y532646D01*
X141871Y532655D01*
X141773Y532668D01*
X141675Y532685D01*
X141577Y532706D01*
X141481Y532731D01*
X141386Y532759D01*
X141292Y532791D01*
X141199Y532826D01*
X141107Y532865D01*
X141017Y532908D01*
X140929Y532953D01*
X140842Y533003D01*
X140758Y533055D01*
X140675Y533111D01*
X140595Y533169D01*
X140517Y533231D01*
X140442Y533296D01*
X140369Y533364D01*
X140299Y533434D01*
X140231Y533507D01*
X140166Y533582D01*
X140104Y533660D01*
X140046Y533740D01*
X139990Y533823D01*
X139938Y533907D01*
X139888Y533994D01*
X139843Y534082D01*
X139800Y534172D01*
X139761Y534264D01*
X139726Y534357D01*
X139694Y534451D01*
X139666Y534546D01*
X139641Y534642D01*
X139620Y534740D01*
X139603Y534838D01*
X139590Y534936D01*
X139581Y535035D01*
X139575Y535135D01*
X139573Y535234D01*
X139573Y536533D01*
X139575Y536632D01*
X139581Y536732D01*
X139590Y536831D01*
X139603Y536929D01*
X139620Y537027D01*
X139641Y537125D01*
X139666Y537221D01*
X139694Y537316D01*
X139726Y537410D01*
X139761Y537503D01*
X139800Y537595D01*
X139843Y537685D01*
X139888Y537773D01*
X139938Y537860D01*
X139990Y537944D01*
X140046Y538027D01*
X140104Y538107D01*
X140166Y538185D01*
X140231Y538260D01*
X140299Y538333D01*
X140369Y538403D01*
X140442Y538471D01*
X140517Y538536D01*
X140595Y538598D01*
X140675Y538656D01*
X140758Y538712D01*
X140842Y538764D01*
X140929Y538814D01*
X141017Y538859D01*
X141107Y538902D01*
X141199Y538941D01*
X141292Y538976D01*
X141386Y539008D01*
X141481Y539036D01*
X141577Y539061D01*
X141675Y539082D01*
X141773Y539099D01*
X141871Y539112D01*
X141970Y539121D01*
X142070Y539127D01*
X142169Y539129D01*
X146064Y539129D01*
X146064Y544322D01*
X139573Y544322D01*
M02*
