M48
;GenerationSoftware,Autodesk,EAGLE,9.4.2*%
;CreationDate,2020-05-19T17:35:19Z*%
FMAT,2
ICI,OFF
METRIC,TZ,000.000
T2C0.350
T1C3.000
%
G90
M71
T1
X7366Y70866
X7366Y16826
X35306Y16764
X35306Y70866
T2
X14097Y4572
X14097Y11303
X8890Y4572
X5080Y4572
X635Y5334
X2032Y5334
X3556Y5334
X635Y10668
X2032Y10668
X3556Y10668
X10922Y11430
X5842Y2794
X17526Y11430
X19304Y4572
X21082Y11430
X24892Y11430
X28321Y4572
X28321Y11303
X23114Y4572
X20193Y2921
X34798Y2921
X30988Y4572
X34036Y4572
X37846Y4445
X39370Y5334
X40894Y5334
X42418Y5334
X42418Y10668
X40894Y10668
X39370Y10668
X31750Y11430
X37846Y11430
X34544Y11430
X635Y23241
X2159Y23241
X3683Y23241
X635Y28575
X2159Y28575
X3683Y28575
X635Y41148
X2159Y41148
X3683Y41148
X635Y46609
X2159Y46609
X3683Y46609
X635Y59309
X2159Y59309
X3683Y59309
X635Y64643
X2159Y64643
X3683Y64643
X635Y77343
X2159Y77343
X3683Y77343
X635Y82677
X2159Y82677
X3683Y82677
X5080Y83439
X7874Y83439
X14097Y83439
X10668Y83439
X17526Y83439
X21082Y83439
X24892Y83439
X28321Y83439
X31750Y83439
X37846Y83439
X34544Y83439
X5080Y65405
X7874Y65405
X14097Y65405
X10668Y65405
X17526Y65405
X21082Y65405
X24892Y65405
X28321Y65405
X31750Y65405
X37084Y65405
X34544Y65405
X5080Y47244
X7874Y47244
X14097Y47244
X10668Y47244
X17526Y47371
X21082Y47371
X24892Y47371
X28321Y47371
X31750Y47371
X37846Y47371
X34798Y47371
X5080Y29337
X8128Y29337
X14097Y29337
X11176Y29337
X17526Y29337
X21082Y29337
X24892Y29337
X28321Y29337
X31750Y29337
X37084Y29337
X34544Y29337
X14097Y22479
X8890Y22479
X5080Y22479
X11430Y22479
X5842Y20701
X16764Y22479
X28321Y22479
X25654Y22479
X20066Y20701
X34798Y20701
X30988Y22479
X34036Y22479
X37846Y22479
X14097Y76581
X8890Y76581
X5080Y76581
X11430Y76581
X5842Y74803
X16764Y76581
X28321Y76581
X23114Y76581
X20193Y74803
X34798Y74803
X30988Y76581
X34036Y76581
X37846Y76581
X14097Y58547
X8890Y58547
X5080Y58547
X11430Y58547
X5842Y56769
X16764Y58547
X28321Y58547
X23114Y58547
X20193Y56769
X34798Y56769
X30988Y58547
X34036Y58547
X37846Y58547
X14097Y40513
X8890Y40513
X5080Y40513
X11430Y40513
X5842Y38735
X16764Y40513
X28321Y40513
X25654Y40513
X20193Y38735
X34671Y38735
X30988Y40513
X34036Y40513
X37846Y40513
X39370Y82677
X40894Y82677
X42418Y82677
X39370Y77343
X40894Y77343
X42418Y77343
X39370Y64643
X5080Y11430
X42418Y64643
X39370Y59309
X40894Y59309
X42418Y59309
X39370Y46609
X40894Y46609
X42418Y46609
X39370Y41148
X40894Y41148
X42418Y41148
X39370Y28575
X40894Y28575
X42418Y28575
X39370Y23114
X40894Y23114
X42418Y23114
X14097Y25908
X14097Y43942
X14097Y61976
X14097Y80010
X28321Y80010
X28321Y61976
X28321Y43942
X28321Y25908
X7874Y2794
X22225Y2921
X40894Y64643
X22352Y20701
X7874Y20701
X36830Y20701
X7874Y38735
X36957Y38735
X22225Y38735
X7874Y74803
X22225Y74803
X36830Y74803
X11430Y4572
X36830Y56769
X22225Y56769
X7747Y56769
X19304Y76581
X25654Y76581
X19304Y58547
X25654Y58547
X19304Y40513
X23114Y40513
X19304Y22479
X23114Y22479
X16764Y4572
X25654Y4572
X7874Y11430
X28321Y8001
X14097Y8001
X36830Y2921
M30