M48
;GenerationSoftware,Autodesk,EAGLE,9.4.2*%
;CreationDate,2020-06-16T12:54:23Z*%
FMAT,2
ICI,OFF
METRIC,TZ,000.000
T11C0.350
T10C0.813
T9C1.000
T8C1.016
T7C1.118
T6C1.194
T5C1.200
T4C1.321
T3C1.397
T2C3.000
T1C3.302
%
G90
M71
T1
X51816Y63563
X51816Y30861
T2
X83000Y86000
X83000Y5000
X5000Y5000
X5000Y86000
T3
X82233Y44005
X84741Y17971
X79661Y17971
X84773Y52198
X79693Y52198
X82233Y38926
X82233Y70930
X82233Y65850
T4
X73851Y70993
X73851Y65913
X73851Y86741
X73851Y81661
T5
X59566Y28832
X73766Y34832
X73766Y22832
X61566Y34832
X61566Y22832
X22744Y34769
X22744Y22768
X8544Y28768
X10544Y34769
X10544Y22768
T6
X61722Y61976
X61722Y67056
T7
X34290Y63563
X34290Y61023
X34290Y33401
X34290Y30861
X34290Y28321
X10478Y13081
X20638Y13081
X34290Y66104
X11811Y66294
X11811Y56134
T8
X68453Y61341
X18098Y80328
X48069Y81979
X55689Y81979
X38418Y11144
X7874Y56134
X7874Y71374
X3175Y49911
X18415Y49911
X23241Y11874
X18415Y44767
X3175Y44767
X3168Y39820
X18408Y39820
X45974Y23368
X45974Y71057
X13081Y17844
X10541Y17844
X8001Y17844
X23241Y14414
X73755Y38354
X76295Y38354
X22733Y38608
X25273Y38608
X60833Y73025
T9
X61861Y81471
X68691Y81471
X73343Y47238
X76927Y47238
T10
X32131Y70231
X39751Y70231
X74232Y12319
X66993Y6985
X45402Y8954
X45402Y6413
X45402Y11493
X25019Y85408
X25019Y80328
X73978Y61976
X56197Y16891
X48577Y16891
X48577Y20066
X56197Y20066
X32131Y73914
X39751Y73914
X25019Y82868
X73978Y59436
X74232Y9779
X23241Y9716
X61912Y12001
X13081Y9716
X38418Y23876
X28257Y23876
X18098Y69088
X28257Y69088
X61912Y1841
X66993Y4445
X66993Y9525
T11
X42799Y42799
X42799Y40132
X42799Y37084
X42799Y34417
X42799Y31496
X37211Y28702
X39751Y28702
X42799Y28702
X36195Y58928
X12509Y1270
X19749Y1270
X26733Y1270
X65850Y1651
X72073Y1651
X78042Y1651
X18193Y7842
X16002Y82868
X33020Y82169
X53403Y8954
X41656Y18796
X34989Y8255
X2223Y79502
X2223Y69596
X2223Y58166
X77026Y41021
X23019Y32512
X20415Y35560
X20415Y32512
X20796Y38735
X22828Y41180
X24574Y41180
X22669Y20542
X20511Y20542
X24955Y20542
X24955Y24225
X24955Y27781
X22415Y30194
X20511Y23590
X20511Y26511
X16574Y32607
X17971Y29051
X16605Y38037
X16605Y35560
X18383Y41720
X16605Y45656
X23463Y47815
X20193Y45593
X16605Y42990
X20193Y42990
X7683Y26543
X16605Y48927
X16605Y51975
X20161Y51975
X23463Y51975
X7842Y42990
X1365Y42990
X4667Y42990
X1365Y46545
X1365Y44767
X4667Y46545
X8350Y46545
X14446Y41720
X11906Y44132
X11906Y38799
X9239Y41593
X71501Y36068
X71501Y33401
X71914Y38481
X76041Y36068
X76041Y33401
X74168Y43561
X74168Y40894
X76327Y21431
X76327Y23463
X71184Y23463
X71184Y14446
X71184Y17748
X71184Y20669
X78867Y21431
X82042Y21431
X74486Y14446
X78296Y14446
X87313Y55626
X87313Y52197
X82106Y48768
X87249Y21431
X87249Y14446
X82042Y14446
X66421Y77216
X13811Y38037
X14351Y89217
X21463Y72200
X37465Y89217
X87313Y48768
X87249Y18002
X20892Y19050
X30734Y3556
X77153Y44069
X6223Y23368
X33020Y87376
X70676Y55626
X74359Y55626
X77915Y55626
X82106Y55626
X79439Y48768
X70676Y50038
X70676Y52832
X70803Y32131
X74105Y32131
X78042Y32131
X82233Y32131
X70739Y42799
X70739Y40513
X67247Y32131
X57086Y32131
X63182Y32131
X57086Y25400
X60134Y32131
X84265Y31369
X85916Y31369
X87439Y31369
X84265Y26162
X85916Y26162
X87439Y26162
X3746Y31369
X2096Y31369
X572Y31369
X3746Y26162
X2096Y26162
X572Y26162
X4890Y31115
X7683Y31115
X10732Y31115
X10732Y26543
X4890Y26543
X76137Y25368
X60134Y25400
X63182Y25400
X67247Y25400
X70803Y25400
X79312Y25368
X82233Y25368
X73533Y25368
X25717Y32512
X25717Y35560
X25717Y42291
X20288Y47815
X25781Y55499
X25781Y52451
X33528Y45085
X33528Y47371
X31242Y47371
X30099Y42799
X33528Y42799
X28702Y47371
X25717Y47371
X25717Y44831
X30099Y40513
X30099Y35306
X20796Y41180
X32766Y35306
X35560Y35306
X30734Y31496
X30099Y37846
X25717Y49784
X25781Y58039
X25781Y60833
X25781Y63373
X25781Y65786
X33528Y49911
X33528Y52070
X30099Y52070
X31750Y52070
X30099Y54356
X30099Y57023
X30099Y59690
X30099Y61976
X30099Y64135
X31877Y42799
X30099Y68072
X37084Y66040
X37084Y68072
X33655Y68072
X36957Y48895
X39751Y48895
X42799Y48895
X39370Y66040
X42799Y63500
X42799Y66040
X42799Y58166
X42799Y52197
X42799Y55372
X42799Y60833
X42799Y45593
X39751Y45593
X36957Y45593
M30