G04 EAGLE Gerber RS-274X export*
G75*
%MOMM*%
%FSLAX34Y34*%
%LPD*%
%INTop Copper*%
%IPPOS*%
%AMOC8*
5,1,8,0,0,1.08239X$1,22.5*%
G01*
%ADD10R,2.000000X1.500000*%
%ADD11R,2.000000X2.000000*%
%ADD12R,4.191000X1.778000*%
%ADD13R,4.191000X2.667000*%
%ADD14C,5.842000*%
%ADD15C,0.756400*%
%ADD16C,1.750000*%

G36*
X430020Y-758D02*
X430020Y-758D01*
X430039Y-760D01*
X430141Y-738D01*
X430243Y-722D01*
X430260Y-712D01*
X430280Y-708D01*
X430369Y-655D01*
X430460Y-606D01*
X430474Y-592D01*
X430491Y-582D01*
X430558Y-503D01*
X430630Y-428D01*
X430638Y-410D01*
X430651Y-395D01*
X430690Y-299D01*
X430733Y-205D01*
X430735Y-185D01*
X430743Y-167D01*
X430761Y0D01*
X430761Y28417D01*
X430758Y28437D01*
X430760Y28456D01*
X430738Y28558D01*
X430722Y28660D01*
X430712Y28677D01*
X430708Y28697D01*
X430655Y28786D01*
X430606Y28877D01*
X430592Y28891D01*
X430582Y28908D01*
X430503Y28975D01*
X430428Y29047D01*
X430410Y29055D01*
X430395Y29068D01*
X430299Y29107D01*
X430205Y29150D01*
X430185Y29152D01*
X430167Y29160D01*
X430000Y29178D01*
X410369Y29178D01*
X410369Y44292D01*
X410366Y44312D01*
X410368Y44331D01*
X410346Y44433D01*
X410329Y44535D01*
X410320Y44552D01*
X410316Y44572D01*
X410263Y44661D01*
X410214Y44752D01*
X410200Y44766D01*
X410190Y44783D01*
X410111Y44850D01*
X410036Y44921D01*
X410018Y44930D01*
X410003Y44943D01*
X409907Y44982D01*
X409813Y45025D01*
X409793Y45027D01*
X409775Y45035D01*
X409608Y45053D01*
X408845Y45053D01*
X408845Y45055D01*
X409608Y45055D01*
X409628Y45058D01*
X409647Y45056D01*
X409749Y45078D01*
X409851Y45095D01*
X409868Y45104D01*
X409888Y45108D01*
X409977Y45161D01*
X410068Y45210D01*
X410082Y45224D01*
X410099Y45234D01*
X410166Y45313D01*
X410237Y45388D01*
X410246Y45406D01*
X410259Y45421D01*
X410298Y45517D01*
X410341Y45611D01*
X410343Y45631D01*
X410351Y45649D01*
X410369Y45816D01*
X410369Y54850D01*
X410366Y54870D01*
X410368Y54889D01*
X410346Y54991D01*
X410329Y55093D01*
X410320Y55110D01*
X410316Y55130D01*
X410263Y55219D01*
X410214Y55310D01*
X410200Y55324D01*
X410190Y55341D01*
X410111Y55408D01*
X410036Y55480D01*
X410018Y55488D01*
X410003Y55501D01*
X409907Y55540D01*
X409813Y55583D01*
X409793Y55585D01*
X409775Y55593D01*
X409608Y55611D01*
X408084Y55611D01*
X408064Y55608D01*
X408045Y55610D01*
X407943Y55588D01*
X407841Y55572D01*
X407824Y55562D01*
X407804Y55558D01*
X407715Y55505D01*
X407624Y55456D01*
X407610Y55442D01*
X407593Y55432D01*
X407526Y55353D01*
X407455Y55278D01*
X407446Y55260D01*
X407433Y55245D01*
X407394Y55149D01*
X407351Y55055D01*
X407349Y55035D01*
X407341Y55017D01*
X407323Y54850D01*
X407323Y46577D01*
X385350Y46577D01*
X385350Y51245D01*
X385350Y51248D01*
X385350Y51252D01*
X385330Y51371D01*
X385311Y51487D01*
X385309Y51491D01*
X385308Y51494D01*
X385250Y51601D01*
X385195Y51705D01*
X385193Y51707D01*
X385191Y51711D01*
X385103Y51792D01*
X385017Y51874D01*
X385014Y51876D01*
X385011Y51878D01*
X384903Y51927D01*
X384794Y51978D01*
X384790Y51978D01*
X384787Y51980D01*
X384669Y51992D01*
X384550Y52005D01*
X384546Y52004D01*
X384542Y52005D01*
X384377Y51976D01*
X382372Y51395D01*
X382346Y51383D01*
X382292Y51367D01*
X380275Y50531D01*
X379500Y50531D01*
X379476Y50527D01*
X379453Y50530D01*
X379288Y50501D01*
X378543Y50285D01*
X376373Y50527D01*
X376344Y50525D01*
X376289Y50531D01*
X371442Y50531D01*
X371422Y50528D01*
X371403Y50530D01*
X371301Y50508D01*
X371199Y50492D01*
X371182Y50482D01*
X371162Y50478D01*
X371073Y50425D01*
X370982Y50376D01*
X370968Y50362D01*
X370951Y50352D01*
X370884Y50273D01*
X370812Y50198D01*
X370804Y50180D01*
X370791Y50165D01*
X370752Y50069D01*
X370709Y49975D01*
X370707Y49955D01*
X370699Y49937D01*
X370681Y49770D01*
X370681Y44943D01*
X358902Y44943D01*
X358882Y44940D01*
X358863Y44942D01*
X358761Y44920D01*
X358659Y44903D01*
X358642Y44894D01*
X358622Y44890D01*
X358533Y44837D01*
X358442Y44788D01*
X358428Y44774D01*
X358411Y44764D01*
X358344Y44685D01*
X358273Y44610D01*
X358264Y44592D01*
X358251Y44577D01*
X358212Y44481D01*
X358169Y44387D01*
X358167Y44367D01*
X358159Y44349D01*
X358141Y44182D01*
X358141Y43419D01*
X358139Y43419D01*
X358139Y44182D01*
X358138Y44190D01*
X358138Y44192D01*
X358136Y44202D01*
X358138Y44221D01*
X358116Y44323D01*
X358099Y44425D01*
X358090Y44442D01*
X358086Y44462D01*
X358033Y44551D01*
X357984Y44642D01*
X357970Y44656D01*
X357960Y44673D01*
X357881Y44740D01*
X357806Y44811D01*
X357788Y44820D01*
X357773Y44833D01*
X357677Y44872D01*
X357583Y44915D01*
X357563Y44917D01*
X357545Y44925D01*
X357378Y44943D01*
X345599Y44943D01*
X345599Y49770D01*
X345596Y49790D01*
X345598Y49809D01*
X345576Y49911D01*
X345560Y50013D01*
X345550Y50030D01*
X345546Y50050D01*
X345493Y50139D01*
X345444Y50230D01*
X345430Y50244D01*
X345420Y50261D01*
X345341Y50328D01*
X345266Y50400D01*
X345248Y50408D01*
X345233Y50421D01*
X345137Y50460D01*
X345043Y50503D01*
X345023Y50505D01*
X345005Y50513D01*
X344838Y50531D01*
X301715Y50531D01*
X296015Y52892D01*
X291652Y57255D01*
X289291Y62955D01*
X289291Y97065D01*
X291652Y102765D01*
X296015Y107128D01*
X301715Y109489D01*
X376289Y109489D01*
X376317Y109493D01*
X376373Y109493D01*
X378543Y109735D01*
X379288Y109519D01*
X379311Y109516D01*
X379333Y109507D01*
X379500Y109489D01*
X380275Y109489D01*
X382292Y108653D01*
X382320Y108646D01*
X382372Y108625D01*
X384377Y108044D01*
X384381Y108044D01*
X384384Y108042D01*
X384501Y108029D01*
X384621Y108015D01*
X384625Y108015D01*
X384628Y108015D01*
X384745Y108040D01*
X384862Y108065D01*
X384865Y108067D01*
X384869Y108067D01*
X384972Y108129D01*
X385074Y108189D01*
X385077Y108192D01*
X385080Y108193D01*
X385159Y108286D01*
X385236Y108374D01*
X385237Y108378D01*
X385240Y108380D01*
X385285Y108492D01*
X385330Y108602D01*
X385330Y108605D01*
X385332Y108609D01*
X385350Y108775D01*
X385350Y113423D01*
X407323Y113423D01*
X407323Y105170D01*
X407326Y105150D01*
X407324Y105131D01*
X407346Y105029D01*
X407363Y104927D01*
X407372Y104910D01*
X407376Y104890D01*
X407429Y104801D01*
X407478Y104710D01*
X407492Y104696D01*
X407502Y104679D01*
X407581Y104612D01*
X407656Y104540D01*
X407674Y104532D01*
X407689Y104519D01*
X407785Y104480D01*
X407879Y104437D01*
X407899Y104435D01*
X407917Y104427D01*
X408084Y104409D01*
X409608Y104409D01*
X409628Y104412D01*
X409647Y104410D01*
X409749Y104432D01*
X409851Y104448D01*
X409868Y104458D01*
X409888Y104462D01*
X409977Y104515D01*
X410068Y104564D01*
X410082Y104578D01*
X410099Y104588D01*
X410166Y104667D01*
X410237Y104742D01*
X410246Y104760D01*
X410259Y104775D01*
X410298Y104871D01*
X410341Y104965D01*
X410343Y104985D01*
X410351Y105003D01*
X410369Y105170D01*
X410369Y114184D01*
X410366Y114204D01*
X410368Y114223D01*
X410346Y114325D01*
X410329Y114427D01*
X410320Y114444D01*
X410316Y114464D01*
X410263Y114553D01*
X410214Y114644D01*
X410200Y114658D01*
X410190Y114675D01*
X410111Y114742D01*
X410036Y114813D01*
X410018Y114822D01*
X410003Y114835D01*
X409907Y114874D01*
X409813Y114917D01*
X409793Y114919D01*
X409775Y114927D01*
X409608Y114945D01*
X408845Y114945D01*
X408845Y114947D01*
X409608Y114947D01*
X409628Y114950D01*
X409647Y114948D01*
X409749Y114970D01*
X409851Y114987D01*
X409868Y114996D01*
X409888Y115000D01*
X409977Y115053D01*
X410068Y115102D01*
X410082Y115116D01*
X410099Y115126D01*
X410166Y115205D01*
X410237Y115280D01*
X410246Y115298D01*
X410259Y115313D01*
X410298Y115409D01*
X410341Y115503D01*
X410343Y115523D01*
X410351Y115541D01*
X410369Y115708D01*
X410369Y130822D01*
X430000Y130822D01*
X430020Y130825D01*
X430039Y130823D01*
X430141Y130845D01*
X430243Y130861D01*
X430260Y130871D01*
X430280Y130875D01*
X430369Y130928D01*
X430460Y130977D01*
X430474Y130991D01*
X430491Y131001D01*
X430558Y131080D01*
X430630Y131155D01*
X430638Y131173D01*
X430651Y131188D01*
X430690Y131284D01*
X430733Y131378D01*
X430735Y131398D01*
X430743Y131416D01*
X430761Y131583D01*
X430761Y207147D01*
X430758Y207167D01*
X430760Y207186D01*
X430738Y207288D01*
X430722Y207390D01*
X430712Y207407D01*
X430708Y207427D01*
X430655Y207516D01*
X430606Y207607D01*
X430592Y207621D01*
X430582Y207638D01*
X430503Y207705D01*
X430428Y207777D01*
X430410Y207785D01*
X430395Y207798D01*
X430299Y207837D01*
X430205Y207880D01*
X430185Y207882D01*
X430167Y207890D01*
X430000Y207908D01*
X410369Y207908D01*
X410369Y223022D01*
X410366Y223042D01*
X410368Y223061D01*
X410346Y223163D01*
X410329Y223265D01*
X410320Y223282D01*
X410316Y223302D01*
X410263Y223391D01*
X410214Y223482D01*
X410200Y223496D01*
X410190Y223513D01*
X410111Y223580D01*
X410036Y223651D01*
X410018Y223660D01*
X410003Y223673D01*
X409907Y223712D01*
X409813Y223755D01*
X409793Y223757D01*
X409775Y223765D01*
X409608Y223783D01*
X408845Y223783D01*
X408845Y223785D01*
X409608Y223785D01*
X409628Y223788D01*
X409647Y223786D01*
X409749Y223808D01*
X409851Y223825D01*
X409868Y223834D01*
X409888Y223838D01*
X409977Y223891D01*
X410068Y223940D01*
X410082Y223954D01*
X410099Y223964D01*
X410166Y224043D01*
X410237Y224118D01*
X410246Y224136D01*
X410259Y224151D01*
X410298Y224247D01*
X410341Y224341D01*
X410343Y224361D01*
X410351Y224379D01*
X410369Y224546D01*
X410369Y233603D01*
X410366Y233622D01*
X410368Y233642D01*
X410346Y233743D01*
X410329Y233845D01*
X410320Y233863D01*
X410316Y233882D01*
X410263Y233971D01*
X410214Y234063D01*
X410200Y234076D01*
X410190Y234093D01*
X410111Y234161D01*
X410036Y234232D01*
X410018Y234240D01*
X410003Y234253D01*
X409907Y234292D01*
X409813Y234336D01*
X409793Y234338D01*
X409775Y234345D01*
X409608Y234364D01*
X408084Y234364D01*
X408064Y234361D01*
X408045Y234363D01*
X407943Y234341D01*
X407841Y234324D01*
X407824Y234315D01*
X407804Y234310D01*
X407715Y234257D01*
X407624Y234209D01*
X407610Y234195D01*
X407593Y234184D01*
X407526Y234106D01*
X407455Y234031D01*
X407446Y234013D01*
X407433Y233997D01*
X407394Y233901D01*
X407351Y233808D01*
X407349Y233788D01*
X407341Y233769D01*
X407323Y233603D01*
X407323Y225307D01*
X385350Y225307D01*
X385350Y229997D01*
X385350Y230001D01*
X385350Y230004D01*
X385330Y230122D01*
X385311Y230240D01*
X385309Y230243D01*
X385308Y230247D01*
X385251Y230352D01*
X385195Y230457D01*
X385193Y230460D01*
X385191Y230463D01*
X385103Y230545D01*
X385017Y230627D01*
X385014Y230628D01*
X385011Y230631D01*
X384902Y230680D01*
X384794Y230730D01*
X384790Y230731D01*
X384787Y230732D01*
X384667Y230744D01*
X384550Y230757D01*
X384546Y230757D01*
X384542Y230757D01*
X384377Y230728D01*
X382372Y230147D01*
X382346Y230135D01*
X382292Y230119D01*
X380275Y229284D01*
X379500Y229284D01*
X379477Y229280D01*
X379453Y229282D01*
X379288Y229254D01*
X378543Y229038D01*
X376373Y229279D01*
X376344Y229278D01*
X376289Y229284D01*
X371442Y229284D01*
X371422Y229281D01*
X371403Y229283D01*
X371301Y229261D01*
X371199Y229244D01*
X371182Y229235D01*
X371162Y229230D01*
X371073Y229177D01*
X370982Y229129D01*
X370968Y229115D01*
X370951Y229104D01*
X370884Y229026D01*
X370812Y228951D01*
X370804Y228933D01*
X370791Y228917D01*
X370752Y228821D01*
X370709Y228728D01*
X370707Y228708D01*
X370699Y228689D01*
X370681Y228523D01*
X370681Y223378D01*
X358902Y223378D01*
X358882Y223375D01*
X358863Y223377D01*
X358761Y223355D01*
X358659Y223338D01*
X358642Y223329D01*
X358622Y223325D01*
X358533Y223272D01*
X358442Y223223D01*
X358428Y223209D01*
X358411Y223199D01*
X358344Y223120D01*
X358273Y223045D01*
X358264Y223027D01*
X358251Y223012D01*
X358212Y222916D01*
X358169Y222822D01*
X358167Y222802D01*
X358159Y222784D01*
X358141Y222617D01*
X358141Y221854D01*
X358139Y221854D01*
X358139Y222617D01*
X358136Y222637D01*
X358138Y222656D01*
X358116Y222758D01*
X358099Y222860D01*
X358090Y222877D01*
X358086Y222897D01*
X358033Y222986D01*
X357984Y223077D01*
X357970Y223091D01*
X357960Y223108D01*
X357881Y223175D01*
X357806Y223246D01*
X357788Y223255D01*
X357773Y223268D01*
X357677Y223307D01*
X357583Y223350D01*
X357563Y223352D01*
X357545Y223360D01*
X357378Y223378D01*
X345599Y223378D01*
X345599Y228523D01*
X345596Y228542D01*
X345598Y228562D01*
X345576Y228663D01*
X345560Y228765D01*
X345550Y228783D01*
X345546Y228802D01*
X345493Y228891D01*
X345444Y228983D01*
X345430Y228996D01*
X345420Y229013D01*
X345341Y229081D01*
X345266Y229152D01*
X345248Y229160D01*
X345233Y229173D01*
X345137Y229212D01*
X345043Y229256D01*
X345023Y229258D01*
X345005Y229265D01*
X344838Y229284D01*
X301715Y229284D01*
X296015Y231645D01*
X291652Y236007D01*
X289291Y241708D01*
X289291Y275817D01*
X291652Y281518D01*
X296015Y285880D01*
X301715Y288241D01*
X376289Y288241D01*
X376317Y288246D01*
X376373Y288246D01*
X378543Y288487D01*
X379288Y288271D01*
X379311Y288268D01*
X379333Y288260D01*
X379500Y288241D01*
X380275Y288241D01*
X382292Y287406D01*
X382320Y287399D01*
X382372Y287378D01*
X384377Y286797D01*
X384381Y286796D01*
X384384Y286795D01*
X384501Y286782D01*
X384621Y286767D01*
X384625Y286768D01*
X384628Y286768D01*
X384745Y286793D01*
X384862Y286817D01*
X384865Y286819D01*
X384869Y286820D01*
X384971Y286881D01*
X385074Y286941D01*
X385077Y286944D01*
X385080Y286946D01*
X385159Y287038D01*
X385236Y287127D01*
X385237Y287130D01*
X385240Y287133D01*
X385285Y287245D01*
X385330Y287354D01*
X385330Y287358D01*
X385332Y287361D01*
X385350Y287528D01*
X385350Y292153D01*
X407323Y292153D01*
X407323Y283922D01*
X407324Y283912D01*
X407324Y283907D01*
X407326Y283899D01*
X407324Y283883D01*
X407346Y283782D01*
X407363Y283680D01*
X407372Y283662D01*
X407376Y283643D01*
X407429Y283554D01*
X407478Y283462D01*
X407492Y283449D01*
X407502Y283432D01*
X407581Y283364D01*
X407656Y283293D01*
X407674Y283285D01*
X407689Y283272D01*
X407785Y283233D01*
X407879Y283189D01*
X407899Y283187D01*
X407917Y283180D01*
X408084Y283161D01*
X409608Y283161D01*
X409628Y283164D01*
X409647Y283162D01*
X409749Y283184D01*
X409851Y283201D01*
X409868Y283210D01*
X409888Y283215D01*
X409977Y283268D01*
X410068Y283316D01*
X410082Y283330D01*
X410099Y283341D01*
X410166Y283419D01*
X410237Y283494D01*
X410246Y283512D01*
X410259Y283528D01*
X410298Y283624D01*
X410341Y283717D01*
X410343Y283737D01*
X410351Y283756D01*
X410369Y283922D01*
X410369Y292914D01*
X410366Y292934D01*
X410368Y292953D01*
X410346Y293055D01*
X410329Y293157D01*
X410320Y293174D01*
X410316Y293194D01*
X410263Y293283D01*
X410214Y293374D01*
X410200Y293388D01*
X410190Y293405D01*
X410111Y293472D01*
X410036Y293543D01*
X410018Y293552D01*
X410003Y293565D01*
X409907Y293604D01*
X409813Y293647D01*
X409793Y293649D01*
X409775Y293657D01*
X409608Y293675D01*
X408845Y293675D01*
X408845Y293677D01*
X409608Y293677D01*
X409628Y293680D01*
X409647Y293678D01*
X409749Y293700D01*
X409851Y293717D01*
X409868Y293726D01*
X409888Y293730D01*
X409977Y293783D01*
X410068Y293832D01*
X410082Y293846D01*
X410099Y293856D01*
X410166Y293935D01*
X410237Y294010D01*
X410246Y294028D01*
X410259Y294043D01*
X410298Y294139D01*
X410341Y294233D01*
X410343Y294253D01*
X410351Y294271D01*
X410369Y294438D01*
X410369Y309552D01*
X430000Y309552D01*
X430020Y309555D01*
X430039Y309553D01*
X430141Y309575D01*
X430243Y309591D01*
X430260Y309601D01*
X430280Y309605D01*
X430369Y309658D01*
X430460Y309707D01*
X430474Y309721D01*
X430491Y309731D01*
X430558Y309810D01*
X430630Y309885D01*
X430638Y309903D01*
X430651Y309918D01*
X430690Y310014D01*
X430733Y310108D01*
X430735Y310128D01*
X430743Y310146D01*
X430761Y310313D01*
X430761Y387782D01*
X430758Y387802D01*
X430760Y387821D01*
X430738Y387923D01*
X430722Y388025D01*
X430712Y388042D01*
X430708Y388062D01*
X430655Y388151D01*
X430606Y388242D01*
X430592Y388256D01*
X430582Y388273D01*
X430503Y388340D01*
X430428Y388412D01*
X430410Y388420D01*
X430395Y388433D01*
X430299Y388472D01*
X430205Y388515D01*
X430185Y388517D01*
X430167Y388525D01*
X430000Y388543D01*
X410369Y388543D01*
X410369Y403657D01*
X410366Y403677D01*
X410368Y403696D01*
X410346Y403798D01*
X410329Y403900D01*
X410320Y403917D01*
X410316Y403937D01*
X410263Y404026D01*
X410214Y404117D01*
X410200Y404131D01*
X410190Y404148D01*
X410111Y404215D01*
X410036Y404286D01*
X410018Y404295D01*
X410003Y404308D01*
X409907Y404347D01*
X409813Y404390D01*
X409793Y404392D01*
X409775Y404400D01*
X409608Y404418D01*
X408845Y404418D01*
X408845Y404420D01*
X409608Y404420D01*
X409628Y404423D01*
X409647Y404421D01*
X409749Y404443D01*
X409851Y404460D01*
X409868Y404469D01*
X409888Y404473D01*
X409977Y404526D01*
X410068Y404575D01*
X410082Y404589D01*
X410099Y404599D01*
X410166Y404678D01*
X410237Y404753D01*
X410246Y404771D01*
X410259Y404786D01*
X410298Y404882D01*
X410341Y404976D01*
X410343Y404996D01*
X410351Y405014D01*
X410369Y405181D01*
X410369Y413943D01*
X410366Y413962D01*
X410368Y413982D01*
X410346Y414083D01*
X410329Y414185D01*
X410320Y414203D01*
X410316Y414222D01*
X410263Y414311D01*
X410214Y414403D01*
X410200Y414416D01*
X410190Y414433D01*
X410111Y414501D01*
X410036Y414572D01*
X410018Y414580D01*
X410003Y414593D01*
X409907Y414632D01*
X409813Y414676D01*
X409793Y414678D01*
X409775Y414685D01*
X409608Y414704D01*
X408084Y414704D01*
X408064Y414701D01*
X408045Y414703D01*
X407943Y414681D01*
X407841Y414664D01*
X407824Y414655D01*
X407804Y414650D01*
X407715Y414597D01*
X407624Y414549D01*
X407610Y414535D01*
X407593Y414524D01*
X407526Y414446D01*
X407455Y414371D01*
X407446Y414353D01*
X407433Y414337D01*
X407394Y414241D01*
X407351Y414148D01*
X407349Y414128D01*
X407341Y414109D01*
X407323Y413943D01*
X407323Y405942D01*
X385350Y405942D01*
X385350Y410337D01*
X385350Y410341D01*
X385350Y410344D01*
X385349Y410351D01*
X385349Y410353D01*
X385347Y410365D01*
X385330Y410463D01*
X385311Y410580D01*
X385309Y410583D01*
X385308Y410587D01*
X385250Y410694D01*
X385195Y410797D01*
X385193Y410800D01*
X385191Y410803D01*
X385103Y410885D01*
X385017Y410967D01*
X385014Y410968D01*
X385011Y410971D01*
X384903Y411020D01*
X384794Y411070D01*
X384790Y411071D01*
X384787Y411072D01*
X384669Y411084D01*
X384550Y411097D01*
X384546Y411097D01*
X384542Y411097D01*
X384377Y411068D01*
X382372Y410487D01*
X382346Y410475D01*
X382292Y410460D01*
X380275Y409624D01*
X379500Y409624D01*
X379476Y409620D01*
X379453Y409622D01*
X379288Y409594D01*
X378543Y409378D01*
X376373Y409619D01*
X376344Y409618D01*
X376289Y409624D01*
X371442Y409624D01*
X371422Y409621D01*
X371403Y409623D01*
X371301Y409601D01*
X371199Y409584D01*
X371182Y409575D01*
X371162Y409570D01*
X371073Y409517D01*
X370982Y409469D01*
X370968Y409455D01*
X370951Y409444D01*
X370884Y409366D01*
X370812Y409291D01*
X370804Y409273D01*
X370791Y409257D01*
X370752Y409161D01*
X370709Y409068D01*
X370707Y409048D01*
X370699Y409029D01*
X370681Y408863D01*
X370681Y403718D01*
X358902Y403718D01*
X358882Y403715D01*
X358863Y403717D01*
X358761Y403695D01*
X358659Y403678D01*
X358642Y403669D01*
X358622Y403665D01*
X358533Y403612D01*
X358442Y403563D01*
X358428Y403549D01*
X358411Y403539D01*
X358344Y403460D01*
X358273Y403385D01*
X358264Y403367D01*
X358251Y403352D01*
X358212Y403256D01*
X358169Y403162D01*
X358167Y403142D01*
X358159Y403124D01*
X358141Y402957D01*
X358141Y402194D01*
X358139Y402194D01*
X358139Y402957D01*
X358136Y402977D01*
X358138Y402996D01*
X358116Y403098D01*
X358099Y403200D01*
X358090Y403217D01*
X358086Y403237D01*
X358033Y403326D01*
X357984Y403417D01*
X357970Y403431D01*
X357960Y403448D01*
X357881Y403515D01*
X357806Y403586D01*
X357788Y403595D01*
X357773Y403608D01*
X357677Y403647D01*
X357583Y403690D01*
X357563Y403692D01*
X357545Y403700D01*
X357378Y403718D01*
X345599Y403718D01*
X345599Y408863D01*
X345596Y408882D01*
X345598Y408902D01*
X345576Y409003D01*
X345560Y409105D01*
X345550Y409123D01*
X345546Y409142D01*
X345493Y409231D01*
X345444Y409323D01*
X345430Y409336D01*
X345420Y409353D01*
X345341Y409421D01*
X345266Y409492D01*
X345248Y409500D01*
X345233Y409513D01*
X345137Y409552D01*
X345043Y409596D01*
X345023Y409598D01*
X345005Y409605D01*
X344838Y409624D01*
X301715Y409624D01*
X296015Y411985D01*
X291652Y416347D01*
X289291Y422048D01*
X289291Y456157D01*
X291652Y461858D01*
X296015Y466220D01*
X301715Y468581D01*
X376289Y468581D01*
X376317Y468586D01*
X376373Y468586D01*
X378543Y468827D01*
X379288Y468611D01*
X379311Y468608D01*
X379333Y468600D01*
X379500Y468581D01*
X380275Y468581D01*
X382292Y467746D01*
X382320Y467739D01*
X382372Y467718D01*
X384377Y467137D01*
X384381Y467136D01*
X384384Y467135D01*
X384501Y467122D01*
X384621Y467107D01*
X384625Y467108D01*
X384628Y467108D01*
X384745Y467133D01*
X384862Y467157D01*
X384865Y467159D01*
X384869Y467160D01*
X384972Y467221D01*
X385074Y467281D01*
X385077Y467284D01*
X385080Y467286D01*
X385159Y467378D01*
X385236Y467467D01*
X385237Y467470D01*
X385240Y467473D01*
X385285Y467585D01*
X385330Y467694D01*
X385330Y467698D01*
X385332Y467701D01*
X385350Y467868D01*
X385350Y472788D01*
X407323Y472788D01*
X407323Y464262D01*
X407326Y464243D01*
X407324Y464223D01*
X407346Y464122D01*
X407363Y464020D01*
X407372Y464002D01*
X407376Y463983D01*
X407429Y463894D01*
X407478Y463802D01*
X407492Y463789D01*
X407502Y463772D01*
X407581Y463704D01*
X407656Y463633D01*
X407674Y463625D01*
X407689Y463612D01*
X407785Y463573D01*
X407879Y463529D01*
X407899Y463527D01*
X407917Y463520D01*
X408084Y463501D01*
X409608Y463501D01*
X409628Y463504D01*
X409647Y463502D01*
X409749Y463524D01*
X409851Y463541D01*
X409868Y463550D01*
X409888Y463555D01*
X409977Y463608D01*
X410068Y463656D01*
X410082Y463670D01*
X410099Y463681D01*
X410166Y463759D01*
X410237Y463834D01*
X410246Y463852D01*
X410259Y463868D01*
X410298Y463964D01*
X410341Y464057D01*
X410343Y464077D01*
X410351Y464096D01*
X410369Y464262D01*
X410369Y473549D01*
X410366Y473569D01*
X410368Y473588D01*
X410346Y473690D01*
X410329Y473792D01*
X410320Y473809D01*
X410316Y473829D01*
X410263Y473918D01*
X410214Y474009D01*
X410200Y474023D01*
X410190Y474040D01*
X410111Y474107D01*
X410036Y474178D01*
X410018Y474187D01*
X410003Y474200D01*
X409907Y474239D01*
X409813Y474282D01*
X409793Y474284D01*
X409775Y474292D01*
X409608Y474310D01*
X408845Y474310D01*
X408845Y474312D01*
X409608Y474312D01*
X409628Y474315D01*
X409647Y474313D01*
X409749Y474335D01*
X409851Y474352D01*
X409868Y474361D01*
X409888Y474365D01*
X409977Y474418D01*
X410068Y474467D01*
X410082Y474481D01*
X410099Y474491D01*
X410166Y474570D01*
X410237Y474645D01*
X410246Y474663D01*
X410259Y474678D01*
X410298Y474774D01*
X410341Y474868D01*
X410343Y474888D01*
X410351Y474906D01*
X410369Y475073D01*
X410369Y490187D01*
X430000Y490187D01*
X430020Y490190D01*
X430039Y490188D01*
X430141Y490210D01*
X430243Y490226D01*
X430260Y490236D01*
X430280Y490240D01*
X430369Y490293D01*
X430460Y490342D01*
X430474Y490356D01*
X430491Y490366D01*
X430558Y490445D01*
X430630Y490520D01*
X430638Y490538D01*
X430651Y490553D01*
X430690Y490649D01*
X430733Y490743D01*
X430735Y490763D01*
X430743Y490781D01*
X430761Y490948D01*
X430761Y568417D01*
X430758Y568437D01*
X430760Y568456D01*
X430738Y568558D01*
X430722Y568660D01*
X430712Y568677D01*
X430708Y568697D01*
X430655Y568786D01*
X430606Y568877D01*
X430592Y568891D01*
X430582Y568908D01*
X430503Y568975D01*
X430428Y569047D01*
X430410Y569055D01*
X430395Y569068D01*
X430299Y569107D01*
X430205Y569150D01*
X430185Y569152D01*
X430167Y569160D01*
X430000Y569178D01*
X410369Y569178D01*
X410369Y584292D01*
X410366Y584312D01*
X410368Y584331D01*
X410346Y584433D01*
X410329Y584535D01*
X410320Y584552D01*
X410316Y584572D01*
X410263Y584661D01*
X410214Y584752D01*
X410200Y584766D01*
X410190Y584783D01*
X410111Y584850D01*
X410036Y584921D01*
X410018Y584930D01*
X410003Y584943D01*
X409907Y584982D01*
X409813Y585025D01*
X409793Y585027D01*
X409775Y585035D01*
X409608Y585053D01*
X408845Y585053D01*
X408845Y585055D01*
X409608Y585055D01*
X409628Y585058D01*
X409647Y585056D01*
X409749Y585078D01*
X409851Y585095D01*
X409868Y585104D01*
X409888Y585108D01*
X409977Y585161D01*
X410068Y585210D01*
X410082Y585224D01*
X410099Y585234D01*
X410166Y585313D01*
X410237Y585388D01*
X410246Y585406D01*
X410259Y585421D01*
X410298Y585517D01*
X410341Y585611D01*
X410343Y585631D01*
X410351Y585649D01*
X410369Y585816D01*
X410369Y594918D01*
X410366Y594937D01*
X410368Y594957D01*
X410346Y595058D01*
X410329Y595160D01*
X410320Y595178D01*
X410316Y595197D01*
X410263Y595286D01*
X410214Y595378D01*
X410200Y595391D01*
X410190Y595408D01*
X410111Y595476D01*
X410036Y595547D01*
X410018Y595555D01*
X410003Y595568D01*
X409907Y595607D01*
X409813Y595651D01*
X409793Y595653D01*
X409775Y595660D01*
X409608Y595679D01*
X408084Y595679D01*
X408064Y595676D01*
X408045Y595678D01*
X407943Y595656D01*
X407841Y595639D01*
X407824Y595630D01*
X407804Y595625D01*
X407715Y595572D01*
X407624Y595524D01*
X407610Y595510D01*
X407593Y595499D01*
X407526Y595421D01*
X407455Y595346D01*
X407446Y595328D01*
X407433Y595312D01*
X407394Y595216D01*
X407351Y595123D01*
X407349Y595103D01*
X407341Y595084D01*
X407323Y594918D01*
X407323Y586577D01*
X385350Y586577D01*
X385350Y591312D01*
X385350Y591316D01*
X385350Y591319D01*
X385330Y591434D01*
X385311Y591555D01*
X385309Y591558D01*
X385308Y591562D01*
X385251Y591667D01*
X385195Y591772D01*
X385193Y591775D01*
X385191Y591778D01*
X385103Y591860D01*
X385017Y591942D01*
X385014Y591943D01*
X385011Y591946D01*
X384902Y591995D01*
X384794Y592045D01*
X384790Y592046D01*
X384787Y592047D01*
X384667Y592059D01*
X384550Y592072D01*
X384546Y592072D01*
X384542Y592072D01*
X384377Y592043D01*
X382372Y591462D01*
X382355Y591454D01*
X382338Y591452D01*
X382322Y591443D01*
X382292Y591434D01*
X380275Y590599D01*
X379500Y590599D01*
X379477Y590595D01*
X379453Y590597D01*
X379288Y590569D01*
X378543Y590353D01*
X376373Y590594D01*
X376344Y590593D01*
X376289Y590599D01*
X371442Y590599D01*
X371422Y590596D01*
X371403Y590598D01*
X371301Y590576D01*
X371199Y590559D01*
X371182Y590550D01*
X371162Y590545D01*
X371073Y590492D01*
X370982Y590444D01*
X370968Y590430D01*
X370951Y590419D01*
X370884Y590341D01*
X370812Y590266D01*
X370804Y590248D01*
X370791Y590232D01*
X370752Y590136D01*
X370709Y590043D01*
X370707Y590023D01*
X370699Y590004D01*
X370681Y589838D01*
X370681Y584693D01*
X358902Y584693D01*
X358882Y584690D01*
X358863Y584692D01*
X358761Y584670D01*
X358659Y584653D01*
X358642Y584644D01*
X358622Y584640D01*
X358533Y584587D01*
X358442Y584538D01*
X358428Y584524D01*
X358411Y584514D01*
X358344Y584435D01*
X358273Y584360D01*
X358264Y584342D01*
X358251Y584327D01*
X358212Y584231D01*
X358169Y584137D01*
X358167Y584117D01*
X358159Y584099D01*
X358141Y583932D01*
X358141Y583169D01*
X358139Y583169D01*
X358139Y583932D01*
X358136Y583952D01*
X358138Y583971D01*
X358116Y584073D01*
X358099Y584175D01*
X358090Y584192D01*
X358086Y584212D01*
X358033Y584301D01*
X357984Y584392D01*
X357970Y584406D01*
X357960Y584423D01*
X357881Y584490D01*
X357806Y584561D01*
X357788Y584570D01*
X357773Y584583D01*
X357677Y584622D01*
X357583Y584665D01*
X357563Y584667D01*
X357545Y584675D01*
X357378Y584693D01*
X345599Y584693D01*
X345599Y589838D01*
X345596Y589857D01*
X345598Y589877D01*
X345576Y589978D01*
X345560Y590080D01*
X345550Y590098D01*
X345546Y590117D01*
X345493Y590206D01*
X345444Y590298D01*
X345430Y590311D01*
X345420Y590328D01*
X345341Y590396D01*
X345266Y590467D01*
X345248Y590475D01*
X345233Y590488D01*
X345137Y590527D01*
X345043Y590571D01*
X345023Y590573D01*
X345005Y590580D01*
X344838Y590599D01*
X301715Y590599D01*
X296015Y592960D01*
X291652Y597322D01*
X289291Y603023D01*
X289291Y637132D01*
X291652Y642833D01*
X296015Y647195D01*
X301715Y649556D01*
X376289Y649556D01*
X376317Y649561D01*
X376373Y649561D01*
X378543Y649802D01*
X379288Y649586D01*
X379311Y649583D01*
X379333Y649575D01*
X379500Y649556D01*
X380275Y649556D01*
X382292Y648721D01*
X382320Y648714D01*
X382372Y648693D01*
X384377Y648112D01*
X384381Y648111D01*
X384384Y648110D01*
X384501Y648097D01*
X384621Y648082D01*
X384625Y648083D01*
X384628Y648083D01*
X384745Y648108D01*
X384862Y648132D01*
X384865Y648134D01*
X384869Y648135D01*
X384972Y648196D01*
X385074Y648256D01*
X385077Y648259D01*
X385080Y648261D01*
X385159Y648353D01*
X385236Y648442D01*
X385237Y648445D01*
X385240Y648448D01*
X385285Y648560D01*
X385330Y648669D01*
X385330Y648673D01*
X385332Y648676D01*
X385350Y648843D01*
X385350Y653423D01*
X407323Y653423D01*
X407323Y645237D01*
X407326Y645218D01*
X407324Y645198D01*
X407346Y645097D01*
X407363Y644995D01*
X407372Y644977D01*
X407376Y644958D01*
X407429Y644869D01*
X407478Y644777D01*
X407492Y644764D01*
X407502Y644747D01*
X407581Y644679D01*
X407656Y644608D01*
X407674Y644600D01*
X407689Y644587D01*
X407785Y644548D01*
X407879Y644504D01*
X407899Y644502D01*
X407917Y644495D01*
X408084Y644476D01*
X409608Y644476D01*
X409628Y644479D01*
X409647Y644477D01*
X409749Y644499D01*
X409851Y644516D01*
X409868Y644525D01*
X409888Y644530D01*
X409977Y644583D01*
X410068Y644631D01*
X410082Y644645D01*
X410099Y644656D01*
X410166Y644734D01*
X410237Y644809D01*
X410246Y644827D01*
X410259Y644843D01*
X410298Y644939D01*
X410341Y645032D01*
X410343Y645052D01*
X410351Y645071D01*
X410369Y645237D01*
X410369Y654184D01*
X410366Y654204D01*
X410368Y654223D01*
X410346Y654325D01*
X410329Y654427D01*
X410320Y654444D01*
X410316Y654464D01*
X410263Y654553D01*
X410214Y654644D01*
X410200Y654658D01*
X410190Y654675D01*
X410111Y654742D01*
X410036Y654813D01*
X410018Y654822D01*
X410003Y654835D01*
X409907Y654874D01*
X409813Y654917D01*
X409793Y654919D01*
X409775Y654927D01*
X409608Y654945D01*
X408845Y654945D01*
X408845Y654947D01*
X409608Y654947D01*
X409628Y654950D01*
X409647Y654948D01*
X409749Y654970D01*
X409851Y654987D01*
X409868Y654996D01*
X409888Y655000D01*
X409977Y655053D01*
X410068Y655102D01*
X410082Y655116D01*
X410099Y655126D01*
X410166Y655205D01*
X410237Y655280D01*
X410246Y655298D01*
X410259Y655313D01*
X410298Y655409D01*
X410341Y655503D01*
X410343Y655523D01*
X410351Y655541D01*
X410369Y655708D01*
X410369Y670822D01*
X430000Y670822D01*
X430020Y670825D01*
X430039Y670823D01*
X430141Y670845D01*
X430243Y670861D01*
X430260Y670871D01*
X430280Y670875D01*
X430369Y670928D01*
X430460Y670977D01*
X430474Y670991D01*
X430491Y671001D01*
X430558Y671080D01*
X430630Y671155D01*
X430638Y671173D01*
X430651Y671188D01*
X430690Y671284D01*
X430733Y671378D01*
X430735Y671398D01*
X430743Y671416D01*
X430761Y671583D01*
X430761Y748417D01*
X430758Y748437D01*
X430760Y748456D01*
X430738Y748558D01*
X430722Y748660D01*
X430712Y748677D01*
X430708Y748697D01*
X430655Y748786D01*
X430606Y748877D01*
X430592Y748891D01*
X430582Y748908D01*
X430503Y748975D01*
X430428Y749047D01*
X430410Y749055D01*
X430395Y749068D01*
X430299Y749107D01*
X430205Y749150D01*
X430185Y749152D01*
X430167Y749160D01*
X430000Y749178D01*
X410369Y749178D01*
X410369Y764292D01*
X410366Y764312D01*
X410368Y764331D01*
X410346Y764433D01*
X410329Y764535D01*
X410320Y764552D01*
X410316Y764572D01*
X410263Y764661D01*
X410214Y764752D01*
X410200Y764766D01*
X410190Y764783D01*
X410111Y764850D01*
X410036Y764921D01*
X410018Y764930D01*
X410003Y764943D01*
X409907Y764982D01*
X409813Y765025D01*
X409793Y765027D01*
X409775Y765035D01*
X409608Y765053D01*
X408845Y765053D01*
X408845Y765055D01*
X409608Y765055D01*
X409628Y765058D01*
X409647Y765056D01*
X409749Y765078D01*
X409851Y765095D01*
X409868Y765104D01*
X409888Y765108D01*
X409977Y765161D01*
X410068Y765210D01*
X410082Y765224D01*
X410099Y765234D01*
X410166Y765313D01*
X410237Y765388D01*
X410246Y765406D01*
X410259Y765421D01*
X410298Y765517D01*
X410341Y765611D01*
X410343Y765631D01*
X410351Y765649D01*
X410369Y765816D01*
X410369Y774940D01*
X410366Y774960D01*
X410368Y774979D01*
X410346Y775081D01*
X410329Y775183D01*
X410320Y775200D01*
X410316Y775220D01*
X410263Y775309D01*
X410214Y775400D01*
X410200Y775414D01*
X410190Y775431D01*
X410111Y775498D01*
X410036Y775570D01*
X410018Y775578D01*
X410003Y775591D01*
X409907Y775630D01*
X409813Y775673D01*
X409793Y775675D01*
X409775Y775683D01*
X409608Y775701D01*
X408084Y775701D01*
X408064Y775698D01*
X408045Y775700D01*
X407943Y775678D01*
X407841Y775662D01*
X407824Y775652D01*
X407804Y775648D01*
X407715Y775595D01*
X407624Y775546D01*
X407610Y775532D01*
X407593Y775522D01*
X407526Y775443D01*
X407455Y775368D01*
X407446Y775350D01*
X407433Y775335D01*
X407394Y775239D01*
X407351Y775145D01*
X407349Y775125D01*
X407341Y775107D01*
X407323Y774940D01*
X407323Y766577D01*
X385350Y766577D01*
X385350Y771335D01*
X385350Y771338D01*
X385350Y771342D01*
X385330Y771461D01*
X385311Y771577D01*
X385309Y771581D01*
X385308Y771584D01*
X385250Y771691D01*
X385195Y771795D01*
X385193Y771797D01*
X385191Y771801D01*
X385103Y771882D01*
X385017Y771964D01*
X385014Y771966D01*
X385011Y771968D01*
X384903Y772017D01*
X384794Y772068D01*
X384790Y772068D01*
X384787Y772070D01*
X384669Y772082D01*
X384550Y772095D01*
X384546Y772094D01*
X384542Y772095D01*
X384377Y772066D01*
X382372Y771485D01*
X382346Y771473D01*
X382292Y771457D01*
X380275Y770621D01*
X379500Y770621D01*
X379477Y770617D01*
X379453Y770620D01*
X379288Y770591D01*
X378543Y770375D01*
X376373Y770617D01*
X376344Y770615D01*
X376289Y770621D01*
X371442Y770621D01*
X371422Y770618D01*
X371403Y770620D01*
X371301Y770598D01*
X371199Y770582D01*
X371182Y770572D01*
X371162Y770568D01*
X371073Y770515D01*
X370982Y770466D01*
X370968Y770452D01*
X370951Y770442D01*
X370884Y770363D01*
X370812Y770288D01*
X370804Y770270D01*
X370791Y770255D01*
X370752Y770159D01*
X370709Y770065D01*
X370707Y770045D01*
X370699Y770027D01*
X370681Y769860D01*
X370681Y764716D01*
X358902Y764716D01*
X358882Y764712D01*
X358863Y764715D01*
X358761Y764693D01*
X358659Y764676D01*
X358642Y764667D01*
X358622Y764662D01*
X358533Y764609D01*
X358442Y764561D01*
X358428Y764546D01*
X358411Y764536D01*
X358344Y764457D01*
X358273Y764382D01*
X358264Y764364D01*
X358251Y764349D01*
X358212Y764253D01*
X358169Y764159D01*
X358167Y764140D01*
X358159Y764121D01*
X358141Y763954D01*
X358141Y763192D01*
X358139Y763192D01*
X358139Y763954D01*
X358136Y763974D01*
X358138Y763994D01*
X358116Y764095D01*
X358099Y764197D01*
X358090Y764215D01*
X358086Y764234D01*
X358033Y764323D01*
X357984Y764415D01*
X357970Y764428D01*
X357960Y764445D01*
X357881Y764513D01*
X357806Y764584D01*
X357788Y764592D01*
X357773Y764605D01*
X357677Y764644D01*
X357583Y764688D01*
X357563Y764690D01*
X357545Y764697D01*
X357378Y764716D01*
X345599Y764716D01*
X345599Y769860D01*
X345596Y769880D01*
X345598Y769899D01*
X345576Y770001D01*
X345560Y770103D01*
X345550Y770120D01*
X345546Y770140D01*
X345493Y770229D01*
X345444Y770320D01*
X345430Y770334D01*
X345420Y770351D01*
X345341Y770418D01*
X345266Y770490D01*
X345248Y770498D01*
X345233Y770511D01*
X345137Y770550D01*
X345043Y770593D01*
X345023Y770595D01*
X345005Y770603D01*
X344838Y770621D01*
X301715Y770621D01*
X296015Y772982D01*
X291652Y777345D01*
X289291Y783045D01*
X289291Y817155D01*
X291652Y822855D01*
X296015Y827218D01*
X301715Y829579D01*
X376289Y829579D01*
X376317Y829583D01*
X376373Y829583D01*
X378543Y829825D01*
X379288Y829609D01*
X379311Y829606D01*
X379333Y829597D01*
X379500Y829579D01*
X380275Y829579D01*
X382292Y828743D01*
X382320Y828736D01*
X382372Y828715D01*
X384377Y828134D01*
X384381Y828134D01*
X384384Y828132D01*
X384501Y828119D01*
X384621Y828105D01*
X384625Y828105D01*
X384628Y828105D01*
X384745Y828130D01*
X384862Y828155D01*
X384865Y828157D01*
X384869Y828157D01*
X384972Y828219D01*
X385074Y828279D01*
X385077Y828282D01*
X385080Y828283D01*
X385159Y828376D01*
X385236Y828464D01*
X385237Y828468D01*
X385240Y828470D01*
X385285Y828582D01*
X385330Y828692D01*
X385330Y828695D01*
X385332Y828699D01*
X385350Y828865D01*
X385350Y833423D01*
X407323Y833423D01*
X407323Y825260D01*
X407326Y825240D01*
X407324Y825221D01*
X407346Y825119D01*
X407363Y825017D01*
X407372Y825000D01*
X407376Y824980D01*
X407429Y824891D01*
X407478Y824800D01*
X407492Y824786D01*
X407502Y824769D01*
X407581Y824702D01*
X407656Y824630D01*
X407674Y824622D01*
X407689Y824609D01*
X407785Y824570D01*
X407879Y824527D01*
X407899Y824525D01*
X407917Y824517D01*
X408084Y824499D01*
X409608Y824499D01*
X409628Y824502D01*
X409647Y824500D01*
X409749Y824522D01*
X409851Y824538D01*
X409868Y824548D01*
X409888Y824552D01*
X409977Y824605D01*
X410068Y824654D01*
X410082Y824668D01*
X410099Y824678D01*
X410166Y824757D01*
X410237Y824832D01*
X410246Y824850D01*
X410259Y824865D01*
X410298Y824961D01*
X410341Y825055D01*
X410343Y825075D01*
X410351Y825093D01*
X410369Y825260D01*
X410369Y834184D01*
X410366Y834204D01*
X410368Y834223D01*
X410346Y834325D01*
X410329Y834427D01*
X410320Y834444D01*
X410316Y834464D01*
X410263Y834553D01*
X410214Y834644D01*
X410200Y834658D01*
X410190Y834675D01*
X410111Y834742D01*
X410036Y834813D01*
X410018Y834822D01*
X410003Y834835D01*
X409907Y834874D01*
X409813Y834917D01*
X409793Y834919D01*
X409775Y834927D01*
X409608Y834945D01*
X408845Y834945D01*
X408845Y834947D01*
X409608Y834947D01*
X409628Y834950D01*
X409647Y834948D01*
X409749Y834970D01*
X409851Y834987D01*
X409868Y834996D01*
X409888Y835000D01*
X409977Y835053D01*
X410068Y835102D01*
X410082Y835116D01*
X410099Y835126D01*
X410166Y835205D01*
X410237Y835280D01*
X410246Y835298D01*
X410259Y835313D01*
X410298Y835409D01*
X410341Y835503D01*
X410343Y835523D01*
X410351Y835541D01*
X410369Y835708D01*
X410369Y850822D01*
X430000Y850822D01*
X430020Y850825D01*
X430039Y850823D01*
X430141Y850845D01*
X430243Y850861D01*
X430260Y850871D01*
X430280Y850875D01*
X430369Y850928D01*
X430460Y850977D01*
X430474Y850991D01*
X430491Y851001D01*
X430558Y851080D01*
X430630Y851155D01*
X430638Y851173D01*
X430651Y851188D01*
X430690Y851284D01*
X430733Y851378D01*
X430735Y851398D01*
X430743Y851416D01*
X430761Y851583D01*
X430761Y880000D01*
X430758Y880020D01*
X430760Y880039D01*
X430738Y880141D01*
X430722Y880243D01*
X430712Y880260D01*
X430708Y880280D01*
X430655Y880369D01*
X430606Y880460D01*
X430592Y880474D01*
X430582Y880491D01*
X430503Y880558D01*
X430428Y880630D01*
X430410Y880638D01*
X430395Y880651D01*
X430299Y880690D01*
X430205Y880733D01*
X430185Y880735D01*
X430167Y880743D01*
X430000Y880761D01*
X0Y880761D01*
X-20Y880758D01*
X-39Y880760D01*
X-141Y880738D01*
X-243Y880722D01*
X-260Y880712D01*
X-280Y880708D01*
X-369Y880655D01*
X-460Y880606D01*
X-474Y880592D01*
X-491Y880582D01*
X-558Y880503D01*
X-630Y880428D01*
X-638Y880410D01*
X-651Y880395D01*
X-690Y880299D01*
X-733Y880205D01*
X-735Y880185D01*
X-743Y880167D01*
X-761Y880000D01*
X-761Y851583D01*
X-758Y851563D01*
X-760Y851544D01*
X-738Y851442D01*
X-722Y851340D01*
X-712Y851323D01*
X-708Y851303D01*
X-655Y851214D01*
X-606Y851123D01*
X-592Y851109D01*
X-582Y851092D01*
X-503Y851025D01*
X-428Y850953D01*
X-410Y850945D01*
X-395Y850932D01*
X-299Y850893D01*
X-205Y850850D01*
X-185Y850848D01*
X-167Y850840D01*
X0Y850822D01*
X19631Y850822D01*
X19631Y835708D01*
X19634Y835688D01*
X19632Y835669D01*
X19654Y835567D01*
X19671Y835465D01*
X19680Y835448D01*
X19684Y835428D01*
X19737Y835339D01*
X19786Y835248D01*
X19800Y835234D01*
X19810Y835217D01*
X19889Y835150D01*
X19964Y835079D01*
X19982Y835070D01*
X19997Y835057D01*
X20093Y835018D01*
X20187Y834975D01*
X20207Y834973D01*
X20225Y834965D01*
X20392Y834947D01*
X21155Y834947D01*
X21155Y834945D01*
X20392Y834945D01*
X20372Y834942D01*
X20353Y834944D01*
X20251Y834922D01*
X20149Y834905D01*
X20132Y834896D01*
X20112Y834892D01*
X20023Y834839D01*
X19932Y834790D01*
X19918Y834776D01*
X19901Y834766D01*
X19834Y834687D01*
X19763Y834612D01*
X19754Y834594D01*
X19741Y834579D01*
X19702Y834483D01*
X19659Y834389D01*
X19657Y834369D01*
X19649Y834351D01*
X19631Y834184D01*
X19631Y824942D01*
X19634Y824923D01*
X19632Y824903D01*
X19654Y824802D01*
X19671Y824700D01*
X19680Y824682D01*
X19684Y824663D01*
X19737Y824574D01*
X19786Y824482D01*
X19800Y824469D01*
X19810Y824452D01*
X19889Y824384D01*
X19964Y824313D01*
X19982Y824305D01*
X19997Y824292D01*
X20093Y824253D01*
X20187Y824209D01*
X20207Y824207D01*
X20225Y824200D01*
X20392Y824181D01*
X21916Y824181D01*
X21936Y824184D01*
X21955Y824182D01*
X22057Y824204D01*
X22159Y824221D01*
X22176Y824230D01*
X22196Y824235D01*
X22285Y824288D01*
X22376Y824336D01*
X22390Y824350D01*
X22407Y824361D01*
X22474Y824439D01*
X22545Y824514D01*
X22554Y824532D01*
X22567Y824548D01*
X22606Y824644D01*
X22649Y824737D01*
X22651Y824757D01*
X22659Y824776D01*
X22677Y824942D01*
X22677Y833423D01*
X44650Y833423D01*
X44650Y828762D01*
X44650Y828759D01*
X44650Y828755D01*
X44670Y828636D01*
X44689Y828519D01*
X44691Y828516D01*
X44692Y828513D01*
X44750Y828405D01*
X44805Y828302D01*
X44807Y828300D01*
X44809Y828296D01*
X44897Y828215D01*
X44983Y828133D01*
X44986Y828131D01*
X44989Y828129D01*
X45098Y828079D01*
X45206Y828029D01*
X45209Y828029D01*
X45213Y828027D01*
X45332Y828015D01*
X45450Y828002D01*
X45454Y828003D01*
X45458Y828002D01*
X45623Y828031D01*
X46888Y828398D01*
X46914Y828410D01*
X46968Y828425D01*
X48985Y829261D01*
X49760Y829261D01*
X49784Y829265D01*
X49807Y829263D01*
X49972Y829291D01*
X50717Y829507D01*
X52887Y829266D01*
X52916Y829267D01*
X52971Y829261D01*
X122465Y829261D01*
X128165Y826900D01*
X132528Y822538D01*
X134889Y816837D01*
X134889Y782728D01*
X132528Y777027D01*
X128165Y772665D01*
X122465Y770304D01*
X81882Y770304D01*
X81862Y770301D01*
X81843Y770303D01*
X81741Y770281D01*
X81639Y770264D01*
X81622Y770255D01*
X81602Y770250D01*
X81513Y770197D01*
X81422Y770149D01*
X81408Y770135D01*
X81391Y770124D01*
X81324Y770046D01*
X81252Y769971D01*
X81244Y769953D01*
X81231Y769937D01*
X81192Y769841D01*
X81149Y769748D01*
X81147Y769728D01*
X81139Y769709D01*
X81121Y769543D01*
X81121Y764398D01*
X69342Y764398D01*
X69322Y764395D01*
X69303Y764397D01*
X69201Y764375D01*
X69099Y764358D01*
X69082Y764349D01*
X69062Y764345D01*
X68973Y764292D01*
X68882Y764243D01*
X68868Y764229D01*
X68851Y764219D01*
X68784Y764140D01*
X68713Y764065D01*
X68704Y764047D01*
X68691Y764032D01*
X68652Y763936D01*
X68609Y763842D01*
X68607Y763822D01*
X68599Y763804D01*
X68581Y763637D01*
X68581Y762874D01*
X68579Y762874D01*
X68579Y763637D01*
X68576Y763657D01*
X68578Y763676D01*
X68556Y763778D01*
X68539Y763880D01*
X68530Y763897D01*
X68526Y763917D01*
X68473Y764006D01*
X68424Y764097D01*
X68410Y764111D01*
X68400Y764128D01*
X68321Y764195D01*
X68246Y764266D01*
X68228Y764275D01*
X68213Y764288D01*
X68117Y764327D01*
X68023Y764370D01*
X68003Y764372D01*
X67985Y764380D01*
X67818Y764398D01*
X56039Y764398D01*
X56039Y769543D01*
X56036Y769562D01*
X56038Y769582D01*
X56016Y769683D01*
X56000Y769785D01*
X55990Y769803D01*
X55986Y769822D01*
X55933Y769911D01*
X55884Y770003D01*
X55870Y770016D01*
X55860Y770033D01*
X55781Y770101D01*
X55706Y770172D01*
X55688Y770180D01*
X55673Y770193D01*
X55577Y770232D01*
X55483Y770276D01*
X55463Y770278D01*
X55445Y770285D01*
X55278Y770304D01*
X52971Y770304D01*
X52943Y770299D01*
X52887Y770299D01*
X50717Y770058D01*
X49972Y770274D01*
X49949Y770277D01*
X49927Y770285D01*
X49760Y770304D01*
X48985Y770304D01*
X46968Y771139D01*
X46940Y771146D01*
X46888Y771167D01*
X45623Y771534D01*
X45619Y771534D01*
X45616Y771536D01*
X45499Y771549D01*
X45379Y771563D01*
X45375Y771563D01*
X45372Y771563D01*
X45255Y771538D01*
X45138Y771513D01*
X45135Y771512D01*
X45131Y771511D01*
X45028Y771449D01*
X44926Y771389D01*
X44923Y771386D01*
X44920Y771385D01*
X44841Y771292D01*
X44764Y771204D01*
X44763Y771200D01*
X44760Y771198D01*
X44715Y771086D01*
X44670Y770976D01*
X44670Y770973D01*
X44668Y770970D01*
X44650Y770803D01*
X44650Y766577D01*
X22677Y766577D01*
X22677Y774623D01*
X22674Y774642D01*
X22676Y774662D01*
X22654Y774763D01*
X22637Y774865D01*
X22628Y774883D01*
X22624Y774902D01*
X22571Y774991D01*
X22522Y775083D01*
X22508Y775096D01*
X22498Y775113D01*
X22419Y775181D01*
X22344Y775252D01*
X22326Y775260D01*
X22311Y775273D01*
X22215Y775312D01*
X22121Y775356D01*
X22101Y775358D01*
X22083Y775365D01*
X21916Y775384D01*
X20392Y775384D01*
X20372Y775381D01*
X20353Y775383D01*
X20251Y775361D01*
X20149Y775344D01*
X20132Y775335D01*
X20112Y775330D01*
X20023Y775277D01*
X19932Y775229D01*
X19918Y775215D01*
X19901Y775204D01*
X19834Y775126D01*
X19763Y775051D01*
X19754Y775033D01*
X19741Y775017D01*
X19702Y774921D01*
X19659Y774828D01*
X19657Y774808D01*
X19649Y774789D01*
X19631Y774623D01*
X19631Y765816D01*
X19634Y765797D01*
X19632Y765778D01*
X19632Y765777D01*
X19654Y765675D01*
X19671Y765573D01*
X19680Y765556D01*
X19684Y765536D01*
X19737Y765447D01*
X19786Y765356D01*
X19800Y765342D01*
X19810Y765325D01*
X19889Y765258D01*
X19964Y765187D01*
X19982Y765178D01*
X19997Y765165D01*
X20093Y765126D01*
X20187Y765083D01*
X20207Y765081D01*
X20225Y765073D01*
X20392Y765055D01*
X21155Y765055D01*
X21155Y765053D01*
X20392Y765053D01*
X20372Y765050D01*
X20353Y765052D01*
X20251Y765030D01*
X20149Y765013D01*
X20132Y765004D01*
X20112Y765000D01*
X20023Y764947D01*
X19932Y764898D01*
X19918Y764884D01*
X19901Y764874D01*
X19834Y764795D01*
X19763Y764720D01*
X19754Y764702D01*
X19741Y764687D01*
X19702Y764591D01*
X19659Y764497D01*
X19657Y764477D01*
X19649Y764459D01*
X19631Y764292D01*
X19631Y749178D01*
X0Y749178D01*
X-20Y749175D01*
X-39Y749177D01*
X-141Y749155D01*
X-243Y749139D01*
X-260Y749129D01*
X-280Y749125D01*
X-369Y749072D01*
X-460Y749023D01*
X-474Y749009D01*
X-491Y748999D01*
X-558Y748920D01*
X-630Y748845D01*
X-638Y748827D01*
X-651Y748812D01*
X-690Y748716D01*
X-733Y748622D01*
X-735Y748602D01*
X-743Y748584D01*
X-761Y748417D01*
X-761Y671583D01*
X-758Y671563D01*
X-760Y671544D01*
X-738Y671442D01*
X-722Y671340D01*
X-712Y671323D01*
X-708Y671303D01*
X-655Y671214D01*
X-606Y671123D01*
X-592Y671109D01*
X-582Y671092D01*
X-503Y671025D01*
X-428Y670953D01*
X-410Y670945D01*
X-395Y670932D01*
X-299Y670893D01*
X-205Y670850D01*
X-185Y670848D01*
X-167Y670840D01*
X0Y670822D01*
X19631Y670822D01*
X19631Y655708D01*
X19634Y655688D01*
X19632Y655669D01*
X19654Y655567D01*
X19671Y655465D01*
X19680Y655448D01*
X19684Y655428D01*
X19737Y655339D01*
X19786Y655248D01*
X19800Y655234D01*
X19810Y655217D01*
X19889Y655150D01*
X19964Y655079D01*
X19982Y655070D01*
X19997Y655057D01*
X20093Y655018D01*
X20187Y654975D01*
X20207Y654973D01*
X20225Y654965D01*
X20392Y654947D01*
X21155Y654947D01*
X21155Y654945D01*
X20392Y654945D01*
X20372Y654942D01*
X20353Y654944D01*
X20251Y654922D01*
X20149Y654905D01*
X20132Y654896D01*
X20112Y654892D01*
X20023Y654839D01*
X19932Y654790D01*
X19918Y654776D01*
X19901Y654766D01*
X19834Y654687D01*
X19763Y654612D01*
X19754Y654594D01*
X19741Y654579D01*
X19702Y654483D01*
X19659Y654389D01*
X19657Y654369D01*
X19649Y654351D01*
X19631Y654184D01*
X19631Y644920D01*
X19634Y644900D01*
X19632Y644881D01*
X19654Y644779D01*
X19671Y644677D01*
X19680Y644660D01*
X19684Y644640D01*
X19737Y644551D01*
X19786Y644460D01*
X19800Y644446D01*
X19810Y644429D01*
X19889Y644362D01*
X19964Y644290D01*
X19982Y644282D01*
X19997Y644269D01*
X20093Y644230D01*
X20187Y644187D01*
X20207Y644185D01*
X20225Y644177D01*
X20392Y644159D01*
X21916Y644159D01*
X21936Y644162D01*
X21955Y644160D01*
X22057Y644182D01*
X22159Y644198D01*
X22176Y644208D01*
X22196Y644212D01*
X22285Y644265D01*
X22376Y644314D01*
X22390Y644328D01*
X22407Y644338D01*
X22474Y644417D01*
X22545Y644492D01*
X22554Y644510D01*
X22567Y644525D01*
X22606Y644621D01*
X22649Y644715D01*
X22651Y644735D01*
X22659Y644753D01*
X22677Y644920D01*
X22677Y653423D01*
X44650Y653423D01*
X44650Y648832D01*
X44650Y648828D01*
X44650Y648825D01*
X44670Y648706D01*
X44689Y648589D01*
X44691Y648586D01*
X44692Y648582D01*
X44750Y648475D01*
X44805Y648372D01*
X44807Y648369D01*
X44809Y648366D01*
X44897Y648284D01*
X44983Y648202D01*
X44986Y648201D01*
X44989Y648198D01*
X45097Y648149D01*
X45206Y648099D01*
X45210Y648098D01*
X45213Y648097D01*
X45331Y648085D01*
X45450Y648071D01*
X45454Y648072D01*
X45458Y648072D01*
X45623Y648101D01*
X46571Y648375D01*
X46597Y648387D01*
X46650Y648403D01*
X48668Y649239D01*
X49443Y649239D01*
X49466Y649243D01*
X49489Y649240D01*
X49655Y649269D01*
X50399Y649485D01*
X52570Y649243D01*
X52598Y649245D01*
X52654Y649239D01*
X122147Y649239D01*
X127848Y646878D01*
X132210Y642515D01*
X134571Y636815D01*
X134571Y602705D01*
X132210Y597005D01*
X127848Y592642D01*
X122147Y590281D01*
X81882Y590281D01*
X81862Y590278D01*
X81843Y590280D01*
X81741Y590258D01*
X81639Y590242D01*
X81622Y590232D01*
X81602Y590228D01*
X81513Y590175D01*
X81422Y590126D01*
X81408Y590112D01*
X81391Y590102D01*
X81324Y590023D01*
X81252Y589948D01*
X81244Y589930D01*
X81231Y589915D01*
X81192Y589819D01*
X81149Y589725D01*
X81147Y589705D01*
X81139Y589687D01*
X81121Y589520D01*
X81121Y584376D01*
X69342Y584376D01*
X69322Y584372D01*
X69303Y584375D01*
X69201Y584353D01*
X69099Y584336D01*
X69082Y584327D01*
X69062Y584322D01*
X68973Y584269D01*
X68882Y584221D01*
X68868Y584206D01*
X68851Y584196D01*
X68784Y584117D01*
X68713Y584042D01*
X68704Y584024D01*
X68691Y584009D01*
X68652Y583913D01*
X68609Y583819D01*
X68607Y583800D01*
X68599Y583781D01*
X68581Y583614D01*
X68581Y582852D01*
X68579Y582852D01*
X68579Y583614D01*
X68576Y583634D01*
X68578Y583654D01*
X68556Y583755D01*
X68539Y583857D01*
X68530Y583875D01*
X68526Y583894D01*
X68473Y583983D01*
X68424Y584075D01*
X68410Y584088D01*
X68400Y584105D01*
X68321Y584173D01*
X68246Y584244D01*
X68228Y584252D01*
X68213Y584265D01*
X68117Y584304D01*
X68023Y584348D01*
X68003Y584350D01*
X67985Y584357D01*
X67818Y584376D01*
X56039Y584376D01*
X56039Y589520D01*
X56036Y589540D01*
X56038Y589559D01*
X56016Y589661D01*
X56000Y589763D01*
X55990Y589780D01*
X55986Y589800D01*
X55933Y589889D01*
X55884Y589980D01*
X55870Y589994D01*
X55860Y590011D01*
X55781Y590078D01*
X55706Y590150D01*
X55688Y590158D01*
X55673Y590171D01*
X55577Y590210D01*
X55483Y590253D01*
X55463Y590255D01*
X55445Y590263D01*
X55278Y590281D01*
X52654Y590281D01*
X52625Y590277D01*
X52570Y590277D01*
X50399Y590035D01*
X49655Y590251D01*
X49631Y590254D01*
X49609Y590263D01*
X49443Y590281D01*
X48668Y590281D01*
X46650Y591117D01*
X46622Y591124D01*
X46571Y591145D01*
X45623Y591419D01*
X45619Y591420D01*
X45616Y591421D01*
X45499Y591434D01*
X45379Y591449D01*
X45375Y591448D01*
X45372Y591449D01*
X45256Y591423D01*
X45138Y591399D01*
X45135Y591397D01*
X45131Y591396D01*
X45029Y591335D01*
X44926Y591275D01*
X44923Y591272D01*
X44920Y591270D01*
X44841Y591178D01*
X44764Y591089D01*
X44763Y591086D01*
X44760Y591083D01*
X44715Y590971D01*
X44670Y590862D01*
X44670Y590858D01*
X44668Y590855D01*
X44650Y590688D01*
X44650Y586577D01*
X22677Y586577D01*
X22677Y594600D01*
X22674Y594620D01*
X22676Y594639D01*
X22654Y594741D01*
X22637Y594843D01*
X22628Y594860D01*
X22624Y594880D01*
X22571Y594969D01*
X22522Y595060D01*
X22508Y595074D01*
X22498Y595091D01*
X22419Y595158D01*
X22344Y595230D01*
X22326Y595238D01*
X22311Y595251D01*
X22215Y595290D01*
X22121Y595333D01*
X22101Y595335D01*
X22083Y595343D01*
X21916Y595361D01*
X20392Y595361D01*
X20372Y595358D01*
X20353Y595360D01*
X20251Y595338D01*
X20149Y595322D01*
X20132Y595312D01*
X20112Y595308D01*
X20023Y595255D01*
X19932Y595206D01*
X19918Y595192D01*
X19901Y595182D01*
X19834Y595103D01*
X19763Y595028D01*
X19754Y595010D01*
X19741Y594995D01*
X19702Y594899D01*
X19659Y594805D01*
X19657Y594785D01*
X19649Y594767D01*
X19631Y594600D01*
X19631Y585816D01*
X19634Y585796D01*
X19632Y585777D01*
X19654Y585675D01*
X19671Y585573D01*
X19680Y585556D01*
X19684Y585536D01*
X19737Y585447D01*
X19786Y585356D01*
X19800Y585342D01*
X19810Y585325D01*
X19889Y585258D01*
X19964Y585187D01*
X19982Y585178D01*
X19997Y585165D01*
X20093Y585126D01*
X20187Y585083D01*
X20207Y585081D01*
X20225Y585073D01*
X20392Y585055D01*
X21155Y585055D01*
X21155Y585053D01*
X20392Y585053D01*
X20372Y585050D01*
X20353Y585052D01*
X20251Y585030D01*
X20149Y585013D01*
X20132Y585004D01*
X20112Y585000D01*
X20023Y584947D01*
X19932Y584898D01*
X19918Y584884D01*
X19901Y584874D01*
X19834Y584795D01*
X19763Y584720D01*
X19754Y584702D01*
X19741Y584687D01*
X19702Y584591D01*
X19659Y584497D01*
X19657Y584477D01*
X19649Y584459D01*
X19631Y584292D01*
X19631Y569178D01*
X0Y569178D01*
X-20Y569175D01*
X-39Y569177D01*
X-141Y569155D01*
X-243Y569139D01*
X-260Y569129D01*
X-280Y569125D01*
X-369Y569072D01*
X-460Y569023D01*
X-474Y569009D01*
X-491Y568999D01*
X-558Y568920D01*
X-630Y568845D01*
X-638Y568827D01*
X-651Y568812D01*
X-690Y568716D01*
X-733Y568622D01*
X-735Y568602D01*
X-743Y568584D01*
X-761Y568417D01*
X-761Y490683D01*
X-758Y490663D01*
X-760Y490644D01*
X-738Y490542D01*
X-722Y490440D01*
X-712Y490423D01*
X-708Y490403D01*
X-655Y490314D01*
X-606Y490223D01*
X-592Y490209D01*
X-582Y490192D01*
X-503Y490125D01*
X-428Y490053D01*
X-410Y490045D01*
X-395Y490032D01*
X-299Y489993D01*
X-205Y489950D01*
X-185Y489948D01*
X-167Y489940D01*
X0Y489922D01*
X19631Y489922D01*
X19631Y474808D01*
X19634Y474788D01*
X19632Y474769D01*
X19654Y474667D01*
X19671Y474565D01*
X19680Y474548D01*
X19684Y474528D01*
X19737Y474439D01*
X19786Y474348D01*
X19800Y474334D01*
X19810Y474317D01*
X19889Y474250D01*
X19964Y474179D01*
X19982Y474170D01*
X19997Y474157D01*
X20093Y474118D01*
X20187Y474075D01*
X20207Y474073D01*
X20225Y474065D01*
X20392Y474047D01*
X21155Y474047D01*
X21155Y474045D01*
X20392Y474045D01*
X20372Y474042D01*
X20353Y474044D01*
X20251Y474022D01*
X20149Y474005D01*
X20132Y473996D01*
X20112Y473992D01*
X20023Y473939D01*
X19932Y473890D01*
X19918Y473876D01*
X19901Y473866D01*
X19834Y473787D01*
X19763Y473712D01*
X19754Y473694D01*
X19741Y473679D01*
X19702Y473583D01*
X19659Y473489D01*
X19657Y473469D01*
X19649Y473451D01*
X19631Y473284D01*
X19631Y464262D01*
X19634Y464243D01*
X19632Y464223D01*
X19654Y464122D01*
X19671Y464020D01*
X19680Y464002D01*
X19684Y463983D01*
X19737Y463894D01*
X19786Y463802D01*
X19800Y463789D01*
X19810Y463772D01*
X19889Y463704D01*
X19964Y463633D01*
X19982Y463625D01*
X19997Y463612D01*
X20093Y463573D01*
X20187Y463529D01*
X20207Y463527D01*
X20225Y463520D01*
X20392Y463501D01*
X21916Y463501D01*
X21936Y463504D01*
X21955Y463502D01*
X22057Y463524D01*
X22159Y463541D01*
X22176Y463550D01*
X22196Y463555D01*
X22285Y463608D01*
X22376Y463656D01*
X22390Y463670D01*
X22407Y463681D01*
X22474Y463759D01*
X22545Y463834D01*
X22554Y463852D01*
X22567Y463868D01*
X22606Y463964D01*
X22649Y464057D01*
X22651Y464077D01*
X22659Y464096D01*
X22677Y464262D01*
X22677Y472523D01*
X44650Y472523D01*
X44650Y468174D01*
X44650Y468171D01*
X44650Y468167D01*
X44670Y468048D01*
X44689Y467931D01*
X44691Y467928D01*
X44692Y467925D01*
X44749Y467818D01*
X44805Y467714D01*
X44807Y467712D01*
X44809Y467708D01*
X44897Y467627D01*
X44983Y467545D01*
X44986Y467543D01*
X44989Y467541D01*
X45098Y467491D01*
X45206Y467441D01*
X45209Y467441D01*
X45213Y467439D01*
X45332Y467427D01*
X45450Y467414D01*
X45454Y467415D01*
X45458Y467414D01*
X45623Y467443D01*
X46571Y467718D01*
X46597Y467730D01*
X46650Y467746D01*
X48668Y468581D01*
X49443Y468581D01*
X49466Y468585D01*
X49489Y468583D01*
X49655Y468611D01*
X50399Y468827D01*
X52570Y468586D01*
X52598Y468587D01*
X52654Y468581D01*
X122147Y468581D01*
X127848Y466220D01*
X132210Y461858D01*
X134571Y456157D01*
X134571Y422048D01*
X132210Y416347D01*
X127848Y411985D01*
X122147Y409624D01*
X81882Y409624D01*
X81862Y409621D01*
X81843Y409623D01*
X81741Y409601D01*
X81639Y409584D01*
X81622Y409575D01*
X81602Y409570D01*
X81513Y409517D01*
X81422Y409469D01*
X81408Y409455D01*
X81391Y409444D01*
X81324Y409366D01*
X81252Y409291D01*
X81244Y409273D01*
X81231Y409257D01*
X81192Y409161D01*
X81149Y409068D01*
X81147Y409048D01*
X81139Y409029D01*
X81121Y408863D01*
X81121Y403718D01*
X69342Y403718D01*
X69322Y403715D01*
X69303Y403717D01*
X69201Y403695D01*
X69099Y403678D01*
X69082Y403669D01*
X69062Y403665D01*
X68973Y403612D01*
X68882Y403563D01*
X68868Y403549D01*
X68851Y403539D01*
X68784Y403460D01*
X68713Y403385D01*
X68704Y403367D01*
X68691Y403352D01*
X68652Y403256D01*
X68609Y403162D01*
X68607Y403142D01*
X68599Y403124D01*
X68581Y402957D01*
X68581Y402194D01*
X68579Y402194D01*
X68579Y402957D01*
X68576Y402977D01*
X68578Y402996D01*
X68556Y403098D01*
X68539Y403200D01*
X68530Y403217D01*
X68526Y403237D01*
X68473Y403326D01*
X68424Y403417D01*
X68410Y403431D01*
X68400Y403448D01*
X68321Y403515D01*
X68246Y403586D01*
X68228Y403595D01*
X68213Y403608D01*
X68117Y403647D01*
X68023Y403690D01*
X68003Y403692D01*
X67985Y403700D01*
X67818Y403718D01*
X56039Y403718D01*
X56039Y408863D01*
X56036Y408882D01*
X56038Y408902D01*
X56016Y409003D01*
X56000Y409105D01*
X55990Y409123D01*
X55986Y409142D01*
X55933Y409231D01*
X55884Y409323D01*
X55870Y409336D01*
X55860Y409353D01*
X55781Y409421D01*
X55706Y409492D01*
X55688Y409500D01*
X55673Y409513D01*
X55577Y409552D01*
X55483Y409596D01*
X55463Y409598D01*
X55445Y409605D01*
X55278Y409624D01*
X52654Y409624D01*
X52625Y409619D01*
X52570Y409619D01*
X50399Y409378D01*
X49655Y409594D01*
X49631Y409597D01*
X49609Y409605D01*
X49443Y409624D01*
X48668Y409624D01*
X46650Y410459D01*
X46622Y410466D01*
X46571Y410487D01*
X45623Y410762D01*
X45619Y410762D01*
X45616Y410764D01*
X45499Y410777D01*
X45379Y410791D01*
X45375Y410791D01*
X45372Y410791D01*
X45256Y410766D01*
X45138Y410741D01*
X45135Y410740D01*
X45131Y410739D01*
X45029Y410678D01*
X44926Y410617D01*
X44923Y410614D01*
X44920Y410613D01*
X44841Y410520D01*
X44764Y410432D01*
X44763Y410428D01*
X44760Y410426D01*
X44715Y410313D01*
X44670Y410204D01*
X44670Y410201D01*
X44668Y410198D01*
X44650Y410031D01*
X44650Y405677D01*
X22677Y405677D01*
X22677Y413943D01*
X22674Y413962D01*
X22676Y413982D01*
X22654Y414083D01*
X22637Y414185D01*
X22628Y414203D01*
X22624Y414222D01*
X22571Y414311D01*
X22522Y414403D01*
X22508Y414416D01*
X22498Y414433D01*
X22419Y414501D01*
X22344Y414572D01*
X22326Y414580D01*
X22311Y414593D01*
X22215Y414632D01*
X22121Y414676D01*
X22101Y414678D01*
X22083Y414685D01*
X21916Y414704D01*
X20392Y414704D01*
X20372Y414701D01*
X20353Y414703D01*
X20251Y414681D01*
X20149Y414664D01*
X20132Y414655D01*
X20112Y414650D01*
X20023Y414597D01*
X19932Y414549D01*
X19918Y414535D01*
X19901Y414524D01*
X19834Y414446D01*
X19763Y414371D01*
X19754Y414353D01*
X19741Y414337D01*
X19702Y414241D01*
X19659Y414148D01*
X19657Y414128D01*
X19649Y414109D01*
X19631Y413943D01*
X19631Y404916D01*
X19634Y404896D01*
X19632Y404877D01*
X19654Y404775D01*
X19671Y404673D01*
X19680Y404656D01*
X19684Y404636D01*
X19737Y404547D01*
X19786Y404456D01*
X19800Y404442D01*
X19810Y404425D01*
X19889Y404358D01*
X19964Y404287D01*
X19982Y404278D01*
X19997Y404265D01*
X20093Y404226D01*
X20187Y404183D01*
X20207Y404181D01*
X20225Y404173D01*
X20392Y404155D01*
X21155Y404155D01*
X21155Y404153D01*
X20392Y404153D01*
X20372Y404150D01*
X20353Y404152D01*
X20251Y404130D01*
X20149Y404113D01*
X20132Y404104D01*
X20112Y404100D01*
X20023Y404047D01*
X19932Y403998D01*
X19918Y403984D01*
X19901Y403974D01*
X19834Y403895D01*
X19763Y403820D01*
X19754Y403802D01*
X19741Y403787D01*
X19702Y403691D01*
X19659Y403597D01*
X19657Y403577D01*
X19649Y403559D01*
X19631Y403392D01*
X19631Y388278D01*
X0Y388278D01*
X-20Y388275D01*
X-39Y388277D01*
X-141Y388255D01*
X-243Y388239D01*
X-260Y388229D01*
X-280Y388225D01*
X-369Y388172D01*
X-460Y388123D01*
X-474Y388109D01*
X-491Y388099D01*
X-558Y388020D01*
X-630Y387945D01*
X-638Y387927D01*
X-651Y387912D01*
X-690Y387816D01*
X-733Y387722D01*
X-735Y387702D01*
X-743Y387684D01*
X-761Y387517D01*
X-761Y310313D01*
X-758Y310293D01*
X-760Y310274D01*
X-738Y310172D01*
X-722Y310070D01*
X-712Y310053D01*
X-708Y310033D01*
X-655Y309944D01*
X-606Y309853D01*
X-592Y309839D01*
X-582Y309822D01*
X-503Y309755D01*
X-428Y309683D01*
X-410Y309675D01*
X-395Y309662D01*
X-299Y309623D01*
X-205Y309580D01*
X-185Y309578D01*
X-167Y309570D01*
X0Y309552D01*
X19631Y309552D01*
X19631Y294438D01*
X19634Y294418D01*
X19632Y294399D01*
X19654Y294297D01*
X19671Y294195D01*
X19680Y294178D01*
X19684Y294158D01*
X19737Y294069D01*
X19786Y293978D01*
X19800Y293964D01*
X19810Y293947D01*
X19889Y293880D01*
X19964Y293809D01*
X19982Y293800D01*
X19997Y293787D01*
X20093Y293748D01*
X20187Y293705D01*
X20207Y293703D01*
X20225Y293695D01*
X20392Y293677D01*
X21155Y293677D01*
X21155Y293675D01*
X20392Y293675D01*
X20372Y293672D01*
X20353Y293674D01*
X20251Y293652D01*
X20149Y293635D01*
X20132Y293626D01*
X20112Y293622D01*
X20023Y293569D01*
X19932Y293520D01*
X19918Y293506D01*
X19901Y293496D01*
X19834Y293417D01*
X19763Y293342D01*
X19754Y293324D01*
X19741Y293309D01*
X19702Y293213D01*
X19659Y293119D01*
X19657Y293099D01*
X19649Y293081D01*
X19631Y292914D01*
X19631Y283922D01*
X19632Y283912D01*
X19632Y283907D01*
X19634Y283899D01*
X19632Y283883D01*
X19654Y283782D01*
X19671Y283680D01*
X19680Y283662D01*
X19684Y283643D01*
X19737Y283554D01*
X19786Y283462D01*
X19800Y283449D01*
X19810Y283432D01*
X19889Y283364D01*
X19964Y283293D01*
X19982Y283285D01*
X19997Y283272D01*
X20093Y283233D01*
X20187Y283189D01*
X20207Y283187D01*
X20225Y283180D01*
X20392Y283161D01*
X21916Y283161D01*
X21936Y283164D01*
X21955Y283162D01*
X22057Y283184D01*
X22159Y283201D01*
X22176Y283210D01*
X22196Y283215D01*
X22285Y283268D01*
X22376Y283316D01*
X22390Y283330D01*
X22407Y283341D01*
X22474Y283419D01*
X22545Y283494D01*
X22554Y283512D01*
X22567Y283528D01*
X22606Y283624D01*
X22649Y283717D01*
X22651Y283737D01*
X22659Y283756D01*
X22677Y283922D01*
X22677Y292153D01*
X44650Y292153D01*
X44650Y287834D01*
X44650Y287831D01*
X44650Y287827D01*
X44670Y287708D01*
X44689Y287591D01*
X44691Y287588D01*
X44692Y287585D01*
X44749Y287478D01*
X44805Y287374D01*
X44807Y287372D01*
X44809Y287368D01*
X44897Y287287D01*
X44983Y287205D01*
X44986Y287203D01*
X44989Y287201D01*
X45097Y287152D01*
X45206Y287101D01*
X45210Y287101D01*
X45213Y287099D01*
X45331Y287087D01*
X45450Y287074D01*
X45454Y287075D01*
X45458Y287074D01*
X45623Y287103D01*
X46571Y287378D01*
X46597Y287390D01*
X46650Y287406D01*
X48668Y288241D01*
X49443Y288241D01*
X49466Y288245D01*
X49489Y288243D01*
X49655Y288271D01*
X50399Y288487D01*
X52570Y288246D01*
X52598Y288247D01*
X52654Y288241D01*
X122147Y288241D01*
X127848Y285880D01*
X132210Y281518D01*
X134571Y275817D01*
X134571Y241708D01*
X132210Y236007D01*
X127848Y231645D01*
X122147Y229284D01*
X81882Y229284D01*
X81862Y229281D01*
X81843Y229283D01*
X81741Y229261D01*
X81639Y229244D01*
X81622Y229235D01*
X81602Y229230D01*
X81513Y229177D01*
X81422Y229129D01*
X81408Y229115D01*
X81391Y229104D01*
X81324Y229026D01*
X81252Y228951D01*
X81244Y228933D01*
X81231Y228917D01*
X81192Y228821D01*
X81149Y228728D01*
X81147Y228708D01*
X81139Y228689D01*
X81121Y228523D01*
X81121Y223378D01*
X69342Y223378D01*
X69322Y223375D01*
X69303Y223377D01*
X69201Y223355D01*
X69099Y223338D01*
X69082Y223329D01*
X69062Y223325D01*
X68973Y223272D01*
X68882Y223223D01*
X68868Y223209D01*
X68851Y223199D01*
X68784Y223120D01*
X68713Y223045D01*
X68704Y223027D01*
X68691Y223012D01*
X68652Y222916D01*
X68609Y222822D01*
X68607Y222802D01*
X68599Y222784D01*
X68581Y222617D01*
X68581Y221854D01*
X68579Y221854D01*
X68579Y222617D01*
X68576Y222637D01*
X68578Y222656D01*
X68556Y222758D01*
X68539Y222860D01*
X68530Y222877D01*
X68526Y222897D01*
X68473Y222986D01*
X68424Y223077D01*
X68410Y223091D01*
X68400Y223108D01*
X68321Y223175D01*
X68246Y223246D01*
X68228Y223255D01*
X68213Y223268D01*
X68117Y223307D01*
X68023Y223350D01*
X68003Y223352D01*
X67985Y223360D01*
X67818Y223378D01*
X56039Y223378D01*
X56039Y228523D01*
X56036Y228542D01*
X56038Y228562D01*
X56016Y228663D01*
X56000Y228765D01*
X55990Y228783D01*
X55986Y228802D01*
X55933Y228891D01*
X55884Y228983D01*
X55870Y228996D01*
X55860Y229013D01*
X55781Y229081D01*
X55706Y229152D01*
X55688Y229160D01*
X55673Y229173D01*
X55577Y229212D01*
X55483Y229256D01*
X55463Y229258D01*
X55445Y229265D01*
X55278Y229284D01*
X52654Y229284D01*
X52625Y229279D01*
X52570Y229279D01*
X50399Y229038D01*
X49655Y229254D01*
X49631Y229257D01*
X49609Y229265D01*
X49443Y229284D01*
X48668Y229284D01*
X46650Y230119D01*
X46622Y230126D01*
X46571Y230147D01*
X45623Y230422D01*
X45619Y230422D01*
X45616Y230424D01*
X45499Y230437D01*
X45379Y230451D01*
X45375Y230451D01*
X45372Y230451D01*
X45256Y230426D01*
X45138Y230401D01*
X45135Y230400D01*
X45131Y230399D01*
X45029Y230338D01*
X44926Y230277D01*
X44923Y230274D01*
X44920Y230273D01*
X44841Y230180D01*
X44764Y230092D01*
X44763Y230088D01*
X44760Y230086D01*
X44715Y229973D01*
X44670Y229864D01*
X44670Y229861D01*
X44668Y229858D01*
X44650Y229691D01*
X44650Y225307D01*
X22677Y225307D01*
X22677Y233603D01*
X22674Y233622D01*
X22676Y233642D01*
X22654Y233743D01*
X22637Y233845D01*
X22628Y233863D01*
X22624Y233882D01*
X22571Y233971D01*
X22522Y234063D01*
X22508Y234076D01*
X22498Y234093D01*
X22419Y234161D01*
X22344Y234232D01*
X22326Y234240D01*
X22311Y234253D01*
X22215Y234292D01*
X22121Y234336D01*
X22101Y234338D01*
X22083Y234345D01*
X21916Y234364D01*
X20392Y234364D01*
X20372Y234361D01*
X20353Y234363D01*
X20251Y234341D01*
X20149Y234324D01*
X20132Y234315D01*
X20112Y234310D01*
X20023Y234257D01*
X19932Y234209D01*
X19918Y234195D01*
X19901Y234184D01*
X19834Y234106D01*
X19763Y234031D01*
X19754Y234013D01*
X19741Y233997D01*
X19702Y233901D01*
X19659Y233808D01*
X19657Y233788D01*
X19649Y233769D01*
X19631Y233603D01*
X19631Y224546D01*
X19633Y224536D01*
X19632Y224529D01*
X19633Y224522D01*
X19632Y224507D01*
X19654Y224405D01*
X19671Y224303D01*
X19680Y224286D01*
X19684Y224266D01*
X19737Y224177D01*
X19786Y224086D01*
X19800Y224072D01*
X19810Y224055D01*
X19889Y223988D01*
X19964Y223917D01*
X19982Y223908D01*
X19997Y223895D01*
X20093Y223856D01*
X20187Y223813D01*
X20207Y223811D01*
X20225Y223803D01*
X20392Y223785D01*
X21155Y223785D01*
X21155Y223783D01*
X20392Y223783D01*
X20372Y223780D01*
X20353Y223782D01*
X20251Y223760D01*
X20149Y223743D01*
X20132Y223734D01*
X20112Y223730D01*
X20023Y223677D01*
X19932Y223628D01*
X19918Y223614D01*
X19901Y223604D01*
X19834Y223525D01*
X19763Y223450D01*
X19754Y223432D01*
X19741Y223417D01*
X19702Y223321D01*
X19659Y223227D01*
X19657Y223207D01*
X19649Y223189D01*
X19631Y223022D01*
X19631Y207908D01*
X0Y207908D01*
X-20Y207905D01*
X-39Y207907D01*
X-141Y207885D01*
X-243Y207869D01*
X-260Y207859D01*
X-280Y207855D01*
X-369Y207802D01*
X-460Y207753D01*
X-474Y207739D01*
X-491Y207729D01*
X-558Y207650D01*
X-630Y207575D01*
X-638Y207557D01*
X-651Y207542D01*
X-690Y207446D01*
X-733Y207352D01*
X-735Y207332D01*
X-743Y207314D01*
X-761Y207147D01*
X-761Y131583D01*
X-758Y131563D01*
X-760Y131544D01*
X-738Y131442D01*
X-722Y131340D01*
X-712Y131323D01*
X-708Y131303D01*
X-655Y131214D01*
X-606Y131123D01*
X-592Y131109D01*
X-582Y131092D01*
X-503Y131025D01*
X-428Y130953D01*
X-410Y130945D01*
X-395Y130932D01*
X-299Y130893D01*
X-205Y130850D01*
X-185Y130848D01*
X-167Y130840D01*
X0Y130822D01*
X19631Y130822D01*
X19631Y115708D01*
X19634Y115689D01*
X19632Y115671D01*
X19632Y115670D01*
X19632Y115669D01*
X19654Y115567D01*
X19671Y115465D01*
X19680Y115448D01*
X19684Y115428D01*
X19737Y115339D01*
X19786Y115248D01*
X19800Y115234D01*
X19810Y115217D01*
X19889Y115150D01*
X19964Y115079D01*
X19982Y115070D01*
X19997Y115057D01*
X20093Y115018D01*
X20187Y114975D01*
X20207Y114973D01*
X20225Y114965D01*
X20392Y114947D01*
X21155Y114947D01*
X21155Y114945D01*
X20392Y114945D01*
X20372Y114942D01*
X20353Y114944D01*
X20251Y114922D01*
X20149Y114905D01*
X20132Y114896D01*
X20112Y114892D01*
X20023Y114839D01*
X19932Y114790D01*
X19918Y114776D01*
X19901Y114766D01*
X19834Y114687D01*
X19763Y114612D01*
X19754Y114594D01*
X19741Y114579D01*
X19702Y114483D01*
X19659Y114389D01*
X19657Y114369D01*
X19649Y114351D01*
X19631Y114184D01*
X19631Y105170D01*
X19634Y105150D01*
X19632Y105131D01*
X19654Y105029D01*
X19671Y104927D01*
X19680Y104910D01*
X19684Y104890D01*
X19737Y104801D01*
X19786Y104710D01*
X19800Y104696D01*
X19810Y104679D01*
X19889Y104612D01*
X19964Y104540D01*
X19982Y104532D01*
X19997Y104519D01*
X20093Y104480D01*
X20187Y104437D01*
X20207Y104435D01*
X20225Y104427D01*
X20392Y104409D01*
X21916Y104409D01*
X21936Y104412D01*
X21955Y104410D01*
X22057Y104432D01*
X22159Y104448D01*
X22176Y104458D01*
X22196Y104462D01*
X22285Y104515D01*
X22376Y104564D01*
X22390Y104578D01*
X22407Y104588D01*
X22474Y104667D01*
X22545Y104742D01*
X22554Y104760D01*
X22567Y104775D01*
X22606Y104871D01*
X22649Y104965D01*
X22651Y104985D01*
X22659Y105003D01*
X22677Y105170D01*
X22677Y113423D01*
X44650Y113423D01*
X44650Y108990D01*
X44650Y108986D01*
X44650Y108983D01*
X44670Y108864D01*
X44689Y108747D01*
X44691Y108744D01*
X44692Y108740D01*
X44749Y108634D01*
X44805Y108530D01*
X44807Y108527D01*
X44809Y108524D01*
X44897Y108442D01*
X44983Y108360D01*
X44986Y108359D01*
X44989Y108356D01*
X45098Y108307D01*
X45206Y108257D01*
X45209Y108256D01*
X45213Y108255D01*
X45332Y108243D01*
X45450Y108229D01*
X45454Y108230D01*
X45458Y108230D01*
X45623Y108259D01*
X46888Y108625D01*
X46914Y108638D01*
X46968Y108653D01*
X48985Y109489D01*
X49760Y109489D01*
X49783Y109493D01*
X49807Y109490D01*
X49972Y109519D01*
X50717Y109735D01*
X52887Y109493D01*
X52916Y109495D01*
X52971Y109489D01*
X122465Y109489D01*
X128165Y107128D01*
X132528Y102765D01*
X134889Y97065D01*
X134889Y62955D01*
X132528Y57255D01*
X128165Y52892D01*
X122465Y50531D01*
X81882Y50531D01*
X81862Y50528D01*
X81843Y50530D01*
X81741Y50508D01*
X81639Y50492D01*
X81622Y50482D01*
X81602Y50478D01*
X81513Y50425D01*
X81422Y50376D01*
X81408Y50362D01*
X81391Y50352D01*
X81324Y50273D01*
X81252Y50198D01*
X81244Y50180D01*
X81231Y50165D01*
X81192Y50069D01*
X81149Y49975D01*
X81147Y49955D01*
X81139Y49937D01*
X81121Y49770D01*
X81121Y44943D01*
X69342Y44943D01*
X69322Y44940D01*
X69303Y44942D01*
X69201Y44920D01*
X69099Y44903D01*
X69082Y44894D01*
X69062Y44890D01*
X68973Y44837D01*
X68882Y44788D01*
X68868Y44774D01*
X68851Y44764D01*
X68784Y44685D01*
X68713Y44610D01*
X68704Y44592D01*
X68691Y44577D01*
X68652Y44481D01*
X68609Y44387D01*
X68607Y44367D01*
X68599Y44349D01*
X68581Y44182D01*
X68581Y43419D01*
X68579Y43419D01*
X68579Y44182D01*
X68578Y44190D01*
X68578Y44192D01*
X68576Y44202D01*
X68578Y44221D01*
X68556Y44323D01*
X68539Y44425D01*
X68530Y44442D01*
X68526Y44462D01*
X68473Y44551D01*
X68424Y44642D01*
X68410Y44656D01*
X68400Y44673D01*
X68321Y44740D01*
X68246Y44811D01*
X68228Y44820D01*
X68213Y44833D01*
X68117Y44872D01*
X68023Y44915D01*
X68003Y44917D01*
X67985Y44925D01*
X67818Y44943D01*
X56039Y44943D01*
X56039Y49770D01*
X56036Y49790D01*
X56038Y49809D01*
X56016Y49911D01*
X56000Y50013D01*
X55990Y50030D01*
X55986Y50050D01*
X55933Y50139D01*
X55884Y50230D01*
X55870Y50244D01*
X55860Y50261D01*
X55781Y50328D01*
X55706Y50400D01*
X55688Y50408D01*
X55673Y50421D01*
X55577Y50460D01*
X55483Y50503D01*
X55463Y50505D01*
X55445Y50513D01*
X55278Y50531D01*
X52971Y50531D01*
X52943Y50527D01*
X52887Y50527D01*
X50717Y50285D01*
X49972Y50501D01*
X49949Y50504D01*
X49927Y50513D01*
X49760Y50531D01*
X48985Y50531D01*
X46968Y51367D01*
X46940Y51374D01*
X46888Y51395D01*
X45623Y51761D01*
X45619Y51762D01*
X45616Y51763D01*
X45499Y51776D01*
X45379Y51791D01*
X45375Y51790D01*
X45372Y51791D01*
X45255Y51765D01*
X45138Y51741D01*
X45135Y51739D01*
X45131Y51738D01*
X45028Y51677D01*
X44926Y51617D01*
X44923Y51614D01*
X44920Y51612D01*
X44841Y51520D01*
X44764Y51431D01*
X44763Y51428D01*
X44760Y51425D01*
X44715Y51313D01*
X44670Y51204D01*
X44670Y51200D01*
X44668Y51197D01*
X44650Y51030D01*
X44650Y46577D01*
X22677Y46577D01*
X22677Y54850D01*
X22674Y54870D01*
X22676Y54889D01*
X22654Y54991D01*
X22637Y55093D01*
X22628Y55110D01*
X22624Y55130D01*
X22571Y55219D01*
X22522Y55310D01*
X22508Y55324D01*
X22498Y55341D01*
X22419Y55408D01*
X22344Y55480D01*
X22326Y55488D01*
X22311Y55501D01*
X22215Y55540D01*
X22121Y55583D01*
X22101Y55585D01*
X22083Y55593D01*
X21916Y55611D01*
X20392Y55611D01*
X20372Y55608D01*
X20353Y55610D01*
X20251Y55588D01*
X20149Y55572D01*
X20132Y55562D01*
X20112Y55558D01*
X20023Y55505D01*
X19932Y55456D01*
X19918Y55442D01*
X19901Y55432D01*
X19834Y55353D01*
X19763Y55278D01*
X19754Y55260D01*
X19741Y55245D01*
X19702Y55149D01*
X19659Y55055D01*
X19657Y55035D01*
X19649Y55017D01*
X19631Y54850D01*
X19631Y45816D01*
X19634Y45796D01*
X19632Y45777D01*
X19654Y45675D01*
X19671Y45573D01*
X19680Y45556D01*
X19684Y45536D01*
X19737Y45447D01*
X19786Y45356D01*
X19800Y45342D01*
X19810Y45325D01*
X19889Y45258D01*
X19964Y45187D01*
X19982Y45178D01*
X19997Y45165D01*
X20093Y45126D01*
X20187Y45083D01*
X20207Y45081D01*
X20225Y45073D01*
X20392Y45055D01*
X21155Y45055D01*
X21155Y45053D01*
X20392Y45053D01*
X20372Y45050D01*
X20353Y45052D01*
X20251Y45030D01*
X20149Y45013D01*
X20132Y45004D01*
X20112Y45000D01*
X20023Y44947D01*
X19932Y44898D01*
X19918Y44884D01*
X19901Y44874D01*
X19834Y44795D01*
X19763Y44720D01*
X19754Y44702D01*
X19741Y44687D01*
X19702Y44591D01*
X19659Y44497D01*
X19657Y44477D01*
X19649Y44459D01*
X19631Y44292D01*
X19631Y29178D01*
X0Y29178D01*
X-20Y29175D01*
X-39Y29177D01*
X-141Y29155D01*
X-243Y29139D01*
X-260Y29129D01*
X-280Y29125D01*
X-369Y29072D01*
X-460Y29023D01*
X-474Y29009D01*
X-491Y28999D01*
X-558Y28920D01*
X-630Y28845D01*
X-638Y28827D01*
X-651Y28812D01*
X-690Y28716D01*
X-733Y28622D01*
X-735Y28602D01*
X-743Y28584D01*
X-761Y28417D01*
X-761Y0D01*
X-758Y-20D01*
X-760Y-39D01*
X-738Y-141D01*
X-722Y-243D01*
X-712Y-260D01*
X-708Y-280D01*
X-655Y-369D01*
X-606Y-460D01*
X-592Y-474D01*
X-582Y-491D01*
X-503Y-558D01*
X-428Y-630D01*
X-410Y-638D01*
X-395Y-651D01*
X-299Y-690D01*
X-205Y-733D01*
X-185Y-735D01*
X-167Y-743D01*
X0Y-761D01*
X430000Y-761D01*
X430020Y-758D01*
G37*
%LPC*%
G36*
X212089Y402512D02*
X212089Y402512D01*
X212089Y403274D01*
X212086Y403294D01*
X212088Y403314D01*
X212066Y403415D01*
X212049Y403517D01*
X212040Y403535D01*
X212036Y403554D01*
X211983Y403643D01*
X211934Y403735D01*
X211920Y403748D01*
X211910Y403765D01*
X211831Y403833D01*
X211756Y403904D01*
X211738Y403912D01*
X211723Y403925D01*
X211627Y403964D01*
X211533Y404008D01*
X211513Y404010D01*
X211495Y404017D01*
X211328Y404036D01*
X199549Y404036D01*
X199549Y409180D01*
X199546Y409200D01*
X199548Y409219D01*
X199526Y409321D01*
X199510Y409423D01*
X199500Y409440D01*
X199496Y409460D01*
X199443Y409549D01*
X199394Y409640D01*
X199380Y409654D01*
X199370Y409671D01*
X199291Y409738D01*
X199216Y409810D01*
X199198Y409818D01*
X199183Y409831D01*
X199087Y409870D01*
X198993Y409913D01*
X198973Y409915D01*
X198955Y409923D01*
X198788Y409941D01*
X159475Y409941D01*
X153775Y412302D01*
X149412Y416665D01*
X147051Y422365D01*
X147051Y456475D01*
X149412Y462175D01*
X153775Y466538D01*
X159475Y468899D01*
X264705Y468899D01*
X270405Y466538D01*
X274768Y462175D01*
X277129Y456475D01*
X277129Y422365D01*
X274768Y416665D01*
X270405Y412302D01*
X264705Y409941D01*
X225392Y409941D01*
X225372Y409938D01*
X225353Y409940D01*
X225251Y409918D01*
X225149Y409902D01*
X225132Y409892D01*
X225112Y409888D01*
X225023Y409835D01*
X224932Y409786D01*
X224918Y409772D01*
X224901Y409762D01*
X224834Y409683D01*
X224762Y409608D01*
X224754Y409590D01*
X224741Y409575D01*
X224702Y409479D01*
X224659Y409385D01*
X224657Y409365D01*
X224649Y409347D01*
X224631Y409180D01*
X224631Y404036D01*
X212852Y404036D01*
X212832Y404032D01*
X212813Y404035D01*
X212711Y404013D01*
X212609Y403996D01*
X212592Y403987D01*
X212572Y403982D01*
X212483Y403929D01*
X212392Y403881D01*
X212378Y403866D01*
X212361Y403856D01*
X212294Y403777D01*
X212223Y403702D01*
X212214Y403684D01*
X212201Y403669D01*
X212162Y403573D01*
X212119Y403479D01*
X212117Y403460D01*
X212109Y403441D01*
X212091Y403274D01*
X212091Y402512D01*
X212089Y402512D01*
G37*
%LPD*%
%LPC*%
G36*
X211772Y763192D02*
X211772Y763192D01*
X211772Y763954D01*
X211768Y763974D01*
X211771Y763994D01*
X211749Y764095D01*
X211732Y764197D01*
X211723Y764215D01*
X211718Y764234D01*
X211665Y764323D01*
X211617Y764415D01*
X211602Y764428D01*
X211592Y764445D01*
X211513Y764513D01*
X211438Y764584D01*
X211420Y764592D01*
X211405Y764605D01*
X211309Y764644D01*
X211215Y764688D01*
X211196Y764690D01*
X211177Y764697D01*
X211010Y764716D01*
X199232Y764716D01*
X199232Y769860D01*
X199229Y769880D01*
X199231Y769899D01*
X199209Y770001D01*
X199192Y770103D01*
X199183Y770120D01*
X199178Y770140D01*
X199125Y770229D01*
X199077Y770320D01*
X199063Y770334D01*
X199052Y770351D01*
X198974Y770418D01*
X198899Y770490D01*
X198881Y770498D01*
X198865Y770511D01*
X198769Y770550D01*
X198676Y770593D01*
X198656Y770595D01*
X198637Y770603D01*
X198471Y770621D01*
X159475Y770621D01*
X153775Y772982D01*
X149412Y777345D01*
X147051Y783045D01*
X147051Y817155D01*
X149412Y822855D01*
X153775Y827218D01*
X159475Y829579D01*
X264705Y829579D01*
X270405Y827218D01*
X274768Y822855D01*
X277129Y817155D01*
X277129Y783045D01*
X274768Y777345D01*
X270405Y772982D01*
X264705Y770621D01*
X225074Y770621D01*
X225055Y770618D01*
X225035Y770620D01*
X224934Y770598D01*
X224832Y770582D01*
X224814Y770572D01*
X224795Y770568D01*
X224706Y770515D01*
X224614Y770466D01*
X224601Y770452D01*
X224584Y770442D01*
X224516Y770363D01*
X224445Y770288D01*
X224437Y770270D01*
X224424Y770255D01*
X224385Y770159D01*
X224341Y770065D01*
X224339Y770045D01*
X224332Y770027D01*
X224313Y769860D01*
X224313Y764716D01*
X212535Y764716D01*
X212515Y764712D01*
X212495Y764715D01*
X212394Y764693D01*
X212292Y764676D01*
X212274Y764667D01*
X212255Y764662D01*
X212166Y764609D01*
X212074Y764561D01*
X212061Y764546D01*
X212044Y764536D01*
X211976Y764457D01*
X211905Y764382D01*
X211897Y764364D01*
X211884Y764349D01*
X211845Y764253D01*
X211801Y764159D01*
X211799Y764140D01*
X211792Y764121D01*
X211773Y763954D01*
X211773Y763192D01*
X211772Y763192D01*
G37*
%LPD*%
%LPC*%
G36*
X212089Y582852D02*
X212089Y582852D01*
X212089Y583614D01*
X212086Y583634D01*
X212088Y583654D01*
X212066Y583755D01*
X212049Y583857D01*
X212040Y583875D01*
X212036Y583894D01*
X211983Y583983D01*
X211934Y584075D01*
X211920Y584088D01*
X211910Y584105D01*
X211831Y584173D01*
X211756Y584244D01*
X211738Y584252D01*
X211723Y584265D01*
X211627Y584304D01*
X211533Y584348D01*
X211513Y584350D01*
X211495Y584357D01*
X211328Y584376D01*
X199549Y584376D01*
X199549Y589520D01*
X199546Y589540D01*
X199548Y589559D01*
X199526Y589661D01*
X199510Y589763D01*
X199500Y589780D01*
X199496Y589800D01*
X199443Y589889D01*
X199394Y589980D01*
X199380Y589994D01*
X199370Y590011D01*
X199291Y590078D01*
X199216Y590150D01*
X199198Y590158D01*
X199183Y590171D01*
X199087Y590210D01*
X198993Y590253D01*
X198973Y590255D01*
X198955Y590263D01*
X198788Y590281D01*
X159475Y590281D01*
X153775Y592642D01*
X149412Y597005D01*
X147051Y602705D01*
X147051Y636815D01*
X149412Y642515D01*
X153775Y646878D01*
X159475Y649239D01*
X264705Y649239D01*
X270405Y646878D01*
X274768Y642515D01*
X277129Y636815D01*
X277129Y602705D01*
X274768Y597005D01*
X270405Y592642D01*
X264705Y590281D01*
X225392Y590281D01*
X225372Y590278D01*
X225353Y590280D01*
X225251Y590258D01*
X225149Y590242D01*
X225132Y590232D01*
X225112Y590228D01*
X225023Y590175D01*
X224932Y590126D01*
X224918Y590112D01*
X224901Y590102D01*
X224834Y590023D01*
X224762Y589948D01*
X224754Y589930D01*
X224741Y589915D01*
X224702Y589819D01*
X224659Y589725D01*
X224657Y589705D01*
X224649Y589687D01*
X224631Y589520D01*
X224631Y584376D01*
X212852Y584376D01*
X212832Y584372D01*
X212813Y584375D01*
X212711Y584353D01*
X212609Y584336D01*
X212592Y584327D01*
X212572Y584322D01*
X212483Y584269D01*
X212392Y584221D01*
X212378Y584206D01*
X212361Y584196D01*
X212294Y584117D01*
X212223Y584042D01*
X212214Y584024D01*
X212201Y584009D01*
X212162Y583913D01*
X212119Y583819D01*
X212117Y583800D01*
X212109Y583781D01*
X212091Y583614D01*
X212091Y582852D01*
X212089Y582852D01*
G37*
%LPD*%
%LPC*%
G36*
X212089Y222172D02*
X212089Y222172D01*
X212089Y222934D01*
X212086Y222954D01*
X212088Y222974D01*
X212066Y223075D01*
X212049Y223177D01*
X212040Y223195D01*
X212036Y223214D01*
X211983Y223303D01*
X211934Y223395D01*
X211920Y223408D01*
X211910Y223425D01*
X211831Y223493D01*
X211756Y223564D01*
X211738Y223572D01*
X211723Y223585D01*
X211627Y223624D01*
X211533Y223668D01*
X211513Y223670D01*
X211495Y223677D01*
X211328Y223696D01*
X199549Y223696D01*
X199549Y228840D01*
X199546Y228860D01*
X199548Y228879D01*
X199526Y228981D01*
X199510Y229083D01*
X199500Y229100D01*
X199496Y229120D01*
X199443Y229209D01*
X199394Y229300D01*
X199380Y229314D01*
X199370Y229331D01*
X199291Y229398D01*
X199216Y229470D01*
X199198Y229478D01*
X199183Y229491D01*
X199087Y229530D01*
X198993Y229573D01*
X198973Y229575D01*
X198955Y229583D01*
X198788Y229601D01*
X159475Y229601D01*
X153775Y231962D01*
X149412Y236325D01*
X147051Y242025D01*
X147051Y276135D01*
X149412Y281835D01*
X153775Y286198D01*
X159475Y288559D01*
X264705Y288559D01*
X270405Y286198D01*
X274768Y281835D01*
X277129Y276135D01*
X277129Y242025D01*
X274768Y236325D01*
X270405Y231962D01*
X264705Y229601D01*
X225392Y229601D01*
X225372Y229598D01*
X225353Y229600D01*
X225251Y229578D01*
X225149Y229562D01*
X225132Y229552D01*
X225112Y229548D01*
X225023Y229495D01*
X224932Y229446D01*
X224918Y229432D01*
X224901Y229422D01*
X224834Y229343D01*
X224762Y229268D01*
X224754Y229250D01*
X224741Y229235D01*
X224702Y229139D01*
X224659Y229045D01*
X224657Y229025D01*
X224649Y229007D01*
X224631Y228840D01*
X224631Y223696D01*
X212852Y223696D01*
X212832Y223692D01*
X212813Y223695D01*
X212711Y223673D01*
X212609Y223656D01*
X212592Y223647D01*
X212572Y223642D01*
X212483Y223589D01*
X212392Y223541D01*
X212378Y223526D01*
X212361Y223516D01*
X212294Y223437D01*
X212223Y223362D01*
X212214Y223344D01*
X212201Y223329D01*
X212162Y223233D01*
X212119Y223139D01*
X212117Y223120D01*
X212109Y223101D01*
X212091Y222934D01*
X212091Y222172D01*
X212089Y222172D01*
G37*
%LPD*%
%LPC*%
G36*
X212089Y43419D02*
X212089Y43419D01*
X212089Y44182D01*
X212088Y44190D01*
X212088Y44192D01*
X212086Y44202D01*
X212088Y44221D01*
X212066Y44323D01*
X212049Y44425D01*
X212040Y44442D01*
X212036Y44462D01*
X211983Y44551D01*
X211934Y44642D01*
X211920Y44656D01*
X211910Y44673D01*
X211831Y44740D01*
X211756Y44811D01*
X211738Y44820D01*
X211723Y44833D01*
X211627Y44872D01*
X211533Y44915D01*
X211513Y44917D01*
X211495Y44925D01*
X211328Y44943D01*
X199549Y44943D01*
X199549Y49770D01*
X199546Y49790D01*
X199548Y49809D01*
X199526Y49911D01*
X199510Y50013D01*
X199500Y50030D01*
X199496Y50050D01*
X199443Y50139D01*
X199394Y50230D01*
X199380Y50244D01*
X199370Y50261D01*
X199291Y50328D01*
X199216Y50400D01*
X199198Y50408D01*
X199183Y50421D01*
X199087Y50460D01*
X198993Y50503D01*
X198973Y50505D01*
X198955Y50513D01*
X198788Y50531D01*
X159475Y50531D01*
X153775Y52892D01*
X149412Y57255D01*
X147051Y62955D01*
X147051Y97065D01*
X149412Y102765D01*
X153775Y107128D01*
X159475Y109489D01*
X264705Y109489D01*
X270405Y107128D01*
X274768Y102765D01*
X277129Y97065D01*
X277129Y62955D01*
X274768Y57255D01*
X270405Y52892D01*
X264705Y50531D01*
X225392Y50531D01*
X225372Y50528D01*
X225353Y50530D01*
X225251Y50508D01*
X225149Y50492D01*
X225132Y50482D01*
X225112Y50478D01*
X225023Y50425D01*
X224932Y50376D01*
X224918Y50362D01*
X224901Y50352D01*
X224834Y50273D01*
X224762Y50198D01*
X224754Y50180D01*
X224741Y50165D01*
X224702Y50069D01*
X224659Y49975D01*
X224657Y49955D01*
X224649Y49937D01*
X224631Y49770D01*
X224631Y44943D01*
X212852Y44943D01*
X212832Y44940D01*
X212813Y44942D01*
X212711Y44920D01*
X212609Y44903D01*
X212592Y44894D01*
X212572Y44890D01*
X212483Y44837D01*
X212392Y44788D01*
X212378Y44774D01*
X212361Y44764D01*
X212294Y44685D01*
X212223Y44610D01*
X212214Y44592D01*
X212201Y44577D01*
X212162Y44481D01*
X212119Y44387D01*
X212117Y44367D01*
X212109Y44349D01*
X212091Y44182D01*
X212091Y43419D01*
X212089Y43419D01*
G37*
%LPD*%
G36*
X377269Y785639D02*
X377269Y785639D01*
X377348Y785648D01*
X377368Y785659D01*
X377387Y785662D01*
X377433Y785694D01*
X377507Y785734D01*
X383718Y790703D01*
X430530Y790703D01*
X430535Y790704D01*
X430540Y790703D01*
X430633Y790724D01*
X430727Y790742D01*
X430731Y790745D01*
X430736Y790746D01*
X430814Y790802D01*
X430892Y790855D01*
X430895Y790859D01*
X430899Y790862D01*
X430950Y790944D01*
X431002Y791023D01*
X431002Y791028D01*
X431005Y791033D01*
X431037Y791210D01*
X431037Y808990D01*
X431036Y808995D01*
X431037Y809000D01*
X431016Y809093D01*
X430998Y809187D01*
X430995Y809191D01*
X430994Y809196D01*
X430938Y809274D01*
X430885Y809352D01*
X430881Y809355D01*
X430878Y809359D01*
X430796Y809410D01*
X430717Y809462D01*
X430712Y809462D01*
X430707Y809465D01*
X430530Y809497D01*
X383718Y809497D01*
X377507Y814466D01*
X377436Y814503D01*
X377367Y814545D01*
X377346Y814549D01*
X377329Y814558D01*
X377273Y814562D01*
X377190Y814577D01*
X304800Y814577D01*
X304795Y814576D01*
X304790Y814577D01*
X304697Y814556D01*
X304604Y814538D01*
X304599Y814535D01*
X304594Y814534D01*
X304516Y814478D01*
X304438Y814425D01*
X304435Y814421D01*
X304431Y814418D01*
X304380Y814336D01*
X304328Y814257D01*
X304328Y814252D01*
X304325Y814247D01*
X304293Y814070D01*
X304293Y786130D01*
X304294Y786125D01*
X304293Y786120D01*
X304314Y786027D01*
X304332Y785934D01*
X304335Y785929D01*
X304336Y785924D01*
X304392Y785846D01*
X304445Y785768D01*
X304449Y785765D01*
X304452Y785761D01*
X304534Y785710D01*
X304613Y785658D01*
X304618Y785658D01*
X304623Y785655D01*
X304800Y785623D01*
X377190Y785623D01*
X377269Y785639D01*
G37*
G36*
X377269Y605616D02*
X377269Y605616D01*
X377348Y605626D01*
X377368Y605636D01*
X377387Y605640D01*
X377433Y605671D01*
X377507Y605711D01*
X383718Y610680D01*
X430530Y610680D01*
X430535Y610681D01*
X430540Y610680D01*
X430633Y610701D01*
X430727Y610720D01*
X430731Y610723D01*
X430736Y610724D01*
X430814Y610779D01*
X430892Y610833D01*
X430895Y610837D01*
X430899Y610840D01*
X430950Y610921D01*
X431002Y611001D01*
X431002Y611006D01*
X431005Y611010D01*
X431037Y611188D01*
X431037Y628968D01*
X431036Y628973D01*
X431037Y628978D01*
X431016Y629071D01*
X430998Y629164D01*
X430995Y629168D01*
X430994Y629173D01*
X430938Y629251D01*
X430885Y629330D01*
X430881Y629333D01*
X430878Y629337D01*
X430796Y629388D01*
X430717Y629439D01*
X430712Y629440D01*
X430707Y629443D01*
X430530Y629475D01*
X383718Y629475D01*
X377507Y634444D01*
X377436Y634480D01*
X377367Y634523D01*
X377346Y634527D01*
X377329Y634535D01*
X377273Y634540D01*
X377190Y634555D01*
X304800Y634555D01*
X304795Y634554D01*
X304790Y634555D01*
X304697Y634534D01*
X304604Y634515D01*
X304599Y634512D01*
X304594Y634511D01*
X304516Y634456D01*
X304438Y634403D01*
X304435Y634398D01*
X304431Y634395D01*
X304380Y634314D01*
X304328Y634234D01*
X304328Y634229D01*
X304325Y634225D01*
X304293Y634048D01*
X304293Y606108D01*
X304294Y606102D01*
X304293Y606097D01*
X304314Y606004D01*
X304332Y605911D01*
X304335Y605907D01*
X304336Y605902D01*
X304392Y605824D01*
X304445Y605745D01*
X304449Y605742D01*
X304452Y605738D01*
X304534Y605687D01*
X304613Y605636D01*
X304618Y605635D01*
X304623Y605632D01*
X304800Y605600D01*
X377190Y605600D01*
X377269Y605616D01*
G37*
G36*
X377269Y424641D02*
X377269Y424641D01*
X377348Y424651D01*
X377368Y424661D01*
X377387Y424665D01*
X377433Y424696D01*
X377507Y424736D01*
X383718Y429705D01*
X430530Y429705D01*
X430535Y429706D01*
X430540Y429705D01*
X430633Y429726D01*
X430727Y429745D01*
X430731Y429748D01*
X430736Y429749D01*
X430814Y429804D01*
X430892Y429858D01*
X430895Y429862D01*
X430899Y429865D01*
X430950Y429946D01*
X431002Y430026D01*
X431002Y430031D01*
X431005Y430035D01*
X431037Y430213D01*
X431037Y447993D01*
X431036Y447998D01*
X431037Y448003D01*
X431016Y448096D01*
X430998Y448189D01*
X430995Y448193D01*
X430994Y448198D01*
X430938Y448276D01*
X430885Y448355D01*
X430881Y448358D01*
X430878Y448362D01*
X430796Y448413D01*
X430717Y448464D01*
X430712Y448465D01*
X430707Y448468D01*
X430530Y448500D01*
X383718Y448500D01*
X377507Y453469D01*
X377436Y453505D01*
X377367Y453548D01*
X377346Y453552D01*
X377329Y453560D01*
X377273Y453565D01*
X377190Y453580D01*
X304800Y453580D01*
X304795Y453579D01*
X304790Y453580D01*
X304697Y453559D01*
X304604Y453540D01*
X304599Y453537D01*
X304594Y453536D01*
X304516Y453481D01*
X304438Y453428D01*
X304435Y453423D01*
X304431Y453420D01*
X304380Y453339D01*
X304328Y453259D01*
X304328Y453254D01*
X304325Y453250D01*
X304293Y453073D01*
X304293Y425133D01*
X304294Y425127D01*
X304293Y425122D01*
X304314Y425029D01*
X304332Y424936D01*
X304335Y424932D01*
X304336Y424927D01*
X304392Y424849D01*
X304445Y424770D01*
X304449Y424767D01*
X304452Y424763D01*
X304534Y424712D01*
X304613Y424661D01*
X304618Y424660D01*
X304623Y424657D01*
X304800Y424625D01*
X377190Y424625D01*
X377269Y424641D01*
G37*
G36*
X377269Y65549D02*
X377269Y65549D01*
X377348Y65558D01*
X377368Y65569D01*
X377387Y65572D01*
X377433Y65604D01*
X377507Y65644D01*
X383718Y70613D01*
X430530Y70613D01*
X430535Y70614D01*
X430540Y70613D01*
X430633Y70634D01*
X430727Y70652D01*
X430731Y70655D01*
X430736Y70656D01*
X430814Y70712D01*
X430892Y70765D01*
X430895Y70769D01*
X430899Y70772D01*
X430950Y70854D01*
X431002Y70933D01*
X431002Y70938D01*
X431005Y70943D01*
X431037Y71120D01*
X431037Y88900D01*
X431036Y88905D01*
X431037Y88910D01*
X431016Y89003D01*
X430998Y89097D01*
X430995Y89101D01*
X430994Y89106D01*
X430938Y89184D01*
X430885Y89262D01*
X430881Y89265D01*
X430878Y89269D01*
X430796Y89320D01*
X430717Y89372D01*
X430712Y89372D01*
X430707Y89375D01*
X430530Y89407D01*
X383718Y89407D01*
X377507Y94376D01*
X377436Y94413D01*
X377367Y94455D01*
X377346Y94459D01*
X377329Y94468D01*
X377273Y94472D01*
X377190Y94487D01*
X304800Y94487D01*
X304795Y94486D01*
X304790Y94487D01*
X304697Y94466D01*
X304604Y94448D01*
X304599Y94445D01*
X304594Y94444D01*
X304516Y94388D01*
X304438Y94335D01*
X304435Y94331D01*
X304431Y94328D01*
X304380Y94246D01*
X304328Y94167D01*
X304328Y94162D01*
X304325Y94157D01*
X304293Y93980D01*
X304293Y66040D01*
X304294Y66035D01*
X304293Y66030D01*
X304314Y65937D01*
X304332Y65844D01*
X304335Y65839D01*
X304336Y65834D01*
X304392Y65756D01*
X304445Y65678D01*
X304449Y65675D01*
X304452Y65671D01*
X304534Y65620D01*
X304613Y65568D01*
X304618Y65568D01*
X304623Y65565D01*
X304800Y65533D01*
X377190Y65533D01*
X377269Y65549D01*
G37*
G36*
X377269Y244301D02*
X377269Y244301D01*
X377348Y244311D01*
X377368Y244321D01*
X377387Y244325D01*
X377433Y244356D01*
X377507Y244396D01*
X383718Y249365D01*
X430530Y249365D01*
X430535Y249366D01*
X430540Y249365D01*
X430633Y249386D01*
X430727Y249405D01*
X430731Y249408D01*
X430736Y249409D01*
X430814Y249464D01*
X430892Y249518D01*
X430895Y249522D01*
X430899Y249525D01*
X430950Y249606D01*
X431002Y249686D01*
X431002Y249691D01*
X431005Y249695D01*
X431037Y249873D01*
X431037Y267653D01*
X431036Y267658D01*
X431037Y267663D01*
X431016Y267756D01*
X430998Y267849D01*
X430995Y267853D01*
X430994Y267858D01*
X430938Y267936D01*
X430885Y268015D01*
X430881Y268018D01*
X430878Y268022D01*
X430796Y268073D01*
X430717Y268124D01*
X430712Y268125D01*
X430707Y268128D01*
X430530Y268160D01*
X383718Y268160D01*
X377507Y273129D01*
X377436Y273165D01*
X377367Y273208D01*
X377346Y273212D01*
X377329Y273220D01*
X377273Y273225D01*
X377190Y273240D01*
X304800Y273240D01*
X304795Y273239D01*
X304790Y273240D01*
X304697Y273219D01*
X304604Y273200D01*
X304599Y273197D01*
X304594Y273196D01*
X304516Y273141D01*
X304438Y273088D01*
X304435Y273083D01*
X304431Y273080D01*
X304380Y272999D01*
X304328Y272919D01*
X304328Y272914D01*
X304325Y272910D01*
X304293Y272733D01*
X304293Y244793D01*
X304294Y244787D01*
X304293Y244782D01*
X304314Y244689D01*
X304332Y244596D01*
X304335Y244592D01*
X304336Y244587D01*
X304392Y244509D01*
X304445Y244430D01*
X304449Y244427D01*
X304452Y244423D01*
X304534Y244372D01*
X304613Y244321D01*
X304618Y244320D01*
X304623Y244317D01*
X304800Y244285D01*
X377190Y244285D01*
X377269Y244301D01*
G37*
G36*
X119068Y424626D02*
X119068Y424626D01*
X119073Y424625D01*
X119166Y424646D01*
X119259Y424665D01*
X119263Y424668D01*
X119268Y424669D01*
X119346Y424724D01*
X119425Y424778D01*
X119428Y424782D01*
X119432Y424785D01*
X119483Y424866D01*
X119534Y424946D01*
X119535Y424951D01*
X119538Y424955D01*
X119570Y425133D01*
X119570Y453073D01*
X119569Y453078D01*
X119570Y453083D01*
X119549Y453176D01*
X119530Y453269D01*
X119527Y453273D01*
X119526Y453278D01*
X119471Y453356D01*
X119418Y453435D01*
X119413Y453438D01*
X119410Y453442D01*
X119329Y453493D01*
X119249Y453544D01*
X119244Y453545D01*
X119240Y453548D01*
X119063Y453580D01*
X51753Y453580D01*
X51674Y453564D01*
X51594Y453554D01*
X51575Y453544D01*
X51556Y453540D01*
X51510Y453509D01*
X51436Y453469D01*
X45225Y448500D01*
X-318Y448500D01*
X-323Y448499D01*
X-328Y448500D01*
X-421Y448479D01*
X-514Y448460D01*
X-518Y448457D01*
X-523Y448456D01*
X-601Y448401D01*
X-680Y448348D01*
X-683Y448343D01*
X-687Y448340D01*
X-738Y448259D01*
X-789Y448179D01*
X-790Y448174D01*
X-793Y448170D01*
X-825Y447993D01*
X-825Y430213D01*
X-824Y430207D01*
X-825Y430202D01*
X-804Y430109D01*
X-785Y430016D01*
X-782Y430012D01*
X-781Y430007D01*
X-726Y429929D01*
X-673Y429850D01*
X-668Y429847D01*
X-665Y429843D01*
X-584Y429792D01*
X-504Y429741D01*
X-499Y429740D01*
X-495Y429737D01*
X-318Y429705D01*
X45225Y429705D01*
X51436Y424736D01*
X51507Y424700D01*
X51575Y424657D01*
X51597Y424653D01*
X51614Y424645D01*
X51669Y424640D01*
X51753Y424625D01*
X119063Y424625D01*
X119068Y424626D01*
G37*
G36*
X119385Y785306D02*
X119385Y785306D01*
X119390Y785305D01*
X119483Y785326D01*
X119577Y785345D01*
X119581Y785348D01*
X119586Y785349D01*
X119664Y785404D01*
X119742Y785458D01*
X119745Y785462D01*
X119749Y785465D01*
X119800Y785546D01*
X119852Y785626D01*
X119852Y785631D01*
X119855Y785635D01*
X119887Y785813D01*
X119887Y813753D01*
X119886Y813758D01*
X119887Y813763D01*
X119866Y813856D01*
X119848Y813949D01*
X119845Y813953D01*
X119844Y813958D01*
X119788Y814036D01*
X119735Y814115D01*
X119731Y814118D01*
X119728Y814122D01*
X119646Y814173D01*
X119567Y814224D01*
X119562Y814225D01*
X119557Y814228D01*
X119380Y814260D01*
X52070Y814260D01*
X51991Y814244D01*
X51912Y814234D01*
X51892Y814224D01*
X51874Y814220D01*
X51827Y814189D01*
X51753Y814149D01*
X45542Y809180D01*
X0Y809180D01*
X-5Y809179D01*
X-10Y809180D01*
X-103Y809159D01*
X-197Y809140D01*
X-201Y809137D01*
X-206Y809136D01*
X-284Y809081D01*
X-362Y809028D01*
X-365Y809023D01*
X-369Y809020D01*
X-420Y808939D01*
X-472Y808859D01*
X-472Y808854D01*
X-475Y808850D01*
X-507Y808673D01*
X-507Y790893D01*
X-506Y790887D01*
X-507Y790882D01*
X-486Y790789D01*
X-468Y790696D01*
X-465Y790692D01*
X-464Y790687D01*
X-408Y790609D01*
X-355Y790530D01*
X-351Y790527D01*
X-348Y790523D01*
X-266Y790472D01*
X-187Y790421D01*
X-182Y790420D01*
X-177Y790417D01*
X0Y790385D01*
X45542Y790385D01*
X51753Y785416D01*
X51824Y785380D01*
X51893Y785337D01*
X51914Y785333D01*
X51931Y785325D01*
X51987Y785320D01*
X52070Y785305D01*
X119380Y785305D01*
X119385Y785306D01*
G37*
G36*
X119068Y605284D02*
X119068Y605284D01*
X119073Y605283D01*
X119166Y605304D01*
X119259Y605322D01*
X119263Y605325D01*
X119268Y605326D01*
X119346Y605382D01*
X119425Y605435D01*
X119428Y605439D01*
X119432Y605442D01*
X119483Y605524D01*
X119534Y605603D01*
X119535Y605608D01*
X119538Y605613D01*
X119570Y605790D01*
X119570Y633730D01*
X119569Y633735D01*
X119570Y633740D01*
X119549Y633833D01*
X119530Y633927D01*
X119527Y633931D01*
X119526Y633936D01*
X119471Y634014D01*
X119418Y634092D01*
X119413Y634095D01*
X119410Y634099D01*
X119329Y634150D01*
X119249Y634202D01*
X119244Y634202D01*
X119240Y634205D01*
X119063Y634237D01*
X51753Y634237D01*
X51674Y634221D01*
X51594Y634212D01*
X51575Y634201D01*
X51556Y634198D01*
X51510Y634166D01*
X51436Y634126D01*
X45225Y629157D01*
X-318Y629157D01*
X-323Y629156D01*
X-328Y629157D01*
X-421Y629136D01*
X-514Y629118D01*
X-518Y629115D01*
X-523Y629114D01*
X-601Y629058D01*
X-680Y629005D01*
X-683Y629001D01*
X-687Y628998D01*
X-738Y628916D01*
X-789Y628837D01*
X-790Y628832D01*
X-793Y628827D01*
X-825Y628650D01*
X-825Y610870D01*
X-824Y610865D01*
X-825Y610860D01*
X-804Y610767D01*
X-785Y610674D01*
X-782Y610669D01*
X-781Y610664D01*
X-726Y610586D01*
X-673Y610508D01*
X-668Y610505D01*
X-665Y610501D01*
X-584Y610450D01*
X-504Y610398D01*
X-499Y610398D01*
X-495Y610395D01*
X-318Y610363D01*
X45225Y610363D01*
X51436Y605394D01*
X51507Y605357D01*
X51575Y605315D01*
X51597Y605311D01*
X51614Y605302D01*
X51669Y605298D01*
X51753Y605283D01*
X119063Y605283D01*
X119068Y605284D01*
G37*
G36*
X119385Y65534D02*
X119385Y65534D01*
X119390Y65533D01*
X119483Y65554D01*
X119577Y65572D01*
X119581Y65575D01*
X119586Y65576D01*
X119664Y65632D01*
X119742Y65685D01*
X119745Y65689D01*
X119749Y65692D01*
X119800Y65774D01*
X119852Y65853D01*
X119852Y65858D01*
X119855Y65863D01*
X119887Y66040D01*
X119887Y93980D01*
X119886Y93985D01*
X119887Y93990D01*
X119866Y94083D01*
X119848Y94177D01*
X119845Y94181D01*
X119844Y94186D01*
X119788Y94264D01*
X119735Y94342D01*
X119731Y94345D01*
X119728Y94349D01*
X119646Y94400D01*
X119567Y94452D01*
X119562Y94452D01*
X119557Y94455D01*
X119380Y94487D01*
X52070Y94487D01*
X51991Y94471D01*
X51912Y94462D01*
X51892Y94451D01*
X51874Y94448D01*
X51827Y94416D01*
X51753Y94376D01*
X45542Y89407D01*
X0Y89407D01*
X-5Y89406D01*
X-10Y89407D01*
X-103Y89386D01*
X-197Y89368D01*
X-201Y89365D01*
X-206Y89364D01*
X-284Y89308D01*
X-362Y89255D01*
X-365Y89251D01*
X-369Y89248D01*
X-420Y89166D01*
X-472Y89087D01*
X-472Y89082D01*
X-475Y89077D01*
X-507Y88900D01*
X-507Y71120D01*
X-506Y71115D01*
X-507Y71110D01*
X-486Y71017D01*
X-468Y70924D01*
X-465Y70919D01*
X-464Y70914D01*
X-408Y70836D01*
X-355Y70758D01*
X-351Y70755D01*
X-348Y70751D01*
X-266Y70700D01*
X-187Y70648D01*
X-182Y70648D01*
X-177Y70645D01*
X0Y70613D01*
X45542Y70613D01*
X51753Y65644D01*
X51824Y65607D01*
X51893Y65565D01*
X51914Y65561D01*
X51931Y65552D01*
X51987Y65548D01*
X52070Y65533D01*
X119380Y65533D01*
X119385Y65534D01*
G37*
G36*
X119068Y244286D02*
X119068Y244286D01*
X119073Y244285D01*
X119166Y244306D01*
X119259Y244325D01*
X119263Y244328D01*
X119268Y244329D01*
X119346Y244384D01*
X119425Y244438D01*
X119428Y244442D01*
X119432Y244445D01*
X119483Y244526D01*
X119534Y244606D01*
X119535Y244611D01*
X119538Y244615D01*
X119570Y244793D01*
X119570Y272733D01*
X119569Y272738D01*
X119570Y272743D01*
X119549Y272836D01*
X119530Y272929D01*
X119527Y272933D01*
X119526Y272938D01*
X119471Y273016D01*
X119418Y273095D01*
X119413Y273098D01*
X119410Y273102D01*
X119329Y273153D01*
X119249Y273204D01*
X119244Y273205D01*
X119240Y273208D01*
X119063Y273240D01*
X51753Y273240D01*
X51674Y273224D01*
X51594Y273214D01*
X51575Y273204D01*
X51556Y273200D01*
X51510Y273169D01*
X51436Y273129D01*
X45225Y268160D01*
X-318Y268160D01*
X-323Y268159D01*
X-328Y268160D01*
X-421Y268139D01*
X-514Y268120D01*
X-518Y268117D01*
X-523Y268116D01*
X-601Y268061D01*
X-680Y268008D01*
X-683Y268003D01*
X-687Y268000D01*
X-738Y267919D01*
X-789Y267839D01*
X-790Y267834D01*
X-793Y267830D01*
X-825Y267653D01*
X-825Y249873D01*
X-824Y249867D01*
X-825Y249862D01*
X-804Y249769D01*
X-785Y249676D01*
X-782Y249672D01*
X-781Y249667D01*
X-726Y249589D01*
X-673Y249510D01*
X-668Y249507D01*
X-665Y249503D01*
X-584Y249452D01*
X-504Y249401D01*
X-499Y249400D01*
X-495Y249397D01*
X-318Y249365D01*
X45225Y249365D01*
X51436Y244396D01*
X51507Y244360D01*
X51575Y244317D01*
X51597Y244313D01*
X51614Y244305D01*
X51669Y244300D01*
X51753Y244285D01*
X119063Y244285D01*
X119068Y244286D01*
G37*
G36*
X261625Y424944D02*
X261625Y424944D01*
X261630Y424943D01*
X261723Y424964D01*
X261817Y424982D01*
X261821Y424985D01*
X261826Y424986D01*
X261904Y425042D01*
X261982Y425095D01*
X261985Y425099D01*
X261989Y425102D01*
X262040Y425184D01*
X262092Y425263D01*
X262092Y425268D01*
X262095Y425273D01*
X262127Y425450D01*
X262127Y453390D01*
X262126Y453395D01*
X262127Y453400D01*
X262106Y453493D01*
X262088Y453587D01*
X262085Y453591D01*
X262084Y453596D01*
X262028Y453674D01*
X261975Y453752D01*
X261971Y453755D01*
X261968Y453759D01*
X261886Y453810D01*
X261807Y453862D01*
X261802Y453862D01*
X261797Y453865D01*
X261620Y453897D01*
X162560Y453897D01*
X162555Y453896D01*
X162550Y453897D01*
X162457Y453876D01*
X162364Y453858D01*
X162359Y453855D01*
X162354Y453854D01*
X162276Y453798D01*
X162198Y453745D01*
X162195Y453741D01*
X162191Y453738D01*
X162140Y453656D01*
X162088Y453577D01*
X162088Y453572D01*
X162085Y453567D01*
X162053Y453390D01*
X162053Y425450D01*
X162054Y425445D01*
X162053Y425440D01*
X162074Y425347D01*
X162092Y425254D01*
X162095Y425249D01*
X162096Y425244D01*
X162152Y425166D01*
X162205Y425088D01*
X162209Y425085D01*
X162212Y425081D01*
X162294Y425030D01*
X162373Y424978D01*
X162378Y424978D01*
X162383Y424975D01*
X162560Y424943D01*
X261620Y424943D01*
X261625Y424944D01*
G37*
G36*
X261625Y785624D02*
X261625Y785624D01*
X261630Y785623D01*
X261723Y785644D01*
X261817Y785662D01*
X261821Y785665D01*
X261826Y785666D01*
X261904Y785722D01*
X261982Y785775D01*
X261985Y785779D01*
X261989Y785782D01*
X262040Y785864D01*
X262092Y785943D01*
X262092Y785948D01*
X262095Y785953D01*
X262127Y786130D01*
X262127Y814070D01*
X262126Y814075D01*
X262127Y814080D01*
X262106Y814173D01*
X262088Y814267D01*
X262085Y814271D01*
X262084Y814276D01*
X262028Y814354D01*
X261975Y814432D01*
X261971Y814435D01*
X261968Y814439D01*
X261886Y814490D01*
X261807Y814542D01*
X261802Y814542D01*
X261797Y814545D01*
X261620Y814577D01*
X162560Y814577D01*
X162555Y814576D01*
X162550Y814577D01*
X162457Y814556D01*
X162364Y814538D01*
X162359Y814535D01*
X162354Y814534D01*
X162276Y814478D01*
X162198Y814425D01*
X162195Y814421D01*
X162191Y814418D01*
X162140Y814336D01*
X162088Y814257D01*
X162088Y814252D01*
X162085Y814247D01*
X162053Y814070D01*
X162053Y786130D01*
X162054Y786125D01*
X162053Y786120D01*
X162074Y786027D01*
X162092Y785934D01*
X162095Y785929D01*
X162096Y785924D01*
X162152Y785846D01*
X162205Y785768D01*
X162209Y785765D01*
X162212Y785761D01*
X162294Y785710D01*
X162373Y785658D01*
X162378Y785658D01*
X162383Y785655D01*
X162560Y785623D01*
X261620Y785623D01*
X261625Y785624D01*
G37*
G36*
X261625Y605284D02*
X261625Y605284D01*
X261630Y605283D01*
X261723Y605304D01*
X261817Y605322D01*
X261821Y605325D01*
X261826Y605326D01*
X261904Y605382D01*
X261982Y605435D01*
X261985Y605439D01*
X261989Y605442D01*
X262040Y605524D01*
X262092Y605603D01*
X262092Y605608D01*
X262095Y605613D01*
X262127Y605790D01*
X262127Y633730D01*
X262126Y633735D01*
X262127Y633740D01*
X262106Y633833D01*
X262088Y633927D01*
X262085Y633931D01*
X262084Y633936D01*
X262028Y634014D01*
X261975Y634092D01*
X261971Y634095D01*
X261968Y634099D01*
X261886Y634150D01*
X261807Y634202D01*
X261802Y634202D01*
X261797Y634205D01*
X261620Y634237D01*
X162560Y634237D01*
X162555Y634236D01*
X162550Y634237D01*
X162457Y634216D01*
X162364Y634198D01*
X162359Y634195D01*
X162354Y634194D01*
X162276Y634138D01*
X162198Y634085D01*
X162195Y634081D01*
X162191Y634078D01*
X162140Y633996D01*
X162088Y633917D01*
X162088Y633912D01*
X162085Y633907D01*
X162053Y633730D01*
X162053Y605790D01*
X162054Y605785D01*
X162053Y605780D01*
X162074Y605687D01*
X162092Y605594D01*
X162095Y605589D01*
X162096Y605584D01*
X162152Y605506D01*
X162205Y605428D01*
X162209Y605425D01*
X162212Y605421D01*
X162294Y605370D01*
X162373Y605318D01*
X162378Y605318D01*
X162383Y605315D01*
X162560Y605283D01*
X261620Y605283D01*
X261625Y605284D01*
G37*
G36*
X261625Y65534D02*
X261625Y65534D01*
X261630Y65533D01*
X261723Y65554D01*
X261817Y65572D01*
X261821Y65575D01*
X261826Y65576D01*
X261904Y65632D01*
X261982Y65685D01*
X261985Y65689D01*
X261989Y65692D01*
X262040Y65774D01*
X262092Y65853D01*
X262092Y65858D01*
X262095Y65863D01*
X262127Y66040D01*
X262127Y93980D01*
X262126Y93985D01*
X262127Y93990D01*
X262106Y94083D01*
X262088Y94177D01*
X262085Y94181D01*
X262084Y94186D01*
X262028Y94264D01*
X261975Y94342D01*
X261971Y94345D01*
X261968Y94349D01*
X261886Y94400D01*
X261807Y94452D01*
X261802Y94452D01*
X261797Y94455D01*
X261620Y94487D01*
X162560Y94487D01*
X162555Y94486D01*
X162550Y94487D01*
X162457Y94466D01*
X162364Y94448D01*
X162359Y94445D01*
X162354Y94444D01*
X162276Y94388D01*
X162198Y94335D01*
X162195Y94331D01*
X162191Y94328D01*
X162140Y94246D01*
X162088Y94167D01*
X162088Y94162D01*
X162085Y94157D01*
X162053Y93980D01*
X162053Y66040D01*
X162054Y66035D01*
X162053Y66030D01*
X162074Y65937D01*
X162092Y65844D01*
X162095Y65839D01*
X162096Y65834D01*
X162152Y65756D01*
X162205Y65678D01*
X162209Y65675D01*
X162212Y65671D01*
X162294Y65620D01*
X162373Y65568D01*
X162378Y65568D01*
X162383Y65565D01*
X162560Y65533D01*
X261620Y65533D01*
X261625Y65534D01*
G37*
G36*
X261625Y244604D02*
X261625Y244604D01*
X261630Y244603D01*
X261723Y244624D01*
X261817Y244642D01*
X261821Y244645D01*
X261826Y244646D01*
X261904Y244702D01*
X261982Y244755D01*
X261985Y244759D01*
X261989Y244762D01*
X262040Y244844D01*
X262092Y244923D01*
X262092Y244928D01*
X262095Y244933D01*
X262127Y245110D01*
X262127Y273050D01*
X262126Y273055D01*
X262127Y273060D01*
X262106Y273153D01*
X262088Y273247D01*
X262085Y273251D01*
X262084Y273256D01*
X262028Y273334D01*
X261975Y273412D01*
X261971Y273415D01*
X261968Y273419D01*
X261886Y273470D01*
X261807Y273522D01*
X261802Y273522D01*
X261797Y273525D01*
X261620Y273557D01*
X162560Y273557D01*
X162555Y273556D01*
X162550Y273557D01*
X162457Y273536D01*
X162364Y273518D01*
X162359Y273515D01*
X162354Y273514D01*
X162276Y273458D01*
X162198Y273405D01*
X162195Y273401D01*
X162191Y273398D01*
X162140Y273316D01*
X162088Y273237D01*
X162088Y273232D01*
X162085Y273227D01*
X162053Y273050D01*
X162053Y245110D01*
X162054Y245105D01*
X162053Y245100D01*
X162074Y245007D01*
X162092Y244914D01*
X162095Y244909D01*
X162096Y244904D01*
X162152Y244826D01*
X162205Y244748D01*
X162209Y244745D01*
X162212Y244741D01*
X162294Y244690D01*
X162373Y244638D01*
X162378Y244638D01*
X162383Y244635D01*
X162560Y244603D01*
X261620Y244603D01*
X261625Y244604D01*
G37*
%LPC*%
G36*
X75183Y169783D02*
X75183Y169783D01*
X75183Y200011D01*
X75220Y200011D01*
X78324Y199705D01*
X81384Y199096D01*
X84369Y198191D01*
X87252Y196997D01*
X90003Y195526D01*
X92597Y193793D01*
X95008Y191814D01*
X97214Y189608D01*
X99193Y187197D01*
X100926Y184603D01*
X102397Y181852D01*
X103591Y178969D01*
X104496Y175984D01*
X105105Y172924D01*
X105411Y169820D01*
X105411Y169783D01*
X75183Y169783D01*
G37*
%LPD*%
%LPC*%
G36*
X354583Y710183D02*
X354583Y710183D01*
X354583Y740411D01*
X354620Y740411D01*
X357724Y740105D01*
X360784Y739496D01*
X363769Y738591D01*
X366652Y737397D01*
X369403Y735926D01*
X371997Y734193D01*
X374408Y732214D01*
X376614Y730008D01*
X378593Y727597D01*
X380326Y725003D01*
X381797Y722252D01*
X382991Y719369D01*
X383896Y716384D01*
X384505Y713324D01*
X384811Y710220D01*
X384811Y710183D01*
X354583Y710183D01*
G37*
%LPD*%
%LPC*%
G36*
X75183Y710183D02*
X75183Y710183D01*
X75183Y740411D01*
X75220Y740411D01*
X78324Y740105D01*
X81384Y739496D01*
X84369Y738591D01*
X87252Y737397D01*
X90003Y735926D01*
X92597Y734193D01*
X95008Y732214D01*
X97214Y730008D01*
X99193Y727597D01*
X100926Y725003D01*
X102397Y722252D01*
X103591Y719369D01*
X104496Y716384D01*
X105105Y713324D01*
X105411Y710220D01*
X105411Y710183D01*
X75183Y710183D01*
G37*
%LPD*%
%LPC*%
G36*
X354583Y169163D02*
X354583Y169163D01*
X354583Y199391D01*
X354620Y199391D01*
X357724Y199085D01*
X360784Y198476D01*
X363769Y197571D01*
X366652Y196377D01*
X369403Y194906D01*
X371997Y193173D01*
X374408Y191194D01*
X376614Y188988D01*
X378593Y186577D01*
X380326Y183983D01*
X381797Y181232D01*
X382991Y178349D01*
X383896Y175364D01*
X384505Y172304D01*
X384811Y169200D01*
X384811Y169163D01*
X354583Y169163D01*
G37*
%LPD*%
%LPC*%
G36*
X354583Y676909D02*
X354583Y676909D01*
X354583Y707137D01*
X384811Y707137D01*
X384811Y707100D01*
X384505Y703996D01*
X383896Y700936D01*
X382991Y697951D01*
X381797Y695068D01*
X380326Y692317D01*
X378593Y689723D01*
X376614Y687312D01*
X374408Y685106D01*
X371997Y683127D01*
X369403Y681394D01*
X366652Y679923D01*
X363769Y678729D01*
X360784Y677824D01*
X357724Y677215D01*
X354620Y676909D01*
X354583Y676909D01*
G37*
%LPD*%
%LPC*%
G36*
X321309Y710183D02*
X321309Y710183D01*
X321309Y710220D01*
X321615Y713324D01*
X322224Y716384D01*
X323129Y719369D01*
X324323Y722252D01*
X325794Y725003D01*
X327527Y727597D01*
X329506Y730008D01*
X331712Y732214D01*
X334123Y734193D01*
X336717Y735926D01*
X339468Y737397D01*
X342351Y738591D01*
X345336Y739496D01*
X348396Y740105D01*
X351500Y740411D01*
X351537Y740411D01*
X351537Y710183D01*
X321309Y710183D01*
G37*
%LPD*%
%LPC*%
G36*
X41909Y710183D02*
X41909Y710183D01*
X41909Y710220D01*
X42215Y713324D01*
X42824Y716384D01*
X43729Y719369D01*
X44923Y722252D01*
X46394Y725003D01*
X48127Y727597D01*
X50106Y730008D01*
X52312Y732214D01*
X54723Y734193D01*
X57317Y735926D01*
X60068Y737397D01*
X62951Y738591D01*
X65936Y739496D01*
X68996Y740105D01*
X72100Y740411D01*
X72137Y740411D01*
X72137Y710183D01*
X41909Y710183D01*
G37*
%LPD*%
%LPC*%
G36*
X321309Y169163D02*
X321309Y169163D01*
X321309Y169200D01*
X321615Y172304D01*
X322224Y175364D01*
X323129Y178349D01*
X324323Y181232D01*
X325794Y183983D01*
X327527Y186577D01*
X329506Y188988D01*
X331712Y191194D01*
X334123Y193173D01*
X336717Y194906D01*
X339468Y196377D01*
X342351Y197571D01*
X345336Y198476D01*
X348396Y199085D01*
X351500Y199391D01*
X351537Y199391D01*
X351537Y169163D01*
X321309Y169163D01*
G37*
%LPD*%
%LPC*%
G36*
X75183Y136509D02*
X75183Y136509D01*
X75183Y166737D01*
X105411Y166737D01*
X105411Y166700D01*
X105105Y163596D01*
X104496Y160536D01*
X103591Y157551D01*
X102397Y154668D01*
X100926Y151917D01*
X99193Y149323D01*
X97214Y146912D01*
X95008Y144706D01*
X92597Y142727D01*
X90003Y140994D01*
X87252Y139523D01*
X84369Y138329D01*
X81384Y137424D01*
X78324Y136815D01*
X75220Y136509D01*
X75183Y136509D01*
G37*
%LPD*%
%LPC*%
G36*
X354583Y135889D02*
X354583Y135889D01*
X354583Y166117D01*
X384811Y166117D01*
X384811Y166080D01*
X384505Y162976D01*
X383896Y159916D01*
X382991Y156931D01*
X381797Y154048D01*
X380326Y151297D01*
X378593Y148703D01*
X376614Y146292D01*
X374408Y144086D01*
X371997Y142107D01*
X369403Y140374D01*
X366652Y138903D01*
X363769Y137709D01*
X360784Y136804D01*
X357724Y136195D01*
X354620Y135889D01*
X354583Y135889D01*
G37*
%LPD*%
%LPC*%
G36*
X75183Y676909D02*
X75183Y676909D01*
X75183Y707137D01*
X105411Y707137D01*
X105411Y707100D01*
X105105Y703996D01*
X104496Y700936D01*
X103591Y697951D01*
X102397Y695068D01*
X100926Y692317D01*
X99193Y689723D01*
X97214Y687312D01*
X95008Y685106D01*
X92597Y683127D01*
X90003Y681394D01*
X87252Y679923D01*
X84369Y678729D01*
X81384Y677824D01*
X78324Y677215D01*
X75220Y676909D01*
X75183Y676909D01*
G37*
%LPD*%
%LPC*%
G36*
X41909Y169783D02*
X41909Y169783D01*
X41909Y169820D01*
X42215Y172924D01*
X42824Y175984D01*
X43729Y178969D01*
X44923Y181852D01*
X46394Y184603D01*
X48127Y187197D01*
X50106Y189608D01*
X52312Y191814D01*
X54723Y193793D01*
X57317Y195526D01*
X60068Y196997D01*
X62951Y198191D01*
X65936Y199096D01*
X68996Y199705D01*
X72100Y200011D01*
X72137Y200011D01*
X72137Y169783D01*
X41909Y169783D01*
G37*
%LPD*%
%LPC*%
G36*
X351500Y135889D02*
X351500Y135889D01*
X348396Y136195D01*
X345336Y136804D01*
X342351Y137709D01*
X339468Y138903D01*
X336717Y140374D01*
X334123Y142107D01*
X331712Y144086D01*
X329506Y146292D01*
X327527Y148703D01*
X325794Y151297D01*
X324323Y154048D01*
X323129Y156931D01*
X322224Y159916D01*
X321615Y162976D01*
X321309Y166080D01*
X321309Y166117D01*
X351537Y166117D01*
X351537Y135889D01*
X351500Y135889D01*
G37*
%LPD*%
%LPC*%
G36*
X72100Y136509D02*
X72100Y136509D01*
X68996Y136815D01*
X65936Y137424D01*
X62951Y138329D01*
X60068Y139523D01*
X57317Y140994D01*
X54723Y142727D01*
X52312Y144706D01*
X50106Y146912D01*
X48127Y149323D01*
X46394Y151917D01*
X44923Y154668D01*
X43729Y157551D01*
X42824Y160536D01*
X42215Y163596D01*
X41909Y166700D01*
X41909Y166737D01*
X72137Y166737D01*
X72137Y136509D01*
X72100Y136509D01*
G37*
%LPD*%
%LPC*%
G36*
X72100Y676909D02*
X72100Y676909D01*
X68996Y677215D01*
X65936Y677824D01*
X62951Y678729D01*
X60068Y679923D01*
X57317Y681394D01*
X54723Y683127D01*
X52312Y685106D01*
X50106Y687312D01*
X48127Y689723D01*
X46394Y692317D01*
X44923Y695068D01*
X43729Y697951D01*
X42824Y700936D01*
X42215Y703996D01*
X41909Y707100D01*
X41909Y707137D01*
X72137Y707137D01*
X72137Y676909D01*
X72100Y676909D01*
G37*
%LPD*%
%LPC*%
G36*
X351500Y676909D02*
X351500Y676909D01*
X348396Y677215D01*
X345336Y677824D01*
X342351Y678729D01*
X339468Y679923D01*
X336717Y681394D01*
X334123Y683127D01*
X331712Y685106D01*
X329506Y687312D01*
X327527Y689723D01*
X325794Y692317D01*
X324323Y695068D01*
X323129Y697951D01*
X322224Y700936D01*
X321615Y703996D01*
X321309Y707100D01*
X321309Y707137D01*
X351537Y707137D01*
X351537Y676909D01*
X351500Y676909D01*
G37*
%LPD*%
%LPC*%
G36*
X22677Y836469D02*
X22677Y836469D01*
X22677Y850822D01*
X42443Y850822D01*
X43090Y850649D01*
X43669Y850314D01*
X44142Y849841D01*
X44477Y849262D01*
X44650Y848615D01*
X44650Y836469D01*
X22677Y836469D01*
G37*
%LPD*%
%LPC*%
G36*
X22677Y116469D02*
X22677Y116469D01*
X22677Y130822D01*
X42443Y130822D01*
X43090Y130649D01*
X43669Y130314D01*
X44142Y129841D01*
X44477Y129262D01*
X44650Y128615D01*
X44650Y116469D01*
X22677Y116469D01*
G37*
%LPD*%
%LPC*%
G36*
X22677Y656469D02*
X22677Y656469D01*
X22677Y670822D01*
X42443Y670822D01*
X43090Y670649D01*
X43669Y670314D01*
X44142Y669841D01*
X44477Y669262D01*
X44650Y668615D01*
X44650Y656469D01*
X22677Y656469D01*
G37*
%LPD*%
%LPC*%
G36*
X22677Y295199D02*
X22677Y295199D01*
X22677Y309552D01*
X42443Y309552D01*
X43090Y309379D01*
X43669Y309044D01*
X44142Y308571D01*
X44477Y307992D01*
X44650Y307345D01*
X44650Y295199D01*
X22677Y295199D01*
G37*
%LPD*%
%LPC*%
G36*
X22677Y475569D02*
X22677Y475569D01*
X22677Y489922D01*
X42443Y489922D01*
X43090Y489749D01*
X43669Y489414D01*
X44142Y488941D01*
X44477Y488362D01*
X44650Y487715D01*
X44650Y475569D01*
X22677Y475569D01*
G37*
%LPD*%
%LPC*%
G36*
X385350Y836469D02*
X385350Y836469D01*
X385350Y848615D01*
X385523Y849262D01*
X385858Y849841D01*
X386331Y850314D01*
X386910Y850649D01*
X387557Y850822D01*
X407323Y850822D01*
X407323Y836469D01*
X385350Y836469D01*
G37*
%LPD*%
%LPC*%
G36*
X385350Y656469D02*
X385350Y656469D01*
X385350Y668615D01*
X385523Y669262D01*
X385858Y669841D01*
X386331Y670314D01*
X386910Y670649D01*
X387557Y670822D01*
X407323Y670822D01*
X407323Y656469D01*
X385350Y656469D01*
G37*
%LPD*%
%LPC*%
G36*
X385350Y475834D02*
X385350Y475834D01*
X385350Y487980D01*
X385523Y488627D01*
X385858Y489206D01*
X386331Y489679D01*
X386910Y490014D01*
X387557Y490187D01*
X407323Y490187D01*
X407323Y475834D01*
X385350Y475834D01*
G37*
%LPD*%
%LPC*%
G36*
X385350Y116469D02*
X385350Y116469D01*
X385350Y128615D01*
X385523Y129262D01*
X385858Y129841D01*
X386331Y130314D01*
X386910Y130649D01*
X387557Y130822D01*
X407323Y130822D01*
X407323Y116469D01*
X385350Y116469D01*
G37*
%LPD*%
%LPC*%
G36*
X385350Y295199D02*
X385350Y295199D01*
X385350Y307345D01*
X385523Y307992D01*
X385858Y308571D01*
X386331Y309044D01*
X386910Y309379D01*
X387557Y309552D01*
X407323Y309552D01*
X407323Y295199D01*
X385350Y295199D01*
G37*
%LPD*%
%LPC*%
G36*
X22677Y749178D02*
X22677Y749178D01*
X22677Y763531D01*
X44650Y763531D01*
X44650Y751385D01*
X44477Y750738D01*
X44142Y750159D01*
X43669Y749686D01*
X43090Y749351D01*
X42443Y749178D01*
X22677Y749178D01*
G37*
%LPD*%
%LPC*%
G36*
X22677Y569178D02*
X22677Y569178D01*
X22677Y583531D01*
X44650Y583531D01*
X44650Y571385D01*
X44477Y570738D01*
X44142Y570159D01*
X43669Y569686D01*
X43090Y569351D01*
X42443Y569178D01*
X22677Y569178D01*
G37*
%LPD*%
%LPC*%
G36*
X22677Y207908D02*
X22677Y207908D01*
X22677Y222261D01*
X44650Y222261D01*
X44650Y210115D01*
X44477Y209468D01*
X44142Y208889D01*
X43669Y208416D01*
X43090Y208081D01*
X42443Y207908D01*
X22677Y207908D01*
G37*
%LPD*%
%LPC*%
G36*
X22677Y29178D02*
X22677Y29178D01*
X22677Y43531D01*
X44650Y43531D01*
X44650Y31385D01*
X44477Y30738D01*
X44142Y30159D01*
X43669Y29686D01*
X43090Y29351D01*
X42443Y29178D01*
X22677Y29178D01*
G37*
%LPD*%
%LPC*%
G36*
X22677Y388278D02*
X22677Y388278D01*
X22677Y402631D01*
X44650Y402631D01*
X44650Y390485D01*
X44477Y389838D01*
X44142Y389259D01*
X43669Y388786D01*
X43090Y388451D01*
X42443Y388278D01*
X22677Y388278D01*
G37*
%LPD*%
%LPC*%
G36*
X387557Y749178D02*
X387557Y749178D01*
X386910Y749351D01*
X386331Y749686D01*
X385858Y750159D01*
X385523Y750738D01*
X385350Y751385D01*
X385350Y763531D01*
X407323Y763531D01*
X407323Y749178D01*
X387557Y749178D01*
G37*
%LPD*%
%LPC*%
G36*
X387557Y207908D02*
X387557Y207908D01*
X386910Y208081D01*
X386331Y208416D01*
X385858Y208889D01*
X385523Y209468D01*
X385350Y210115D01*
X385350Y222261D01*
X407323Y222261D01*
X407323Y207908D01*
X387557Y207908D01*
G37*
%LPD*%
%LPC*%
G36*
X387557Y569178D02*
X387557Y569178D01*
X386910Y569351D01*
X386331Y569686D01*
X385858Y570159D01*
X385523Y570738D01*
X385350Y571385D01*
X385350Y583531D01*
X407323Y583531D01*
X407323Y569178D01*
X387557Y569178D01*
G37*
%LPD*%
%LPC*%
G36*
X387557Y388543D02*
X387557Y388543D01*
X386910Y388716D01*
X386331Y389051D01*
X385858Y389524D01*
X385523Y390103D01*
X385350Y390750D01*
X385350Y402896D01*
X407323Y402896D01*
X407323Y388543D01*
X387557Y388543D01*
G37*
%LPD*%
%LPC*%
G36*
X387557Y29178D02*
X387557Y29178D01*
X386910Y29351D01*
X386331Y29686D01*
X385858Y30159D01*
X385523Y30738D01*
X385350Y31385D01*
X385350Y43531D01*
X407323Y43531D01*
X407323Y29178D01*
X387557Y29178D01*
G37*
%LPD*%
%LPC*%
G36*
X359663Y761669D02*
X359663Y761669D01*
X370681Y761669D01*
X370681Y755358D01*
X370508Y754712D01*
X370173Y754132D01*
X369700Y753659D01*
X369121Y753325D01*
X368474Y753152D01*
X359663Y753152D01*
X359663Y761669D01*
G37*
%LPD*%
%LPC*%
G36*
X213296Y761669D02*
X213296Y761669D01*
X224313Y761669D01*
X224313Y755358D01*
X224140Y754712D01*
X223806Y754132D01*
X223333Y753659D01*
X222753Y753325D01*
X222107Y753152D01*
X213296Y753152D01*
X213296Y761669D01*
G37*
%LPD*%
%LPC*%
G36*
X70103Y400672D02*
X70103Y400672D01*
X81121Y400672D01*
X81121Y394361D01*
X80948Y393714D01*
X80613Y393135D01*
X80140Y392662D01*
X79561Y392327D01*
X78914Y392154D01*
X70103Y392154D01*
X70103Y400672D01*
G37*
%LPD*%
%LPC*%
G36*
X213613Y400989D02*
X213613Y400989D01*
X224631Y400989D01*
X224631Y394678D01*
X224458Y394032D01*
X224123Y393452D01*
X223650Y392979D01*
X223071Y392645D01*
X222424Y392472D01*
X213613Y392472D01*
X213613Y400989D01*
G37*
%LPD*%
%LPC*%
G36*
X359663Y400672D02*
X359663Y400672D01*
X370681Y400672D01*
X370681Y394361D01*
X370508Y393714D01*
X370173Y393135D01*
X369700Y392662D01*
X369121Y392327D01*
X368474Y392154D01*
X359663Y392154D01*
X359663Y400672D01*
G37*
%LPD*%
%LPC*%
G36*
X70103Y220332D02*
X70103Y220332D01*
X81121Y220332D01*
X81121Y214021D01*
X80948Y213374D01*
X80613Y212795D01*
X80140Y212322D01*
X79561Y211987D01*
X78914Y211814D01*
X70103Y211814D01*
X70103Y220332D01*
G37*
%LPD*%
%LPC*%
G36*
X70103Y761352D02*
X70103Y761352D01*
X81121Y761352D01*
X81121Y755041D01*
X80948Y754394D01*
X80613Y753815D01*
X80140Y753342D01*
X79561Y753007D01*
X78914Y752834D01*
X70103Y752834D01*
X70103Y761352D01*
G37*
%LPD*%
%LPC*%
G36*
X359663Y220332D02*
X359663Y220332D01*
X370681Y220332D01*
X370681Y214021D01*
X370508Y213374D01*
X370173Y212795D01*
X369700Y212322D01*
X369121Y211987D01*
X368474Y211814D01*
X359663Y211814D01*
X359663Y220332D01*
G37*
%LPD*%
%LPC*%
G36*
X213613Y220649D02*
X213613Y220649D01*
X224631Y220649D01*
X224631Y214338D01*
X224458Y213692D01*
X224123Y213112D01*
X223650Y212639D01*
X223071Y212305D01*
X222424Y212132D01*
X213613Y212132D01*
X213613Y220649D01*
G37*
%LPD*%
%LPC*%
G36*
X213613Y572812D02*
X213613Y572812D01*
X213613Y581329D01*
X224631Y581329D01*
X224631Y575018D01*
X224458Y574372D01*
X224123Y573792D01*
X223650Y573319D01*
X223071Y572985D01*
X222424Y572812D01*
X213613Y572812D01*
G37*
%LPD*%
%LPC*%
G36*
X359663Y573129D02*
X359663Y573129D01*
X359663Y581647D01*
X370681Y581647D01*
X370681Y575336D01*
X370508Y574689D01*
X370173Y574110D01*
X369700Y573637D01*
X369121Y573302D01*
X368474Y573129D01*
X359663Y573129D01*
G37*
%LPD*%
%LPC*%
G36*
X70103Y572812D02*
X70103Y572812D01*
X70103Y581329D01*
X81121Y581329D01*
X81121Y575018D01*
X80948Y574372D01*
X80613Y573792D01*
X80140Y573319D01*
X79561Y572985D01*
X78914Y572812D01*
X70103Y572812D01*
G37*
%LPD*%
%LPC*%
G36*
X213613Y33379D02*
X213613Y33379D01*
X213613Y41897D01*
X224631Y41897D01*
X224631Y35586D01*
X224458Y34939D01*
X224123Y34360D01*
X223650Y33887D01*
X223071Y33552D01*
X222424Y33379D01*
X213613Y33379D01*
G37*
%LPD*%
%LPC*%
G36*
X70103Y33379D02*
X70103Y33379D01*
X70103Y41897D01*
X81121Y41897D01*
X81121Y35586D01*
X80948Y34939D01*
X80613Y34360D01*
X80140Y33887D01*
X79561Y33552D01*
X78914Y33379D01*
X70103Y33379D01*
G37*
%LPD*%
%LPC*%
G36*
X359663Y33379D02*
X359663Y33379D01*
X359663Y41897D01*
X370681Y41897D01*
X370681Y35586D01*
X370508Y34939D01*
X370173Y34360D01*
X369700Y33887D01*
X369121Y33552D01*
X368474Y33379D01*
X359663Y33379D01*
G37*
%LPD*%
%LPC*%
G36*
X201756Y392472D02*
X201756Y392472D01*
X201109Y392645D01*
X200530Y392979D01*
X200057Y393452D01*
X199722Y394032D01*
X199549Y394678D01*
X199549Y400989D01*
X210567Y400989D01*
X210567Y392472D01*
X201756Y392472D01*
G37*
%LPD*%
%LPC*%
G36*
X201756Y212132D02*
X201756Y212132D01*
X201109Y212305D01*
X200530Y212639D01*
X200057Y213112D01*
X199722Y213692D01*
X199549Y214338D01*
X199549Y220649D01*
X210567Y220649D01*
X210567Y212132D01*
X201756Y212132D01*
G37*
%LPD*%
%LPC*%
G36*
X201438Y753152D02*
X201438Y753152D01*
X200792Y753325D01*
X200212Y753659D01*
X199739Y754132D01*
X199405Y754712D01*
X199232Y755358D01*
X199232Y761669D01*
X210249Y761669D01*
X210249Y753152D01*
X201438Y753152D01*
G37*
%LPD*%
%LPC*%
G36*
X58246Y752834D02*
X58246Y752834D01*
X57599Y753007D01*
X57020Y753342D01*
X56547Y753815D01*
X56212Y754394D01*
X56039Y755041D01*
X56039Y761352D01*
X67057Y761352D01*
X67057Y752834D01*
X58246Y752834D01*
G37*
%LPD*%
%LPC*%
G36*
X347806Y753152D02*
X347806Y753152D01*
X347159Y753325D01*
X346580Y753659D01*
X346107Y754132D01*
X345772Y754712D01*
X345599Y755358D01*
X345599Y761669D01*
X356617Y761669D01*
X356617Y753152D01*
X347806Y753152D01*
G37*
%LPD*%
%LPC*%
G36*
X347806Y392154D02*
X347806Y392154D01*
X347159Y392327D01*
X346580Y392662D01*
X346107Y393135D01*
X345772Y393714D01*
X345599Y394361D01*
X345599Y400672D01*
X356617Y400672D01*
X356617Y392154D01*
X347806Y392154D01*
G37*
%LPD*%
%LPC*%
G36*
X347806Y573129D02*
X347806Y573129D01*
X347159Y573302D01*
X346580Y573637D01*
X346107Y574110D01*
X345772Y574689D01*
X345599Y575336D01*
X345599Y581647D01*
X356617Y581647D01*
X356617Y573129D01*
X347806Y573129D01*
G37*
%LPD*%
%LPC*%
G36*
X58246Y392154D02*
X58246Y392154D01*
X57599Y392327D01*
X57020Y392662D01*
X56547Y393135D01*
X56212Y393714D01*
X56039Y394361D01*
X56039Y400672D01*
X67057Y400672D01*
X67057Y392154D01*
X58246Y392154D01*
G37*
%LPD*%
%LPC*%
G36*
X58246Y211814D02*
X58246Y211814D01*
X57599Y211987D01*
X57020Y212322D01*
X56547Y212795D01*
X56212Y213374D01*
X56039Y214021D01*
X56039Y220332D01*
X67057Y220332D01*
X67057Y211814D01*
X58246Y211814D01*
G37*
%LPD*%
%LPC*%
G36*
X347806Y211814D02*
X347806Y211814D01*
X347159Y211987D01*
X346580Y212322D01*
X346107Y212795D01*
X345772Y213374D01*
X345599Y214021D01*
X345599Y220332D01*
X356617Y220332D01*
X356617Y211814D01*
X347806Y211814D01*
G37*
%LPD*%
%LPC*%
G36*
X201756Y572812D02*
X201756Y572812D01*
X201109Y572985D01*
X200530Y573319D01*
X200057Y573792D01*
X199722Y574372D01*
X199549Y575018D01*
X199549Y581329D01*
X210567Y581329D01*
X210567Y572812D01*
X201756Y572812D01*
G37*
%LPD*%
%LPC*%
G36*
X58246Y33379D02*
X58246Y33379D01*
X57599Y33552D01*
X57020Y33887D01*
X56547Y34360D01*
X56212Y34939D01*
X56039Y35586D01*
X56039Y41897D01*
X67057Y41897D01*
X67057Y33379D01*
X58246Y33379D01*
G37*
%LPD*%
%LPC*%
G36*
X347806Y33379D02*
X347806Y33379D01*
X347159Y33552D01*
X346580Y33887D01*
X346107Y34360D01*
X345772Y34939D01*
X345599Y35586D01*
X345599Y41897D01*
X356617Y41897D01*
X356617Y33379D01*
X347806Y33379D01*
G37*
%LPD*%
%LPC*%
G36*
X58246Y572812D02*
X58246Y572812D01*
X57599Y572985D01*
X57020Y573319D01*
X56547Y573792D01*
X56212Y574372D01*
X56039Y575018D01*
X56039Y581329D01*
X67057Y581329D01*
X67057Y572812D01*
X58246Y572812D01*
G37*
%LPD*%
%LPC*%
G36*
X201756Y33379D02*
X201756Y33379D01*
X201109Y33552D01*
X200530Y33887D01*
X200057Y34360D01*
X199722Y34939D01*
X199549Y35586D01*
X199549Y41897D01*
X210567Y41897D01*
X210567Y33379D01*
X201756Y33379D01*
G37*
%LPD*%
%LPC*%
G36*
X353059Y708659D02*
X353059Y708659D01*
X353059Y708661D01*
X353061Y708661D01*
X353061Y708659D01*
X353059Y708659D01*
G37*
%LPD*%
%LPC*%
G36*
X73659Y708659D02*
X73659Y708659D01*
X73659Y708661D01*
X73661Y708661D01*
X73661Y708659D01*
X73659Y708659D01*
G37*
%LPD*%
%LPC*%
G36*
X353059Y167639D02*
X353059Y167639D01*
X353059Y167641D01*
X353061Y167641D01*
X353061Y167639D01*
X353059Y167639D01*
G37*
%LPD*%
%LPC*%
G36*
X73659Y168259D02*
X73659Y168259D01*
X73659Y168261D01*
X73661Y168261D01*
X73661Y168259D01*
X73659Y168259D01*
G37*
%LPD*%
D10*
X68580Y43420D03*
X68580Y73420D03*
X68580Y582853D03*
X68580Y612853D03*
X212090Y582853D03*
X212090Y612853D03*
X358140Y583170D03*
X358140Y613170D03*
X68580Y762875D03*
X68580Y792875D03*
X211773Y763193D03*
X211773Y793193D03*
X358140Y763193D03*
X358140Y793193D03*
X212090Y43420D03*
X212090Y73420D03*
X358140Y43420D03*
X358140Y73420D03*
X68580Y221855D03*
X68580Y251855D03*
X212090Y222173D03*
X212090Y252173D03*
X358140Y221855D03*
X358140Y251855D03*
X68580Y402195D03*
X68580Y432195D03*
X212090Y402513D03*
X212090Y432513D03*
X358140Y402195D03*
X358140Y432195D03*
D11*
X175140Y80010D03*
X106840Y80010D03*
X317380Y800100D03*
X249080Y800100D03*
X317380Y80010D03*
X249080Y80010D03*
X175140Y259080D03*
X106840Y259080D03*
X317380Y259080D03*
X249080Y259080D03*
X175140Y439420D03*
X106840Y439420D03*
X317380Y439420D03*
X249080Y439420D03*
X175140Y619760D03*
X106840Y619760D03*
X317380Y619760D03*
X249080Y619760D03*
X175140Y800100D03*
X106840Y800100D03*
D12*
X21154Y80000D03*
D13*
X21154Y114946D03*
X21154Y45054D03*
D12*
X21154Y800000D03*
D13*
X21154Y834946D03*
X21154Y765054D03*
D12*
X408846Y80000D03*
D13*
X408846Y45054D03*
X408846Y114946D03*
D12*
X408846Y258730D03*
D13*
X408846Y223784D03*
X408846Y293676D03*
D12*
X21154Y258730D03*
D13*
X21154Y293676D03*
X21154Y223784D03*
D12*
X408846Y439365D03*
D13*
X408846Y404419D03*
X408846Y474311D03*
D12*
X21154Y439100D03*
D13*
X21154Y474046D03*
X21154Y404154D03*
D12*
X408846Y620000D03*
D13*
X408846Y585054D03*
X408846Y654946D03*
D12*
X21154Y620000D03*
D13*
X21154Y654946D03*
X21154Y585054D03*
D12*
X408846Y800000D03*
D13*
X408846Y765054D03*
X408846Y834946D03*
D14*
X73660Y168260D03*
X353060Y167640D03*
X353060Y708660D03*
X73660Y708660D03*
D15*
X50800Y114300D03*
X78740Y114300D03*
X283210Y80010D03*
X140970Y80010D03*
X140970Y45720D03*
X140970Y113030D03*
X88900Y45720D03*
X50800Y45720D03*
X6350Y53340D03*
X20320Y53340D03*
X35560Y53340D03*
X6350Y106680D03*
X20320Y106680D03*
X35560Y106680D03*
X109220Y114300D03*
X58420Y27940D03*
X175260Y114300D03*
X193040Y45720D03*
X210820Y114300D03*
X248920Y114300D03*
X283210Y45720D03*
X283210Y113030D03*
X231140Y45720D03*
X201930Y29210D03*
X347980Y29210D03*
X309880Y45720D03*
X340360Y45720D03*
X378460Y44450D03*
X393700Y53340D03*
X408940Y53340D03*
X424180Y53340D03*
X424180Y106680D03*
X408940Y106680D03*
X393700Y106680D03*
X317500Y114300D03*
X378460Y114300D03*
X345440Y114300D03*
X6350Y232410D03*
X21590Y232410D03*
X36830Y232410D03*
X6350Y285750D03*
X21590Y285750D03*
X36830Y285750D03*
X6350Y411480D03*
X21590Y411480D03*
X36830Y411480D03*
X6350Y466090D03*
X21590Y466090D03*
X36830Y466090D03*
X6350Y593090D03*
X21590Y593090D03*
X36830Y593090D03*
X6350Y646430D03*
X21590Y646430D03*
X36830Y646430D03*
X6350Y773430D03*
X21590Y773430D03*
X36830Y773430D03*
X6350Y826770D03*
X21590Y826770D03*
X36830Y826770D03*
X50800Y834390D03*
X78740Y834390D03*
X140970Y834390D03*
X106680Y834390D03*
X175260Y834390D03*
X210820Y834390D03*
X248920Y834390D03*
X283210Y834390D03*
X317500Y834390D03*
X378460Y834390D03*
X345440Y834390D03*
X50800Y654050D03*
X78740Y654050D03*
X140970Y654050D03*
X106680Y654050D03*
X175260Y654050D03*
X210820Y654050D03*
X248920Y654050D03*
X283210Y654050D03*
X317500Y654050D03*
X370840Y654050D03*
X345440Y654050D03*
X50800Y472440D03*
X78740Y472440D03*
X140970Y472440D03*
X106680Y472440D03*
X175260Y473710D03*
X210820Y473710D03*
X248920Y473710D03*
X283210Y473710D03*
X317500Y473710D03*
X378460Y473710D03*
X347980Y473710D03*
X50800Y293370D03*
X81280Y293370D03*
X140970Y293370D03*
X111760Y293370D03*
X175260Y293370D03*
X210820Y293370D03*
X248920Y293370D03*
X283210Y293370D03*
X317500Y293370D03*
X370840Y293370D03*
X345440Y293370D03*
X140970Y224790D03*
X88900Y224790D03*
X50800Y224790D03*
X114300Y224790D03*
X58420Y207010D03*
X167640Y224790D03*
X283210Y224790D03*
X256540Y224790D03*
X200660Y207010D03*
X347980Y207010D03*
X309880Y224790D03*
X340360Y224790D03*
X378460Y224790D03*
X140970Y765810D03*
X88900Y765810D03*
X50800Y765810D03*
X114300Y765810D03*
X58420Y748030D03*
X167640Y765810D03*
X283210Y765810D03*
X231140Y765810D03*
X201930Y748030D03*
X347980Y748030D03*
X309880Y765810D03*
X340360Y765810D03*
X378460Y765810D03*
X140970Y585470D03*
X88900Y585470D03*
X50800Y585470D03*
X114300Y585470D03*
X58420Y567690D03*
X167640Y585470D03*
X283210Y585470D03*
X231140Y585470D03*
X201930Y567690D03*
X347980Y567690D03*
X309880Y585470D03*
X340360Y585470D03*
X378460Y585470D03*
X140970Y405130D03*
X88900Y405130D03*
X50800Y405130D03*
X114300Y405130D03*
X58420Y387350D03*
X167640Y405130D03*
X283210Y405130D03*
X256540Y405130D03*
X201930Y387350D03*
X346710Y387350D03*
X309880Y405130D03*
X340360Y405130D03*
X378460Y405130D03*
D16*
X12978Y826770D02*
X21154Y834946D01*
X12978Y826770D02*
X6350Y826770D01*
X21590Y773430D02*
X21154Y772994D01*
D15*
X393700Y826770D03*
X408940Y826770D03*
X424180Y826770D03*
X393700Y773430D03*
X408940Y773430D03*
X424180Y773430D03*
X393700Y646430D03*
X408940Y646430D03*
X424180Y646430D03*
X393700Y593090D03*
X408940Y593090D03*
X424180Y593090D03*
X393700Y466090D03*
X408940Y466090D03*
X424180Y466090D03*
X393700Y411480D03*
X408940Y411480D03*
X424180Y411480D03*
X393700Y285750D03*
X408940Y285750D03*
X424180Y285750D03*
X393700Y231140D03*
X408940Y231140D03*
X424180Y231140D03*
D16*
X28454Y765054D02*
X21154Y765054D01*
X28454Y765054D02*
X34290Y770890D01*
D15*
X140970Y259080D03*
X140970Y439420D03*
X140970Y619760D03*
X140970Y800100D03*
X283210Y800100D03*
X283210Y619760D03*
X283210Y439420D03*
X283210Y259080D03*
X78740Y27940D03*
X222250Y29210D03*
X368300Y29210D03*
X223520Y207010D03*
X78740Y207010D03*
X368300Y207010D03*
X78740Y387350D03*
X369570Y387350D03*
X222250Y387350D03*
X78740Y748030D03*
X222250Y748030D03*
X368300Y748030D03*
X114300Y45720D03*
X368300Y567690D03*
X222250Y567690D03*
X77470Y567690D03*
X193040Y765810D03*
X256540Y765810D03*
X193040Y585470D03*
X256540Y585470D03*
X193040Y405130D03*
X231140Y405130D03*
X193040Y224790D03*
X231140Y224790D03*
X167640Y45720D03*
X256540Y45720D03*
M02*
