G04 EAGLE Gerber RS-274X export*
G75*
%MOMM*%
%FSLAX34Y34*%
%LPD*%
%INSoldermask Bottom*%
%IPPOS*%
%AMOC8*
5,1,8,0,0,1.08239X$1,22.5*%
G01*
%ADD10R,4.394200X2.870200*%
%ADD11C,6.045200*%
%ADD12C,0.959600*%


D10*
X21154Y45054D03*
X21154Y114946D03*
X21154Y765054D03*
X21154Y834946D03*
X408846Y114946D03*
X408846Y45054D03*
X408846Y293676D03*
X408846Y223784D03*
X21154Y223784D03*
X21154Y293676D03*
X408846Y474311D03*
X408846Y404419D03*
X21154Y404154D03*
X21154Y474046D03*
X408846Y654946D03*
X408846Y585054D03*
X21154Y585054D03*
X21154Y654946D03*
X408846Y834946D03*
X408846Y765054D03*
D11*
X73660Y168260D03*
X353060Y167640D03*
X353060Y708660D03*
X73660Y708660D03*
D12*
X50800Y114300D03*
X78740Y114300D03*
X283210Y80010D03*
X140970Y80010D03*
X140970Y45720D03*
X140970Y113030D03*
X88900Y45720D03*
X50800Y45720D03*
X6350Y53340D03*
X20320Y53340D03*
X35560Y53340D03*
X6350Y106680D03*
X20320Y106680D03*
X35560Y106680D03*
X109220Y114300D03*
X58420Y27940D03*
X175260Y114300D03*
X193040Y45720D03*
X210820Y114300D03*
X248920Y114300D03*
X283210Y45720D03*
X283210Y113030D03*
X231140Y45720D03*
X201930Y29210D03*
X347980Y29210D03*
X309880Y45720D03*
X340360Y45720D03*
X378460Y44450D03*
X393700Y53340D03*
X408940Y53340D03*
X424180Y53340D03*
X424180Y106680D03*
X408940Y106680D03*
X393700Y106680D03*
X317500Y114300D03*
X378460Y114300D03*
X345440Y114300D03*
X6350Y232410D03*
X21590Y232410D03*
X36830Y232410D03*
X6350Y285750D03*
X21590Y285750D03*
X36830Y285750D03*
X6350Y411480D03*
X21590Y411480D03*
X36830Y411480D03*
X6350Y466090D03*
X21590Y466090D03*
X36830Y466090D03*
X6350Y593090D03*
X21590Y593090D03*
X36830Y593090D03*
X6350Y646430D03*
X21590Y646430D03*
X36830Y646430D03*
X6350Y773430D03*
X21590Y773430D03*
X36830Y773430D03*
X6350Y826770D03*
X21590Y826770D03*
X36830Y826770D03*
X50800Y834390D03*
X78740Y834390D03*
X140970Y834390D03*
X106680Y834390D03*
X175260Y834390D03*
X210820Y834390D03*
X248920Y834390D03*
X283210Y834390D03*
X317500Y834390D03*
X378460Y834390D03*
X345440Y834390D03*
X50800Y654050D03*
X78740Y654050D03*
X140970Y654050D03*
X106680Y654050D03*
X175260Y654050D03*
X210820Y654050D03*
X248920Y654050D03*
X283210Y654050D03*
X317500Y654050D03*
X370840Y654050D03*
X345440Y654050D03*
X50800Y472440D03*
X78740Y472440D03*
X140970Y472440D03*
X106680Y472440D03*
X175260Y473710D03*
X210820Y473710D03*
X248920Y473710D03*
X283210Y473710D03*
X317500Y473710D03*
X378460Y473710D03*
X347980Y473710D03*
X50800Y293370D03*
X81280Y293370D03*
X140970Y293370D03*
X111760Y293370D03*
X175260Y293370D03*
X210820Y293370D03*
X248920Y293370D03*
X283210Y293370D03*
X317500Y293370D03*
X370840Y293370D03*
X345440Y293370D03*
X140970Y224790D03*
X88900Y224790D03*
X50800Y224790D03*
X114300Y224790D03*
X58420Y207010D03*
X167640Y224790D03*
X283210Y224790D03*
X256540Y224790D03*
X200660Y207010D03*
X347980Y207010D03*
X309880Y224790D03*
X340360Y224790D03*
X378460Y224790D03*
X140970Y765810D03*
X88900Y765810D03*
X50800Y765810D03*
X114300Y765810D03*
X58420Y748030D03*
X167640Y765810D03*
X283210Y765810D03*
X231140Y765810D03*
X201930Y748030D03*
X347980Y748030D03*
X309880Y765810D03*
X340360Y765810D03*
X378460Y765810D03*
X140970Y585470D03*
X88900Y585470D03*
X50800Y585470D03*
X114300Y585470D03*
X58420Y567690D03*
X167640Y585470D03*
X283210Y585470D03*
X231140Y585470D03*
X201930Y567690D03*
X347980Y567690D03*
X309880Y585470D03*
X340360Y585470D03*
X378460Y585470D03*
X140970Y405130D03*
X88900Y405130D03*
X50800Y405130D03*
X114300Y405130D03*
X58420Y387350D03*
X167640Y405130D03*
X283210Y405130D03*
X256540Y405130D03*
X201930Y387350D03*
X346710Y387350D03*
X309880Y405130D03*
X340360Y405130D03*
X378460Y405130D03*
X393700Y826770D03*
X408940Y826770D03*
X424180Y826770D03*
X393700Y773430D03*
X408940Y773430D03*
X424180Y773430D03*
X393700Y646430D03*
X408940Y646430D03*
X424180Y646430D03*
X393700Y593090D03*
X408940Y593090D03*
X424180Y593090D03*
X393700Y466090D03*
X408940Y466090D03*
X424180Y466090D03*
X393700Y411480D03*
X408940Y411480D03*
X424180Y411480D03*
X393700Y285750D03*
X408940Y285750D03*
X424180Y285750D03*
X393700Y231140D03*
X408940Y231140D03*
X424180Y231140D03*
X140970Y259080D03*
X140970Y439420D03*
X140970Y619760D03*
X140970Y800100D03*
X283210Y800100D03*
X283210Y619760D03*
X283210Y439420D03*
X283210Y259080D03*
X78740Y27940D03*
X222250Y29210D03*
X368300Y29210D03*
X223520Y207010D03*
X78740Y207010D03*
X368300Y207010D03*
X78740Y387350D03*
X369570Y387350D03*
X222250Y387350D03*
X78740Y748030D03*
X222250Y748030D03*
X368300Y748030D03*
X114300Y45720D03*
X368300Y567690D03*
X222250Y567690D03*
X77470Y567690D03*
X193040Y765810D03*
X256540Y765810D03*
X193040Y585470D03*
X256540Y585470D03*
X193040Y405130D03*
X231140Y405130D03*
X193040Y224790D03*
X231140Y224790D03*
X167640Y45720D03*
X256540Y45720D03*
M02*
