G04 EAGLE Gerber RS-274X export*
G75*
%MOMM*%
%FSLAX34Y34*%
%LPD*%
%INSolderpaste Top*%
%IPPOS*%
%AMOC8*
5,1,8,0,0,1.08239X$1,22.5*%
G01*
%ADD10R,2.000000X1.500000*%
%ADD11R,2.000000X2.000000*%
%ADD12R,4.191000X1.778000*%
%ADD13R,4.191000X2.667000*%


D10*
X68580Y43420D03*
X68580Y73420D03*
X68580Y582853D03*
X68580Y612853D03*
X212090Y582853D03*
X212090Y612853D03*
X358140Y583170D03*
X358140Y613170D03*
X68580Y762875D03*
X68580Y792875D03*
X211773Y763193D03*
X211773Y793193D03*
X358140Y763193D03*
X358140Y793193D03*
X212090Y43420D03*
X212090Y73420D03*
X358140Y43420D03*
X358140Y73420D03*
X68580Y221855D03*
X68580Y251855D03*
X212090Y222173D03*
X212090Y252173D03*
X358140Y221855D03*
X358140Y251855D03*
X68580Y402195D03*
X68580Y432195D03*
X212090Y402513D03*
X212090Y432513D03*
X358140Y402195D03*
X358140Y432195D03*
D11*
X175140Y80010D03*
X106840Y80010D03*
X317380Y800100D03*
X249080Y800100D03*
X317380Y80010D03*
X249080Y80010D03*
X175140Y259080D03*
X106840Y259080D03*
X317380Y259080D03*
X249080Y259080D03*
X175140Y439420D03*
X106840Y439420D03*
X317380Y439420D03*
X249080Y439420D03*
X175140Y619760D03*
X106840Y619760D03*
X317380Y619760D03*
X249080Y619760D03*
X175140Y800100D03*
X106840Y800100D03*
D12*
X21154Y80000D03*
D13*
X21154Y114946D03*
X21154Y45054D03*
D12*
X21154Y800000D03*
D13*
X21154Y834946D03*
X21154Y765054D03*
D12*
X408846Y80000D03*
D13*
X408846Y45054D03*
X408846Y114946D03*
D12*
X408846Y258730D03*
D13*
X408846Y223784D03*
X408846Y293676D03*
D12*
X21154Y258730D03*
D13*
X21154Y293676D03*
X21154Y223784D03*
D12*
X408846Y439365D03*
D13*
X408846Y404419D03*
X408846Y474311D03*
D12*
X21154Y439100D03*
D13*
X21154Y474046D03*
X21154Y404154D03*
D12*
X408846Y620000D03*
D13*
X408846Y585054D03*
X408846Y654946D03*
D12*
X21154Y620000D03*
D13*
X21154Y654946D03*
X21154Y585054D03*
D12*
X408846Y800000D03*
D13*
X408846Y765054D03*
X408846Y834946D03*
M02*
